<?xml version="1.0" encoding="UTF-8"?><svg id="Layer_1" xmlns="http://www.w3.org/2000/svg" viewBox="0 0 20 20"><defs><style>.cls-1{fill:#232323;}</style></defs><path class="cls-1" d="M17.57,6.03l-.97-.73c-.52-.39-1.23-.41-1.77-.05L4.94,11.85c-.26,.17-.54,.31-.84,.4l-.7,.21c-.46,.14-.81,.52-.9,1-.09,.48,.09,.96,.47,1.26,.76,.59,1.67,.91,2.62,.91,.17,0,.33,0,.5-.03l.57-.07c.3-.04,.6-.11,.89-.22,.06,.68,.58,1.21,1.22,1.21,.67,0,1.22-.6,1.22-1.34,0-.43-.19-.83-.5-1.08l4.95-3.44c.1,.63,.6,1.11,1.2,1.11,.67,0,1.22-.6,1.22-1.34,0-.44-.19-.84-.51-1.09l1.17-.81c.41-.28,.65-.73,.66-1.23,0-.5-.21-.96-.61-1.26Zm-7.95,9.14c0,.54-.39,.98-.86,.98s-.86-.44-.86-.98v-.02c.15-.08,.31-.17,.45-.27l.82-.57c.28,.17,.45,.5,.45,.86Zm6.88-4.75c0,.54-.39,.98-.86,.98s-.86-.44-.86-.98h0l1.25-.87c.29,.17,.47,.5,.47,.87Zm.81-2.2l-9.17,6.36c-.45,.31-.98,.51-1.53,.58l-.57,.07c-1.03,.12-2.04-.17-2.86-.8-.28-.22-.41-.56-.34-.9,.07-.35,.31-.62,.65-.72l.7-.21c.33-.1,.65-.25,.94-.44L15.03,5.55c.2-.13,.42-.2,.65-.2,.25,0,.5,.08,.7,.23l.97,.73c.3,.23,.48,.58,.47,.96,0,.38-.19,.72-.5,.94Z"/><path class="cls-1" d="M4.65,10.07h.09c.38-.05,.74-.19,1.05-.41l5.52-3.83c.27-.18,.42-.48,.43-.8,0-.32-.14-.62-.4-.81l-.58-.44c-.34-.25-.8-.27-1.15-.03L3.69,7.69c-.17,.11-.36,.2-.56,.26l-.63,.19c-.26,.08-.45,.29-.5,.55-.05,.26,.05,.53,.26,.7,.58,.45,1.28,.69,2,.69,.13,0,.25,0,.38-.02Zm-2.29-1.3c.03-.13,.12-.24,.25-.27l.63-.19c.23-.07,.45-.17,.66-.31l5.92-3.95h0c.11-.07,.23-.11,.35-.11,.13,0,.27,.04,.38,.13l.58,.44c.16,.12,.26,.31,.25,.52,0,.21-.1,.39-.27,.51l-5.52,3.83c-.26,.18-.57,.3-.89,.34h-.09c-.76,.1-1.51-.11-2.12-.59-.11-.08-.16-.21-.13-.35Z"/></svg>