<?xml version="1.0" encoding="UTF-8"?><svg id="Layer_1" xmlns="http://www.w3.org/2000/svg" viewBox="0 0 20 20"><defs><style>.cls-1{fill:#232323;}</style></defs><path class="cls-1" d="M14.45,18.49H5.55c-.15,0-.28-.12-.28-.28V8.5l-.71,1.17c-.08,.13-.24,.17-.37,.1l-2.91-1.6c-.13-.07-.18-.22-.12-.35,.04-.09,.95-2.16,1.51-3.04,.54-.85,1.1-1.73,2.27-2.18,.02,0,.04-.01,.06-.02l2.19-.35c.13-.02,.26,.06,.31,.18,.03,.08,.67,1.87,2.52,1.87s2.51-1.85,2.52-1.87c.04-.13,.17-.21,.31-.18l2.19,.35s.04,0,.06,.02c1.07,.41,1.61,1.28,2.13,2.11,.04,.07,.09,.14,.13,.21,.55,.87,1.47,2.81,1.5,2.89,.06,.13,.01,.29-.12,.36l-2.91,1.6c-.13,.07-.29,.03-.37-.1l-.71-1.17v9.72c0,.15-.12,.28-.28,.28Zm-8.63-.55H14.18V7.51c0-.12,.08-.23,.2-.27,.12-.03,.25,.02,.31,.12l1.09,1.79,2.45-1.34c-.26-.55-.93-1.93-1.36-2.59-.05-.07-.09-.14-.14-.21-.49-.78-.96-1.53-1.84-1.88l-1.95-.31c-.26,.56-1.12,2.02-2.95,2.02s-2.69-1.46-2.95-2.02l-1.95,.31c-.98,.39-1.46,1.15-1.97,1.95-.43,.67-1.11,2.16-1.36,2.73l2.45,1.35,1.09-1.79c.06-.11,.19-.16,.31-.12,.12,.03,.2,.14,.2,.27v10.43Z"/><path class="cls-1" d="M10,4.84c-2.25,0-3.04-2.22-3.04-2.24-.03-.1,0-.21,.06-.28,.07-.07,.18-.1,.28-.07,.9,.28,1.8,.43,2.7,.43s1.8-.14,2.7-.43c.1-.03,.21,0,.28,.07,.07,.07,.1,.18,.06,.28,0,.02-.79,2.24-3.04,2.24Zm-2.26-1.9c.34,.55,1.03,1.34,2.26,1.34s1.92-.79,2.26-1.34c-.75,.19-1.51,.28-2.26,.28s-1.51-.1-2.26-.28Z"/></svg>