<?xml version="1.0" encoding="UTF-8"?><svg xmlns="http://www.w3.org/2000/svg" viewBox="0 0 900 900"><defs><style>.cls-1,.cls-2,.cls-3,.cls-4{fill:none;}.cls-2,.cls-3{stroke-miterlimit:10;}.cls-2,.cls-3,.cls-4{stroke:#000;}.cls-2,.cls-4{stroke-width:3px;}.cls-5,.cls-6{fill:#fff;}.cls-7{fill:#fff0a4;}.cls-8{fill:#ffdb2c;}.cls-9{fill:#bf4094;}.cls-10{fill:#1c5143;}.cls-11{fill:#7adb75;}.cls-6{opacity:.15;}.cls-4{stroke-linecap:round;stroke-linejoin:round;}</style></defs><g id="Layer_2"><g id="tan"><path class="cls-7" d="M475.84,549.31s-8.26-3.54-10.92-8.26-5.02-21.54-5.02-21.54c0,0,4.72-.3,6.2-5.02s2.66-5.31,1.77-13.28c-.89-7.97-7.08-20.66-6.2-25.38s5.31-9.44,8.56-9.74,7.97,4.13,7.97,4.13c0,0,2.07,.89,3.84-3.54,1.77-4.43-2.07-11.21-2.36-12.39s3.54-5.9,2.07-7.97-7.08-16.52-7.08-16.52l-9.74-24.49,3.25-7.38,7.08-.89,6.49,6.2,24.49-5.02,4.43,2.36,2.07,5.9-24.49,11.8,.3,5.31,1.77,10.03,7.38,14.66-.89,17.51-9.74,20.95-1.48,11.8s-4.13,21.84-3.84,28.62,12.1,17.11,12.1,17.11l-18,5.02Z"/></g><g id="Green"><path class="cls-11" d="M482.77,358.25s14.75-8.41,22.43-6.64c7.67,1.77,11.66,2.36,12.98,1.33s.74-3.25-1.33-6.05-8.7-20.95-13.13-24.79c-4.43-3.84-18.74-15.2-24.49-18.3-5.75-3.1-8.56-5.31-14.75-4.72s-10.62,2.51-11.07,3.98-2.07,9.74,1.77,12.84c3.84,3.1,10.18,8.41,12.39,11.51s4.57,15.05,6.34,18.89c1.77,3.84,5.31,10.77,8.85,11.95Z"/><path class="cls-11" d="M514.59,377.67c4.33-6.1,5.11-6.89,3.15-8.07-1.97-1.18-6.1-2.36-11.8-1.77-5.7,.59-11.21,0-13.97-.59-2.75-.59-5.31-2.36-4.92-4.52,.39-2.16-1.97,0-1.97,0l-6.69-2.36-5.9-7.08,.39-3.93-6.69,11.02-2.36,2.75-3.93-5.11s-4.33-3.54-4.72-7.08c-.39-3.54-5.11-12.2-5.11-12.2l-5.9,1.97-9.44,29.11-18.89-23.61-10.62,4.72,3.93,43.67-30.69-12.59-7.08,23.61,25.08,24.69-27.15,9.44,.49,17.41,22.82,11.41-15.74,20.46,5.51,14.95,24.79-4.33-9.54,28.33,12.69,16.13,19.67-9.44-2.95,20.66,13.18,5.7,14.75-9.05,10.23,14.95,10.82-.39,4.33-12,11.61,5.9,6.89-3.93-.79-10.03s.39-1.97,1.18-1.77c.79,.2,7.87,1.38,7.87,1.38,0,0,5.11-4.72,5.9-8.46,.79-3.74-.59-7.28-.59-7.28l-4.33-2.16-1.57-1.77-.59-1.38,7.38-14.56s-4.62-8.66-15.05-9.84c-10.43-1.18-14.95-1.18-18.69,1.18s-7.87,15.54-8.66,19.08c-.79,3.54,.39,14.75,4.33,16.92,3.93,2.16,14.75,1.38,19.67-4.33,4.92-5.7,1.13-13.86-2.41-13.27-3.54,.59-4.67,8.94-7.82,7.17s-6.1-6.3-4.33-9.64c1.77-3.34,7.28-7.48,11.21-7.28,3.93,.2,7.28,1.77,8.46,4.52s3.34,8.85,2.56,12c-.79,3.15-2.16,10.82-9.05,14.36-6.89,3.54-21.44,16.92-49.97-1.57,0,0-19.67-17.7-26.16-35.02-6.49-17.31-9.84-32.46-9.84-32.46l-7.83-2.61c-1.43-.48-2.58-1.67-2.77-3.16-.02-.16-.03-.33-.03-.49h0c-.01-2.09,1.5-4.57,3.36-5.53,3.61-1.87,5.45-3.84,21.35-17.42,2.48-2.11,27.44-11.7,30.98-11.11,3.54,.59,15.78,5.67,17.9,7.48,1.15,.98,6,3.16,11.1,7.33,1.93,1.58,2.67,.96,3.65,.96s5.53-1.33,9.25,1.55c2.05,1.58,4.52,.39,2.56-2.75-1.97-3.15-4.13-4.52-4.13-4.52,0,0,2.15-.54,1.84-4.97-.27-3.91-4.49-3.71-4.76-3.58-2.86,1.43-6.82,1.99-11.45,1.86,0,0-1.08-.34-2.82-.89-.78-2.34-2.29-8.96-1.55-11.41,.89-2.95,3.39-4.13,6.64-4.43,3.25-.3,7.38,6.34,7.38,6.34,0,0-.29-2.66-.44-5.75-.15-3.1-1.03-8.41-7.67-11.36-6.64-2.95-19.03-1.33-21.98-1.18-2.95,.15-17.28,.05-15.93-1.03,4.94-3.98,6.42-5.41,7.82-11.95,1.12-5.26,2.18-9.68,2.24-12.77,0-.26,.22-.45,.47-.43,1.68,.12,2.22,.17,3.84,.37,8.66,1.08,18.87-5.91,22.61-10.64l-7.28,9.64s2.16,.98,6.1,.2c3.93-.79,9.25-3.93,9.25-3.93,0,0-1.77,5.11-3.54,5.7,0,0,6.69-1.77,8.46-3.93,0,0-1.38,4.92-2.36,5.31-.98,.39,8.66-1.18,9.44-3.54,0,0-.79,4.13-1.77,4.72,0,0,5.91-1.81,7.97-4.98-.4,.81-.89,1.99-.89,2.82,0,1.38,5.7,1.57,10.03-4.52Zm-61.18,36.93c4.28,1.03,9.15,3.39,10.62,5.75,1.16,1.86-.41,7.72-1.14,10.14-4.67-1.38-9.36-2.72-12.43-3.45-8.26-1.97-11.61-3.34-17.7-3.15s-11.21-27.15-11.21-27.15c0,0,8.66-15.54,10.62-16.72,.2-.12,.55-.18,1.03-.19-.37,2.78,3.99,5.92,3.99,5.92,0,0-1.33,3.02-2.21,5.39-.89,2.36-.29,9.89,1.18,14.31,1.48,4.43,12.98,8.11,17.26,9.15Z"/></g><g id="blue"><path class="cls-10" d="M497.67,448.29s6.89-13.18,8.46-15.34c1.57-2.16,11.57-8.06,19.56-7.28s0,0,0,0l4.4-2.62s-3.31,19.73-3.5,23.08-6.1,16.72-10.62,19.08-15.74,4.52-18.3,4.13-.98-12.59-.79-15.74,.79-5.31,.79-5.31Z"/><path class="cls-10" d="M490.44,480.26c.89-.3,34.38-6.64,34.38-6.64,0,0-1.33,6.2-3.98,7.97s-11.07,5.75-11.07,5.75c0,0-5.61,1.03-7.38-.15-1.77-1.18-5.02-5.61-6.05-4.43s-.89,3.84-.89,3.84c0,0-3.98-2.36-5.75-1.62s.74-4.72,.74-4.72Z"/><path class="cls-10" d="M434.12,476.94l16.05,8.04,7.38,7.08,3.25,9.89,.74,7.82-1.62,9.74s-15.79-2.21-16.23-3.25c-.44-1.03-12.54-13.72-12.54-13.72l-3.39-14.02,1.63-13.13,4.75,1.55"/></g><g id="red"><path class="cls-9" d="M501.07,354.51c.15,0,12.89,2.61,14.7,4.52,1.82,1.92,2.41,5.02,1.87,5.95s-9.05,2.61-11.11,2.02-15.59-5.95-15.93-7.08c-.34-1.13,10.48-5.41,10.48-5.41Z"/><path class="cls-9" d="M530.09,423.06c-.69,.2-1.38,.42-2.06,.65-.56,.19-1.28,.35-1.77,.7-.43,.3-.51,.79-.58,1.27-.1,.71-.2,1.42-.31,2.13-.45,2.81-1.03,5.59-1.74,8.35-.28,.31-.19,1.03,.3,.76,1.2-.67,2.37-1.39,3.49-2.19,.95-.68,1.79-1.31,2.03-2.51,.27-1.35,.33-2.77,.49-4.13,.17-1.52,.35-3.03,.52-4.55,.03-.24-.06-.56-.37-.47Z"/><path class="cls-9" d="M434.12,476.94c-.18-.22-.4-.12-.53,.09-.6-.78-1.65-1.26-2.47-1.78-.7-.44-1.15-.48-1.74,.14-1.08,1.15-1.65,2.78-1.44,4.35,.2,1.49,1.02,2.9,2.26,3.76,1.46,1.01,3.44,1.22,4.65,2.59,.37,.42,.49,.87,.7,1.37,.12,.29,.3,.61,.6,.74,.54,.22,1.04-.14,1.19-.64,.08-.09,.14-.21,.14-.36,.16-3.7-1.01-7.39-3.36-10.27Z"/><circle class="cls-5" cx="680.33" cy="292.59" r="3.34"/></g><g id="yellow"><polygon class="cls-8" points="449.57 340.1 454.74 339.95 464.33 355.44 469.79 341.87 475.39 350.72 463.29 365.18 449.57 340.1"/><path class="cls-8" d="M455.62,302.48s-.89,5.61,4.13,11.07c5.02,5.46,10.03,10.03,10.03,10.03,0,0,1.03-3.1-1.77-8.7-2.8-5.61,0-4.87,1.33-3.39,1.33,1.48,3.98,2.95,4.87,7.52,.89,4.57,.15,14.31,.44,16.82s4.57,17.11,8.56,16.67,9.44-3.39,14.75-2.51l5.31,.89s-12.69,6.2-16.67,6.93-5.46,3.39-7.82-1.77c-2.36-5.16-9.15-30.54-15.64-34.23-4.25-2.41-10.77-6.79-7.52-19.33Z"/><polygon class="cls-8" points="447.21 339.9 441.61 339.9 432.46 357.8 422.43 344.23 416.33 346.69 433.34 369.61 447.21 339.9"/><polygon class="cls-8" points="405.61 351.41 409.34 393.02 407.77 394.69 378.07 381.8 381.11 376.59 399.61 383.97 401.38 382.2 398.92 355.54 405.61 351.41"/><polygon class="cls-8" points="370.79 405.8 397.25 428.03 397.54 430.98 367.74 442.29 369.11 434.43 382.89 430 383.48 426.56 369.11 413.08 370.79 405.8"/><polygon class="cls-8" points="370.1 457.84 392.43 468.26 393.21 470.62 376.69 488.52 375.31 479.67 381.7 473.57 381.41 470.92 370.2 466 370.1 457.84"/><polygon class="cls-8" points="382.69 502.59 407.48 499.84 407.87 500.72 397.74 529.25 393.7 521.38 400 507.41 399.11 506.03 384.66 508.79 382.69 502.59"/><polygon class="cls-8" points="409.54 543.11 430.2 534.07 431.57 536.03 427.44 556.29 423.11 551.97 423.7 543.7 422.33 543.11 414.46 548.03 409.54 543.11"/><polygon class="cls-8" points="440.23 561.02 454 551.38 456.95 552.56 466.79 567.51 457.34 565.93 454.39 560.03 450.66 560.62 447.7 563.38 445.54 564.36 440.23 561.02"/><path class="cls-8" d="M474.85,565.34l5.51-10.82h1.38l11.02,5.9-4.33,2.16-3.74-2.16-2.36,.39s-1.57,1.18-1.57,1.77-.59,2.36-.59,2.36l-.79,1.77-4.52-1.38Z"/><polygon class="cls-8" points="497.28 555.51 498.07 545.87 499.64 544.49 507.51 546.07 497.28 555.51"/><polygon class="cls-8" points="506.92 526.98 512.82 509.67 516.36 515.97 512.23 520.69 511.84 524.43 514 526.79 516.16 528.75 517.74 533.28 515.97 534.66 506.92 526.98"/><circle class="cls-8" cx="410.48" cy="408.7" r="8.7"/><path class="cls-8" d="M430.98,380.52s-5.31,2.36-10.33,7.97c-5.02,5.61-7.67,12.69-7.67,14.16s-8.56,9.44-8.85,12.39,1.18,10.92,3.25,13.28,.74,6.83,.74,6.83c0,0,17.2-10.2,23.4-10.34,4.97-.11,5.97-4.49,6.01-5.08,.12-1.89-7.55-1.37-9.7-7.66-2.66-7.78-7.76-17.1,3.16-31.56Z"/><path class="cls-8" d="M421.54,513.9s-5.9-12.98-12.69-17.41-12.39-6.49-12.98-12.98c-.59-6.49-.45-12.98,2.68-13.18,1.11-.07,3.11-.22,4.82-.3,1.93-.09,3.57-.04,4.66,1.28,1.68,2.04,3.68,15.02,4.66,17.51,.59,1.48,8.85,25.08,8.85,25.08Z"/></g><g id="white"><circle class="cls-5" cx="496.29" cy="339.31" r="3.34"/><circle class="cls-6" cx="496.27" cy="339.36" r="6.29"/></g><g id="Black_Layer"><path d="M510.07,540.75c-1.48,2.95-3.84,3.54-7.08,8.26-1.33,1.94-3.11,3.97-4.75,5.7-2.35,2.48-4.4,4.33-4.4,4.33,0,0-19.18,8.36-15.05,8.07,4.13-.3,16.33-4.03,20.16-8.16,0,0-6.89,17.21-49.38,13.38s-77.9-74.66-79.67-80.85c-1.77-6.2-8.56-55.18-4.72-82.03,3.84-26.85,11.51-53.11,39.54-64.62,28.03-11.51,51.93-6.79,64.33-5.9l1.33-.34s-7.23-15.59-11.36-15.3c-4.13,.3-2.25,9.33-9.74,9.44-6.3,.1-2.95-11.51-6.79-12.39s-4.72,10.03-7.67,10.92-6.49-1.48-9.15-4.43c-2.66-2.95-3.25-.59-3.84,.3-.59,.89-1.77,7.67-4.72,8.26-2.95,.59-8.56-4.13-11.51-5.31-2.95-1.18-3.84,11.8-5.61,13.28s-5.31-2.07-8.85-2.07-1.48,5.9-2.66,7.38c-1.18,1.48-1.77,5.02-3.25,4.43-1.48-.59-7.08-3.84-8.85-3.25-1.77,.59,2.07,8.56,.29,11.51-1.77,2.95-6.79-.3-7.67,1.77-.89,2.07,3.25,6.2,.89,10.03-2.36,3.84-5.31,5.61-7.08,7.38-1.77,1.77,3.25,5.31,2.36,7.67s-4.13,1.48-5.02,2.95,2.07,2.36,3.25,3.84c1.18,1.48,2.36,3.25-1.77,4.72-4.13,1.48-1.18,5.9-.3,6.79,.89,.89-3.05,4.72-4.52,6.2-1.48,1.48,5.11,4.72,3.34,6.79s-5.9,2.36-6.2,5.61c-.3,3.25,3.84,3.25,4.72,6.49s-1.48,7.97-3.84,10.33c-2.36,2.36-.59,5.61,1.18,6.49,1.77,.89,3.84,3.54,3.25,6.79-.59,3.25-5.9,5.9-5.31,6.79,.59,.89,6.2,7.08,6.79,9.44,.59,2.36-4.13,8.85-1.48,11.21s6.79,4.43,7.38,7.67c.59,3.25-4.13,10.33-3.25,11.51,.89,1.18,4.72,1.18,6.2,4.13,1.48,2.95,2.66,3.25,2.66,7.38s-1.77,6.79-.89,7.38c.89,.59,7.08,1.48,9.15,5.61,2.07,4.13,.59,12.98,1.77,13.57,1.18,.59,9.74-1.48,10.62,.3,.44,.89,2.1,2.84,2.36,5.31s-.89,5.46-.3,6.2c1.18,1.48,9.44-.3,10.62,1.77,0,0,2.07,3.84,2.95,7.97s-1.48,6.2-.3,7.38c1.18,1.18,9.44-2.66,12.39,.3,2.95,2.95,4.72,12.1,5.9,12.39s4.43-5.02,12.39-5.02c5.49,0,8.31,5.46,9.54,8.86,.32,.88,1.48,1.07,2.06,.34,1.05-1.31,2.86-2.7,5.8-2.7,5.61,0,7.67,5.61,10.03,5.61s.59-2.95,5.02-5.31,5.9-3.54,9.44-1.48c4.51,2.63,6.15,8.62,6.13-2.81,0-2.3,1.67-4.29,3.95-4.61,3.72-.52,7.36-.33,8.51-3.2,1.18-2.95-.89-7.97,3.84-8.56,4.72-.59,7.38-.89,7.38-5.31s2.95-8.26,2.95-8.26c0,0-2.07-11.21-3.54-8.26Z"/><path class="cls-2" d="M470.52,339.8s-49.97-9.74-81.84,24.1c-12,12.74-17.36,33.15-19.59,52.18-3.99,34.11,2.27,68.78,19.14,98.69,8.63,15.31,20.57,30.5,36.65,39.95,25.24,14.82,62.16,21.25,83.8-7.08"/><path d="M422.62,344.23c2.43,3.19,7.06,9.45,9.47,12.55,.17,.13,.46,.06,.54-.12l.41-.98,7.21-17.39,2.72,1.26-8.56,16.75-.27,.52c-.29,.81-1.1,1.52-2.03,1.33-1.01-.14-1.4-1.28-1.92-2-1.61-2.53-5.9-9.3-7.56-11.92h0Z"/><path d="M416.03,346.2c3.2,4.16,11.29,14.69,14.38,18.7l2.4,3.12c.49,.68,.55,.69,.8,.62,.13-.04,.18-.19,.22-.3l.37-.91,11.92-29.11,2.75,1.2-13.3,28.51c-.22,.4-.47,1.2-.82,1.51-.2,.2-.44,.35-.7,.43-.52,.17-1.12,.08-1.56-.26-.48-.42-.53-.65-.75-.92l-2.25-3.23c-2.87-4.12-10.52-15.12-13.47-19.37h0Z"/><path d="M454.04,338.01c2.8,4.44,7.52,11.94,10.28,16.3,.05,.08,.14,.23,.16,.24,0-.06-.06-.08-.12-.03-.17,.48,4.5-14.73,4.46-14.62l2.83,.99c-.04,.09-5.65,14.32-5.68,14.41-.51,1.11-2.22,1.24-2.86,.17-.35-.63-1.37-2.61-1.73-3.28-1.58-3-5.79-11.03-7.42-14.14l.09-.05h0Z"/><path d="M470.92,340.39c-.75-4.32-1.77-8.7-3.96-12.5-2.53-3.63-6.41-5.69-9.93-8.45-4.85-3.2-6.25-9.87-5.15-15.34,.85-4.53,6.1-6.37,10.09-6.75,14.1-1.85,23.82,8.85,34.45,15.86,8.33,5.6,13.17,15,16.99,23.97,1.86,4.04,4.08,7.88,6.02,11.92,1.47,2.64,2.63,7.31-.92,8.79-.62-.11-.79-.24-.89-.46-.83-1.52-2.27-2.57-3.83-3.28-8.54-3.46-18.87,1.44-26.72,5.05-1.56,.73-3.73,1.59-5.73,1.22-1.22-.26-1.77-.76-2.33-1.17-2.74-2.38-4.49-5.21-6.34-8.2-.01,0,3.64,.18,3.64,.18l-10.7,14.62c-1.14,1.57-3.75,1.49-4.8-.16-3.66-7.11-9.5-18.86-13.17-26.09l2.66-1.39c2.44,4.53,8.63,16.05,10.98,20.42,.55,1.01,2.12,3.95,2.65,4.93-.33-.55-1.14-.46-1.44,.07,1.4-2.03,11.08-16.05,12.2-17.67,2.15,3.45,4.34,8.07,7.35,10.56,1.89,.3,4.71-1.31,6.58-1.94,8.52-3.31,21.22-7.1,28.74,.06,.61,.64,1.13,1.38,1.49,2.2,.13,.26,.16,.63-.33,1.04,.6-2.61,.66-4.61-.46-6.88-2.15-4.31-4.73-8.43-6.88-12.78-4.17-9.2-9.37-18.52-18.34-23.7-7.3-4.93-13.8-11.16-22.22-13.6-3.98-.81-8.44-1.05-12.28,.35-1.8,.77-3.17,1.57-3.6,3.49-.7,3.18-.36,6.95,1.12,9.84,2.35,3.51,6.52,5.61,9.51,8.8,4.57,4.29,5.32,11.05,5.53,16.97h0Z"/><path d="M467.2,310.41c5.13-.27,8.85,4.86,9.1,9.7,.45,3.38-.15,6.93-.77,10.21-.19,1.09-.46,2.06-.92,3.3-.95-.95-1.24-2.25-1.34-3.39-.63-7.17,2.43-16.34-6.07-19.81h0Z"/><path d="M495.11,325.05s-2.75-1.87-1.77-4.62,3.93-3.84,3.93-3.84l1.87,2.26s-1.18-.3-2.66,1.57c-1.48,1.87-1.57,2.85-1.38,4.62Z"/><path d="M480.75,338.82c-.29,4.76,2.18,9.41,6.44,11.5l-.34-.13,1,.13-.44,2.18c-.2-.05-1.05-.29-1.23-.34-4.29-2.88-6.51-8.31-5.44-13.34h0Z"/><path d="M485.33,336.75c-.29,4.76,2.18,9.41,6.44,11.5l-.34-.13,1,.13-.44,2.18c-.2-.05-1.05-.29-1.23-.34-4.29-2.88-6.51-8.31-5.44-13.34h0Z"/><path d="M506.72,335.57c1.07,5.04-1.15,10.47-5.44,13.34-.18,.05-1.03,.28-1.23,.34l-.44-2.18,1-.13-.34,.13c4.27-2.09,6.73-6.74,6.44-11.5h0Z"/><circle class="cls-1" cx="498.11" cy="337.49" r="10.48"/><circle class="cls-3" cx="496.29" cy="339.31" r="2.56"/><path d="M500.92,334.82c-.62-1.63-2.55-2.33-4.04-2.89-.96-.36-1.94-.58-2.97-.48-.52,.05-1.04,.17-1.55,.29-.52,.12-.97,.33-1.48,.5-.27,.09-.24,.4-.13,.6,.06,.11,.15,.22,.27,.27,.04,.02,.36,.03,.34,0l.11-.16c.74-.32,1.65-.47,2.43-.53,.97-.07,1.87,.17,2.77,.52,1.33,.52,3.05,1.12,3.6,2.57,.09,.24,.39,.14,.52,0,.18-.18,.23-.46,.14-.69Z"/><path d="M400.61,354.72l1.55,25.62,.05,.8c.29,2.51-2.59,4.38-4.73,3.11-3.7-1.73-13.61-6.37-17.44-8.15l11.92,4.75,5.96,2.37c.5,.21,.83,.27,1.26,.21,1.02-.15,1.76-1.15,1.58-2.16l-.1-.8-3.04-25.48,2.99-.27h0Z"/><path d="M378.07,381.8l17.76,7.7,8.88,3.85c.73,.28,1.54,.75,2.08,.79,1.07,.12,2.1-.81,2.06-1.89-.01-.32-.28-2.56-.32-2.93l-4.4-38.46,2.99-.28,2.91,38.6c.02,.13,.2,2.69,.2,2.71,.21,1.95-1.62,3.76-3.57,3.46-.88-.11-1.65-.66-2.41-.97l-8.72-4.19-17.44-8.38h0Z"/><path d="M371.74,405.03c4.38,3.73,15.42,13.15,19.64,16.75,1.08,.92,3.86,3.29,4.91,4.19,.54,.49,1.32,1.01,1.68,1.7,1.25,1.98,.07,4.77-2.14,5.3-.64,.23-2.4,.77-3.07,1-5.21,1.71-19.15,6.27-24.53,8.03,5.38-2.02,18.97-7.14,24.16-9.09l2.01-.76c.47-.21,1.42-.47,1.79-.78,1.16-.87,1.11-2.71-.07-3.5-3.46-2.71-9.21-7.18-12.72-9.92l-13.57-10.59,1.9-2.32h0Z"/><path d="M368.03,434.72l9.35-3.08c1.26-.46,3.38-1.04,4.57-1.55,1.33-.68,1.58-2.67,.43-3.6l-.46-.41c-3.75-3.36-9.95-8.9-13.76-12.31l2.08-2.16c3.16,3.31,8.83,9.19,11.93,12.44l.85,.89c1.13,.97,1.79,2.55,1.31,3.99-.29,.96-.99,1.79-1.9,2.18-.8,.33-1.68,.45-2.46,.67-1.56,.38-10.21,2.52-11.95,2.95h0Z"/><path d="M369.65,455.98c3.99,1.99,14.04,7,17.89,8.92,.98,.5,3.52,1.74,4.47,2.23,1.78,.79,2.26,3.35,.87,4.71-4.46,4.63-12.25,12.67-16.78,17.37,2.9-3.38,10.23-11.9,13.03-15.15l2.17-2.53,.54-.63c.64-.72,.38-1.94-.53-2.29-2.76-1.2-7.89-3.41-10.7-4.63l-12.23-5.29,1.26-2.72h0Z"/><path d="M373.34,481.54l4.71-4.76,2.35-2.38c1.14-.87,1.05-2.43-.29-2.87-2.79-1.19-7.95-3.37-10.78-4.58l1.33-2.69c1.95,1.1,6.86,3.87,8.74,4.93,.32,.19,1.6,.89,1.88,1.08,1.11,.72,1.59,2.23,1.12,3.45-.2,.62-.78,1.17-1.25,1.52l-2.6,2.1-5.21,4.2h0Z"/><path d="M397.93,528.56l9.07-26.59,.27-.8c.11-.36-.24-.73-.57-.66l-3.47,.48c-4.43,.61-16.29,2.26-20.87,2.9l-.33-2.98c4.67-.4,16.49-1.4,21-1.78l3.51-.3c1.49-.16,2.73,1.43,2.2,2.81l-.34,.85-10.48,26.07h0Z"/><path d="M393.61,521.87c.98-2.52,3.44-8.87,4.38-11.3,.24-.63,.86-2.22,1.1-2.83,.04-.15,.26-.57,.23-.72,0-.28-.27-.55-.51-.53-3.39,.87-9.87,2.72-13.32,3.66l-.66-2.93c3.46-.61,10.03-1.8,13.42-2.39,1.69-.4,3.19,1.55,2.34,3.05-.4,.82-1.17,2.33-1.57,3.16-1.15,2.31-4.22,8.45-5.4,10.83h0Z"/><path d="M427.25,555.51c.65-3.77,2.3-13.31,2.93-16.95,.03-.17,.54-3.14,.55-3.18,.11-.58-.54-1.08-1.06-.79l-.64,.32c-5.26,2.61-13.93,6.92-19.26,9.57l-1.25-2.73c5.53-2.31,14.39-6.02,19.84-8.29l.66-.28c1.36-.64,3.09,.45,3.06,1.95,0,.6-.69,3.02-.81,3.65-.86,3.56-3.15,13.05-4.03,16.72h0Z"/><path d="M423.11,553.93c.08-1.84,.26-6.48,.34-8.26l.06-1.38c.02-.55-.61-.94-1.04-.64-1.83,1.34-5.54,4.07-7.4,5.44l-1.61-2.53c1.62-.88,5.7-3.1,7.26-3.94l.61-.33c1.56-1.07,3.83,.27,3.49,2.15l-.24,1.36c-.31,1.73-1.14,6.35-1.46,8.14h0Z"/><path d="M438.19,560.38c3.26-2.08,9.93-6.39,13.12-8.42,2.45-1.95,5.7-1.23,7.02,1.62l.62,1.03,2.48,4.11,4.96,8.21-5.59-7.8c-.53-.74-3.03-4.22-3.49-4.87-.82-1.5-2.55-2.41-4.1-1.47-.44,.28-1.36,1.02-1.84,1.37-2.44,1.85-8.95,6.79-11.47,8.7l-1.72-2.46h0Z"/><path d="M444.54,562.77c1.36-.65,4.77-2.29,6.08-2.92l1.01-.49c1.19-.79,3.12-.56,3.88,.76,.7,1.46,1.82,4.87,2.43,6.4l-2.24-3.9c-.62-.95-1.09-2.65-2.49-2.23-.37,.1-1.24,.83-1.63,1.08-1.17,.83-4.3,3.04-5.52,3.89l-1.52-2.59h0Z"/><path d="M473.45,566.18c.95-2.12,3.35-7.46,4.27-9.51l.36-.79c.61-2.02,2.99-3.2,4.85-1.96,.75,.51,3.15,2.19,3.93,2.73l5.7,3.97c-2.65-1.44-7.68-4.21-10.28-5.61-.82-.44-1.95-.06-2.3,.79-.13,.38-.39,1.16-.51,1.55-.69,2.11-2.51,7.73-3.22,9.91l-2.8-1.08h0Z"/><path d="M478.19,564.97l1.63-2.97,.41-.74c.5-1.03,1.62-1.79,2.74-1.84,1.4-.15,2.39,.89,3.32,1.72l2.54,2.23-2.97-1.61c-.85-.41-1.71-1.18-2.67-.85-.92,.24-1.07,1.18-1.28,1.95l-.93,3.25-2.77-1.14h0Z"/><path d="M495.98,557.28c.12-1.89,.42-6.65,.54-8.48,.07-.61,.05-1.65,.2-2.27,.33-1.49,1.79-2.63,3.26-2.59,.88,.01,2.03,.5,2.89,.7l5.44,1.55-.03,.13-5.6-.85c-.71-.07-1.97-.39-2.65-.32-.9,.11-1.61,.84-1.69,1.69-.04,.32,.09,1.59,.1,1.96,.11,1.8,.42,6.61,.54,8.48h-3Z"/><path class="cls-2" d="M500.94,553.33l.12-2.16c.09-1.57,.89-2.73,1.81-2.64h0c.86,.09,1.54,1.25,1.6,2.71l.09,2.32c.09,2.2-1.23,3.77-2.41,2.86l-.21-.16c-.67-.51-1.07-1.69-1-2.94Z"/><path d="M512.62,533.82l-4.92-4.77-.61-.6c-1.4-1.24-1.7-3.41-.77-5.01,.09-.16,6.15-13.25,6.5-13.97-.48,1.42-4.71,13.95-5.07,15-.3,.86,0,1.83,.75,2.35l.68,.52,5.41,4.2-1.97,2.27h0Z"/><path d="M513.4,528.3l-1.13-1.24c-1.26-1.07-2.05-3.31-1.18-4.94,.11-.25,3.63-6.11,3.89-6.55l-2.08,6.38c-.2,.59-.3,.94-.26,1.33,.13,.95,.49,1.22,1.36,1.8l1.37,.96-1.98,2.25h0Z"/><path d="M477.03,548.82c-6.84,0-12.02-5.73-14.54-11.62-2.26-5.3-3.21-11.14-3.7-16.86-.09-.72,.43-1.22,1.02-1.47,8.14-3.61,7.86-14.03,6.04-21.46-.59-2.82-1.35-5.6-2.25-8.36-1.23-4.4-3.61-8.39-3.67-13.23,.59-4.74,5.27-9.32,9.89-10.42,3.59-.82,7.32,1.48,8.93,4.68l-1.15-.85c2.7,.07,3.47-3.12,3.5-5.39,.28-7.23-5.88-12.76-12-15.8-3.67-1.8-7.6-3.7-11.63-4.28-3.99-.49-8.2,.4-11.99,1.75-3.23,1.01-6.01,3.18-9.73,3.24l-.58-.07-.35-.06c-1.48-.24-2.56,.35-3.55,1.59-4.29,6.25-8.47,13.57-15.79,16.89-2.1,.77-4.09,1.44-6.14,2.17-.77,.38-1.75,.06-2.03-.78-.15-.42-.08-.88,.15-1.23,.79-1.24,1.5-2.69,1.99-4.11,.44-1.43,.88-3.08-.02-4.44,1.97,1.74,1.53,4.86,1.29,7.22-.13,.85-.27,1.65-.51,2.53l-1.87-2.01c2.02-.72,4.12-1.43,6.09-2.15,5.48-2.55,9.26-8.17,12.63-13.13,1.42-2.53,3.74-5.77,7.2-5.59,.57-.01,1.13,.12,1.68,.18,.64,.05,1.58-.23,2.51-.59,3.89-1.65,8.21-3.6,12.53-4.18,4.43-.88,9.35-.13,13.46,1.64,6.22,2.55,12.52,5.65,16.52,11.29,2.77,3.84,3.95,8.97,2.57,13.61-.7,2.66-3.38,5.06-6.35,4.67-.53-.06-.94-.4-1.15-.85-1.03-1.91-3.32-3.55-5.6-3.02-3.17,.73-7.02,4.34-7.51,7.69,.15,4.03,2.4,8.09,3.53,12.1,1.6,4.99,2.89,10.15,3.38,15.38,.81,7.02-1.95,15.43-9.07,18.2l1.02-1.47,.13,4.43c.47,9.56,3.87,22.68,15.1,23.95,.06,0,.11,.05,.11,.11,0,.05-.05,.09-.1,.09h0Z"/><path d="M471.26,439.98c-12.79-7.59-25.37-6.97-38.74-1.38-6.27,2.62-12.61,5.65-17.58,10.37-5.22,4.51-10.25,9.52-16.42,12.7,6.73-3.93,11.99-9.91,17.61-15.24,7.38-6.22,16.16-10.78,25.42-13.54,10.1-3.05,22.64-1.29,29.71,7.09h0Z"/><path d="M398.52,470.33l5.49-.39c1.85-.3,3.85,.58,4.72,2.29,.45,.85,.52,1.79,.74,2.67l.62,2.68c2.18,8.89,4.83,17.68,8.13,26.21,2.68,6.76,5.65,13.52,10.21,19.23,13.81,17.69,32.26,32,55.46,22.82,7.2-2.78,14.5-8.03,16.6-15.74,1.12-5.58,.78-12.93-3.8-16.77-5.46-5.13-13.28,1.01-14.86,6.87-.63,2.29-.21,6.91,2.98,6.1,.94-.19,1.76-1.85,2.61-3.49,.93-1.86,2.44-4.05,4.84-4.32,4.41-.7,6.88,4.08,6.97,7.82,.17,2.69-1.25,5.29-2.85,7.21-4.13,5.22-16.14,9.13-21.88,4.97-7.59-5.98-5.28-19.74-2.29-27.6,1.83-4.82,5.47-9.78,10.72-11.49,.69-.32,.98-1.13,.81-1.84-.62-4.93,1.2-9.75,2.77-14.15,1.32-3.51,3.12-6.94,5.18-10.04,1.01-1.55,2-3.01,2.5-4.45,.58-1.62,.47-2.92,.19-4.68-.29-1.89-.32-3.95-.13-5.86,.19-2.96,1.15-5.54,1.46-8.48,.22-2.92-.65-5.7-2.66-7.92l-.05-.06c-.07-.08-.06-.19,0-.26,1.56-1.57,2.23-4.17,.96-6.06-2.02-2.55-10.03,.49-13.27,.51-2.45,.21-4.97-.2-7.39-.63-9.42-1.75-17.95-6.49-27.25-8.3-6.7-1.29-13.72-1.61-20.28,.32-10.69,4.68-19.31,12.85-29.04,19.61,2.92-3.83,6.23-7.31,9.75-10.59,5.38-4.9,11.16-9.63,18.12-12.31,7.13-2.17,14.95-1.82,22.13-.24,11.6,2.34,21.88,9.75,33.84,10.13,3.71,.17,11.88-2.68,14.27,.94,1.34,2.35,.37,5.26-1.58,6.9l-.04-.32c2.37,.5,4.31,2.48,5.08,4.78,1.48,4.35-.53,8.02-.86,12.28-.42,2.83,.28,5.21,.33,8.11-.02,3.08-1.94,6.03-3.47,8.29-2,3-3.64,6.1-4.92,9.45-1.26,3.33-2.43,6.79-2.71,10.15-.09,1-.03,1.9,.12,2.81,.13,1.19-.21,2.42-.96,3.36-.59,.77-1.45,1.29-2.37,1.58-4.19,1.57-6.82,5.38-8.51,9.56-2.93,7.04-5.82,25.23,5.54,25.41,3.39-.15,6.95-.91,9.88-2.56,4.24-2.28,7.75-7.07,5.25-11.8-.62-1.25-1.62-2.04-3.01-1.87-2.39,.55-2.86,3.56-4.26,5.41-1.26,2.15-4.16,3.27-6.49,1.92-3.05-1.88-3.35-5.94-2.57-8.95,2.11-7.63,12.08-14.46,18.92-8.02,5.3,4.62,5.74,12.61,4.38,19.06-2.35,8.48-10.21,14.12-18.05,17.06-24.12,9.22-43.08-5.37-57.05-23.94-4.54-5.86-7.45-12.76-10.05-19.63-2.55-6.9-4.66-13.94-6.45-21.06-.68-2.58-1.27-5.44-1.82-8.05-.25-1.79-.75-3.67-2.54-4.49-.81-.43-1.73-.5-2.64-.42l-5.49,.27h0Z"/><path class="cls-4" d="M461.97,477.31s12,6.39,15.34-5.9"/><path d="M437.53,419.73l-.9,4.8-3.87-.24s3.4,.55,4.78-4.56Z"/><path d="M410.5,465.3c3.13-3.8,6.11-8.48,5.73-13.66,1.56,5.3-.5,10.89-2.92,15.65-1.32,2.18-4.43-.03-2.81-2h0Z"/><path d="M416.25,460.87c3.13-3.8,6.11-8.48,5.73-13.66,1.56,5.3-.5,10.89-2.92,15.65-1.32,2.18-4.43-.03-2.81-2h0Z"/><path d="M421.12,456.44c3.13-3.8,6.11-8.48,5.73-13.66,1.56,5.3-.5,10.89-2.92,15.65-1.32,2.18-4.43-.03-2.81-2h0Z"/><path d="M426.14,451.87c3.13-3.8,6.11-8.48,5.73-13.66,1.56,5.3-.5,10.89-2.92,15.65-1.32,2.18-4.43-.03-2.81-2h0Z"/><path d="M438.75,438.36c-1.34,3.56-3.03,7.9-7.02,9.2l.6-.43c-4.74,8.49-11.44,15.87-20.05,20.6-.84,.45-1.88,.14-2.33-.7-.47-.87-.11-1.97,.79-2.38,4.09-1.9,7.87-4.57,11.24-7.71,3.37-3.16,6.47-6.81,8.9-10.73,.12-.2,.32-.31,.54-.33,3.56-.72,5.66-4.54,7.34-7.52h0Z"/><path d="M442,437.57c1.12,2.27,1.42,7.43-1.34,8.7-.58,.23-1.48,.49-1.7-.33-.11-.41,.14-.84,.55-.95,1.5,.11,2.21-1.51,2.49-2.84,.26-1.47,.5-3.15,0-4.58h0Z"/><path d="M446.03,436c1.12,2.27,1.42,7.43-1.34,8.7-.58,.23-1.48,.49-1.7-.33-.11-.41,.14-.84,.55-.95,1.5,.11,2.21-1.51,2.49-2.84,.26-1.47,.5-3.15,0-4.58h0Z"/><path d="M450.36,435.61c1.12,2.27,1.42,7.43-1.34,8.7-.58,.23-1.48,.49-1.7-.33-.11-.41,.14-.84,.55-.95,1.5,.11,2.21-1.51,2.49-2.84,.26-1.47,.5-3.15,0-4.58h0Z"/><path d="M454.49,434.52c1.12,2.27,1.42,7.43-1.34,8.7-.58,.23-1.48,.49-1.7-.33-.11-.41,.14-.84,.55-.95,1.5,.11,2.21-1.51,2.49-2.84,.26-1.47,.5-3.15,0-4.58h0Z"/><path d="M454,435.02c.76,.4,1.01,1.36,1.25,2.13,.8,2.69-.25,6.13-3.5,6.31-.42,.04-.8-.26-.84-.69-.05-.46,.33-.86,.79-.85,2.54,.27,3.45-2.6,3.17-4.71-.11-.76-.2-1.7-.87-2.2h0Z"/><path d="M458.62,435.31c.76,.4,1.01,1.36,1.25,2.13,.8,2.69-.25,6.13-3.5,6.31-.42,.04-.8-.26-.84-.69-.05-.46,.33-.86,.79-.85,2.54,.27,3.45-2.6,3.17-4.71-.11-.76-.2-1.7-.87-2.2h0Z"/><path d="M463.74,436.98c1.89,1.18,2,5.03,.19,6.43-.71,.56-3.05,1.62-3.31,.26-.07-.49,.36-.91,.84-.87,.63,.02,1.27-.03,1.79-.32,1.63-.9,1.92-4.29,.48-5.5h0Z"/><path d="M467.77,438.66c1.89,1.18,2,5.03,.19,6.43-.71,.56-3.05,1.62-3.31,.26-.07-.49,.36-.91,.84-.87,.63,.02,1.27-.03,1.79-.32,1.63-.9,1.92-4.29,.48-5.5h0Z"/><path d="M471.51,440.23c1.89,1.18,2,5.03,.19,6.43-.71,.56-3.05,1.62-3.31,.26-.07-.49,.36-.91,.84-.87,.63,.02,1.27-.03,1.79-.32,1.63-.9,1.92-4.29,.48-5.5h0Z"/><path d="M475.74,442.69c1.89,1.18,2,5.03,.19,6.43-.71,.56-3.05,1.62-3.31,.26-.07-.49,.36-.91,.84-.87,.63,.02,1.27-.03,1.79-.32,1.63-.9,1.92-4.29,.48-5.5h0Z"/><path d="M480.26,445.93c1.89,1.18,2,5.03,.19,6.43-.71,.56-3.05,1.62-3.31,.26-.07-.49,.36-.91,.84-.87,.63,.02,1.27-.03,1.79-.32,1.63-.9,1.92-4.29,.48-5.5h0Z"/><path d="M489.8,433.49c-1.11-4.81-2.32-11.65-3.62-16.3-1.38-7.17-7.84-9.95-14.59-9.61-9.58-.29-19.87-.65-29.41-1.22-.52,0-.96-.42-.92-.95,.03-.41,.34-.74,.73-.81,5.14-2.25,7.25-9.03,8.65-14.06l.57-2.48-.35,2.52c-.98,5.43-2.45,11.5-7.06,15.04-.42,.27-.75,.51-1.37,.72l-.19-1.77c11.09-.03,22.67-.06,33.77,.42,6.16,.63,11.8,5.32,12.7,11.57,1.24,5.61,1.74,11.2,1.91,16.85,0,.47-.69,.58-.8,.09h0Z"/><path d="M462.93,405.49c-.68-5.09,3.78-8.58,8.17-10.06,5.07-1.78,9.53,2.85,11.85,6.73,.01,.02,.02,.04,.04,.05-.15-.25-.47-.48-.73-.53,.34,.02,.9-.06,1.4-.14,6.84-1.28,13.58-3.34,20.28-5.25,2.92-.23,6.17,1.05,8,3.43,1.37,1.66,2.05,3.9,1.99,6.02v1.82c0,.61-.37,1.14-.89,1.37l-23.97,10.57-.26,.11c-.63,.27-1.37-.02-1.64-.66-.18-.61-.51-1.35-.96-2.01-.82-1.25-1.96-2.32-3.32-3.01-.69-.38-1.46-.62-2.25-.82,3.04-.28,6.12,1.01,8.23,3.22,.33,.35,.61,.65,.94,1.14l-1.95-.71,23.98-10.57-.89,1.37v-1.82c.13-2.49-1.32-4.93-3.62-5.91-.91-.43-1.78-.49-3.09-.61l.57-.06c-5.84,1.7-11.67,3.37-17.61,4.74-1.8,.34-3.5,.88-5.41,.74-.51-.07-1.05-.38-1.32-.83-1.93-2.9-4.62-6.7-8.48-5.52-2.54,.98-5.8,2.7-6.06,5.74-.04,.39-.02,.73,.01,1.28l-3,.17h0Z"/><path d="M414.38,402.14c-2.35-1.91-5.11-.26-7.26,1.12-1.14,.74-2.14,1.64-2.73,2.89-.6,1.26-.89,2.8-.81,4.19,.09,1.46,.53,3.29,2.01,3.61,5.62,1.2,7.63-2,8.92-4.53,.66-1.3,1.44-2.76,1.4-4.26-.03-1.17-.62-2.29-1.52-3.03Z"/><path d="M413.11,422.68c-.15-.93-.48-1.75-1.31-2.24-.93-.56-1.94-.98-3.04-.81-.99,.16-2.01,.6-2.88,1.09-1.73,.97-2.42,3.48-1.85,5.32,.28,.9,.88,1.69,1.73,2.11,.45,.22,3.1,.67,3.32,.63,1.7-.3,3.15-1.58,3.78-3.18,.37-.93,.41-1.94,.26-2.92Z"/><circle cx="416.67" cy="413.38" r="2.36"/><circle cx="417.9" cy="419.77" r="2.91"/><path d="M416.04,431s.53-5.47,1.96-6.21,2.8-1.23,3.89-.39c1.5,1.16,.79,3.44-.3,3.74s-5.55,2.87-5.55,2.87Z"/><path d="M513.9,507.41s-2.07-9.59-3.54-10.33-4.43,4.13-4.43,4.13c0,0-.44-6.79-2.51-8.26-2.07-1.48-4.87,5.31-4.87,5.31l-3.39,.15s.15-6.2-3.39-6.34-1.03,7.52-1.03,7.52c0,0,19.03-5.02,23.16,7.82Z"/><path d="M492.8,495.61s4.43-1.48,6.93-.44,10.62,5.9,13.28,9.74c2.66,3.84-11.07-6.64-14.46-6.64s-5.61,.44-5.61,.44l-.15-3.1Z"/><line class="cls-4" x1="491.08" y1="542.45" x2="487.45" y2="538.06"/><path class="cls-4" d="M486.66,487.44s2.95-3.74,6.3-2.36c3.34,1.38,4.13,3.54,4.13,3.54,0,0,.59-4.72-2.36-5.51,0,0,.59-2.95,4.33,.39s4.33,4.33,8.85,3.93,14.16-6.3,16.92-10.82c2.75-4.52,1.77-4.72,1.77-4.72,0,0-8.26,4.33-19.08,4.72s-19.48,3.74-20.85,10.82Z"/><path d="M436.3,487.64l23.9,31.85-.63,.1c2.45-9.58,1.63-20.89-4.24-29.09-4.73-5.98-12.23-8.91-19.23-11.56-2.5-1.07-5.22-1.67-7.21-3.72l1.61-.35c-1.78,9.08-3.49,22.35,3.3,29.59,6.56,7.84,15.49,14.47,26.08,13.94,1.96-.02,2.08,2.89,.09,3-11.48,.38-21.19-6.85-28.01-15.37-3.83-4.09-5.01-10.11-5.09-15.53-.09-5.45,.61-10.79,1.85-16.08,.12-.49,.6-.79,1.09-.68,.21,.05,.39,.17,.52,.34,.25,.33,.74,.67,1.24,.97,11.08,5.24,24.32,8.31,28.28,21.7,2.44,7.42,2.55,15.55,.4,23.06-.06,.19-.25,.3-.44,.24-.24,.04-23.34-32.32-23.51-32.42h0Z"/><path d="M496.5,466.16c3.58-5.9,8.46-10.64,13.11-15.62,4.67-4.81,9.45-9.5,14.32-14.09-4.51,4.94-8.92,9.97-13.2,15.09-4.08,5.07-8.55,10.15-11.53,15.93-.85,1.93-3.7,.55-2.7-1.31h0Z"/><path d="M510.36,440.43c.71,4.83-1.13,9.8-2.35,14.44l-1.25-.89c4.48-3.25,8.88-6.69,13.79-9.27-4.61,3.03-8.65,6.86-12.77,10.5-.62,.57-1.59-.15-1.25-.9,1.69-4.42,4.01-9.04,3.84-13.87h0Z"/><path d="M398.87,409.6c-.31-.45-.84-.59-1.36-.55-.51,.04-1,.19-1.48,.35-.5,.17-1,.37-1.44,.68-.44,.3-.8,.7-1.02,1.18-.28,.61-.26,1.28-.13,1.93,.11,.57,.26,1.21,.69,1.64,.2,.2,.44,.3,.72,.29,.23,0,1.06-.09,1.45-.51,.5-.54,.96-1.12,1.43-1.69,.42-.5,.87-.99,1.15-1.59,.25-.53,.36-1.22,0-1.73Z"/><path d="M394.77,401.35c-.44-.34-.92-.62-1.48-.7-.48-.07-1,.07-1.38,.38-.92,.76-.76,2.11-.31,3.08,.22,.48,.56,.93,1,1.22,.24,.16,.5,.27,.79,.32,.23,.04,1.45,.02,1.84-.19,.5-.26,.81-.77,.92-1.31,.22-1.16-.51-2.12-1.38-2.8Z"/><path d="M403.17,402.02c-.17-.97-1.03-1.8-2.04-1.81-.15,0-.27,.11-.35,.25-.08,.02-.17,.05-.26,.09-.22,.1-.41,.22-.59,.37-.37,.31-.67,.71-.83,1.17-.31,.89-.14,1.89,.47,2.61,.3,.36,.77,.66,1.25,.66,.51,0,.98-.31,1.35-.64,.74-.66,1.17-1.71,1-2.7Z"/><path d="M407.55,478.63c-.12-1.21-.28-2.42-1.35-3.17-1.01-.71-2.33-1.44-3.6-1.42-1.13,.02-2.19,.62-2.94,1.44-.87,.95-1.33,2.19-1.53,3.44-.21,1.33-.25,2.8,.03,4.12,.28,1.3,1.06,2.43,2.17,3.16,.39,.25,4.18,.45,5.05-.31,.96-.84,1.7-1.84,2.04-3.08,.37-1.36,.27-2.79,.13-4.18Z"/><path d="M402.76,492.37c.22-.81,0-1.72-.43-2.43-.36-.6-.96-1.13-1.7-1.09-.82,.04-1.47,.69-1.51,1.51-.04,.81,.55,1.5,1.19,1.92,.37,.24,.76,.42,1.19,.52,.22,.05,.45,.09,.67,.09,.26,0,.59,0,.6-.33,0-.05-.01-.1-.03-.16,0-.01,.01-.03,.01-.04Z"/><path d="M410.89,489.36c.03-.55-.03-1.12-.18-1.65-.14-.54-.33-1.09-.85-1.36-.24-.13-.51-.19-.75-.34-.27-.18-.51-.35-.84-.3-.52,.06-.98,.52-1.23,.95-.56,.95-.52,2.13-.16,3.14,.22,.61,.54,1.16,.95,1.65,.19,.23,.4,.45,.64,.64,.12,.1,.23,.19,.36,.27,.24,.17,.36,.21,.67,.24,.29,.02,.32-.24,.27-.46,.7-.75,1.06-1.75,1.11-2.78Z"/><path d="M415.23,506.47c-.46-1.03-1.25-2.29-2.56-2.16-1.35,.13-1.82,1.74-1.78,2.89,.04,1.19,.59,2.36,1.58,3.05,.54,.37,1.14,.61,1.79,.69,.16,.02,.33,.03,.5,.03,.22,0,.62,0,.79-.08,.27-.12,.25-.4,.1-.62,.42-1.28,.13-2.6-.41-3.8Z"/><path d="M417.17,517.81c-.06-.56-.13-1.19-.36-1.71-.22-.48-.72-.74-1.16-1-.47-.28-.99-.52-1.55-.53-1.1-.02-1.96,.9-1.85,2.01,.11,1.1,1.07,1.93,1.88,2.59,.44,.36,.94,.71,1.49,.86,.25,.07,.6,.13,.9,.1,.06,.12,.19,.2,.33,.15,.25-.08,.36-.37,.37-.6,.04-.62,.02-1.25-.05-1.87Z"/><path d="M423.03,515.72c-.73-2.17-1.6-4.26-2.62-6.25-.14-.28-.42-.16-.55,.05-.03,.04-.04,.09-.06,.14-.02-.03-.03-.07-.06-.09-.22-.21-.45,.06-.55,.28-.72,1.68-.69,3.84,.11,5.55,.42,.89,1.01,1.51,1.84,1.6,.38,.04,.75-.02,1.12-.1,.26-.06,.55-.08,.62-.33,.16-.21,.23-.57,.14-.85Z"/><path d="M435.36,498.46l15.1,6.84-1.07,.93-5.22-18,6.68,17.51c.27,.64-.49,1.28-1.07,.93l-14.41-8.21h0Z"/><path d="M475.2,353.17c1.31,2.79,3.61,7.55,6.98,7.72,.67,0,1.45-.26,2.11-.45,3.2-1.05,5.8-3.58,9.01-5.03,5.11-2.5,11.26-2.27,16.4-.35,3.46,1.2,10.56,5.34,8.97,9.75-.4,1.01-1.36,1.82-2.36,2.07-5.26,1.59-10.98,.4-15.82-1.81-3.11-1.45-6.39-2.67-9.26-4.58-.29-.19-.41-.7,.06-.79,.4-.05,.47,.58,.07,.62,.05,0,.11-.03,.15-.07,.1-.11,.09-.21,.05-.29,0,0,.04,.03,.08,.06,2.88,1.76,6.12,2.88,9.21,4.21,3.21,1.34,6.62,2.23,10.05,2.16,1.71-.02,3.41-.28,5-.81,1.38-.37,2.03-2.07,1.35-3.24-.86-1.38-2.16-2.48-3.57-3.36-5.67-3.33-13.24-4.16-19.05-.94-3.64,2.07-6.91,5.45-11.32,6.26-5.93,1.03-9.63-5.1-11.76-9.65-1.01-2.48,2.63-3.98,3.65-1.49h0Z"/><path d="M516.75,360.62c.54,.4,1.32,.22,1.62-.38,.59-1.17,1.47-2.97,1.98-4.06,1.28-2.75,.07-5.16-.58-6.43-.15-.31-.59-.28-.72,.04-.6,1.53-2.38,4.41-6.82,2.21-1.01-.5,4.33,3.49,3.98,4.87-.34,1.38-4.43,.05-4.43,.05l4.96,3.7Z"/><path d="M513.06,358.3c-4.76-3.08-10.84-3.93-16.17-1.92-3.39,1.15-7.09,2.97-8.86,6.16-.28,.58-.71,1.6-.44,2.15,.24,.51,1.11,.92,1.94,1.18,1.72,.51,3.62,.71,5.5,.88,5.78,.7,11.26,.12,17.16,.19,2.36,.18,5.14,.11,6.87,2.2,1.12,1.74,.71,4.05,.2,5.86-.59,1.98-1.48,3.78-2.52,5.49-2.45,3.9-7.01,9.19-12.02,9.45-1.65,.05-3.14-1.56-3.23-3.14l2.84,.47c-1.57,3.04-3.37,5.86-5.94,8.16-1.14,.91-4.04,3.36-5.09,1.05-.11-.3-.11-.6-.04-.89,.48-2.16,.78-5.48-.65-7.19l2.29-.06c-2.68,3.03-5.55,6.17-9.71,7.04-.81,.13-1.58-.43-1.7-1.24-.06-.82,.38-1.57,.48-2.42,.25-1.44,.55-3.3-.15-4.57l2.35,.19c-2.28,2.35-4.64,4.48-7.54,6.06-1.29,.63-4.65,2.26-5.1-.25-.08-.9,.58-1.24,1.08-1.9,1.41-1.8,1.98-4.14,1.69-6.4l2.67,.72c-.67,.85-1.33,1.59-2.05,2.34-1.31,1.63-8.82,7.92-9.87,3.93,.16-1.87,.8-4.82-.29-6.37l2.48-.16c-4.56,6.66-8.88,13.57-14.48,19.41-.41,.37-.81,.74-1.38,.99-.12,.05-.26,0-.31-.12-.05-.12,0-.25,.12-.31,3.14-2.71,5.03-6.82,7.26-10.3,2.15-3.68,4.21-7.44,6.2-11.2,.38-.71,1.26-.98,1.97-.61,1.48,1.13,1.66,3.16,1.76,4.8,.02,1.38-.11,2.61-.38,3.98l-1.64-1.81c2.48-.45,4.62-2.54,6.39-4.31,1.18-.95,2.17-3.64,3.96-2.39,.33,.26,.51,.63,.55,1.01,.44,3.53-.65,7.14-3.25,9.68l-1.1-2.62c3.55-.67,6.54-3.77,9.06-6.23,1.91-1.64,3.07,1.21,3.18,2.68,.24,2.23-.16,4.28-.77,6.4l-1.65-1.94c2.32-.47,4.35-2.36,6.04-4.01,1.15-.93,2.15-3.42,3.87-2.17,2.53,2.75,2.18,6.72,1.49,10.09l-1.95-1.79c2.36-.88,4.48-3.69,5.92-5.96,.55-.87,1.08-1.8,1.52-2.69,.64-1.31,2.7-.9,2.81,.54,.03,.28,.11,.44,.14,.48,.55,.31,1.44-.08,2.28-.46,4.7-2.47,8.34-7.2,10.1-12.16,.39-1.26,.71-2.56,.3-3.77-.07-.16-.16-.27-.32-.41-1.23-.87-3.29-1.02-4.89-1.14-3.73-.23-7.54,.06-11.45-.12-3.17-.51-14.45-.29-14.44-4.58,.79-4.98,6.17-7.39,10.43-8.75,5.56-1.92,11.91-.95,16.74,2.37,.27,.21-.01,.61-.3,.41h0Z"/><path d="M456.51,380.82c8.56,.65,16.28-4.71,21.7-10.87,.73-.79,2.04,.03,1.67,1.02-1.12,2.67-2.54,5.08-4.65,7.1-1.19,1.19-2.91,2.04-4.64,2.42,.02-.02,0,.05,.2-.21,.04-.06,.1-.2,.11-.31,.07-.24-.12-.67-.25-.75-.13-.1,0,0,.09,0,5.48,.89,11.87-.39,16.3-3.78,.43-.34,1.05-.28,1.39,.15,.22,.28,.27,.64,.16,.95-.37,1.03-.82,1.9-1.41,2.77-.95,1.57-3.09,3.19-4.82,3.44,.35-.2,.52-.7,.38-1.1-.2-.45-.36-.52-.64-.62,3.73-.31,8.95-1.7,10.99-5.25,.24-.51,.86-.72,1.36-.46,.44,.22,.64,.73,.5,1.18-.36,1.18-.82,2.2-1.41,3.22-1.04,1.79-2.56,3.48-4.52,4.32-.05,.02-.53,.25-.47,.22,.45-.36,.31-1.28-.29-1.48,4.19-.41,10.19-2.54,12.02-6.89,.18-.53,.77-.81,1.29-.61,.44,.16,.69,.6,.64,1.04-.13,1.15-.38,2.16-.75,3.2-.78,2.4-2.5,4.5-4.69,5.76,.2-.28,.23-.52,.04-.95-.09-.2-.46-.42-.57-.41,.28-.02,.65-.12,.97-.22,3.4-1.16,6.99-3.55,8.39-6.95,.2-.52,.78-.78,1.3-.57,.44,.18,.69,.63,.62,1.08-.17,1.06-.37,2.07-.65,3.1-.38,1.26-.71,2.62-1.78,3.59,0,0,.01,0,.08-.09,0,0,.15-.22,.16-.3,.21-.62-.35-1.32-.95-1.25,.13-.03,.39-.11,.61-.19,3.19-1.23,6.28-3,8.93-5.15,1.5-1.24,2.87-2.67,3.69-4.3,.59-1.15,2.37-.29,1.78,.9-2.09,3.9-5.75,6.33-9.43,8.43-1.68,.88-3.3,1.75-5.16,2.26-.26,.07-.74,.07-1.04-.19-.45-.3-.5-1.08-.15-1.47,.18-.19,.22-.21,.35-.34,.95-1.48,1.27-3.56,1.59-5.3l1.92,.51c-.84,2.11-2.35,3.8-4.02,5.12-2.13,1.56-4.55,3.04-7.25,3.32-.88,.03-1.55-.87-1.1-1.68,.28-.52,.95-.87,1.35-1.15,2.31-1.45,3.45-4.31,3.79-6.93l1.93,.43c-.9,2.37-2.8,4.04-4.75,5.23-1.24,1.02-11.76,5.27-10.43,1.25,.23-.39,.59-.55,.86-.69,2.7-1.04,4.32-3.74,5.2-6.42l1.85,.72c-1.04,1.98-2.81,3.25-4.58,4.15-2.73,1.26-5.65,2.25-8.66,2.13-.55-.09-1.06-.8-.76-1.43,.16-.45,.73-.66,1.02-.73,2.4-.47,3.97-2.67,4.79-4.89l1.58,1.08c-4.53,3.51-10.29,4.66-15.9,4.46-1.02-.12-2.03-.05-3.04-.75-.72-.61-.44-1.67,.34-2.02,.41-.22,.83-.27,1.2-.38,3.57-1.01,5.68-4.8,7.13-8.05l1.66,1.04-2.41,2.2c-5.68,4.77-13.17,8.49-20.75,7.29h0Z"/><path d="M462.16,325.2c3.05,3.32,5.13,7.42,7.44,11.26,2.23,3.92,4.38,7.87,6.47,11.87l-2.81,1.03-2.36-10.9c-.73-3.19-1.65-7.74-2.5-10.86,2.39,5.87,5.51,14.91,7.74,20.93l-2.81,1.03c-1.62-4.16-3.31-8.32-5.08-12.43-1.86-4.05-3.45-8.32-6.09-11.94h0Z"/><path d="M488.3,426.7c-2.45-3.86-6.41-8.57-11.3-6.76-3.32,2.62-1.78,10.51-1.45,14.44-2.27-4.92-5.34-16.12,2.58-17.37,5.56-.62,9.84,4.42,10.93,9.41,.1,.44-.54,.68-.75,.28h0Z"/><path d="M463.74,419.48c-2.96-2.85-8.93-3.46-12.72-4.5-2.24-.57-4.48-1.25-6.68-2.02-3.29-1.27-7.36-2.67-9.22-6.14-2.57-5.63-2.36-12.22,.13-17.79,.97-2.14,2.29-4.23,4.15-5.7-1.19,2-1.87,4.15-2.43,6.3-1.24,5.16-1.23,10.92,.75,15.83,1.55,2.7,4.69,3.8,7.56,5.13,2.07,.91,4.17,1.72,6.32,2.48,4.16,1.64,9.33,2.58,12.14,6.41h0Z"/><path d="M460.88,429.52c.95-3.33,.94-6.46-2.96-7.34-6.05-.79-12.2-1.19-18.15-2.62-3.29-.81-6.78-1.68-9.47-3.82,2.99,1.65,6.4,2,9.71,2.45,5.02,.51,10.08,.69,15.13,.76,1.59,0,3.64,.01,5.57,.85,4.31,1.72,4.72,7.17,2.95,10.89-.82,1.75-3.43,.64-2.77-1.16h0Z"/><path d="M428.33,413.08c-11.08-10.48-6.47-25.74,4.39-34.36,.37-.39,1.01-.49,1.37-.03,.19,.24,.22,.55,.12,.81-.23,.64-.3,1.47-.23,2.18,.08,.8,.44,1.51,1.04,2.08-.87-.25-1.59-.96-1.99-1.79-.43-.89-.58-1.79-.55-2.8l1.49,.79c-7.77,11.18-11.92,19.89-5.64,33.11h0Z"/><path d="M432.16,392.43c-2.81-1-5.35-3.72-5.22-6.93-.02-.84,.65-1.54,1.49-1.56,.84-.02,1.54,.65,1.56,1.49,0,.19-.03,.38-.09,.55-.98,2.35,.44,4.81,2.26,6.45h0Z"/><path d="M431.92,399.87c-2.9,.72-6.51-.15-8.17-2.91-.48-.69-.31-1.64,.38-2.12,.69-.48,1.64-.31,2.12,.38,.11,.16,.19,.33,.23,.51,.48,2.5,3.02,3.77,5.44,4.14h0Z"/><path d="M431.96,405.92c-1.88,.98-4.35,1.44-6.48,.62-1.3-.5-3.61-1.87-2.34-3.49,.55-.64,1.51-.72,2.15-.17,.15,.13,.27,.27,.35,.43,1.1,2.29,3.88,2.87,6.32,2.6h0Z"/><path d="M433.84,412.98c-3.21-.44-7.45-1.01-8.88-4.44-.14-.39,.07-.82,.47-.95,.39-.13,.81,.09,.94,.48,.8,3.05,4.75,4.1,7.47,4.92h0Z"/><path d="M442.98,416.52l-4.69,2.19c-.17,.08-.38,0-.46-.17-.09-.19,.01-.42,.21-.48l4.94-1.55h0Z"/><path d="M453.31,417.8l-4.69,2.19c-.17,.08-.38,0-.46-.17-.09-.19,.01-.42,.21-.48l4.94-1.55h0Z"/><path d="M494.24,455.25c-.74-2.99-2.05-6.43-5.31-7.27-1.01-.3-2.28-.36-3.85-.28,1.04-2.22,4.13-3.36,6.51-2.51,3.31,.97,5.51,4.23,6.03,7.51,.27,1.49,.53,4.11-1.71,4.07-.87-.04-1.51-.71-1.66-1.52h0Z"/><path d="M497.3,468.17c6.48,1.64,13.77-.23,18.66-4.81,2.91-2.81,5.16-6.33,7.15-9.85,2.82-4.82,2.88-10.36,3.86-15.77,.92-5.56,1.88-11.02,3.02-16.61l2.86,1.74c-.97,.74-1.81,1.19-2.84,1.69-4.46,2.41-9.73,1.91-14.41,3.22-5.14,1.94-9.98,5.75-12.58,10.72-1.68,2.92-2.64,6.27-4.39,9.18-.28,.39-.58,.82-1.04,1.01,.44-.23,.69-.67,.94-1.07,2.25-4.88,3.23-10.36,6.77-14.61,2.68-3.07,5.77-5.57,9.55-7.29,3.66-1.51,7.65-1.38,11.21-2.9,1.25-.51,2.44-1.12,3.54-1.88,.34-.23,.74-.54,.95-.73,.7-.65,1.81-.61,2.46,.09,.43,.46,.56,1.09,.4,1.65-1.27,5.34-2.42,10.87-3.5,16.31-1.11,5.5-1.57,11.6-4.66,16.46-4.55,7.72-10.32,14.39-19.75,15.46-2.92,.31-5.8,.17-8.65-.65l.44-1.36h0Z"/><path d="M467.32,332.82l6.79,8.26c.74,.9,.89,2.1,.49,3.11l-7.85,20.07c-.32,.82-.95,1.43-1.7,1.75l-28.71,12.13,1.29-4.84,7.68,10.03c.51,.66,.71,1.46,.64,2.23l-1.46,15.35-.77-2.4c3.12,3.46,6.29,7.22,9.92,10.1,.17,.13,.41,.25,.24,.17-.05-.02-.16-.06-.37-.09-.04,0-.15-.02-.22-.03h.02l.65,.03c5.08,.23,12.06,1.1,17.15,1.49,1.65,.15,2.89,1.58,2.83,3.22l-.62,18.29-1.49-2.75s12.68,7.7,12.68,7.7c1.03,.62,1.56,1.76,1.46,2.88l-1.51,17.11c-.19,2.82-4.05,3.77-5.54,1.44-4.29-6-10.77-10.84-17.97-12.55-15.72-3.55-29.83,7.32-40.29,18.1-19.14,19.23-25.48,39.98-4,60.47,11.6,10.95,26.42,18.68,41.29,24.3l-.66-.11c6.22,.09,12.58-.19,18.81-.83,8.18-1.02,24.51-2.92,27.98-11.21,.22-.69,.32-1.14,.38-1.91,.58-6.28,1.11-12.6,1.1-18.9,.13-1.38-.66-3.28,.93-3.93l6.23-2.49c.8-.35,1.73,.04,2.05,.85,.42,6.41,.14,12.88,0,19.32-.19,2.84-.57,21.21-4.4,19.34-.48-.3-.66-.9-.45-1.41,2.31-5.69,4.11-11.71,5.17-17.78,1.14-7.28,1.79-15.95-3.37-21.86-7.7-8.18-19.91-10.41-29.67-4.4,7.91-5.4,19.02-5.12,26.77,.6,5.93,3.7,8.36,9.63,8.6,16.42,.35,9.58-2.12,18.95-5.41,27.9l-2-1.04c.29-.48,.52-1.17,.7-1.87,1.19-5.21,1.22-10.63,1.37-15.97,.08-6.19-.04-12.41-.31-18.59l2.16,1.39-6.17,2.63,1-1.7c.43,6.51-.08,12.94-.5,19.42l-.19,2.39c-.11,2.78-1.6,5.63-3.57,7.47-9.61,9.11-35.01,10.78-47.95,10.48-24.77-8.94-61.46-28.77-58.43-59.63,1.44-13.07,9.79-23.93,18.5-33.2,17.1-18.61,41.86-30.71,62.97-10.24,1.63,1.63,3.07,3.24,4.4,5.18l-5.57,1.4,1.44-17.12,1.47,2.89-12.7-7.65c-.99-.6-1.53-1.67-1.49-2.75l.56-18.3,2.83,3.22c-5.07-.34-12.34-1.23-17.3-1.42-2.11,0-3.75-1.56-5.17-2.76-3.31-3.01-6.21-6.21-9.15-9.53-.6-.68-.85-1.54-.77-2.37,0-.02,1.49-15.34,1.49-15.37l.64,2.23-7.66-10.04c-1.26-1.6-.6-4.08,1.29-4.84l28.73-12.07-1.7,1.74,7.89-20.06,.49,3.11-6.78-8.27c-2.49-3.11,2.05-7.1,4.8-3.94h0Z"/></g></g><g id="Layer_10"><rect class="cls-11" x="799.84" y="97.84" width="100.03" height="100.03"/><rect x="799.84" y="212.92" width="100.03" height="100.03"/><rect class="cls-7" x="799.84" y="328" width="100.03" height="100.03"/><rect class="cls-8" x="799.84" y="443.08" width="100.03" height="100.03"/><rect class="cls-9" x="799.84" y="558.16" width="100.03" height="100.03"/><rect x="799.84" y="673.25" width="100.03" height="100.03"/></g></svg>