<?xml version="1.0" encoding="UTF-8"?><svg id="Layer_1" xmlns="http://www.w3.org/2000/svg" viewBox="0 0 300 300"><defs><style>.cls-1{fill:#fff;fill-rule:evenodd;}</style></defs><path class="cls-1" d="M105.88,54.45h88.24c28.35,0,51.66,23.32,51.66,51.66v87.78c0,28.35-23.32,51.66-51.66,51.66H105.88c-28.35,0-51.66-23.32-51.66-51.66V106.11c0-28.35,23.32-51.66,51.66-51.66h0Zm95.55,33.37h0c5.94,0,10.97,5.03,10.97,10.97h0c0,5.94-5.03,10.97-10.97,10.97h0c-6.4,0-10.97-5.03-10.97-10.97h0c0-5.94,4.57-10.97,10.97-10.97h0Zm-51.66,10.06h.46c28.35,0,52.12,23.77,52.12,52.12h0c0,28.8-23.77,52.12-52.12,52.12h-.46c-28.35,0-51.66-23.32-51.66-52.12h0c0-28.35,23.32-52.12,51.66-52.12h0Zm0,17.83h.46c18.74,0,34.29,15.54,34.29,34.29h0c0,19.2-15.54,34.75-34.29,34.75h-.46c-18.74,0-34.29-15.54-34.29-34.75h0c0-18.74,15.54-34.29,34.29-34.29h0Zm-43.43-44.8h87.32c19.66,0,35.66,16,35.66,35.66v86.87c0,19.66-16,35.66-35.66,35.66H106.34c-19.66,0-35.66-16-35.66-35.66V106.57c0-19.66,16-35.66,35.66-35.66h0Z"/></svg>