<?xml version="1.0" encoding="UTF-8"?><svg id="Layer_1" xmlns="http://www.w3.org/2000/svg" viewBox="0 0 263.58 271.58"><defs><style>.cls-1{fill:none;}.cls-2{fill:#fff;}.cls-3{fill:#fff0a4;}.cls-4{fill:#ffe6d2;}.cls-5{fill:#ffdb2c;}.cls-6{fill:#bf4094;}.cls-7{fill:#232323;}.cls-8{fill:#1c5143;}.cls-9{fill:#5be397;}.cls-10{opacity:.15;}</style></defs><g><circle class="cls-4" cx="131.4" cy="135.28" r="126.67"/><path class="cls-7" d="M131.4,262.96c-70.4,0-127.67-57.27-127.67-127.67S61,7.61,131.4,7.61s127.67,57.27,127.67,127.67-57.27,127.67-127.67,127.67Zm0-253.35C62.1,9.61,5.73,65.99,5.73,135.28s56.38,125.67,125.67,125.67,125.67-56.38,125.67-125.67S200.7,9.61,131.4,9.61Z"/></g><g><path class="cls-3" d="M52.04,37.3V234.78c-6.49-5.23-12.45-11.08-17.79-17.46-7.09-8.46-13.09-17.86-17.79-27.98V82.73c4.7-10.12,10.71-19.52,17.79-27.98,5.34-6.39,11.31-12.23,17.79-17.45Z"/><path class="cls-7" d="M53.04,236.87l-1.63-1.31c-6.53-5.26-12.56-11.18-17.93-17.6-7.19-8.58-13.23-18.07-17.93-28.2l-.09-.2V82.51l.09-.2c4.69-10.1,10.72-19.59,17.93-28.2,5.33-6.38,11.37-12.3,17.93-17.59l1.63-1.31V236.87Zm-35.58-47.75c4.62,9.9,10.52,19.17,17.56,27.56,4.84,5.78,10.22,11.15,16.02,15.99V39.42c-5.83,4.86-11.22,10.23-16.02,15.98-7.05,8.42-12.95,17.69-17.56,27.56v106.17Z"/></g><g><path class="cls-3" d="M247.73,85.09v100.4c-4.59,10.63-10.61,20.51-17.79,29.4-5.32,6.58-11.28,12.61-17.79,18V37.68c6.51,5.39,12.47,11.43,17.79,18,7.19,8.89,13.2,18.77,17.79,29.41Z"/><path class="cls-7" d="M211.15,235.02V35.55l1.64,1.36c6.52,5.4,12.55,11.5,17.93,18.14,7.31,9.04,13.35,19.02,17.93,29.64l.08,.19v100.81l-.08,.19c-4.58,10.59-10.61,20.56-17.93,29.63-5.35,6.62-11.38,12.72-17.93,18.14l-1.64,1.36Zm2-195.19V230.74c5.82-4.98,11.19-10.52,16.01-16.48,7.16-8.87,13.07-18.62,17.57-28.98V85.3c-4.5-10.39-10.41-20.14-17.57-28.99-4.84-5.97-10.22-11.51-16.01-16.48Z"/></g><path class="cls-7" d="M181.41,250.32c-7.98-1-14.15-6.93-18.75-13.1-4.89-6.57-9.25-13.56-13.77-20.39,3.7,.16,7.42-1.29,9.94-4.08,.86-.95-.55-2.37-1.41-1.41-2.49,2.75-6.37,4.09-10.02,3.33-.8-.17-1.31,.56-1.24,1.18-.04,.21-.01,.44,.15,.68,2.65,3.97,5.3,7.94,7.94,11.91,2.49,3.73,4.91,7.52,7.66,11.06,4.9,6.31,11.31,11.79,19.5,12.82,1.27,.16,1.26-1.84,0-2Z"/><path class="cls-7" d="M229.94,91.63c-.55,0-1-.45-1-1V55.68c0-.55,.45-1,1-1s1,.45,1,1v34.95c0,.55-.45,1-1,1Z"/><path class="cls-7" d="M229.94,215.89c-.55,0-1-.45-1-1V110.2c0-.55,.45-1,1-1s1,.45,1,1v104.69c0,.55-.45,1-1,1Z"/><path class="cls-7" d="M34.25,91.63c-.55,0-1-.45-1-1V55.68c0-.55,.45-1,1-1s1,.45,1,1v34.95c0,.55-.45,1-1,1Z"/><path class="cls-7" d="M34.25,215.89c-.55,0-1-.45-1-1v-37.87c0-.55,.45-1,1-1s1,.45,1,1v37.87c0,.55-.45,1-1,1Z"/><path class="cls-7" d="M192.94,244.05c-9.64-1.94-17.94-8.52-22.04-17.46-.52-1.12-2.11-.22-1.75,.88-.04,0-.07-.02-.11-.02-.17,0-.32,.04-.44,.1-.01,0-.02,.01-.03,.02-.11,.06-.21,.14-.28,.24h0c-.05-.04-.09-.08-.15-.11-.02-.01-.05-.01-.08-.02-.37-.4-1.06-.56-1.47-.08-.71,.84-1.36,1.73-1.9,2.69-.34,.6-.66,1.25-.45,1.96,.2,.67,.8,1.05,1.42,1.26,1.96,.66,4.31-.35,5.14-2.25,.05-.12,.08-.25,.13-.38,4.7,7.69,12.61,13.31,21.49,15.1,1.26,.25,1.79-1.67,.53-1.93Z"/><g><path class="cls-3" d="M186.74,248.74c-2.07,.64-4.14,1.29-6.2,1.93-.2,.06-.34,.18-.45,.3-7.59-1.29-13.5-7.01-17.94-12.97-.6-.8-1.17-1.63-1.75-2.44,1.38-.51,2.77-1.03,4.15-1.54,.19,.11,.39,.21,.59,.28,1.96,.66,4.31-.35,5.14-2.25,.05-.12,.08-.25,.13-.38,4.61,7.54,12.3,13.08,20.96,14.98-1.24,1.2-3.03,1.6-4.63,2.09Z"/><path class="cls-7" d="M180.46,252.05l-.55-.09c-6.65-1.13-12.72-5.5-18.57-13.36-.41-.54-.8-1.1-1.19-1.66l-1.33-1.86,5.83-2.16,.41,.24c.15,.09,.28,.15,.4,.19,1.5,.5,3.28-.28,3.9-1.7,.02-.04,.03-.08,.04-.12,.02-.07,.04-.13,.06-.2l.7-1.97,1.09,1.79c4.52,7.39,11.92,12.68,20.32,14.52l1.82,.4-1.34,1.3c-1.24,1.2-2.9,1.7-4.37,2.13l-6.86,2.13-.37,.43Zm-18.5-16c.32,.46,.65,.91,.98,1.36,5.4,7.25,10.92,11.34,16.86,12.5,.13-.08,.28-.15,.43-.19l6.89-2.14c.57-.17,1.15-.34,1.7-.56-7.42-2.2-13.95-6.97-18.35-13.41-1.33,1.59-3.62,2.32-5.65,1.64-.11-.04-.23-.08-.34-.13l-2.52,.93Z"/></g><path class="cls-7" d="M131.4,262.96c-.55,0-1-.45-1-1v-12.96c0-.55,.45-1,1-1s1,.45,1,1v12.96c0,.55-.45,1-1,1Z"/><path class="cls-7" d="M131.4,23.64c-.55,0-1-.45-1-1V9.68c0-.55,.45-1,1-1s1,.45,1,1v12.96c0,.55-.45,1-1,1Z"/><path class="cls-7" d="M81.31,251.99c-.55,0-1-.45-1-1v-12.96c0-.55,.45-1,1-1s1,.45,1,1v12.96c0,.55-.45,1-1,1Z"/><path class="cls-7" d="M81.31,33.77c-.55,0-1-.45-1-1v-12.96c0-.55,.45-1,1-1s1,.45,1,1v12.96c0,.55-.45,1-1,1Z"/><path class="cls-7" d="M176.79,31.85c-.55,0-1-.45-1-1v-12.96c0-.55,.45-1,1-1s1,.45,1,1v12.96c0,.55-.45,1-1,1Z"/><path class="cls-2" d="M142.44,120.17c-.76-3.56-2.33-7.31-5.2-9.69-.03-.02-.05-.04-.08-.06-.94-1.07-2.05-1.98-3.34-2.65-1.85-.96-3.88-1.49-5.84-2.2-3.19-1.16-5.74-3.59-6.71-6.89-1.17-3.94,.34-8.08,.03-12.1-.15-1.95-.54-4.84-2.49-5.84-2-1.03-4.4,.9-5.94,2.06-1.77,1.33-3.16,2.9-3.9,5.02-.69,1.97-.71,4.2-.77,6.27-.09,3.79,.25,7.86,2.27,11.17,2.05,3.36,5.57,5.35,9.34,6.16,2.09,.45,4.26,.62,6.4,.62,2.18,0,4.57-.36,6.65,.48,.51,.2,.97,.47,1.39,.78,.09,.1,.17,.21,.26,.32,1.95,2.67,2.49,6.19,3.02,9.37,.18,1.1,1.54,1.71,2.53,1.43,1.01-.28,1.48-1.15,1.47-2.09,.67-.43,1.12-1.2,.91-2.18Z"/><g><path class="cls-3" d="M148.06,212.68s-6.08-2.61-8.03-6.08-3.69-15.85-3.69-15.85c0,0,3.47-.22,4.56-3.69,1.09-3.47,1.95-3.91,1.3-9.77-.65-5.86-5.21-15.2-4.56-18.67,.65-3.47,3.91-6.95,6.3-7.16s5.86,3.04,5.86,3.04c0,0,1.52,.65,2.82-2.61s-1.52-8.25-1.74-9.12,2.61-4.34,1.52-5.86-5.21-12.16-5.21-12.16l-7.16-18.02,2.39-5.43,5.21-.65,4.78,4.56,18.02-3.69,3.26,1.74,1.52,4.34-18.02,8.68,.22,3.91,1.3,7.38,5.43,10.78-.65,12.88-7.16,15.41-1.09,8.68s-3.04,16.07-2.82,21.06,8.9,12.59,8.9,12.59l-13.24,3.69Z"/><path class="cls-9" d="M153.17,72.11s10.85-6.19,16.5-4.88,8.58,1.74,9.55,.98,.54-2.39-.98-4.45c-1.52-2.06-6.4-15.41-9.66-18.24s-13.79-11.18-18.02-13.46-6.3-3.91-10.85-3.47-7.82,1.85-8.14,2.93-1.52,7.16,1.3,9.44c2.82,2.28,7.49,6.19,9.12,8.47s3.37,11.07,4.67,13.89c1.3,2.82,3.91,7.92,6.51,8.79Z"/><path class="cls-9" d="M176.58,86.41c3.18-4.49,3.76-5.07,2.32-5.93-1.45-.87-4.49-1.74-8.68-1.3s-8.25,0-10.28-.43c-2.03-.43-3.91-1.74-3.62-3.33,.29-1.59-1.45,0-1.45,0l-4.92-1.74-4.34-5.21,.29-2.89-4.92,8.11-1.74,2.03-2.89-3.76s-3.18-2.61-3.47-5.21c-.29-2.61-3.76-8.97-3.76-8.97l-4.34,1.45-6.95,21.42-13.89-17.37-7.82,3.47,2.89,32.13-22.58-9.26-5.21,17.37,18.45,18.16-19.97,6.95,.36,12.81,16.79,8.39-11.58,15.05,4.05,11,18.24-3.18-7.02,20.84,9.34,11.87,14.47-6.95-2.17,15.2,9.7,4.2,10.85-6.66,7.53,11,7.96-.29,3.18-8.83,8.54,4.34,5.07-2.89-.58-7.38s.29-1.45,.87-1.3c.58,.14,5.79,1.01,5.79,1.01,0,0,3.76-3.47,4.34-6.22,.58-2.75-.43-5.36-.43-5.36l-3.18-1.59-1.16-1.3-.43-1.01,5.43-10.71s-3.4-6.37-11.07-7.24c-7.67-.87-11-.87-13.75,.87s-5.79,11.43-6.37,14.04c-.58,2.61,.29,10.85,3.18,12.45,2.89,1.59,10.85,1.01,14.47-3.18s.83-10.19-1.77-9.76c-2.61,.43-3.44,6.58-5.75,5.27s-4.49-4.63-3.18-7.09c1.3-2.46,5.36-5.5,8.25-5.36,2.89,.14,5.36,1.3,6.22,3.33s2.46,6.51,1.88,8.83c-.58,2.32-1.59,7.96-6.66,10.57-5.07,2.61-15.78,12.45-36.76-1.16,0,0-14.47-13.03-19.25-25.76-4.78-12.74-7.24-23.88-7.24-23.88l-5.76-1.92c-1.05-.35-1.9-1.23-2.04-2.33-.02-.12-.02-.24-.02-.36h0c-.01-1.54,1.1-3.36,2.47-4.07,2.66-1.38,4.01-2.83,15.71-12.81,1.82-1.56,20.19-8.61,22.8-8.18,2.61,.43,11.61,4.18,13.17,5.5,.85,.72,4.41,2.33,8.17,5.39,1.42,1.16,1.96,.71,2.69,.71s4.07-.98,6.8,1.14c1.5,1.17,3.33,.29,1.88-2.03-1.45-2.32-3.04-3.33-3.04-3.33,0,0,1.58-.4,1.36-3.65-.2-2.88-3.3-2.73-3.5-2.63-2.11,1.05-5.02,1.47-8.42,1.37,0,0-.79-.25-2.08-.65-.58-1.72-1.68-6.59-1.14-8.39,.65-2.17,2.5-3.04,4.88-3.26,2.39-.22,5.43,4.67,5.43,4.67,0,0-.22-1.95-.33-4.23-.11-2.28-.76-6.19-5.64-8.36-4.88-2.17-14-.98-16.17-.87-2.17,.11-12.71,.04-11.72-.76,3.64-2.93,4.73-3.98,5.75-8.79,.83-3.87,1.6-7.12,1.65-9.39,0-.19,.16-.33,.35-.32,1.24,.09,1.63,.12,2.83,.27,6.37,.8,13.89-4.35,16.64-7.82l-5.36,7.09s1.59,.72,4.49,.14c2.89-.58,6.8-2.89,6.8-2.89,0,0-1.3,3.76-2.61,4.2,0,0,4.92-1.3,6.22-2.89,0,0-1.01,3.62-1.74,3.91-.72,.29,6.37-.87,6.95-2.61,0,0-.58,3.04-1.3,3.47,0,0,4.35-1.33,5.87-3.66-.29,.6-.66,1.46-.66,2.07,0,1.01,4.2,1.16,7.38-3.33Zm-45.01,27.17c3.15,.76,6.73,2.5,7.82,4.23,.85,1.37-.3,5.68-.84,7.46-3.44-1.02-6.88-2-9.15-2.54-6.08-1.45-8.54-2.46-13.03-2.32s-8.25-19.97-8.25-19.97c0,0,6.37-11.43,7.82-12.3,.15-.09,.41-.13,.76-.14-.27,2.05,2.93,4.36,2.93,4.36,0,0-.98,2.23-1.63,3.96-.65,1.74-.22,7.27,.87,10.53,1.09,3.26,9.55,5.97,12.7,6.73Z"/><path class="cls-8" d="M164.13,138.36s5.07-9.7,6.22-11.29c1.16-1.59,8.51-5.93,14.39-5.35,5.87,.58,0,0,0,0l3.24-1.93s-2.43,14.52-2.58,16.98-4.49,12.3-7.82,14.04-11.58,3.33-13.46,3.04-.72-9.26-.58-11.58,.58-3.91,.58-3.91Z"/><path class="cls-8" d="M158.81,161.88c.65-.22,25.29-4.88,25.29-4.88,0,0-.98,4.56-2.93,5.86s-8.14,4.23-8.14,4.23c0,0-4.12,.76-5.43-.11s-3.69-4.12-4.45-3.26-.65,2.82-.65,2.82c0,0-2.93-1.74-4.23-1.19s.54-3.47,.54-3.47Z"/><path class="cls-8" d="M117.37,159.44l11.81,5.92,5.43,5.21,2.39,7.27,.54,5.75-1.19,7.16s-11.61-1.63-11.94-2.39-9.23-10.1-9.23-10.1l-2.5-10.31,1.2-9.66,3.49,1.14"/><path class="cls-6" d="M166.63,69.36c.11,0,9.48,1.92,10.82,3.33s1.77,3.69,1.37,4.38-6.66,1.92-8.18,1.48-11.47-4.38-11.72-5.21,7.71-3.98,7.71-3.98Z"/><path class="cls-6" d="M187.98,119.8c-.51,.15-1.01,.31-1.52,.48-.41,.14-.94,.26-1.3,.51-.31,.22-.38,.58-.42,.93-.07,.52-.15,1.05-.23,1.57-.33,2.07-.76,4.12-1.28,6.14-.2,.23-.14,.76,.22,.56,.88-.49,1.74-1.02,2.56-1.61,.7-.5,1.32-.96,1.49-1.85,.2-.99,.25-2.04,.36-3.04,.13-1.11,.26-2.23,.39-3.34,.02-.17-.04-.41-.27-.35Z"/><path class="cls-6" d="M117.37,159.44c-.13-.16-.29-.09-.39,.07-.44-.57-1.22-.93-1.82-1.31-.51-.32-.84-.36-1.28,.11-.8,.85-1.21,2.04-1.06,3.2,.15,1.1,.75,2.13,1.66,2.76,1.07,.74,2.53,.9,3.42,1.91,.27,.31,.36,.64,.51,1.01,.09,.22,.22,.45,.44,.54,.4,.16,.77-.1,.87-.47,.06-.06,.1-.15,.11-.26,.12-2.72-.75-5.44-2.47-7.55Z"/><polygon class="cls-5" points="128.74 58.76 132.54 58.65 139.6 70.05 143.61 60.06 147.74 66.58 138.84 77.22 128.74 58.76"/><path class="cls-5" d="M133.19,31.08s-.65,4.12,3.04,8.14c3.69,4.02,7.38,7.38,7.38,7.38,0,0,.76-2.28-1.3-6.4-2.06-4.12,0-3.58,.98-2.5s2.93,2.17,3.58,5.54c.65,3.37,.11,10.53,.33,12.37s3.37,12.59,6.3,12.27,6.95-2.5,10.85-1.85l3.91,.65s-9.34,4.56-12.27,5.1-4.02,2.5-5.75-1.3c-1.74-3.8-6.73-22.47-11.51-25.18-3.12-1.78-7.92-4.99-5.54-14.22Z"/><polygon class="cls-5" points="127.01 58.62 122.88 58.62 116.15 71.79 108.77 61.8 104.28 63.61 116.8 80.47 127.01 58.62"/><polygon class="cls-5" points="96.39 67.08 99.14 97.69 97.99 98.92 76.13 89.45 78.38 85.61 91.98 91.04 93.28 89.73 91.47 70.12 96.39 67.08"/><polygon class="cls-5" points="70.78 107.1 90.24 123.46 90.46 125.63 68.53 133.95 69.55 128.16 79.68 124.9 80.11 122.37 69.55 112.46 70.78 107.1"/><polygon class="cls-5" points="70.27 145.38 86.7 153.05 87.28 154.79 75.12 167.96 74.11 161.45 78.81 156.96 78.59 155.01 70.34 151.39 70.27 145.38"/><polygon class="cls-5" points="79.53 178.31 97.77 176.28 98.06 176.94 90.61 197.92 87.64 192.13 92.27 181.86 91.62 180.84 80.98 182.87 79.53 178.31"/><polygon class="cls-5" points="99.29 208.13 114.49 201.47 115.5 202.92 112.46 217.82 109.28 214.64 109.71 208.56 108.7 208.13 102.91 211.74 99.29 208.13"/><polygon class="cls-5" points="121.87 221.3 132 214.2 134.17 215.07 141.41 226.07 134.46 224.91 132.29 220.57 129.54 221.01 127.37 223.03 125.78 223.76 121.87 221.3"/><path class="cls-5" d="M147.34,224.48l4.05-7.96h1.01l8.11,4.34-3.18,1.59-2.75-1.59-1.74,.29s-1.16,.87-1.16,1.3-.43,1.74-.43,1.74l-.58,1.3-3.33-1.01Z"/><polygon class="cls-5" points="163.84 217.24 164.42 210.15 165.58 209.14 171.37 210.3 163.84 217.24"/><polygon class="cls-5" points="170.93 196.26 175.27 183.52 177.88 188.15 174.84 191.63 174.55 194.38 176.14 196.11 177.73 197.56 178.89 200.89 177.59 201.9 170.93 196.26"/><circle class="cls-5" cx="99.98" cy="109.24" r="6.4"/><path class="cls-5" d="M115.06,88.5s-3.91,1.74-7.6,5.86c-3.69,4.12-5.64,9.34-5.64,10.42s-6.3,6.95-6.51,9.12,.87,8.03,2.39,9.77,.55,5.03,.55,5.03c0,0,12.65-7.5,17.22-7.6,3.66-.08,4.39-3.3,4.42-3.74,.09-1.39-5.55-1.01-7.14-5.63-1.96-5.72-5.71-12.58,2.32-23.22Z"/><path class="cls-5" d="M108.12,186.63s-4.34-9.55-9.34-12.81-9.12-4.78-9.55-9.55c-.43-4.78-.33-9.55,1.97-9.7,.82-.05,2.29-.16,3.55-.22,1.42-.07,2.63-.03,3.43,.94,1.24,1.5,2.7,11.05,3.43,12.88,.43,1.09,6.51,18.45,6.51,18.45Z"/><circle class="cls-2" cx="163.12" cy="58.18" r="2.46"/><g class="cls-10"><circle class="cls-2" cx="163.1" cy="58.22" r="4.63"/></g><path class="cls-7" d="M173.25,206.39c-1.09,2.17-2.82,2.61-5.21,6.08-.98,1.43-2.29,2.92-3.49,4.2-1.73,1.83-3.24,3.19-3.24,3.19,0,0-14.11,6.15-11.07,5.93,3.04-.22,12.01-2.97,14.84-6.01,0,0-5.07,12.66-36.33,9.84-31.26-2.82-56.31-54.08-58.62-59.48-2.97-6.95-6.32-40.73-3.47-60.35,2.87-19.75,8.47-39.08,29.09-47.54,20.62-8.47,38.21-4.99,47.33-4.34l.98-.25s-5.32-11.47-8.36-11.25c-3.04,.22-1.65,6.86-7.16,6.95-4.63,.07-2.17-8.47-4.99-9.12s-3.47,7.38-5.64,8.03c-2.17,.65-4.78-1.09-6.73-3.26-1.95-2.17-2.39-.43-2.82,.22-.43,.65-1.3,5.64-3.47,6.08-2.17,.43-6.3-3.04-8.47-3.91-2.17-.87-2.82,8.68-4.12,9.77-1.3,1.09-3.91-1.52-6.51-1.52s-1.09,4.34-1.95,5.43c-.87,1.09-1.3,3.69-2.39,3.26-1.09-.43-5.21-2.82-6.51-2.39-1.3,.43,1.52,6.3,.22,8.47-1.3,2.17-4.99-.22-5.64,1.3-.65,1.52,2.39,4.56,.65,7.38-1.74,2.82-3.91,4.12-5.21,5.43s2.39,3.91,1.74,5.64c-.65,1.74-3.04,1.09-3.69,2.17s1.52,1.74,2.39,2.82c.87,1.09,1.74,2.39-1.3,3.47-3.04,1.09-.87,4.34-.22,4.99,.65,.65-2.24,3.47-3.33,4.56s3.76,3.47,2.46,4.99c-1.3,1.52-4.34,1.74-4.56,4.12-.22,2.39,2.82,2.39,3.47,4.78,.65,2.39-1.09,5.86-2.82,7.6-1.74,1.74-.43,4.12,.87,4.78,1.3,.65,2.82,2.61,2.39,4.99-.43,2.39-4.34,4.34-3.91,4.99,.43,.65,4.56,5.21,4.99,6.95,.43,1.74-3.04,6.51-1.09,8.25,1.95,1.74,4.99,3.26,5.43,5.64,.43,2.39-3.04,7.6-2.39,8.47s3.47,.87,4.56,3.04c1.09,2.17,1.95,2.39,1.95,5.43s-1.3,4.99-.65,5.43c.65,.43,5.21,1.09,6.73,4.12,1.52,3.04,.43,9.55,1.3,9.99,.87,.43,7.16-1.09,7.82,.22,.33,.65,1.55,2.09,1.74,3.91,.19,1.82-.65,4.02-.22,4.56,.87,1.09,6.95-.22,7.82,1.3,0,0,1.52,2.82,2.17,5.86,.65,3.04-1.09,4.56-.22,5.43,.87,.87,6.95-1.95,9.12,.22,2.17,2.17,3.47,8.9,4.34,9.12,.87,.22,3.26-3.69,9.12-3.69,4.04,0,6.12,4.01,7.02,6.51,.24,.65,1.09,.79,1.52,.25,.77-.97,2.1-1.99,4.27-1.99,4.12,0,5.64,4.12,7.38,4.12s.43-2.17,3.69-3.91c3.26-1.74,4.34-2.61,6.95-1.09,3.32,1.94,4.53,6.34,4.51-2.07,0-1.7,1.23-3.16,2.9-3.4,2.74-.39,5.42-.24,6.26-2.35,.43-1.06,.28-2.49,.43-3.72,1.04,2.64,2.07,5.29,3.11,7.93,.2,.5,.67,.85,1.23,.7,.48-.13,.9-.72,.7-1.23-1.26-3.21-2.52-6.42-3.78-9.63,.3-.16,.67-.28,1.13-.34,3.47-.43,5.43-.65,5.43-3.91s2.17-6.08,2.17-6.08c0,0-1.52-8.25-2.61-6.08Z"/><path class="cls-7" d="M142.15,227.2c-10.36,0-21.78-3.36-32.19-9.47-10.5-6.16-19.72-16.21-27.41-29.85-12.36-21.92-17.29-47.29-14.23-73.36,2.08-17.77,7.04-30.92,14.74-39.09,23.64-25.1,60.97-18.17,61.34-18.09l-.47,2.42c-.36-.07-36.38-6.73-59.08,17.37-7.33,7.78-12.07,20.46-14.09,37.69-2.99,25.55,1.83,50.39,13.93,71.86,7.48,13.26,16.4,22.99,26.51,28.93,28.69,16.85,50.28,7.89,60.05-4.9l1.96,1.5c-7.44,9.74-18.09,14.93-30.81,14.99-.09,0-.17,0-.26,0Z"/><path class="cls-7" d="M108.91,61.8c1.79,2.35,5.2,6.95,6.97,9.24,.12,.1,.34,.04,.39-.09l.3-.72,5.3-12.8,2,.93-6.3,12.32-.2,.39c-.22,.59-.81,1.12-1.5,.98-.74-.1-1.03-.94-1.41-1.47-1.18-1.86-4.34-6.85-5.56-8.77h0Z"/><path class="cls-7" d="M104.07,63.25c2.36,3.06,8.31,10.8,10.58,13.76l1.76,2.29c.36,.5,.4,.51,.59,.46,.09-.03,.13-.14,.16-.22l.27-.67,8.77-21.42,2.02,.88-9.78,20.98c-.16,.3-.35,.88-.61,1.11-.15,.15-.33,.25-.52,.31-.38,.12-.82,.06-1.14-.19-.36-.31-.39-.48-.55-.68l-1.65-2.37c-2.11-3.03-7.74-11.12-9.91-14.25h0Z"/><path class="cls-7" d="M132.03,57.22c2.06,3.27,5.54,8.78,7.56,12,.04,.06,.1,.17,.11,.18,0-.04-.04-.06-.09-.02-.13,.35,3.31-10.84,3.28-10.76l2.08,.73c-.03,.07-4.15,10.54-4.18,10.6-.38,.82-1.63,.91-2.1,.13-.26-.46-1.01-1.92-1.27-2.41-1.16-2.21-4.26-8.12-5.46-10.4l.06-.04h0Z"/><path class="cls-7" d="M144.45,58.98c-.55-3.18-1.3-6.4-2.91-9.19-1.86-2.67-4.72-4.18-7.3-6.22-3.57-2.36-4.6-7.26-3.79-11.29,.63-3.33,4.49-4.69,7.42-4.97,10.37-1.36,17.53,6.51,25.35,11.67,6.13,4.12,9.69,11.04,12.5,17.64,1.37,2.97,3,5.8,4.43,8.77,1.08,1.94,1.93,5.38-.67,6.47-.45-.08-.58-.18-.66-.34-.61-1.12-1.67-1.89-2.82-2.41-6.28-2.54-13.88,1.06-19.66,3.71-1.15,.54-2.75,1.17-4.21,.9-.9-.19-1.3-.56-1.71-.86-2.02-1.75-3.31-3.83-4.67-6.03-.01,0,2.68,.13,2.68,.13l-7.87,10.76c-.84,1.16-2.76,1.1-3.53-.11-2.69-5.23-6.99-13.87-9.69-19.2l1.96-1.02c1.79,3.33,6.35,11.81,8.08,15.03,.41,.74,1.56,2.91,1.95,3.62-.24-.4-.84-.34-1.06,.05,1.03-1.5,8.15-11.81,8.97-13,1.58,2.54,3.19,5.94,5.41,7.77,1.39,.22,3.47-.97,4.84-1.43,6.26-2.44,15.61-5.22,21.14,.05,.45,.47,.83,1.02,1.1,1.62,.1,.19,.12,.46-.24,.77,.44-1.92,.49-3.39-.34-5.06-1.58-3.17-3.48-6.2-5.06-9.4-3.06-6.77-6.89-13.63-13.49-17.44-5.37-3.62-10.15-8.21-16.34-10-2.93-.59-6.21-.77-9.03,.26-1.32,.56-2.33,1.15-2.65,2.57-.51,2.34-.26,5.11,.82,7.24,1.73,2.58,4.8,4.13,7,6.48,3.36,3.16,3.92,8.13,4.07,12.48h0Z"/><path class="cls-7" d="M141.71,36.92c3.77-.2,6.51,3.58,6.69,7.13,.33,2.48-.11,5.1-.56,7.51-.14,.8-.34,1.52-.67,2.43-.7-.7-.92-1.65-.99-2.5-.47-5.27,1.78-12.02-4.47-14.57h0Z"/><path class="cls-7" d="M162.25,47.69s-2.03-1.37-1.3-3.4,2.89-2.82,2.89-2.82l1.37,1.66s-.87-.22-1.95,1.16c-1.09,1.37-1.16,2.1-1.01,3.4Z"/><path class="cls-7" d="M151.68,57.82c-.21,3.5,1.6,6.92,4.74,8.46l-.25-.1,.73,.09-.32,1.61c-.15-.04-.77-.21-.9-.25-3.16-2.12-4.79-6.11-4-9.82h0Z"/><path class="cls-7" d="M155.05,56.3c-.21,3.5,1.6,6.92,4.74,8.46l-.25-.1,.73,.09-.32,1.61c-.15-.04-.77-.21-.9-.25-3.16-2.12-4.79-6.11-4-9.82h0Z"/><path class="cls-7" d="M170.78,55.43c.79,3.71-.85,7.7-4,9.82-.13,.04-.76,.21-.9,.25l-.32-1.61,.73-.09-.25,.1c3.14-1.54,4.95-4.96,4.74-8.46h0Z"/><circle class="cls-1" cx="164.45" cy="56.84" r="7.71"/><path class="cls-7" d="M163.12,60.47c-1.26,0-2.29-1.03-2.29-2.29s1.03-2.29,2.29-2.29,2.29,1.03,2.29,2.29-1.03,2.29-2.29,2.29Zm0-3.76c-.81,0-1.47,.66-1.47,1.47s.66,1.47,1.47,1.47,1.47-.66,1.47-1.47-.66-1.47-1.47-1.47Z"/><path class="cls-7" d="M166.52,54.88c-.45-1.2-1.87-1.71-2.97-2.13-.7-.27-1.43-.43-2.18-.35-.39,.04-.77,.12-1.14,.21-.38,.09-.72,.24-1.09,.37-.2,.06-.17,.29-.09,.44,.05,.08,.11,.16,.2,.2,.03,.01,.27,.02,.25,0l.08-.12c.54-.24,1.21-.35,1.79-.39,.71-.05,1.38,.12,2.04,.38,.98,.38,2.24,.82,2.65,1.89,.07,.17,.28,.1,.38,0,.14-.14,.17-.34,.1-.51Z"/><path class="cls-7" d="M92.72,69.52l1.14,18.85,.04,.59c.21,1.84-1.9,3.22-3.48,2.29-2.72-1.27-10.02-4.68-12.83-6l8.77,3.49,4.39,1.75c.63,.29,1.23,.21,1.7-.24,.51-.46,.41-1.17,.31-1.78l-2.24-18.75,2.2-.2h0Z"/><path class="cls-7" d="M76.13,89.45l13.06,5.66,6.53,2.83c.53,.21,1.13,.55,1.53,.58,.79,.09,1.54-.6,1.51-1.39,0-.24-.21-1.88-.24-2.16l-3.24-28.29,2.2-.21,2.14,28.4c.01,.1,.15,1.98,.15,2,.15,1.44-1.19,2.77-2.63,2.54-.65-.08-1.22-.48-1.77-.72l-6.42-3.08-12.83-6.17h0Z"/><path class="cls-7" d="M71.47,106.54c3.22,2.75,11.34,9.67,14.45,12.32,.8,.68,2.84,2.42,3.61,3.08,.4,.36,.97,.75,1.24,1.25,.92,1.45,.05,3.51-1.57,3.9-.47,.17-1.77,.57-2.26,.74-3.84,1.26-14.09,4.61-18.05,5.91,3.96-1.49,13.96-5.25,17.78-6.69l1.48-.56c.35-.15,1.05-.34,1.32-.57,.85-.64,.82-1.99-.05-2.58-2.55-1.99-6.77-5.28-9.36-7.3l-9.98-7.79,1.4-1.71h0Z"/><path class="cls-7" d="M68.75,128.38l6.88-2.26c.93-.34,2.49-.76,3.36-1.14,.98-.5,1.16-1.96,.32-2.65l-.34-.3c-2.76-2.47-7.32-6.55-10.12-9.06l1.53-1.59c2.32,2.43,6.49,6.76,8.78,9.15l.63,.65c.83,.71,1.31,1.88,.96,2.94-.21,.71-.73,1.32-1.4,1.6-.59,.24-1.24,.33-1.81,.49-1.15,.28-7.51,1.85-8.79,2.17h0Z"/><path class="cls-7" d="M69.94,144.02c2.93,1.46,10.33,5.15,13.16,6.56,.72,.37,2.59,1.28,3.29,1.64,1.31,.58,1.66,2.46,.64,3.47-3.28,3.41-9.01,9.32-12.35,12.78,2.14-2.48,7.53-8.75,9.59-11.15l1.6-1.86,.4-.46c.47-.53,.28-1.43-.39-1.68-2.03-.88-5.81-2.51-7.87-3.4l-9-3.89,.93-2h0Z"/><path class="cls-7" d="M72.66,162.82l3.46-3.5,1.73-1.75c.84-.64,.77-1.79-.21-2.11-2.05-.87-5.85-2.48-7.93-3.37l.98-1.98c1.43,.81,5.05,2.85,6.43,3.63,.24,.14,1.18,.65,1.39,.79,.82,.53,1.17,1.64,.82,2.54-.15,.46-.57,.86-.92,1.12l-1.92,1.55-3.83,3.09h0Z"/><path class="cls-7" d="M90.75,197.42l6.67-19.57,.2-.59c.08-.26-.17-.54-.42-.49l-2.55,.35c-3.26,.45-11.99,1.66-15.35,2.13l-.25-2.19c3.43-.29,12.13-1.03,15.45-1.31l2.58-.22c1.1-.11,2.01,1.05,1.62,2.07l-.25,.63-7.71,19.18h0Z"/><path class="cls-7" d="M87.57,192.49c.72-1.85,2.53-6.52,3.22-8.31,.17-.46,.64-1.63,.81-2.08,.03-.11,.19-.42,.17-.53,0-.21-.2-.41-.37-.39-2.5,.64-7.26,2-9.8,2.69l-.49-2.15c2.55-.45,7.38-1.32,9.88-1.76,1.25-.29,2.35,1.14,1.72,2.24-.29,.6-.86,1.71-1.16,2.32-.85,1.7-3.1,6.22-3.97,7.97h0Z"/><path class="cls-7" d="M112.31,217.24c.48-2.78,1.69-9.79,2.16-12.47,.02-.12,.4-2.31,.4-2.34,.08-.43-.4-.8-.78-.58l-.47,.23c-3.87,1.92-10.25,5.09-14.17,7.04l-.92-2.01c4.07-1.7,10.59-4.43,14.6-6.1l.49-.2c1-.47,2.28,.33,2.25,1.44,0,.44-.51,2.22-.6,2.68-.63,2.62-2.32,9.6-2.97,12.3h0Z"/><path class="cls-7" d="M109.28,216.09c.06-1.35,.19-4.77,.25-6.08l.04-1.01c.01-.4-.45-.69-.76-.47-1.34,.99-4.08,3-5.45,4l-1.18-1.86c1.19-.65,4.2-2.28,5.34-2.9l.45-.24c1.14-.79,2.82,.2,2.56,1.58l-.18,1c-.23,1.27-.84,4.67-1.07,5.99h0Z"/><path class="cls-7" d="M120.37,220.83c2.4-1.53,7.31-4.7,9.65-6.2,1.8-1.44,4.19-.9,5.17,1.19l.46,.76,1.82,3.02,3.65,6.04-4.11-5.74c-.39-.54-2.23-3.11-2.57-3.59-.6-1.1-1.88-1.77-3.02-1.09-.33,.21-1,.75-1.35,1.01-1.79,1.36-6.58,4.99-8.44,6.4l-1.26-1.81h0Z"/><path class="cls-7" d="M125.04,222.59c1-.48,3.51-1.69,4.47-2.15l.75-.36c.87-.58,2.29-.41,2.85,.56,.51,1.07,1.34,3.58,1.79,4.71l-1.65-2.87c-.46-.7-.8-1.95-1.83-1.64-.27,.07-.91,.61-1.2,.79-.86,.61-3.17,2.23-4.06,2.86l-1.12-1.9h0Z"/><path class="cls-7" d="M146.31,225.1c.7-1.56,2.47-5.49,3.14-6.99l.26-.58c.45-1.49,2.2-2.35,3.57-1.44,.55,.37,2.32,1.61,2.89,2.01l4.19,2.92c-1.95-1.06-5.65-3.1-7.56-4.13-.6-.32-1.43-.04-1.69,.58-.1,.28-.29,.86-.38,1.14-.5,1.55-1.85,5.69-2.37,7.29l-2.06-.79h0Z"/><path class="cls-7" d="M149.79,224.2l1.2-2.18,.3-.55c.37-.76,1.19-1.32,2.01-1.35,1.03-.11,1.76,.66,2.44,1.27l1.87,1.64-2.19-1.19c-.63-.3-1.26-.87-1.96-.63-.67,.18-.79,.87-.94,1.43l-.69,2.39-2.04-.84h0Z"/><path class="cls-7" d="M162.88,218.55c.09-1.39,.31-4.89,.4-6.24,.05-.45,.03-1.22,.15-1.67,.24-1.1,1.31-1.93,2.4-1.9,.65,0,1.5,.37,2.13,.51l4.01,1.14-.02,.1-4.12-.63c-.52-.05-1.45-.28-1.95-.24-.66,.08-1.19,.62-1.24,1.25-.03,.24,.07,1.17,.07,1.44,.08,1.33,.31,4.87,.4,6.24h-2.21Z"/><path class="cls-7" d="M167.94,219.34c-.44,0-.88-.15-1.27-.45l-.16-.12c-.83-.63-1.29-1.86-1.22-3.21l.09-1.59c.06-1.09,.47-2.03,1.12-2.59,.45-.39,1.01-.57,1.57-.51,1.27,.14,2.21,1.44,2.28,3.17l.07,1.71c.06,1.51-.55,2.83-1.56,3.35-.3,.15-.61,.23-.93,.23Zm-.07-5.44c0,.07-.02,.14-.02,.21l-.09,1.59c-.02,.37,.04,.67,.12,.87,.05-.18,.09-.42,.08-.72l-.07-1.71c0-.09-.01-.17-.02-.25Z"/><path class="cls-7" d="M175.13,201.29l-3.62-3.51-.45-.44c-1.03-.91-1.25-2.51-.57-3.69,.06-.12,4.53-9.75,4.78-10.28-.35,1.05-3.47,10.26-3.73,11.04-.22,.63,0,1.35,.55,1.73l.5,.39,3.98,3.09-1.45,1.67h0Z"/><path class="cls-7" d="M175.7,197.23l-.83-.92c-.93-.78-1.51-2.43-.87-3.63,.08-.19,2.67-4.5,2.86-4.82l-1.53,4.7c-.15,.43-.22,.69-.19,.98,.09,.7,.36,.89,1,1.32l1.01,.71-1.46,1.66h0Z"/><path class="cls-7" d="M148.94,212.33c-5.03,0-8.84-4.22-10.69-8.55-1.66-3.9-2.36-8.2-2.72-12.4-.07-.53,.31-.9,.75-1.08,5.99-2.66,5.78-10.32,4.44-15.79-.44-2.07-1-4.12-1.66-6.15-.9-3.24-2.66-6.17-2.7-9.73,.43-3.49,3.88-6.86,7.28-7.67,2.64-.6,5.38,1.09,6.57,3.44l-.85-.62c1.99,.05,2.55-2.29,2.58-3.97,.21-5.32-4.33-9.39-8.83-11.62-2.7-1.32-5.59-2.72-8.55-3.15-2.94-.36-6.03,.3-8.82,1.29-2.38,.74-4.42,2.34-7.16,2.38l-.42-.05-.26-.04c-1.09-.18-1.88,.25-2.61,1.17-3.15,4.6-6.23,9.98-11.62,12.42-1.54,.56-3.01,1.06-4.52,1.59-.57,.28-1.29,.05-1.49-.57-.11-.31-.06-.65,.11-.9,.58-.91,1.1-1.98,1.46-3.02,.32-1.05,.65-2.27-.01-3.27,1.45,1.28,1.13,3.57,.95,5.31-.09,.62-.2,1.21-.37,1.86l-1.38-1.48c1.49-.53,3.03-1.05,4.48-1.58,4.03-1.87,6.81-6.01,9.29-9.66,1.05-1.86,2.75-4.25,5.3-4.11,.42,0,.83,.09,1.24,.13,.47,.04,1.16-.17,1.84-.43,2.86-1.21,6.04-2.65,9.22-3.08,3.26-.65,6.88-.1,9.9,1.21,4.57,1.88,9.21,4.16,12.16,8.31,2.04,2.83,2.9,6.6,1.89,10.01-.52,1.96-2.49,3.72-4.67,3.44-.39-.04-.69-.29-.85-.62-.76-1.4-2.44-2.61-4.12-2.22-2.33,.54-5.16,3.19-5.53,5.66,.11,2.96,1.77,5.95,2.59,8.9,1.18,3.67,2.13,7.46,2.49,11.32,.59,5.17-1.44,11.35-6.67,13.39l.75-1.08,.09,3.26c.35,7.03,2.85,16.69,11.11,17.62,.04,0,.08,.03,.08,.08,0,.04-.03,.07-.07,.07h0Z"/><path class="cls-7" d="M144.7,132.25c-9.41-5.58-18.66-5.13-28.5-1.01-4.61,1.92-9.27,4.16-12.93,7.63-3.84,3.31-7.54,7-12.08,9.34,4.95-2.89,8.82-7.29,12.95-11.21,5.43-4.58,11.89-7.93,18.7-9.96,7.43-2.25,16.66-.95,21.86,5.21h0Z"/><path class="cls-7" d="M91.18,154.57l4.04-.28c1.36-.22,2.83,.43,3.47,1.68,.33,.62,.38,1.32,.55,1.96l.45,1.97c1.6,6.54,3.56,13.01,5.98,19.28,1.97,4.97,4.16,9.95,7.51,14.14,10.16,13.02,23.74,23.54,40.81,16.79,5.3-2.04,10.67-5.91,12.22-11.58,.83-4.11,.57-9.51-2.8-12.34-4.02-3.77-9.77,.74-10.93,5.05-.47,1.68-.15,5.08,2.19,4.49,.69-.14,1.3-1.36,1.92-2.57,.69-1.37,1.79-2.98,3.56-3.18,3.25-.52,5.06,3,5.13,5.75,.13,1.98-.92,3.89-2.09,5.31-3.04,3.84-11.87,6.72-16.1,3.66-5.58-4.4-3.89-14.52-1.68-20.3,1.35-3.55,4.03-7.19,7.89-8.46,.51-.23,.72-.83,.59-1.35-.46-3.63,.88-7.18,2.04-10.41,.97-2.58,2.29-5.11,3.81-7.39,.74-1.14,1.47-2.21,1.84-3.27,.42-1.19,.35-2.15,.14-3.45-.21-1.39-.24-2.91-.09-4.31,.14-2.18,.84-4.08,1.08-6.24,.16-2.15-.48-4.19-1.95-5.83l-.04-.04c-.05-.06-.04-.14,0-.19,1.15-1.15,1.64-3.07,.7-4.46-1.49-1.88-7.38,.36-9.76,.38-1.81,.16-3.66-.15-5.44-.46-6.93-1.29-13.21-4.78-20.05-6.1-4.93-.95-10.09-1.19-14.92,.24-7.86,3.44-14.2,9.46-21.37,14.43,2.15-2.82,4.59-5.38,7.17-7.79,3.96-3.61,8.21-7.09,13.33-9.05,5.25-1.59,11-1.34,16.28-.18,8.53,1.72,16.09,7.17,24.89,7.45,2.73,.12,8.74-1.97,10.5,.69,.98,1.73,.27,3.87-1.16,5.07l-.03-.24c1.75,.37,3.17,1.82,3.74,3.52,1.09,3.2-.39,5.9-.63,9.04-.31,2.08,.21,3.84,.24,5.97-.02,2.27-1.42,4.44-2.55,6.1-1.47,2.21-2.68,4.49-3.62,6.95-.93,2.45-1.79,5-2,7.47-.06,.73-.02,1.4,.08,2.07,.09,.87-.16,1.78-.71,2.47-.44,.57-1.07,.95-1.74,1.17-3.08,1.16-5.02,3.96-6.26,7.03-2.16,5.18-4.29,18.56,4.07,18.69,2.49-.11,5.11-.67,7.27-1.88,3.12-1.68,5.7-5.2,3.87-8.68-.46-.92-1.19-1.5-2.21-1.38-1.76,.4-2.1,2.62-3.13,3.98-.93,1.58-3.06,2.4-4.77,1.41-2.24-1.38-2.46-4.37-1.89-6.59,1.55-5.61,8.89-10.64,13.92-5.9,3.9,3.4,4.22,9.28,3.22,14.02-1.73,6.24-7.51,10.39-13.28,12.55-17.75,6.78-31.7-3.95-41.97-17.61-3.34-4.31-5.48-9.39-7.39-14.45-1.87-5.07-3.43-10.26-4.75-15.49-.5-1.89-.93-4-1.34-5.93-.18-1.32-.55-2.7-1.87-3.3-.59-.31-1.27-.37-1.94-.31l-4.04,.2h0Z"/><path class="cls-7" d="M142.73,162.17c-2.85,0-5.31-1.29-5.45-1.37-.6-.32-.83-1.07-.51-1.67,.32-.6,1.06-.83,1.67-.51,.05,.03,3.64,1.88,6.43,.67,1.46-.64,2.5-2.06,3.1-4.25,.18-.66,.86-1.04,1.51-.87,.66,.18,1.04,.86,.87,1.51-.8,2.95-2.32,4.92-4.51,5.87-1.02,.44-2.08,.61-3.1,.61Z"/><path class="cls-7" d="M119.88,117.35l-.67,3.53-2.85-.17s2.5,.41,3.51-3.36Z"/><path class="cls-7" d="M99.99,150.87c2.3-2.8,4.49-6.24,4.22-10.05,1.14,3.9-.37,8.02-2.15,11.52-.97,1.6-3.26-.02-2.06-1.47h0Z"/><path class="cls-7" d="M104.23,147.62c2.3-2.8,4.49-6.24,4.22-10.05,1.14,3.9-.37,8.02-2.15,11.52-.97,1.6-3.26-.02-2.06-1.47h0Z"/><path class="cls-7" d="M107.81,144.36c2.3-2.8,4.49-6.24,4.22-10.05,1.14,3.9-.37,8.02-2.15,11.52-.97,1.6-3.26-.02-2.06-1.47h0Z"/><path class="cls-7" d="M111.5,141c2.3-2.8,4.49-6.24,4.22-10.05,1.14,3.9-.37,8.02-2.15,11.52-.97,1.6-3.26-.02-2.06-1.47h0Z"/><path class="cls-7" d="M120.78,131.06c-.99,2.62-2.23,5.81-5.17,6.77l.44-.32c-3.49,6.25-8.42,11.68-14.75,15.16-.62,.33-1.38,.1-1.72-.51-.35-.64-.08-1.45,.58-1.75,3.01-1.4,5.79-3.36,8.27-5.67,2.48-2.33,4.76-5.01,6.55-7.9,.09-.14,.24-.23,.39-.24,2.62-.53,4.16-3.34,5.4-5.53h0Z"/><path class="cls-7" d="M123.17,130.48c.83,1.67,1.04,5.46-.99,6.4-.42,.17-1.09,.36-1.25-.24-.08-.31,.1-.62,.41-.7,1.1,.08,1.62-1.11,1.83-2.09,.19-1.08,.37-2.32,0-3.37h0Z"/><path class="cls-7" d="M126.14,129.32c.83,1.67,1.04,5.46-.99,6.4-.42,.17-1.09,.36-1.25-.24-.08-.31,.1-.62,.41-.7,1.1,.08,1.62-1.11,1.83-2.09,.19-1.08,.37-2.32,0-3.37h0Z"/><path class="cls-7" d="M129.32,129.03c.83,1.67,1.04,5.46-.99,6.4-.42,.17-1.09,.36-1.25-.24-.08-.31,.1-.62,.41-.7,1.1,.08,1.62-1.11,1.83-2.09,.19-1.08,.37-2.32,0-3.37h0Z"/><path class="cls-7" d="M132.36,128.23c.83,1.67,1.04,5.46-.99,6.4-.42,.17-1.09,.36-1.25-.24-.08-.31,.1-.62,.41-.7,1.1,.08,1.62-1.11,1.83-2.09,.19-1.08,.37-2.32,0-3.37h0Z"/><path class="cls-7" d="M132,128.6c.56,.29,.74,1,.92,1.57,.59,1.98-.19,4.51-2.57,4.64-.31,.03-.59-.19-.62-.51-.04-.34,.24-.64,.58-.62,1.87,.2,2.54-1.91,2.33-3.46-.08-.56-.15-1.25-.64-1.62h0Z"/><path class="cls-7" d="M135.4,128.81c.56,.29,.74,1,.92,1.57,.59,1.98-.19,4.51-2.57,4.64-.31,.03-.59-.19-.62-.51-.04-.34,.24-.64,.58-.62,1.87,.2,2.54-1.91,2.33-3.46-.08-.56-.15-1.25-.64-1.62h0Z"/><path class="cls-7" d="M137.5,134.89c1.08-.09,2.05-.78,2.16-1.89,.1-.77-.06-1.95-.68-2.43l.1-.92c.01-.1,.1-.18,.21-.17,1.27,.62,1.25,2.47,.92,3.65-.31,1.19-1.54,1.87-2.7,1.75h0Z"/><path class="cls-7" d="M142.13,131.27c1.39,.87,1.47,3.7,.14,4.73-.52,.41-2.24,1.2-2.43,.19-.05-.36,.26-.67,.62-.64,.47,.02,.93-.02,1.32-.24,1.2-.66,1.41-3.16,.35-4.05h0Z"/><path class="cls-7" d="M144.88,132.43c1.39,.87,1.47,3.7,.14,4.73-.52,.41-2.24,1.2-2.43,.19-.05-.36,.26-.67,.62-.64,.47,.02,.93-.02,1.32-.24,1.2-.66,1.41-3.16,.35-4.05h0Z"/><path class="cls-7" d="M147.99,134.24c1.39,.87,1.47,3.7,.14,4.73-.52,.41-2.24,1.2-2.43,.19-.05-.36,.26-.67,.62-.64,.47,.02,.93-.02,1.32-.24,1.2-.66,1.41-3.16,.35-4.05h0Z"/><path class="cls-7" d="M151.32,136.63c1.39,.87,1.47,3.7,.14,4.73-.52,.41-2.24,1.2-2.43,.19-.05-.36,.26-.67,.62-.64,.47,.02,.93-.02,1.32-.24,1.2-.66,1.41-3.16,.35-4.05h0Z"/><path class="cls-7" d="M158.34,127.47c-.82-3.54-1.71-8.57-2.66-11.99-1.01-5.27-5.77-7.32-10.74-7.07-7.04-.21-14.62-.48-21.63-.9-.38,0-.71-.31-.68-.7,.02-.3,.25-.55,.53-.6,3.78-1.66,5.33-6.64,6.36-10.35l.42-1.82-.26,1.86c-.72,4-1.8,8.46-5.2,11.06-.31,.2-.55,.38-1.01,.53l-.14-1.3c8.16-.02,16.68-.05,24.84,.31,4.53,.46,8.68,3.91,9.35,8.51,.91,4.13,1.28,8.24,1.4,12.4,0,.34-.5,.43-.59,.07h0Z"/><path class="cls-7" d="M138.57,106.87c-.5-3.74,2.78-6.32,6.01-7.4,3.73-1.31,7.01,2.09,8.72,4.95,0,.01,.02,.03,.03,.04-.11-.19-.34-.35-.54-.39,.25,.01,.66-.04,1.03-.1,5.03-.94,9.99-2.46,14.92-3.86,2.15-.17,4.54,.77,5.89,2.52,1.01,1.22,1.51,2.87,1.46,4.43v1.34c0,.45-.27,.84-.66,1.01l-17.64,7.78-.19,.08c-.47,.2-1.01-.02-1.21-.48-.13-.45-.38-1-.7-1.48-.61-.92-1.44-1.71-2.44-2.21-.51-.28-1.07-.45-1.66-.61,2.24-.21,4.5,.74,6.05,2.37,.24,.26,.45,.47,.69,.84l-1.44-.52,17.64-7.78-.66,1.01v-1.34c.09-1.83-.97-3.63-2.67-4.35-.67-.32-1.31-.36-2.27-.45l.42-.04c-4.3,1.25-8.58,2.48-12.95,3.49-1.32,.25-2.57,.65-3.98,.54-.38-.05-.77-.28-.97-.61-1.42-2.13-3.4-4.93-6.24-4.06-1.87,.72-4.27,1.99-4.46,4.23-.03,.29-.01,.54,0,.94l-2.2,.12h0Z"/><path class="cls-7" d="M102.85,104.41c-1.73-1.41-3.76-.19-5.34,.82-.84,.54-1.57,1.21-2.01,2.13-.44,.93-.66,2.06-.6,3.09,.06,1.07,.39,2.42,1.48,2.65,4.14,.88,5.61-1.48,6.56-3.33,.49-.95,1.06-2.03,1.03-3.13-.03-.86-.46-1.69-1.12-2.23Z"/><path class="cls-7" d="M101.91,119.52c-.11-.68-.35-1.28-.96-1.65-.68-.41-1.43-.72-2.24-.6-.73,.12-1.48,.44-2.12,.8-1.27,.72-1.78,2.56-1.36,3.92,.2,.66,.64,1.24,1.27,1.55,.33,.16,2.28,.49,2.44,.46,1.25-.22,2.32-1.16,2.78-2.34,.27-.69,.3-1.43,.19-2.15Z"/><circle class="cls-7" cx="104.54" cy="112.67" r="1.73"/><circle class="cls-7" cx="105.44" cy="117.38" r="2.14"/><path class="cls-7" d="M104.07,125.64s.39-4.03,1.44-4.57,2.06-.9,2.86-.29c1.1,.85,.58,2.53-.22,2.75s-4.08,2.11-4.08,2.11Z"/><path class="cls-7" d="M176.07,181.86s-1.52-7.06-2.61-7.6-3.26,3.04-3.26,3.04c0,0-.33-4.99-1.85-6.08s-3.58,3.91-3.58,3.91l-2.5,.11s.11-4.56-2.5-4.67-.76,5.54-.76,5.54c0,0,14-3.69,17.04,5.75Z"/><path class="cls-7" d="M160.55,173.17s3.26-1.09,5.1-.33,7.82,4.34,9.77,7.16c1.95,2.82-8.14-4.88-10.64-4.88s-4.12,.33-4.12,.33l-.11-2.28Z"/><path class="cls-7" d="M159.28,208.87c-.36,0-.71-.15-.95-.45l-2.67-3.23c-.43-.52-.36-1.3,.17-1.73,.52-.43,1.3-.36,1.73,.17l2.67,3.23c.43,.52,.36,1.3-.17,1.73-.23,.19-.51,.28-.78,.28Z"/><path class="cls-7" d="M163.69,169.27c-.51,0-.98-.32-1.16-.81,0-.02-.49-1.12-2.35-1.89-1.56-.64-3.18,1.34-3.2,1.36-.35,.45-.96,.59-1.48,.36-.52-.24-.8-.8-.7-1.36,1.04-5.35,7.06-8.61,16.51-8.96,7.57-.28,13.45-3.3,13.51-3.33,.25-.13,.53-.17,.81-.12,.43,.09,.79,.39,.98,.81,.32,.73,.19,1.78-1.47,4.51-2.29,3.76-9.82,8.24-13.39,8.55-3.57,.31-4.5-.54-6.75-2.58l-.24-.22c.23,.92,.24,1.88,.15,2.59-.07,.57-.52,1.01-1.08,1.07-.05,0-.09,0-.14,0Zm-.69-7.4c1.31,.02,2.52,1.09,2.96,1.49l.7,.63c2.07,1.88,2.39,2.17,4.88,1.95,2.86-.25,9.64-4.32,11.5-7.37,.14-.22,.26-.43,.37-.62-2.58,.99-6.91,2.31-12.01,2.49-3.33,.12-6.16,.61-8.4,1.43Zm-3.47,2.11c.39,0,.8,.06,1.2,.18-.02-.13-.02-.27,.01-.41,.07-.36,.26-.79,.59-1.15-.8,.41-1.49,.88-2.07,1.39,.09,0,.18,0,.27,0Z"/><path class="cls-7" d="M118.97,167.31l17.58,23.43-.47,.07c1.8-7.05,1.2-15.37-3.12-21.4-3.48-4.4-9-6.56-14.15-8.5-1.84-.78-3.84-1.23-5.3-2.74l1.19-.26c-1.31,6.68-2.56,16.45,2.43,21.77,4.83,5.77,11.4,10.64,19.19,10.25,1.45-.02,1.53,2.13,.07,2.21-8.45,.28-15.59-5.04-20.61-11.31-2.82-3.01-3.69-7.44-3.75-11.42-.07-4.01,.45-7.94,1.36-11.83,.08-.36,.45-.58,.8-.5,.16,.04,.29,.13,.38,.25,.18,.24,.55,.49,.91,.71,8.15,3.86,17.9,6.11,20.8,15.97,1.79,5.46,1.88,11.44,.29,16.97-.04,.14-.19,.22-.32,.18-.18,.03-17.17-23.78-17.3-23.85h0Z"/><path class="cls-7" d="M163.27,151.51c2.63-4.34,6.22-7.83,9.65-11.49,3.44-3.54,6.95-6.99,10.53-10.37-3.32,3.63-6.56,7.34-9.71,11.1-3,3.73-6.29,7.47-8.49,11.72-.62,1.42-2.72,.4-1.98-.97h0Z"/><path class="cls-7" d="M173.46,132.58c.52,3.55-.83,7.21-1.73,10.63l-.92-.66c3.3-2.39,6.53-4.92,10.14-6.82-3.39,2.23-6.36,5.04-9.39,7.72-.45,.42-1.17-.11-.92-.66,1.24-3.25,2.95-6.65,2.83-10.21h0Z"/><path class="cls-7" d="M91.44,109.89c-.23-.33-.61-.43-1-.4-.37,.03-.74,.14-1.09,.25-.37,.12-.74,.28-1.06,.5-.32,.22-.59,.51-.75,.87-.21,.45-.19,.94-.1,1.42,.08,.42,.19,.89,.5,1.21,.14,.14,.33,.22,.53,.21,.17,0,.78-.06,1.07-.37,.37-.4,.7-.83,1.05-1.24,.31-.37,.64-.73,.84-1.17,.18-.39,.27-.9,0-1.27Z"/><path class="cls-7" d="M88.42,103.83c-.32-.25-.68-.46-1.09-.52-.35-.05-.73,.05-1.01,.28-.68,.56-.56,1.55-.23,2.27,.16,.35,.41,.69,.73,.9,.18,.12,.37,.2,.58,.23,.17,.03,1.06,.01,1.35-.14,.37-.19,.6-.57,.68-.97,.16-.85-.38-1.56-1.01-2.06Z"/><path class="cls-7" d="M94.6,104.32c-.13-.72-.76-1.33-1.5-1.33-.11,0-.2,.08-.26,.18-.06,.02-.12,.03-.19,.06-.16,.07-.3,.16-.44,.28-.27,.23-.49,.52-.61,.86-.23,.65-.11,1.39,.34,1.92,.22,.26,.57,.49,.92,.49,.38,0,.72-.23,1-.47,.55-.48,.86-1.26,.73-1.99Z"/><path class="cls-7" d="M97.83,160.68c-.09-.89-.21-1.78-.99-2.33-.74-.52-1.72-1.06-2.65-1.05-.83,.01-1.61,.46-2.16,1.06-.64,.7-.98,1.61-1.13,2.53-.15,.98-.19,2.06,.02,3.03,.2,.96,.78,1.79,1.6,2.32,.29,.19,3.07,.33,3.71-.23,.7-.62,1.25-1.36,1.5-2.27,.28-1,.2-2.05,.1-3.07Z"/><path class="cls-7" d="M94.3,170.79c.16-.6,0-1.27-.32-1.79-.27-.44-.71-.83-1.25-.8-.6,.03-1.08,.51-1.11,1.11-.03,.6,.41,1.11,.88,1.41,.27,.18,.56,.31,.88,.38,.16,.04,.33,.06,.49,.07,.19,0,.44,0,.44-.24,0-.04,0-.08-.02-.11,0,0,0-.02,.01-.03Z"/><path class="cls-7" d="M100.28,168.58c.02-.41-.03-.82-.13-1.22-.1-.4-.24-.8-.63-1-.18-.09-.38-.14-.55-.25-.2-.13-.37-.26-.62-.22-.38,.05-.72,.38-.91,.7-.41,.7-.38,1.57-.11,2.31,.16,.45,.4,.85,.7,1.22,.14,.17,.3,.33,.47,.47,.08,.07,.17,.14,.26,.2,.18,.12,.27,.16,.49,.17,.21,.01,.24-.18,.2-.34,.52-.55,.78-1.29,.82-2.04Z"/><path class="cls-7" d="M103.47,181.16c-.34-.76-.92-1.68-1.88-1.59-.99,.1-1.34,1.28-1.31,2.13,.03,.87,.44,1.74,1.16,2.24,.39,.28,.84,.45,1.31,.51,.12,.02,.24,.02,.37,.02,.16,0,.45,0,.58-.06,.2-.09,.18-.3,.08-.46,.31-.94,.09-1.91-.3-2.8Z"/><path class="cls-7" d="M104.9,189.51c-.05-.41-.09-.88-.27-1.26-.16-.35-.53-.54-.85-.73-.35-.21-.73-.38-1.14-.39-.81-.01-1.44,.66-1.36,1.48,.08,.81,.79,1.42,1.38,1.91,.32,.27,.69,.52,1.1,.63,.19,.05,.44,.1,.66,.07,.05,.09,.14,.15,.25,.11,.18-.06,.26-.27,.27-.44,.03-.46,.02-.92-.03-1.37Z"/><path class="cls-7" d="M109.21,187.97c-.53-1.59-1.18-3.13-1.93-4.6-.11-.21-.31-.12-.4,.03-.02,.03-.03,.07-.05,.1-.01-.02-.02-.05-.04-.07-.16-.15-.33,.04-.4,.21-.53,1.23-.51,2.83,.08,4.08,.31,.65,.74,1.11,1.35,1.18,.28,.03,.55-.01,.83-.07,.19-.04,.4-.06,.46-.25,.11-.16,.17-.42,.1-.62Z"/><path class="cls-7" d="M118.29,175.27l11.11,5.03-.79,.68-3.84-13.24,4.91,12.88c.2,.47-.36,.94-.79,.68l-10.6-6.04h0Z"/><path class="cls-7" d="M147.6,68.38c.96,2.06,2.65,5.55,5.14,5.68,.49,0,1.07-.19,1.55-.33,2.36-.77,4.26-2.64,6.63-3.7,3.76-1.84,8.28-1.67,12.07-.25,2.54,.88,7.77,3.93,6.6,7.17-.3,.74-1,1.34-1.74,1.52-3.87,1.17-8.08,.3-11.64-1.33-2.29-1.07-4.7-1.97-6.81-3.37-.14-.11-.28-.31-.12-.5,.32-.3,.64,.28,.22,.37,.04,0,.08-.02,.11-.05,.07-.08,.07-.15,.04-.21,0,0,.03,.02,.06,.05,2.12,1.29,4.5,2.12,6.77,3.1,2.36,.98,4.87,1.64,7.39,1.59,1.26-.02,2.51-.21,3.68-.6,1.02-.27,1.49-1.52,.99-2.38-.63-1.01-1.59-1.82-2.63-2.47-4.17-2.45-9.74-3.06-14.01-.69-2.68,1.52-5.08,4.01-8.33,4.61-4.37,.76-7.09-3.75-8.65-7.1-.74-1.82,1.93-2.92,2.69-1.1h0Z"/><path class="cls-7" d="M178.16,73.86c.4,.3,.97,.16,1.19-.28,.43-.86,1.08-2.19,1.46-2.98,.94-2.03,.05-3.8-.43-4.73-.11-.22-.44-.2-.53,.03-.44,1.12-1.75,3.25-5.02,1.63-.75-.37,3.18,2.57,2.93,3.58s-3.26,.04-3.26,.04l3.65,2.72Z"/><path class="cls-7" d="M175.45,72.16c-3.5-2.27-7.98-2.89-11.9-1.41-2.5,.85-5.21,2.19-6.52,4.53-.21,.43-.52,1.18-.32,1.58,.18,.38,.82,.68,1.43,.86,1.27,.38,2.66,.52,4.05,.64,4.25,.52,8.29,.09,12.62,.14,1.73,.13,3.78,.08,5.06,1.62,.82,1.28,.52,2.98,.14,4.31-.43,1.45-1.09,2.78-1.85,4.04-1.8,2.87-5.16,6.76-8.84,6.96-1.22,.04-2.31-1.15-2.37-2.31l2.09,.35c-1.15,2.24-2.48,4.31-4.37,6.01-.84,.67-2.97,2.47-3.75,.77-.08-.22-.08-.44-.03-.65,.35-1.59,.58-4.03-.48-5.29l1.68-.05c-1.97,2.23-4.08,4.54-7.14,5.18-.6,.09-1.16-.31-1.25-.91-.04-.61,.28-1.16,.35-1.78,.18-1.06,.41-2.43-.11-3.36l1.73,.14c-1.67,1.73-3.42,3.3-5.55,4.46-.95,.47-3.42,1.66-3.75-.18-.06-.66,.43-.91,.8-1.4,1.03-1.32,1.46-3.05,1.24-4.71l1.97,.53c-.49,.62-.98,1.17-1.51,1.72-.96,1.2-6.49,5.82-7.26,2.89,.12-1.38,.59-3.55-.21-4.69l1.82-.12c-3.36,4.9-6.53,9.98-10.65,14.28-.3,.27-.6,.55-1.01,.73-.09,.04-.19,0-.23-.09-.04-.09,0-.19,.09-.23,2.31-1.99,3.7-5.02,5.34-7.58,1.58-2.71,3.1-5.47,4.56-8.24,.28-.52,.92-.72,1.45-.45,1.09,.83,1.22,2.33,1.29,3.53,.02,1.01-.08,1.92-.28,2.93l-1.21-1.33c1.83-.33,3.4-1.87,4.7-3.17,.87-.7,1.6-2.68,2.92-1.76,.24,.19,.38,.46,.41,.74,.33,2.6-.48,5.26-2.39,7.12l-.81-1.93c2.61-.49,4.81-2.77,6.67-4.59,1.41-1.2,2.26,.89,2.34,1.97,.18,1.64-.12,3.15-.57,4.71l-1.21-1.43c1.71-.34,3.2-1.73,4.45-2.95,.85-.68,1.58-2.51,2.85-1.59,1.86,2.02,1.6,4.94,1.1,7.43l-1.43-1.31c1.74-.65,3.3-2.71,4.36-4.38,.4-.64,.79-1.33,1.11-1.98,.47-.97,1.98-.66,2.07,.39,.02,.2,.08,.33,.1,.35,.4,.23,1.06-.06,1.68-.34,3.46-1.82,6.14-5.3,7.43-8.95,.28-.92,.52-1.88,.22-2.77-.05-.12-.12-.2-.24-.3-.9-.64-2.42-.75-3.59-.84-2.74-.17-5.55,.04-8.43-.09-2.33-.38-10.63-.22-10.63-3.37,.58-3.67,4.54-5.44,7.68-6.44,4.09-1.41,8.76-.7,12.32,1.74,.2,.16,0,.45-.22,.3h0Z"/><path class="cls-7" d="M133.84,88.72c6.3,.48,11.98-3.46,15.96-7.99,.53-.58,1.5,.02,1.23,.75-.82,1.96-1.87,3.74-3.42,5.22-.88,.88-2.14,1.5-3.41,1.78,.01-.02,0,.04,.15-.15,.03-.04,.08-.15,.08-.23,.05-.18-.08-.5-.18-.55-.1-.07,0,0,.07,0,4.03,.65,8.73-.28,11.99-2.78,.31-.25,.77-.2,1.02,.11,.16,.2,.2,.47,.12,.7-.27,.76-.6,1.4-1.03,2.04-.7,1.15-2.27,2.34-3.55,2.53,.25-.15,.38-.51,.28-.81-.15-.33-.26-.38-.47-.46,1.68-.08,3.76-.65,5.36-1.45,1.15-.58,2.2-1.38,2.73-2.41,.18-.37,.63-.53,1-.34,.32,.17,.47,.54,.37,.87-.27,.87-.6,1.62-1.04,2.37-.76,1.32-1.88,2.56-3.32,3.18-.04,.01-.39,.18-.35,.16,.03-.03,.03-.02,.11-.14,.2-.3,.03-.84-.33-.95,.32,0,1.22-.12,1.73-.26,2.74-.7,6-2.09,7.11-4.81,.13-.39,.56-.59,.95-.45,.32,.12,.51,.44,.47,.77-.09,.85-.28,1.59-.55,2.35-.58,1.77-1.84,3.31-3.45,4.24,.28-.32,.03-.94-.39-1,1.56-.27,3.09-1.16,4.38-2.13,1.09-.86,2.01-1.92,2.5-3.14,.15-.38,.58-.57,.96-.42,.33,.13,.51,.47,.46,.8-.12,.78-.28,1.52-.48,2.28-.19,.81-.75,2.26-1.25,2.57,.22-.26,.18-.78-.12-.99-.09-.1-.39-.18-.46-.15,2.52-.84,4.94-2.28,7.01-3.93,1.1-.92,2.11-1.97,2.71-3.17,.44-.85,1.74-.21,1.31,.67-1.54,2.87-4.23,4.66-6.94,6.2-1.24,.65-2.43,1.29-3.8,1.66-.18,.02-.27,.07-.55-.02-.41-.13-.63-.66-.41-1.05,.09-.16,.18-.25,.26-.31,.23-.21,.34-.51,.5-.88,.37-.98,.59-2.07,.76-3.11l1.41,.38c-1.29,3.04-4.1,4.93-7.1,5.98-.63,.17-1.52,.51-1.99-.2-.19-.36-.12-.63,.04-.9,.22-.34,.67-.57,.94-.76,1.7-1.07,2.54-3.17,2.79-5.1l1.42,.32c-1.41,3.37-4.9,4.86-8.15,5.72-.79,.17-1.54,.36-2.38,.27-.22-.04-.43-.14-.59-.34-.28-.34-.14-.9,.17-1.13,.28-.23,.47-.27,.72-.39,1.82-.82,2.91-2.73,3.52-4.59l1.36,.53c-1.78,3.08-5.34,4.08-8.58,4.61-.62,.03-1.43,.27-1.75-.5-.13-.34,.08-.76,.35-.91,.33-.17,.42-.16,.7-.24,1.62-.43,2.67-1.99,3.25-3.52l1.16,.8c-3.33,2.58-7.57,3.43-11.7,3.28-.75-.09-1.5-.04-2.23-.55-.53-.45-.33-1.23,.25-1.48,.3-.16,.61-.2,.88-.28,2.62-.75,4.18-3.54,5.25-5.92l1.22,.77-1.77,1.62c-4.18,3.51-9.69,6.25-15.26,5.37h0Z"/><path class="cls-7" d="M138,47.8c2.24,2.44,3.77,5.46,5.47,8.29,1.64,2.88,3.22,5.79,4.76,8.74l-2.07,.76-1.73-8.02c-.54-2.35-1.21-5.7-1.84-7.99,1.75,4.32,4.06,10.97,5.69,15.4l-2.07,.76c-1.19-3.06-2.43-6.12-3.74-9.15-1.37-2.98-2.54-6.12-4.48-8.78h0Z"/><path class="cls-7" d="M157.23,122.47c-1.8-2.84-4.72-6.31-8.31-4.97-2.44,1.93-1.31,7.73-1.07,10.62-1.67-3.62-3.93-11.86,1.9-12.78,4.09-.45,7.24,3.25,8.04,6.92,.08,.33-.4,.5-.55,.21h0Z"/><path class="cls-7" d="M139.16,117.16c-2.18-2.09-6.57-2.55-9.36-3.31-1.65-.42-3.3-.92-4.91-1.49-2.42-.93-5.42-1.96-6.79-4.52-1.89-4.14-1.74-8.99,.09-13.09,.71-1.58,1.69-3.11,3.05-4.19-.87,1.47-1.38,3.05-1.79,4.63-.91,3.8-.9,8.04,.55,11.65,1.14,1.99,3.45,2.8,5.56,3.78,1.52,.67,3.07,1.27,4.65,1.82,3.06,1.2,6.87,1.9,8.93,4.71h0Z"/><path class="cls-7" d="M137.06,124.55c.7-2.45,.69-4.75-2.18-5.4-4.45-.58-8.97-.87-13.35-1.93-2.42-.6-4.99-1.23-6.97-2.81,2.2,1.21,4.71,1.47,7.14,1.8,3.7,.38,7.41,.51,11.13,.56,1.17,0,2.68,.01,4.1,.62,3.17,1.26,3.47,5.28,2.17,8.01-.6,1.29-2.52,.47-2.04-.85h0Z"/><path class="cls-7" d="M113.11,112.46c-8.15-7.71-4.76-18.94,3.23-25.28,.27-.29,.74-.36,1.01-.02,.14,.17,.17,.4,.09,.6-.17,.47-.22,1.08-.17,1.6,.06,.59,.32,1.11,.76,1.53-.64-.19-1.17-.71-1.46-1.31-.31-.66-.42-1.31-.41-2.06l1.1,.58c-5.72,8.23-8.77,14.63-4.15,24.36h0Z"/><path class="cls-7" d="M115.93,97.26c-2.07-.73-3.94-2.73-3.84-5.1-.01-.62,.48-1.13,1.1-1.15,.62-.01,1.13,.48,1.15,1.1,0,.14-.02,.28-.07,.41-.72,1.73,.32,3.54,1.66,4.74h0Z"/><path class="cls-7" d="M115.75,102.74c-2.13,.53-4.79-.11-6.01-2.14-.35-.51-.23-1.21,.28-1.56,.51-.35,1.21-.23,1.56,.28,.08,.12,.14,.24,.17,.38,.35,1.84,2.22,2.77,4,3.04h0Z"/><path class="cls-7" d="M115.78,107.19c-1.38,.72-3.2,1.06-4.77,.46-.96-.37-2.66-1.37-1.72-2.57,.4-.47,1.11-.53,1.58-.13,.11,.09,.2,.2,.26,.32,.81,1.69,2.86,2.11,4.65,1.92h0Z"/><path class="cls-7" d="M117.16,112.39c-2.37-.33-5.48-.74-6.53-3.27-.1-.29,.05-.61,.35-.7,.29-.09,.6,.06,.69,.35,.59,2.24,3.49,3.02,5.5,3.62h0Z"/><path class="cls-7" d="M123.89,114.99l-3.45,1.61c-.13,.06-.28,0-.34-.12-.07-.14,0-.31,.16-.35l3.64-1.14h0Z"/><path class="cls-7" d="M131.49,115.93l-3.45,1.61c-.13,.06-.28,0-.34-.12-.07-.14,0-.31,.16-.35l3.64-1.14h0Z"/><path class="cls-7" d="M161.61,143.48c-.54-2.2-1.51-4.73-3.91-5.35-.74-.22-1.68-.27-2.83-.21,.77-1.63,3.04-2.47,4.79-1.85,2.44,.71,4.05,3.11,4.44,5.52,.19,1.09,.39,3.03-1.26,2.99-.64-.03-1.11-.52-1.22-1.12h0Z"/><path class="cls-7" d="M163.86,152.99c4.77,1.2,10.13-.17,13.73-3.54,2.14-2.07,3.79-4.66,5.26-7.25,2.08-3.54,2.12-7.62,2.84-11.6,.68-4.09,1.38-8.11,2.22-12.22l2.11,1.28c-.71,.54-1.33,.88-2.09,1.25-3.28,1.77-7.16,1.41-10.6,2.37-3.78,1.43-7.34,4.23-9.26,7.88-1.24,2.15-1.95,4.61-3.23,6.75-.21,.29-.43,.6-.76,.74,.32-.17,.51-.49,.69-.79,1.65-3.59,2.38-7.62,4.98-10.75,1.97-2.26,4.24-4.1,7.02-5.37,2.69-1.11,5.63-1.01,8.25-2.14,.92-.37,1.8-.82,2.6-1.38,.25-.17,.54-.39,.7-.54,.52-.48,1.33-.45,1.81,.07,.31,.34,.41,.8,.3,1.21-.93,3.93-1.78,8-2.57,12-.82,4.05-1.15,8.53-3.43,12.11-3.35,5.68-7.59,10.59-14.53,11.38-2.15,.23-4.26,.13-6.36-.48l.32-1h0Z"/><path class="cls-7" d="M141.8,53.4l5,6.07c.55,.66,.66,1.54,.36,2.29l-5.78,14.77c-.24,.6-.7,1.05-1.25,1.28l-21.12,8.92,.95-3.56,5.65,7.38c.37,.49,.53,1.08,.47,1.64l-1.07,11.29-.56-1.76c2.29,2.55,4.63,5.31,7.3,7.43,.12,.09,.3,.18,.17,.12-.04-.01-.12-.04-.27-.07-.03,0-.11-.02-.16-.02h.01l.48,.02c3.74,.17,8.87,.81,12.62,1.1,1.22,.11,2.12,1.16,2.09,2.37l-.46,13.46-1.1-2.02s9.33,5.66,9.33,5.67c.76,.46,1.15,1.3,1.07,2.12l-1.11,12.59c-.14,2.07-2.98,2.77-4.08,1.06-3.16-4.42-7.93-7.97-13.22-9.23-11.56-2.61-21.95,5.39-29.65,13.32-14.09,14.15-18.75,29.41-2.94,44.49,8.53,8.06,19.44,13.74,30.38,17.88l-.49-.08c4.58,.07,9.25-.14,13.84-.61,6.02-.75,18.03-2.15,20.59-8.25,.16-.51,.24-.84,.28-1.4,.43-4.62,.82-9.27,.81-13.9,.1-1.01-.49-2.41,.68-2.89l4.58-1.83c.59-.25,1.27,.03,1.51,.62,.31,4.72,.1,9.48,0,14.21-.14,2.09-.42,15.61-3.24,14.23-.36-.22-.49-.66-.33-1.03,1.7-4.18,3.03-8.61,3.8-13.08,.84-5.36,1.32-11.74-2.48-16.08-5.66-6.02-14.65-7.66-21.83-3.24,5.82-3.97,14-3.77,19.69,.44,4.36,2.72,6.15,7.09,6.33,12.08,.26,7.05-1.56,13.95-3.98,20.52l-1.47-.76c.21-.35,.38-.86,.52-1.37,.88-3.83,.9-7.82,1.01-11.75,.06-4.55-.03-9.13-.23-13.67l1.59,1.02-4.54,1.93,.74-1.25c.32,4.79-.06,9.52-.37,14.29l-.14,1.76c-.08,2.04-1.18,4.14-2.62,5.49-7.07,6.7-25.76,7.93-35.28,7.71-18.23-6.58-45.21-21.17-42.99-43.87,1.06-9.62,7.2-17.6,13.61-24.42,12.58-13.69,30.8-22.59,46.33-7.54,1.2,1.2,2.26,2.38,3.24,3.81l-4.1,1.03,1.06-12.59,1.08,2.13-9.35-5.63c-.73-.44-1.13-1.23-1.1-2.02l.41-13.46,2.09,2.37c-3.73-.25-9.08-.91-12.73-1.05-1.55,0-2.76-1.15-3.8-2.03-2.44-2.21-4.57-4.57-6.73-7.01-.44-.5-.62-1.13-.57-1.75,0-.02,1.1-11.29,1.1-11.31l.47,1.64-5.64-7.39c-.93-1.18-.44-3,.95-3.56l21.14-8.88-1.25,1.28,5.8-14.76,.36,2.29-4.99-6.08c-1.83-2.29,1.51-5.22,3.53-2.9h0Z"/></g></svg>