<?xml version="1.0" encoding="UTF-8"?><svg id="Layer_1" xmlns="http://www.w3.org/2000/svg" viewBox="0 0 520 240"><defs><style>.cls-1{fill:none;}.cls-2{fill:#fff;}.cls-3{fill:#fff0a4;}.cls-4{fill:#ffe6d2;}.cls-5{fill:#ffdb2c;}.cls-6{fill:#bf4094;}.cls-7{fill:#232323;}.cls-8{fill:#1c5143;}.cls-9{fill:#5be397;}.cls-10{opacity:.15;}</style></defs><g><path class="cls-4" d="M119.17,237.94C54.13,237.94,1.21,185.03,1.21,119.98S54.13,2.03,119.17,2.03H384.23c65.04,0,117.96,52.92,117.96,117.96s-52.92,117.96-117.96,117.96H119.17Z"/><path d="M384.23,3.24c64.48,0,116.74,52.27,116.74,116.74h0c0,64.48-52.27,116.74-116.74,116.74H119.17C54.69,236.73,2.43,184.46,2.43,119.98h0C2.43,55.51,54.69,3.24,119.17,3.24H384.23m0-2.43H119.17C53.46,.81,0,54.27,0,119.98s53.46,119.17,119.17,119.17H384.23c65.71,0,119.17-53.46,119.17-119.17S449.94,.81,384.23,.81h0Z"/></g><g><path class="cls-3" d="M465.1,35.18s.08,.07,.12,.12H38.17s.08-.08,.12-.12C59.27,15.01,87.76,2.62,119.17,2.62H384.23c31.4,0,59.88,12.39,80.86,32.56Z"/><path d="M467.61,36.51H35.73l1.71-2.2C59.52,13.09,88.54,1.41,119.17,1.41H384.23c30.6,0,59.6,11.67,81.66,32.86,.11,.09,.21,.2,.3,.32l1.41,1.93Zm-426.38-2.43H462.16c-21.34-19.53-48.9-30.25-77.93-30.25H119.17c-29.04,0-56.6,10.72-77.94,30.25Z"/></g><g><path class="cls-3" d="M499.77,136.13s0,.08-.02,.12H3.65s-.02-.08-.02-.12c-.79-5.47-1.2-11.08-1.2-16.77s.41-11.29,1.2-16.76c0-.05,0-.08,.02-.12H499.74s.02,.07,.02,.12c.79,5.47,1.2,11.07,1.2,16.76s-.41,11.3-1.2,16.77Z"/><path d="M500.39,137.46H2.99l-.36-.56c-.17-.26-.21-.52-.22-.68-.8-5.56-1.2-11.24-1.2-16.87s.4-11.29,1.2-16.86c0-.16,.04-.42,.22-.69l.36-.55H500.38l.36,.53c.19,.27,.23,.55,.24,.71,.8,5.57,1.2,11.24,1.2,16.86s-.4,11.31-1.2,16.87c0,.16-.05,.43-.23,.7l-.36,.53ZM4.7,135.03H498.69c.7-5.18,1.06-10.45,1.06-15.68s-.36-10.49-1.06-15.67H4.7c-.7,5.18-1.06,10.44-1.06,15.67s.36,10.5,1.06,15.68Z"/></g><g><path class="cls-3" d="M384.23,236.1H119.17c-31.4,0-59.9-12.39-80.88-32.56-.04-.04-.08-.07-.12-.12H465.22s-.07,.08-.12,.12c-20.98,20.17-49.46,32.56-80.86,32.56Z"/><path d="M384.23,237.32H119.17c-30.63,0-59.65-11.68-81.72-32.9-.1-.09-.18-.17-.25-.26l-1.47-1.95H467.61l-1.41,1.93c-.09,.12-.18,.22-.3,.32-22.06,21.19-51.06,32.86-81.66,32.86ZM41.21,204.64c21.34,19.52,48.91,30.25,77.96,30.25H384.23c29.03,0,56.59-10.72,77.93-30.25H41.21Z"/></g><path class="cls-2" d="M264.56,106.13c-.73-3.43-2.24-7.04-5-9.32-.03-.02-.05-.04-.08-.06-.91-1.03-1.97-1.91-3.21-2.55-1.78-.93-3.73-1.43-5.62-2.12-3.07-1.11-5.52-3.46-6.46-6.63-1.13-3.8,.32-7.78,.03-11.64-.14-1.88-.52-4.66-2.39-5.62-1.92-.99-4.24,.87-5.72,1.98-1.7,1.28-3.04,2.79-3.76,4.83-.66,1.9-.69,4.04-.74,6.04-.09,3.65,.24,7.56,2.18,10.75,1.97,3.23,5.36,5.15,8.99,5.93,2.02,.43,4.1,.6,6.15,.6,2.1,0,4.4-.35,6.4,.46,.49,.2,.93,.46,1.34,.76,.08,.1,.17,.2,.25,.31,1.88,2.57,2.4,5.96,2.91,9.02,.17,1.05,1.48,1.64,2.43,1.38,.97-.27,1.42-1.1,1.42-2.01,.64-.41,1.08-1.15,.87-2.1Z"/><path class="cls-3" d="M269.98,195.16s-5.85-2.51-7.73-5.85c-1.88-3.34-3.55-15.25-3.55-15.25,0,0,3.34-.21,4.39-3.55,1.04-3.34,1.88-3.76,1.25-9.4s-5.01-14.62-4.39-17.97,3.76-6.69,6.06-6.89,5.64,2.92,5.64,2.92c0,0,1.46,.63,2.72-2.51,1.25-3.13-1.46-7.94-1.67-8.77s2.51-4.18,1.46-5.64c-1.04-1.46-5.01-11.7-5.01-11.7l-6.89-17.34,2.3-5.22,5.01-.63,4.6,4.39,17.34-3.55,3.13,1.67,1.46,4.18-17.34,8.36,.21,3.76,1.25,7.1,5.22,10.38-.63,12.4-6.89,14.83-1.04,8.36s-2.92,15.46-2.72,20.27c.21,4.81,8.57,12.12,8.57,12.12l-12.74,3.55Z"/><path class="cls-9" d="M274.89,59.89s10.45-5.95,15.88-4.7c5.43,1.25,8.25,1.67,9.19,.94s.52-2.3-.94-4.28c-1.46-1.98-6.16-14.83-9.3-17.55s-13.27-10.76-17.34-12.95c-4.07-2.19-6.06-3.76-10.45-3.34-4.39,.42-7.52,1.78-7.83,2.82s-1.46,6.89,1.25,9.09c2.72,2.19,7.21,5.95,8.77,8.15s3.24,10.66,4.49,13.37c1.25,2.72,3.76,7.63,6.27,8.46Z"/><path class="cls-9" d="M297.42,73.64c3.06-4.32,3.62-4.87,2.23-5.71-1.39-.84-4.32-1.67-8.36-1.25s-7.94,0-9.89-.42c-1.95-.42-3.76-1.67-3.48-3.2,.28-1.53-1.39,0-1.39,0l-4.74-1.67-4.18-5.01,.28-2.79-4.74,7.8-1.67,1.95-2.79-3.62s-3.06-2.51-3.34-5.01c-.28-2.51-3.62-8.64-3.62-8.64l-4.18,1.39-6.69,20.61-13.37-16.71-7.52,3.34,2.79,30.92-21.73-8.91-5.01,16.71,17.76,17.48-19.22,6.69,.35,12.33,16.16,8.08-11.14,14.49,3.9,10.59,17.55-3.06-6.76,20.06,8.98,11.42,13.93-6.69-2.09,14.62,9.33,4.04,10.45-6.41,7.24,10.59,7.66-.28,3.06-8.5,8.22,4.18,4.87-2.79-.56-7.1s.28-1.39,.84-1.25c.56,.14,5.57,.97,5.57,.97,0,0,3.62-3.34,4.18-5.99,.56-2.65-.42-5.15-.42-5.15l-3.06-1.53-1.11-1.25-.42-.97,5.22-10.31s-3.27-6.13-10.66-6.96c-7.38-.84-10.59-.84-13.23,.84s-5.57,11-6.13,13.51c-.56,2.51,.28,10.45,3.06,11.98,2.79,1.53,10.45,.97,13.93-3.06,3.48-4.04,.8-9.81-1.71-9.39-2.51,.42-3.31,6.33-5.54,5.08s-4.32-4.46-3.06-6.82c1.25-2.37,5.15-5.29,7.94-5.15,2.79,.14,5.15,1.25,5.99,3.2s2.37,6.27,1.81,8.5c-.56,2.23-1.53,7.66-6.41,10.17-4.87,2.51-15.18,11.98-35.38-1.11,0,0-13.93-12.54-18.52-24.79-4.6-12.26-6.96-22.98-6.96-22.98l-5.55-1.85c-1.01-.34-1.82-1.18-1.96-2.24-.02-.12-.02-.23-.02-.35h0c0-1.48,1.06-3.23,2.38-3.91,2.56-1.32,3.86-2.72,15.12-12.33,1.75-1.5,19.43-8.29,21.94-7.87,2.51,.42,11.17,4.02,12.67,5.29,.81,.69,4.25,2.24,7.86,5.19,1.37,1.12,1.89,.68,2.59,.68s3.92-.94,6.55,1.1c1.45,1.12,3.2,.28,1.81-1.95-1.39-2.23-2.92-3.2-2.92-3.2,0,0,1.52-.38,1.31-3.52-.19-2.77-3.18-2.63-3.37-2.53-2.03,1.01-4.83,1.41-8.1,1.31,0,0-.76-.24-2-.63-.55-1.66-1.62-6.34-1.1-8.08,.63-2.09,2.4-2.92,4.7-3.13,2.3-.21,5.22,4.49,5.22,4.49,0,0-.21-1.88-.31-4.07-.1-2.19-.73-5.95-5.43-8.04-4.7-2.09-13.48-.94-15.56-.84-2.09,.1-12.23,.04-11.28-.73,3.5-2.82,4.55-3.83,5.54-8.46,.79-3.73,1.54-6.85,1.58-9.04,0-.18,.15-.32,.33-.3,1.19,.09,1.57,.12,2.72,.26,6.13,.77,13.36-4.19,16.01-7.53l-5.15,6.82s1.53,.7,4.32,.14c2.79-.56,6.55-2.79,6.55-2.79,0,0-1.25,3.62-2.51,4.04,0,0,4.74-1.25,5.99-2.79,0,0-.98,3.48-1.67,3.76-.7,.28,6.13-.84,6.69-2.51,0,0-.56,2.92-1.25,3.34,0,0,4.18-1.28,5.65-3.53-.28,.58-.63,1.41-.63,1.99,0,.97,4.04,1.11,7.1-3.2Zm-43.32,26.15c3.03,.73,6.48,2.4,7.52,4.07,.82,1.31-.29,5.46-.81,7.18-3.31-.98-6.62-1.92-8.8-2.44-5.85-1.39-8.22-2.37-12.54-2.23-4.32,.14-7.94-19.22-7.94-19.22,0,0,6.13-11,7.52-11.84,.14-.08,.39-.13,.73-.14-.26,1.97,2.82,4.19,2.82,4.19,0,0-.94,2.14-1.57,3.81-.63,1.67-.21,7,.84,10.13,1.04,3.13,9.19,5.75,12.22,6.48Z"/><path class="cls-8" d="M285.44,123.64s4.87-9.33,5.99-10.86,8.19-5.71,13.85-5.15c5.65,.56,0,0,0,0l3.12-1.85s-2.34,13.97-2.48,16.34c-.14,2.37-4.32,11.84-7.52,13.51-3.2,1.67-11.14,3.2-12.95,2.92-1.81-.28-.7-8.91-.56-11.14s.56-3.76,.56-3.76Z"/><path class="cls-8" d="M280.32,146.28c.63-.21,24.34-4.7,24.34-4.7,0,0-.94,4.39-2.82,5.64s-7.83,4.07-7.83,4.07c0,0-3.97,.73-5.22-.1s-3.55-3.97-4.28-3.13-.63,2.72-.63,2.72c0,0-2.82-1.67-4.07-1.15-1.25,.52,.52-3.34,.52-3.34Z"/><path class="cls-8" d="M240.44,143.93l11.36,5.69,5.22,5.01,2.3,7,.52,5.54-1.15,6.89s-11.18-1.57-11.49-2.3-8.88-9.71-8.88-9.71l-2.4-9.92,1.16-9.3,3.36,1.1"/><path class="cls-6" d="M287.84,57.24c.1,0,9.12,1.85,10.41,3.2s1.71,3.55,1.32,4.21-6.41,1.85-7.87,1.43-11.04-4.21-11.28-5.01,7.42-3.83,7.42-3.83Z"/><path class="cls-6" d="M308.39,105.77c-.49,.14-.98,.29-1.46,.46-.4,.14-.9,.25-1.25,.49-.3,.21-.36,.56-.41,.9-.07,.5-.14,1.01-.22,1.51-.32,1.99-.73,3.96-1.24,5.91-.2,.22-.13,.73,.22,.54,.85-.47,1.68-.99,2.47-1.55,.67-.48,1.27-.93,1.43-1.78,.19-.96,.24-1.96,.35-2.93,.12-1.07,.25-2.15,.37-3.22,.02-.17-.04-.4-.26-.33Z"/><path class="cls-6" d="M240.44,143.93c-.13-.16-.28-.08-.38,.06-.42-.55-1.17-.89-1.75-1.26-.5-.31-.81-.34-1.23,.1-.77,.82-1.17,1.97-1.02,3.08,.14,1.05,.72,2.05,1.6,2.66,1.03,.71,2.43,.87,3.29,1.83,.26,.3,.35,.62,.49,.97,.08,.21,.21,.43,.43,.52,.38,.16,.74-.1,.84-.45,.06-.06,.1-.15,.1-.25,.12-2.62-.72-5.23-2.38-7.27Z"/><polygon class="cls-5" points="251.38 47.04 255.04 46.93 261.83 57.9 265.69 48.29 269.66 54.56 261.1 64.8 251.38 47.04"/><path class="cls-5" d="M255.67,20.4s-.63,3.97,2.92,7.83c3.55,3.87,7.1,7.1,7.1,7.1,0,0,.73-2.19-1.25-6.16-1.98-3.97,0-3.45,.94-2.4s2.82,2.09,3.45,5.33c.63,3.24,.1,10.13,.31,11.91s3.24,12.12,6.06,11.8c2.82-.31,6.69-2.4,10.45-1.78l3.76,.63s-8.98,4.39-11.8,4.91-3.87,2.4-5.54-1.25c-1.67-3.66-6.48-21.62-11.07-24.24-3.01-1.71-7.63-4.81-5.33-13.68Z"/><polygon class="cls-5" points="249.71 46.9 245.74 46.9 239.26 59.57 232.16 49.96 227.84 51.7 239.89 67.93 249.71 46.9"/><polygon class="cls-5" points="220.25 55.05 222.9 84.5 221.78 85.69 200.75 76.57 202.91 72.87 216 78.1 217.26 76.84 215.52 57.97 220.25 55.05"/><polygon class="cls-5" points="195.6 93.56 214.33 109.3 214.54 111.39 193.44 119.39 194.42 113.82 204.17 110.69 204.58 108.25 194.42 98.71 195.6 93.56"/><polygon class="cls-5" points="195.11 130.4 210.92 137.78 211.48 139.45 199.78 152.13 198.8 145.86 203.33 141.54 203.12 139.66 195.18 136.18 195.11 130.4"/><polygon class="cls-5" points="204.03 162.08 221.58 160.13 221.85 160.76 214.68 180.96 211.83 175.39 216.28 165.5 215.66 164.52 205.42 166.47 204.03 162.08"/><polygon class="cls-5" points="223.04 190.78 237.66 184.37 238.64 185.76 235.71 200.11 232.65 197.04 233.07 191.19 232.09 190.78 226.52 194.26 223.04 190.78"/><polygon class="cls-5" points="244.77 203.45 254.52 196.63 256.61 197.46 263.57 208.05 256.88 206.93 254.79 202.75 252.15 203.17 250.06 205.12 248.53 205.82 244.77 203.45"/><path class="cls-5" d="M269.28,206.52l3.9-7.66h.97l7.8,4.18-3.06,1.53-2.65-1.53-1.67,.28s-1.11,.84-1.11,1.25-.42,1.67-.42,1.67l-.56,1.25-3.2-.97Z"/><polygon class="cls-5" points="285.16 199.55 285.72 192.73 286.83 191.75 292.4 192.87 285.16 199.55"/><polygon class="cls-5" points="291.98 179.36 296.16 167.1 298.67 171.56 295.74 174.9 295.47 177.54 297 179.22 298.53 180.61 299.64 183.81 298.39 184.79 291.98 179.36"/><circle class="cls-5" cx="223.7" cy="95.61" r="6.16"/><path class="cls-5" d="M238.22,75.66s-3.76,1.67-7.31,5.64-5.43,8.98-5.43,10.03-6.06,6.69-6.27,8.77,.84,7.73,2.3,9.4c1.46,1.67,.53,4.84,.53,4.84,0,0,12.18-7.22,16.57-7.32,3.52-.08,4.22-3.18,4.25-3.6,.09-1.34-5.34-.97-6.87-5.42-1.89-5.51-5.49-12.11,2.24-22.35Z"/><path class="cls-5" d="M231.53,170.09s-4.18-9.19-8.98-12.33-8.77-4.6-9.19-9.19c-.42-4.6-.32-9.19,1.9-9.33,.79-.05,2.2-.15,3.41-.21,1.36-.06,2.53-.03,3.3,.91,1.19,1.45,2.6,10.64,3.3,12.4,.41,1.05,6.27,17.76,6.27,17.76Z"/><circle class="cls-2" cx="284.46" cy="46.48" r="2.37"/><g class="cls-10"><circle class="cls-2" cx="284.44" cy="46.52" r="4.45"/></g><path class="cls-7" d="M294.21,189.11c-1.04,2.09-2.72,2.51-5.01,5.85-.94,1.37-2.2,2.81-3.36,4.04-1.66,1.76-3.12,3.07-3.12,3.07,0,0-13.58,5.92-10.66,5.71,2.92-.21,11.56-2.86,14.28-5.78,0,0-4.87,12.19-34.96,9.47-30.08-2.72-54.19-52.05-56.41-57.24-2.85-6.69-6.08-39.2-3.34-58.08,2.76-19.01,8.15-37.61,28-45.75,19.85-8.15,36.77-4.81,45.55-4.18l.94-.24s-5.12-11.04-8.04-10.83c-2.92,.21-1.59,6.6-6.89,6.69-4.46,.07-2.09-8.15-4.81-8.77-2.72-.63-3.34,7.1-5.43,7.73-2.09,.63-4.6-1.04-6.48-3.13-1.88-2.09-2.3-.42-2.72,.21-.42,.63-1.25,5.43-3.34,5.85-2.09,.42-6.06-2.92-8.15-3.76-2.09-.84-2.72,8.36-3.97,9.4-1.25,1.04-3.76-1.46-6.27-1.46s-1.04,4.18-1.88,5.22c-.84,1.04-1.25,3.55-2.3,3.13-1.04-.42-5.01-2.72-6.27-2.3-1.25,.42,1.46,6.06,.21,8.15-1.25,2.09-4.81-.21-5.43,1.25-.63,1.46,2.3,4.39,.63,7.1-1.67,2.72-3.76,3.97-5.01,5.22-1.25,1.25,2.3,3.76,1.67,5.43-.63,1.67-2.92,1.04-3.55,2.09-.63,1.04,1.46,1.67,2.3,2.72,.84,1.04,1.67,2.3-1.25,3.34-2.92,1.04-.84,4.18-.21,4.81,.63,.63-2.16,3.34-3.2,4.39-1.04,1.04,3.62,3.34,2.37,4.81-1.25,1.46-4.18,1.67-4.39,3.97-.21,2.3,2.72,2.3,3.34,4.6s-1.04,5.64-2.72,7.31c-1.67,1.67-.42,3.97,.84,4.6,1.25,.63,2.72,2.51,2.3,4.81-.42,2.3-4.18,4.18-3.76,4.81,.42,.63,4.39,5.01,4.81,6.69,.42,1.67-2.92,6.27-1.04,7.94,1.88,1.67,4.81,3.13,5.22,5.43,.42,2.3-2.92,7.31-2.3,8.15,.63,.84,3.34,.84,4.39,2.92,1.04,2.09,1.88,2.3,1.88,5.22s-1.25,4.81-.63,5.22,5.01,1.04,6.48,3.97c1.46,2.92,.42,9.19,1.25,9.61,.84,.42,6.89-1.04,7.52,.21,.31,.63,1.49,2.01,1.67,3.76s-.63,3.87-.21,4.39c.84,1.04,6.69-.21,7.52,1.25,0,0,1.46,2.72,2.09,5.64,.63,2.92-1.04,4.39-.21,5.22,.84,.84,6.69-1.88,8.77,.21s3.34,8.57,4.18,8.77c.84,.21,3.13-3.55,8.77-3.55,3.88,0,5.89,3.86,6.76,6.27,.23,.63,1.05,.76,1.46,.24,.74-.93,2.02-1.91,4.11-1.91,3.97,0,5.43,3.97,7.1,3.97s.42-2.09,3.55-3.76c3.13-1.67,4.18-2.51,6.69-1.04,3.2,1.86,4.35,6.1,4.34-1.99,0-1.63,1.18-3.04,2.8-3.27,2.63-.37,5.21-.24,6.02-2.26,.41-1.02,.27-2.4,.41-3.58l.11,.27c.25-.64,.76-1.17,1.53-1.34l-.42-1.08c.29-.16,.65-.27,1.09-.33,3.34-.42,5.22-.63,5.22-3.76s2.09-5.85,2.09-5.85c0,0-1.46-7.94-2.51-5.85Z"/><path class="cls-7" d="M264.28,209.13c-9.97,0-20.96-3.23-30.98-9.11-10.1-5.93-18.98-15.59-26.38-28.72-11.9-21.1-16.63-45.51-13.7-70.59,2-17.1,6.78-29.75,14.19-37.62,22.75-24.15,58.67-17.48,59.03-17.41l-.45,2.33c-.35-.07-35.01-6.48-56.85,16.71-7.05,7.49-11.61,19.69-13.56,36.27-2.88,24.59,1.76,48.5,13.41,69.15,7.2,12.76,15.78,22.13,25.51,27.84,27.61,16.21,48.39,7.59,57.79-4.71l1.89,1.44c-7.16,9.37-17.41,14.36-29.65,14.43-.08,0-.17,0-.25,0Z"/><path class="cls-7" d="M232.3,49.96c1.72,2.26,5,6.69,6.7,8.89,.12,.09,.33,.04,.38-.08l.29-.7,5.1-12.31,1.93,.89-6.06,11.86-.19,.37c-.21,.57-.78,1.08-1.44,.94-.72-.09-.99-.91-1.36-1.42-1.14-1.79-4.18-6.59-5.35-8.44h0Z"/><path class="cls-7" d="M227.63,51.36c2.27,2.95,8,10.4,10.18,13.24l1.7,2.21c.35,.48,.39,.49,.57,.44,.09-.03,.13-.13,.16-.21l.26-.64,8.44-20.61,1.95,.85-9.41,20.19c-.16,.29-.33,.85-.58,1.07-.14,.14-.31,.24-.5,.3-.37,.12-.79,.06-1.1-.18-.34-.29-.37-.46-.53-.65l-1.59-2.29c-2.03-2.92-7.45-10.7-9.54-13.71h0Z"/><path class="cls-7" d="M254.55,45.56c1.98,3.14,5.33,8.45,7.28,11.54,.04,.05,.1,.16,.11,.17,0-.04-.04-.06-.09-.02-.12,.34,3.18-10.43,3.16-10.35l2.01,.7c-.03,.07-4,10.14-4.02,10.2-.36,.79-1.57,.88-2.02,.12-.25-.44-.97-1.85-1.22-2.32-1.12-2.13-4.1-7.81-5.25-10.01l.06-.03h0Z"/><path class="cls-7" d="M266.49,47.25c-.53-3.06-1.25-6.16-2.8-8.85-1.79-2.57-4.54-4.03-7.03-5.98-3.44-2.27-4.42-6.99-3.65-10.86,.6-3.21,4.32-4.51,7.14-4.78,9.98-1.31,16.87,6.26,24.39,11.23,5.9,3.97,9.33,10.62,12.03,16.97,1.32,2.86,2.89,5.58,4.26,8.44,1.04,1.87,1.86,5.18-.65,6.22-.44-.08-.56-.17-.63-.33-.59-1.07-1.61-1.82-2.71-2.32-6.05-2.45-13.36,1.02-18.92,3.57-1.11,.52-2.64,1.12-4.05,.86-.86-.19-1.26-.54-1.65-.83-1.94-1.69-3.18-3.69-4.49-5.81,0,0,2.58,.13,2.58,.13l-7.57,10.35c-.81,1.11-2.65,1.06-3.4-.11-2.59-5.03-6.73-13.35-9.33-18.47l1.88-.98c1.72,3.21,6.11,11.36,7.78,14.46,.39,.71,1.5,2.8,1.87,3.49-.24-.39-.81-.32-1.02,.05,.99-1.44,7.85-11.36,8.63-12.51,1.52,2.44,3.07,5.71,5.2,7.48,1.34,.21,3.33-.93,4.66-1.37,6.03-2.34,15.02-5.03,20.35,.04,.43,.46,.8,.98,1.05,1.56,.09,.18,.11,.45-.23,.74,.43-1.85,.47-3.26-.32-4.87-1.52-3.05-3.35-5.97-4.87-9.05-2.95-6.51-6.63-13.11-12.98-16.78-5.17-3.49-9.77-7.9-15.73-9.63-2.82-.57-5.97-.74-8.69,.25-1.27,.54-2.24,1.11-2.55,2.47-.49,2.25-.25,4.92,.79,6.96,1.66,2.49,4.62,3.97,6.74,6.23,3.24,3.04,3.77,7.83,3.92,12.01h0Z"/><path class="cls-7" d="M263.87,26.01c3.63-.19,6.27,3.44,6.44,6.86,.32,2.39-.11,4.9-.54,7.23-.13,.77-.32,1.46-.65,2.34-.67-.68-.88-1.59-.95-2.4-.45-5.07,1.72-11.57-4.3-14.02h0Z"/><path class="cls-7" d="M283.63,36.38s-1.95-1.32-1.25-3.27,2.79-2.72,2.79-2.72l1.32,1.6s-.84-.21-1.88,1.11c-1.04,1.32-1.11,2.02-.97,3.27Z"/><path class="cls-7" d="M273.46,46.13c-.2,3.37,1.54,6.66,4.56,8.14l-.24-.09,.71,.09-.31,1.55c-.14-.04-.74-.21-.87-.24-3.04-2.04-4.61-5.88-3.85-9.45h0Z"/><path class="cls-7" d="M276.7,44.67c-.2,3.37,1.54,6.66,4.56,8.14l-.24-.09,.71,.09-.31,1.55c-.14-.04-.74-.21-.87-.24-3.04-2.04-4.61-5.88-3.85-9.45h0Z"/><path class="cls-7" d="M291.84,43.83c.76,3.57-.81,7.41-3.85,9.45-.13,.04-.73,.2-.87,.24l-.31-1.55,.71-.09-.24,.09c3.02-1.48,4.77-4.77,4.56-8.14h0Z"/><circle class="cls-1" cx="285.75" cy="45.19" r="7.42"/><path class="cls-7" d="M284.46,48.69c-1.22,0-2.21-.99-2.21-2.21s.99-2.21,2.21-2.21,2.21,.99,2.21,2.21-.99,2.21-2.21,2.21Zm0-3.62c-.78,0-1.42,.64-1.42,1.42s.63,1.42,1.42,1.42,1.42-.64,1.42-1.42-.64-1.42-1.42-1.42Z"/><path class="cls-7" d="M287.74,43.3c-.44-1.15-1.8-1.65-2.86-2.05-.68-.26-1.37-.41-2.1-.34-.37,.04-.74,.12-1.1,.2-.37,.09-.69,.24-1.05,.35-.19,.06-.17,.28-.09,.42,.04,.08,.11,.15,.19,.19,.03,.01,.26,.02,.24,0l.08-.12c.52-.23,1.17-.33,1.72-.38,.69-.05,1.33,.12,1.96,.37,.94,.37,2.16,.79,2.55,1.82,.06,.17,.27,.1,.37,0,.13-.13,.16-.33,.1-.49Z"/><path class="cls-7" d="M216.71,57.39l1.09,18.14,.03,.57c.21,1.78-1.83,3.1-3.35,2.2-2.62-1.23-9.64-4.51-12.35-5.77l8.44,3.36,4.22,1.68c.61,.28,1.18,.2,1.64-.23,.49-.44,.39-1.13,.3-1.71l-2.15-18.04,2.12-.19h0Z"/><path class="cls-7" d="M200.75,76.57l12.57,5.45,6.29,2.73c.51,.2,1.09,.53,1.47,.56,.76,.09,1.48-.58,1.46-1.34,0-.23-.2-1.81-.23-2.08l-3.12-27.23,2.11-.2,2.06,27.33c.01,.1,.14,1.9,.14,1.92,.15,1.38-1.15,2.66-2.53,2.45-.62-.08-1.17-.46-1.7-.69l-6.18-2.97-12.35-5.93h0Z"/><path class="cls-7" d="M196.27,93.01c3.1,2.64,10.92,9.31,13.91,11.86,.77,.65,2.73,2.33,3.48,2.96,.39,.35,.93,.72,1.19,1.2,.89,1.4,.05,3.38-1.52,3.75-.45,.16-1.7,.55-2.17,.71-3.69,1.21-13.56,4.44-17.37,5.68,3.81-1.43,13.43-5.05,17.11-6.44l1.43-.54c.34-.15,1.01-.33,1.27-.55,.82-.61,.78-1.92-.05-2.48-2.45-1.92-6.52-5.08-9.01-7.03l-9.61-7.49,1.34-1.65h0Z"/><path class="cls-7" d="M193.65,114.03l6.62-2.18c.89-.32,2.39-.73,3.24-1.1,.94-.48,1.12-1.89,.31-2.55l-.32-.29c-2.66-2.38-7.05-6.3-9.74-8.72l1.48-1.53c2.24,2.34,6.25,6.51,8.45,8.8l.6,.63c.8,.69,1.27,1.81,.93,2.83-.2,.68-.7,1.27-1.34,1.54-.56,.23-1.19,.32-1.75,.47-1.1,.27-7.23,1.78-8.46,2.09h0Z"/><path class="cls-7" d="M194.79,129.09c2.82,1.41,9.94,4.96,12.67,6.31,.69,.36,2.49,1.23,3.17,1.58,1.26,.56,1.6,2.37,.62,3.34-3.16,3.28-8.67,8.97-11.88,12.3,2.06-2.39,7.24-8.42,9.23-10.73l1.54-1.79,.38-.45c.45-.51,.27-1.38-.38-1.62-1.95-.85-5.59-2.41-7.58-3.27l-8.66-3.74,.9-1.93h0Z"/><path class="cls-7" d="M197.41,147.18l3.33-3.37,1.67-1.68c.81-.62,.74-1.72-.2-2.03-1.97-.84-5.63-2.39-7.63-3.24l.94-1.91c1.38,.78,4.86,2.74,6.19,3.49,.23,.13,1.13,.63,1.33,.76,.78,.51,1.13,1.58,.79,2.44-.14,.44-.55,.83-.89,1.07l-1.84,1.49-3.69,2.98h0Z"/><path class="cls-7" d="M214.82,180.47l6.42-18.83,.19-.56c.08-.25-.17-.52-.41-.47l-2.45,.34c-3.14,.44-11.53,1.6-14.78,2.05l-.24-2.11c3.31-.28,11.68-.99,14.87-1.26l2.49-.21c1.06-.11,1.93,1.01,1.56,1.99l-.24,.6-7.42,18.46h0Z"/><path class="cls-7" d="M211.76,175.73c.69-1.78,2.43-6.28,3.1-8,.17-.44,.61-1.57,.78-2,.03-.1,.18-.4,.16-.51,0-.2-.19-.39-.36-.38-2.4,.62-6.99,1.93-9.43,2.59l-.47-2.07c2.45-.43,7.1-1.27,9.5-1.69,1.2-.28,2.26,1.1,1.66,2.16-.28,.58-.83,1.65-1.11,2.24-.81,1.63-2.98,5.98-3.82,7.67h0Z"/><path class="cls-7" d="M235.57,199.55c.46-2.67,1.63-9.42,2.08-12,.02-.12,.38-2.22,.39-2.25,.08-.41-.38-.77-.75-.56l-.45,.23c-3.72,1.85-9.86,4.9-13.63,6.78l-.88-1.93c3.92-1.63,10.19-4.26,14.05-5.87l.47-.2c.97-.45,2.19,.32,2.17,1.38,0,.42-.49,2.14-.57,2.58-.61,2.52-2.23,9.24-2.86,11.84h0Z"/><path class="cls-7" d="M232.65,198.44c.05-1.3,.19-4.59,.24-5.85l.04-.97c.01-.39-.43-.66-.74-.45-1.29,.95-3.92,2.88-5.24,3.85l-1.14-1.79c1.14-.62,4.04-2.19,5.14-2.79l.43-.23c1.1-.76,2.71,.19,2.47,1.52l-.17,.96c-.22,1.22-.8,4.5-1.03,5.76h0Z"/><path class="cls-7" d="M243.32,203c2.31-1.47,7.03-4.52,9.29-5.96,1.74-1.38,4.03-.87,4.97,1.15l.44,.73,1.76,2.91,3.51,5.81-3.96-5.52c-.37-.52-2.14-2.99-2.47-3.45-.58-1.06-1.8-1.71-2.91-1.04-.31,.2-.96,.72-1.3,.97-1.73,1.31-6.33,4.81-8.12,6.16l-1.22-1.74h0Z"/><path class="cls-7" d="M247.82,204.69c.96-.46,3.38-1.62,4.3-2.07l.72-.34c.84-.56,2.21-.4,2.74,.54,.49,1.03,1.29,3.45,1.72,4.53l-1.59-2.76c-.44-.67-.77-1.87-1.76-1.58-.26,.07-.88,.59-1.16,.76-.83,.59-3.05,2.15-3.9,2.76l-1.08-1.83h0Z"/><path class="cls-7" d="M268.29,207.11c.67-1.5,2.37-5.28,3.02-6.73l.25-.56c.43-1.43,2.12-2.26,3.43-1.39,.53,.36,2.23,1.55,2.78,1.94l4.04,2.81c-1.88-1.02-5.44-2.98-7.28-3.98-.58-.31-1.38-.04-1.63,.56-.09,.27-.27,.82-.36,1.1-.49,1.49-1.78,5.48-2.28,7.02l-1.98-.76h0Z"/><path class="cls-7" d="M271.64,206.25l1.15-2.1,.29-.52c.36-.73,1.14-1.27,1.94-1.3,.99-.11,1.69,.63,2.35,1.22l1.8,1.58-2.1-1.14c-.6-.29-1.21-.84-1.89-.6-.65,.17-.76,.84-.91,1.38l-.66,2.3-1.96-.81h0Z"/><path class="cls-7" d="M284.24,200.8c.08-1.34,.3-4.71,.38-6,.05-.43,.03-1.17,.14-1.61,.23-1.06,1.27-1.86,2.31-1.83,.62,0,1.44,.35,2.05,.5l3.85,1.1-.02,.09-3.96-.6c-.5-.05-1.39-.27-1.88-.23-.64,.08-1.14,.59-1.2,1.2-.03,.23,.06,1.13,.07,1.39,.08,1.28,.3,4.68,.38,6h-2.12Z"/><path class="cls-7" d="M289.11,201.57c-.43,0-.85-.15-1.22-.43l-.15-.12c-.8-.61-1.24-1.79-1.17-3.09l.09-1.53c.06-1.05,.45-1.96,1.08-2.49,.44-.37,.97-.55,1.51-.49,1.22,.13,2.12,1.39,2.19,3.05l.07,1.64c.06,1.46-.53,2.72-1.5,3.22-.29,.15-.59,.22-.89,.22Zm-.07-5.23c0,.06-.02,.13-.02,.2l-.09,1.53c-.02,.35,.04,.65,.12,.84,.05-.17,.09-.41,.08-.69l-.07-1.64c0-.09-.01-.17-.02-.24Z"/><path class="cls-7" d="M296.02,184.2l-3.48-3.37-.44-.42c-.99-.88-1.2-2.42-.54-3.55,.06-.11,4.35-9.38,4.6-9.89-.34,1.01-3.34,9.88-3.59,10.62-.21,.61,0,1.3,.53,1.67l.48,.37,3.83,2.97-1.39,1.6h0Z"/><path class="cls-7" d="M296.57,180.29l-.8-.88c-.89-.75-1.45-2.34-.84-3.5,.08-.18,2.57-4.33,2.75-4.64l-1.47,4.52c-.14,.42-.21,.67-.18,.94,.09,.67,.35,.86,.96,1.27l.97,.68-1.41,1.59h0Z"/><path class="cls-7" d="M270.82,194.82c-4.84,0-8.51-4.06-10.29-8.23-1.6-3.75-2.27-7.89-2.62-11.94-.06-.51,.3-.87,.73-1.04,5.76-2.56,5.57-9.93,4.28-15.19-.42-2-.96-3.97-1.59-5.92-.87-3.11-2.56-5.94-2.6-9.37,.42-3.36,3.73-6.6,7.01-7.38,2.54-.58,5.18,1.05,6.32,3.31l-.81-.6c1.91,.05,2.46-2.21,2.48-3.82,.2-5.12-4.17-9.04-8.5-11.18-2.6-1.27-5.38-2.62-8.23-3.03-2.83-.35-5.81,.29-8.49,1.24-2.29,.72-4.26,2.25-6.89,2.29l-.41-.05-.25-.04c-1.04-.17-1.81,.24-2.51,1.13-3.04,4.43-6,9.61-11.18,11.96-1.48,.54-2.9,1.02-4.35,1.53-.55,.27-1.24,.04-1.44-.55-.11-.3-.06-.62,.1-.87,.56-.88,1.06-1.91,1.41-2.91,.31-1.02,.63-2.18-.01-3.15,1.39,1.23,1.09,3.44,.91,5.11-.09,.6-.19,1.17-.36,1.79l-1.32-1.43c1.43-.51,2.92-1.01,4.31-1.52,3.88-1.8,6.55-5.79,8.94-9.3,1.01-1.79,2.65-4.09,5.1-3.96,.4,0,.8,.09,1.19,.13,.45,.04,1.12-.16,1.77-.42,2.75-1.17,5.81-2.55,8.87-2.96,3.13-.62,6.62-.1,9.53,1.16,4.4,1.8,8.86,4,11.7,7.99,1.96,2.72,2.79,6.35,1.82,9.64-.5,1.88-2.39,3.58-4.5,3.31-.37-.04-.67-.28-.81-.6-.73-1.35-2.35-2.51-3.97-2.14-2.24,.52-4.97,3.07-5.32,5.44,.11,2.85,1.7,5.72,2.5,8.57,1.13,3.53,2.05,7.18,2.39,10.89,.57,4.97-1.38,10.92-6.42,12.89l.73-1.04,.09,3.14c.34,6.77,2.74,16.06,10.69,16.96,.04,0,.08,.03,.08,.08,0,.04-.03,.07-.07,.07h0Z"/><path class="cls-7" d="M266.74,117.76c-9.05-5.37-17.96-4.94-27.43-.98-4.44,1.85-8.92,4-12.45,7.34-3.69,3.19-7.26,6.74-11.63,8.99,4.77-2.78,8.49-7.02,12.47-10.79,5.22-4.4,11.44-7.63,18-9.58,7.15-2.16,16.03-.91,21.04,5.02h0Z"/><path class="cls-7" d="M215.24,139.24l3.88-.27c1.31-.21,2.73,.41,3.34,1.62,.32,.6,.37,1.27,.53,1.89l.44,1.89c1.54,6.29,3.42,12.52,5.75,18.55,1.9,4.78,4,9.57,7.23,13.61,9.78,12.53,22.84,22.65,39.27,16.16,5.1-1.97,10.27-5.68,11.76-11.14,.79-3.95,.55-9.16-2.69-11.87-3.87-3.63-9.4,.72-10.52,4.86-.45,1.62-.15,4.89,2.11,4.32,.67-.13,1.25-1.31,1.85-2.47,.66-1.32,1.73-2.86,3.43-3.06,3.12-.5,4.87,2.89,4.93,5.53,.12,1.91-.89,3.75-2.02,5.11-2.92,3.7-11.43,6.46-15.49,3.52-5.37-4.23-3.74-13.98-1.62-19.54,1.3-3.41,3.88-6.92,7.59-8.14,.49-.22,.69-.8,.57-1.3-.44-3.49,.85-6.91,1.96-10.02,.93-2.49,2.21-4.91,3.66-7.11,.71-1.1,1.42-2.13,1.77-3.15,.41-1.15,.34-2.07,.13-3.32-.21-1.34-.23-2.8-.09-4.15,.14-2.1,.81-3.92,1.04-6,.16-2.06-.46-4.03-1.88-5.61l-.04-.04c-.05-.05-.04-.14,0-.19,1.11-1.11,1.58-2.95,.68-4.29-1.43-1.8-7.1,.35-9.39,.36-1.74,.15-3.52-.14-5.23-.44-6.67-1.24-12.71-4.6-19.29-5.87-4.74-.92-9.71-1.14-14.36,.23-7.57,3.31-13.67,9.1-20.56,13.88,2.07-2.71,4.41-5.18,6.9-7.5,3.81-3.47,7.9-6.82,12.83-8.71,5.05-1.53,10.59-1.29,15.67-.17,8.21,1.66,15.49,6.9,23.96,7.17,2.62,.12,8.41-1.9,10.1,.67,.95,1.67,.26,3.73-1.12,4.88l-.03-.23c1.68,.35,3.05,1.76,3.6,3.38,1.05,3.08-.37,5.68-.61,8.7-.3,2,.2,3.69,.24,5.74-.02,2.18-1.37,4.27-2.46,5.87-1.42,2.12-2.58,4.32-3.48,6.69-.89,2.36-1.72,4.81-1.92,7.19-.06,.7-.02,1.35,.08,1.99,.09,.84-.15,1.71-.68,2.38-.42,.55-1.03,.91-1.68,1.12-2.96,1.11-4.83,3.81-6.02,6.77-2.08,4.99-4.12,17.86,3.92,17.99,2.4-.11,4.92-.65,7-1.81,3-1.62,5.48-5,3.72-8.36-.44-.89-1.15-1.45-2.13-1.32-1.69,.39-2.02,2.52-3.01,3.83-.89,1.52-2.95,2.31-4.59,1.36-2.16-1.33-2.37-4.2-1.82-6.34,1.49-5.4,8.55-10.24,13.4-5.68,3.75,3.27,4.06,8.93,3.1,13.49-1.66,6-7.23,9.99-12.78,12.08-17.08,6.53-30.5-3.8-40.39-16.95-3.21-4.15-5.28-9.04-7.12-13.9-1.8-4.88-3.3-9.87-4.57-14.91-.48-1.82-.9-3.85-1.29-5.7-.18-1.27-.53-2.6-1.8-3.18-.57-.3-1.22-.36-1.87-.3l-3.89,.19h0Z"/><path class="cls-7" d="M264.85,146.55c-2.74,0-5.11-1.24-5.25-1.31-.58-.31-.8-1.03-.49-1.6,.31-.58,1.02-.8,1.6-.49,.05,.03,3.5,1.81,6.18,.65,1.41-.61,2.41-1.99,2.98-4.09,.17-.63,.82-1.01,1.46-.83,.63,.17,1.01,.82,.83,1.46-.77,2.84-2.23,4.74-4.34,5.65-.98,.42-2.01,.58-2.98,.58Z"/><path class="cls-7" d="M242.86,103.42l-.64,3.4-2.74-.17s2.41,.39,3.38-3.23Z"/><path class="cls-7" d="M223.72,135.68c2.21-2.69,4.32-6,4.06-9.67,1.1,3.76-.35,7.71-2.07,11.08-.94,1.54-3.14-.02-1.99-1.41h0Z"/><path class="cls-7" d="M227.79,132.55c2.21-2.69,4.32-6,4.06-9.67,1.1,3.76-.35,7.71-2.07,11.08-.94,1.54-3.14-.02-1.99-1.41h0Z"/><path class="cls-7" d="M231.24,129.41c2.21-2.69,4.32-6,4.06-9.67,1.1,3.76-.35,7.71-2.07,11.08-.94,1.54-3.14-.02-1.99-1.41h0Z"/><path class="cls-7" d="M234.79,126.17c2.21-2.69,4.32-6,4.06-9.67,1.1,3.76-.35,7.71-2.07,11.08-.94,1.54-3.14-.02-1.99-1.41h0Z"/><path class="cls-7" d="M243.72,116.61c-.95,2.52-2.15,5.59-4.97,6.52l.42-.31c-3.35,6.01-8.1,11.24-14.2,14.59-.59,.32-1.33,.1-1.65-.49-.34-.62-.07-1.4,.56-1.69,2.9-1.34,5.57-3.24,7.96-5.46,2.39-2.24,4.58-4.82,6.3-7.6,.09-.14,.23-.22,.38-.24,2.52-.51,4.01-3.22,5.19-5.32h0Z"/><path class="cls-7" d="M246.02,116.05c.8,1.61,1,5.26-.95,6.16-.41,.16-1.04,.34-1.2-.23-.08-.29,.1-.59,.39-.67,1.06,.08,1.56-1.07,1.76-2.01,.19-1.04,.36-2.23,0-3.25h0Z"/><path class="cls-7" d="M248.88,114.94c.8,1.61,1,5.26-.95,6.16-.41,.16-1.04,.34-1.2-.23-.08-.29,.1-.59,.39-.67,1.06,.08,1.56-1.07,1.76-2.01,.19-1.04,.36-2.23,0-3.25h0Z"/><path class="cls-7" d="M251.94,114.66c.8,1.61,1,5.26-.95,6.16-.41,.16-1.04,.34-1.2-.23-.08-.29,.1-.59,.39-.67,1.06,.08,1.56-1.07,1.76-2.01,.19-1.04,.36-2.23,0-3.25h0Z"/><path class="cls-7" d="M254.86,113.89c.8,1.61,1,5.26-.95,6.16-.41,.16-1.04,.34-1.2-.23-.08-.29,.1-.59,.39-.67,1.06,.08,1.56-1.07,1.76-2.01,.19-1.04,.36-2.23,0-3.25h0Z"/><path class="cls-7" d="M254.52,114.24c.54,.28,.72,.96,.88,1.51,.57,1.91-.18,4.34-2.48,4.47-.3,.03-.57-.19-.6-.49-.04-.32,.23-.61,.56-.6,1.8,.19,2.44-1.84,2.25-3.33-.08-.54-.14-1.2-.62-1.56h0Z"/><path class="cls-7" d="M257.79,114.45c.54,.28,.72,.96,.88,1.51,.57,1.91-.18,4.34-2.48,4.47-.3,.03-.57-.19-.6-.49-.04-.32,.23-.61,.56-.6,1.8,.19,2.44-1.84,2.25-3.33-.08-.54-.14-1.2-.62-1.56h0Z"/><path class="cls-7" d="M259.81,120.3c1.04-.09,1.98-.75,2.08-1.82,.09-.75-.06-1.87-.65-2.34l.09-.88c.01-.1,.1-.17,.2-.16,1.22,.6,1.2,2.38,.89,3.51-.3,1.15-1.48,1.8-2.6,1.69h0Z"/><path class="cls-7" d="M264.27,116.82c1.34,.84,1.41,3.56,.14,4.55-.5,.4-2.16,1.15-2.34,.18-.05-.34,.25-.65,.59-.61,.45,.02,.9-.02,1.27-.23,1.16-.64,1.36-3.04,.34-3.89h0Z"/><path class="cls-7" d="M266.91,117.93c1.34,.84,1.41,3.56,.14,4.55-.5,.4-2.16,1.15-2.34,.18-.05-.34,.25-.65,.59-.61,.45,.02,.9-.02,1.27-.23,1.16-.64,1.36-3.04,.34-3.89h0Z"/><path class="cls-7" d="M269.91,119.67c1.34,.84,1.41,3.56,.14,4.55-.5,.4-2.16,1.15-2.34,.18-.05-.34,.25-.65,.59-.61,.45,.02,.9-.02,1.27-.23,1.16-.64,1.36-3.04,.34-3.89h0Z"/><path class="cls-7" d="M273.11,121.97c1.34,.84,1.41,3.56,.14,4.55-.5,.4-2.16,1.15-2.34,.18-.05-.34,.25-.65,.59-.61,.45,.02,.9-.02,1.27-.23,1.16-.64,1.36-3.04,.34-3.89h0Z"/><path class="cls-7" d="M279.86,113.16c-.79-3.41-1.65-8.25-2.56-11.54-.97-5.07-5.55-7.04-10.33-6.8-6.78-.21-14.07-.46-20.82-.87-.37,0-.68-.3-.65-.67,.02-.29,.24-.53,.51-.58,3.64-1.6,5.13-6.39,6.12-9.96l.4-1.75-.25,1.79c-.69,3.85-1.73,8.15-5,10.65-.3,.19-.53,.36-.97,.51l-.14-1.25c7.85-.02,16.05-.04,23.91,.3,4.36,.44,8.35,3.77,8.99,8.19,.88,3.97,1.23,7.93,1.35,11.93,0,.33-.49,.41-.57,.06h0Z"/><path class="cls-7" d="M260.84,93.34c-.48-3.6,2.68-6.08,5.78-7.12,3.59-1.26,6.75,2.02,8.39,4.77,0,.01,.02,.03,.03,.04-.11-.18-.33-.34-.52-.37,.24,.01,.64-.04,.99-.1,4.84-.91,9.61-2.37,14.36-3.72,2.07-.17,4.37,.74,5.67,2.43,.97,1.17,1.45,2.76,1.41,4.26v1.29c0,.43-.26,.81-.63,.97l-16.97,7.49-.18,.08c-.45,.19-.97-.02-1.16-.46-.13-.44-.36-.96-.68-1.42-.58-.89-1.39-1.64-2.35-2.13-.49-.27-1.03-.44-1.59-.58,2.15-.2,4.33,.71,5.82,2.28,.23,.25,.43,.46,.66,.8l-1.38-.5,16.97-7.49-.63,.97v-1.29c.09-1.76-.93-3.49-2.56-4.18-.64-.3-1.26-.35-2.19-.43l.41-.04c-4.14,1.21-8.26,2.39-12.47,3.35-1.27,.24-2.48,.63-3.83,.52-.36-.05-.74-.27-.94-.59-1.36-2.05-3.27-4.75-6-3.91-1.8,.69-4.11,1.91-4.29,4.07-.03,.28-.01,.52,0,.91l-2.12,.12h0Z"/><path class="cls-7" d="M226.47,90.96c-1.66-1.35-3.62-.19-5.14,.79-.81,.52-1.52,1.16-1.93,2.05-.42,.9-.63,1.98-.57,2.97,.06,1.03,.37,2.33,1.42,2.55,3.98,.85,5.4-1.42,6.31-3.21,.47-.92,1.02-1.95,.99-3.01-.02-.83-.44-1.62-1.08-2.14Z"/><path class="cls-7" d="M225.56,105.5c-.1-.65-.34-1.24-.93-1.59-.66-.39-1.37-.7-2.15-.57-.7,.11-1.42,.42-2.04,.77-1.23,.69-1.71,2.47-1.31,3.77,.19,.64,.62,1.2,1.22,1.49,.32,.16,2.2,.47,2.35,.45,1.2-.21,2.23-1.12,2.67-2.25,.26-.66,.29-1.37,.18-2.07Z"/><circle class="cls-7" cx="228.09" cy="98.92" r="1.67"/><circle class="cls-7" cx="228.96" cy="103.45" r="2.06"/><path class="cls-7" d="M227.64,111.4s.37-3.88,1.38-4.4,1.98-.87,2.75-.28c1.06,.82,.56,2.44-.21,2.65s-3.93,2.03-3.93,2.03Z"/><path class="cls-7" d="M296.93,165.5s-1.46-6.79-2.51-7.31-3.13,2.92-3.13,2.92c0,0-.31-4.81-1.78-5.85s-3.45,3.76-3.45,3.76l-2.4,.1s.1-4.39-2.4-4.49-.73,5.33-.73,5.33c0,0,13.48-3.55,16.4,5.54Z"/><path class="cls-7" d="M281.99,157.14s3.13-1.04,4.91-.31,7.52,4.18,9.4,6.89c1.88,2.72-7.83-4.7-10.24-4.7s-3.97,.31-3.97,.31l-.1-2.19Z"/><path class="cls-7" d="M280.77,191.49c-.34,0-.68-.15-.91-.43l-2.57-3.11c-.42-.5-.35-1.25,.16-1.67,.5-.42,1.25-.35,1.67,.16l2.57,3.11c.42,.5,.35,1.25-.16,1.67-.22,.18-.49,.27-.75,.27Z"/><path class="cls-7" d="M285.02,153.38c-.49,0-.94-.31-1.11-.78,0-.02-.47-1.08-2.26-1.82-1.5-.62-3.06,1.29-3.08,1.31-.34,.43-.93,.57-1.43,.34-.5-.23-.77-.77-.67-1.3,1-5.15,6.79-8.29,15.88-8.62,7.28-.26,12.95-3.18,13-3.21,.24-.13,.51-.17,.78-.11,.41,.08,.76,.37,.94,.78,.31,.7,.19,1.71-1.41,4.34-2.2,3.62-9.45,7.93-12.89,8.22-3.43,.3-4.33-.52-6.5-2.48l-.23-.21c.22,.88,.23,1.81,.14,2.49-.07,.54-.5,.97-1.04,1.03-.04,0-.09,0-.13,0Zm-.66-7.12c1.26,.01,2.42,1.05,2.85,1.43l.68,.61c1.99,1.81,2.3,2.09,4.7,1.88,2.75-.24,9.28-4.16,11.07-7.1,.13-.22,.25-.42,.35-.6-2.48,.95-6.65,2.22-11.55,2.4-3.21,.12-5.93,.59-8.09,1.37Zm-3.34,2.03c.38,0,.77,.05,1.16,.17-.02-.13-.01-.26,.01-.4,.07-.35,.25-.76,.56-1.11-.77,.4-1.43,.84-1.99,1.34,.08,0,.17,0,.26,0Z"/><path class="cls-7" d="M241.98,151.5l16.92,22.55-.45,.07c1.74-6.78,1.15-14.79-3-20.6-3.35-4.23-8.66-6.31-13.61-8.18-1.77-.75-3.7-1.19-5.1-2.63l1.14-.25c-1.26,6.43-2.47,15.83,2.34,20.95,4.64,5.55,10.97,10.24,18.47,9.87,1.39-.02,1.47,2.05,.06,2.12-8.13,.27-15-4.85-19.83-10.88-2.71-2.89-3.55-7.16-3.61-10.99-.06-3.86,.43-7.64,1.31-11.38,.08-.35,.43-.56,.77-.48,.15,.04,.28,.12,.37,.24,.18,.23,.53,.48,.88,.68,7.84,3.71,17.22,5.88,20.02,15.37,1.73,5.25,1.8,11.01,.28,16.33-.04,.13-.18,.21-.31,.17-.17,.03-16.53-22.88-16.64-22.95h0Z"/><path class="cls-7" d="M284.61,136.29c2.53-4.18,5.99-7.53,9.28-11.06,3.31-3.4,6.69-6.73,10.14-9.98-3.19,3.5-6.32,7.06-9.35,10.69-2.89,3.59-6.05,7.19-8.17,11.28-.6,1.36-2.62,.39-1.91-.93h0Z"/><path class="cls-7" d="M294.42,118.07c.5,3.42-.8,6.94-1.67,10.23l-.89-.63c3.17-2.3,6.29-4.73,9.76-6.57-3.26,2.14-6.12,4.85-9.04,7.43-.44,.4-1.13-.1-.89-.64,1.2-3.13,2.84-6.4,2.72-9.82h0Z"/><path class="cls-7" d="M215.48,96.24c-.22-.32-.59-.41-.96-.39-.36,.03-.71,.13-1.05,.24-.35,.12-.71,.27-1.02,.48-.31,.21-.56,.49-.72,.84-.2,.43-.18,.91-.09,1.37,.08,.4,.18,.86,.49,1.16,.14,.14,.31,.21,.51,.2,.16,0,.75-.06,1.03-.36,.36-.38,.68-.8,1.01-1.19,.3-.35,.61-.7,.81-1.12,.18-.38,.26-.86,0-1.23Z"/><path class="cls-7" d="M212.58,90.41c-.31-.24-.65-.44-1.05-.5-.34-.05-.71,.05-.97,.27-.65,.54-.54,1.49-.22,2.18,.16,.34,.39,.66,.71,.87,.17,.11,.35,.19,.56,.22,.16,.03,1.02,.01,1.3-.13,.35-.18,.58-.55,.65-.93,.16-.82-.36-1.5-.98-1.98Z"/><path class="cls-7" d="M218.53,90.88c-.12-.69-.73-1.28-1.44-1.28-.1,0-.19,.08-.25,.18-.06,.02-.12,.03-.18,.06-.15,.07-.29,.16-.42,.27-.26,.22-.47,.5-.59,.83-.22,.63-.1,1.34,.33,1.85,.22,.25,.55,.47,.89,.47,.36,0,.7-.22,.96-.45,.53-.47,.83-1.21,.71-1.91Z"/><path class="cls-7" d="M221.63,145.12c-.09-.86-.2-1.71-.96-2.24-.72-.5-1.65-1.02-2.55-1.01-.8,.01-1.55,.44-2.08,1.02-.61,.67-.95,1.55-1.09,2.44-.15,.94-.18,1.98,.02,2.92,.2,.92,.75,1.72,1.54,2.23,.28,.18,2.96,.32,3.57-.22,.68-.59,1.21-1.3,1.45-2.18,.27-.96,.19-1.98,.09-2.96Z"/><path class="cls-7" d="M218.24,154.85c.15-.57,0-1.22-.3-1.72-.26-.42-.68-.8-1.2-.77-.58,.03-1.04,.49-1.07,1.07-.03,.57,.39,1.06,.84,1.36,.26,.17,.54,.3,.84,.37,.16,.03,.32,.06,.47,.06,.18,0,.42,0,.42-.23,0-.04,0-.07-.02-.11,0,0,0-.02,0-.03Z"/><path class="cls-7" d="M224,152.72c.02-.39-.02-.79-.12-1.17-.1-.38-.23-.77-.6-.96-.17-.09-.36-.13-.53-.24-.19-.12-.36-.25-.6-.22-.37,.05-.69,.37-.87,.67-.4,.67-.37,1.51-.11,2.22,.16,.43,.38,.82,.67,1.17,.14,.16,.29,.32,.45,.45,.08,.07,.17,.13,.25,.19,.17,.12,.26,.15,.48,.17,.21,.01,.23-.17,.19-.32,.5-.53,.75-1.24,.79-1.97Z"/><path class="cls-7" d="M227.07,164.83c-.33-.73-.89-1.62-1.81-1.53-.95,.09-1.29,1.23-1.26,2.05,.03,.84,.42,1.67,1.12,2.16,.38,.27,.81,.43,1.26,.49,.12,.02,.23,.02,.35,.02,.15,0,.44,0,.56-.05,.19-.09,.18-.29,.07-.44,.3-.9,.09-1.84-.29-2.69Z"/><path class="cls-7" d="M228.44,172.86c-.05-.4-.09-.85-.26-1.21-.15-.34-.51-.52-.82-.7-.33-.2-.7-.37-1.09-.37-.78-.01-1.39,.64-1.31,1.42,.08,.78,.76,1.37,1.33,1.84,.31,.26,.66,.5,1.06,.61,.18,.05,.43,.09,.63,.07,.05,.08,.13,.14,.24,.11,.18-.06,.25-.26,.26-.43,.03-.44,.02-.88-.03-1.32Z"/><path class="cls-7" d="M232.59,171.38c-.51-1.53-1.14-3.02-1.86-4.42-.1-.2-.3-.11-.39,.03-.02,.03-.03,.06-.04,.1-.01-.02-.02-.05-.04-.07-.16-.15-.32,.04-.39,.2-.51,1.19-.49,2.72,.08,3.93,.29,.63,.72,1.07,1.3,1.13,.27,.03,.53-.01,.8-.07,.18-.04,.39-.06,.44-.24,.11-.15,.17-.41,.1-.6Z"/><path class="cls-7" d="M241.32,159.16l10.69,4.84-.76,.66-3.7-12.74,4.73,12.4c.19,.45-.35,.91-.76,.66l-10.2-5.81h0Z"/><path class="cls-7" d="M269.53,56.29c.93,1.98,2.55,5.34,4.94,5.47,.47,0,1.03-.18,1.5-.32,2.27-.74,4.1-2.54,6.38-3.56,3.62-1.77,7.97-1.61,11.61-.25,2.45,.85,7.48,3.78,6.35,6.9-.29,.71-.97,1.29-1.67,1.47-3.72,1.12-7.77,.28-11.2-1.28-2.2-1.03-4.52-1.89-6.56-3.24-.13-.11-.27-.3-.12-.48,.3-.29,.61,.27,.21,.36,.04,0,.08-.02,.11-.05,.07-.08,.07-.15,.04-.21,0,0,.03,.02,.05,.04,2.04,1.24,4.33,2.04,6.52,2.98,2.28,.95,4.69,1.58,7.12,1.53,1.21-.01,2.41-.2,3.54-.57,.98-.26,1.44-1.46,.95-2.3-.61-.98-1.53-1.75-2.53-2.38-4.01-2.36-9.38-2.95-13.49-.66-2.58,1.46-4.89,3.86-8.02,4.43-4.2,.73-6.82-3.61-8.33-6.83-.71-1.75,1.86-2.81,2.59-1.06h0Z"/><path class="cls-7" d="M298.94,61.57c.38,.29,.93,.16,1.15-.27,.41-.83,1.04-2.1,1.4-2.87,.91-1.95,.05-3.65-.41-4.56-.11-.22-.42-.2-.51,.03-.43,1.08-1.69,3.12-4.83,1.57-.72-.36,3.06,2.47,2.82,3.45-.24,.97-3.13,.03-3.13,.03l3.51,2.62Z"/><path class="cls-7" d="M296.33,59.93c-3.37-2.18-7.68-2.78-11.45-1.36-2.4,.82-5.02,2.1-6.27,4.36-.2,.41-.5,1.13-.31,1.52,.17,.36,.79,.65,1.37,.83,1.22,.36,2.56,.5,3.89,.62,4.09,.5,7.98,.08,12.15,.13,1.67,.13,3.64,.08,4.87,1.56,.79,1.23,.5,2.87,.14,4.15-.42,1.4-1.05,2.68-1.78,3.89-1.73,2.76-4.96,6.51-8.51,6.69-1.17,.04-2.22-1.11-2.29-2.22l2.01,.33c-1.11,2.15-2.39,4.15-4.2,5.78-.81,.65-2.86,2.38-3.6,.74-.08-.21-.08-.43-.03-.63,.34-1.53,.55-3.88-.46-5.09l1.62-.04c-1.9,2.15-3.93,4.37-6.87,4.98-.58,.09-1.12-.3-1.21-.88-.04-.58,.27-1.11,.34-1.71,.18-1.02,.39-2.34-.1-3.23l1.66,.13c-1.61,1.66-3.29,3.17-5.34,4.29-.91,.45-3.29,1.6-3.61-.18-.06-.64,.41-.88,.77-1.35,1-1.27,1.4-2.93,1.2-4.53l1.89,.51c-.48,.6-.94,1.13-1.45,1.66-.92,1.15-6.24,5.61-6.99,2.78,.11-1.32,.57-3.41-.2-4.51l1.76-.11c-3.23,4.71-6.29,9.61-10.25,13.75-.29,.26-.57,.53-.98,.7-.08,.04-.18,0-.22-.09-.04-.09,0-.18,.08-.22,2.22-1.92,3.56-4.83,5.14-7.29,1.52-2.61,2.98-5.26,4.39-7.93,.27-.5,.89-.7,1.39-.43,1.05,.8,1.18,2.24,1.24,3.4,.02,.98-.07,1.85-.27,2.82l-1.16-1.28c1.76-.32,3.27-1.8,4.52-3.05,.84-.67,1.54-2.58,2.81-1.69,.23,.18,.36,.45,.39,.72,.31,2.5-.46,5.06-2.3,6.85l-.78-1.85c2.51-.47,4.63-2.67,6.41-4.41,1.35-1.16,2.17,.86,2.25,1.9,.17,1.58-.11,3.03-.54,4.53l-1.17-1.38c1.64-.33,3.08-1.67,4.28-2.84,.81-.66,1.52-2.42,2.74-1.53,1.79,1.94,1.54,4.76,1.06,7.15l-1.38-1.26c1.67-.62,3.17-2.61,4.19-4.22,.39-.62,.76-1.28,1.07-1.9,.46-.93,1.91-.64,1.99,.38,.02,.2,.08,.31,.1,.34,.39,.22,1.02-.06,1.62-.33,3.33-1.75,5.91-5.1,7.15-8.61,.27-.89,.5-1.81,.21-2.67-.05-.12-.12-.19-.23-.29-.87-.62-2.33-.72-3.46-.81-2.64-.16-5.34,.04-8.11-.08-2.25-.36-10.23-.21-10.23-3.24,.56-3.53,4.37-5.23,7.39-6.2,3.94-1.36,8.43-.67,11.85,1.68,.19,.15,0,.43-.21,.29h0Z"/><path class="cls-7" d="M256.29,75.87c6.06,.46,11.53-3.33,15.36-7.69,.51-.56,1.44,.02,1.18,.72-.79,1.89-1.8,3.6-3.29,5.03-.85,.85-2.06,1.44-3.29,1.71,.01-.02,0,.03,.14-.15,.03-.04,.07-.14,.08-.22,.05-.17-.08-.48-.18-.53-.09-.07,0,0,.06,0,3.88,.63,8.4-.27,11.54-2.68,.3-.24,.74-.19,.99,.11,.16,.2,.19,.45,.11,.68-.26,.73-.58,1.35-.99,1.96-.67,1.11-2.19,2.26-3.42,2.44,.25-.14,.37-.5,.27-.78-.14-.32-.25-.37-.46-.44,1.62-.07,3.62-.63,5.16-1.4,1.11-.56,2.11-1.33,2.62-2.32,.17-.36,.61-.51,.96-.32,.31,.16,.45,.52,.35,.84-.26,.83-.58,1.55-1,2.28-.73,1.27-1.81,2.46-3.2,3.06-.04,.01-.38,.18-.33,.15,.03-.03,.03-.02,.11-.13,.19-.29,.03-.81-.32-.91,.31,0,1.18-.12,1.67-.25,2.64-.68,5.78-2.01,6.84-4.63,.13-.37,.54-.57,.91-.43,.31,.12,.49,.42,.45,.74-.09,.82-.27,1.53-.53,2.26-.55,1.7-1.77,3.18-3.32,4.08,.27-.31,.03-.91-.38-.96,1.51-.26,2.97-1.12,4.22-2.05,1.05-.83,1.94-1.85,2.4-3.02,.14-.37,.56-.55,.92-.41,.31,.12,.49,.45,.44,.77-.12,.75-.27,1.47-.46,2.2-.18,.78-.72,2.17-1.2,2.48,.21-.25,.17-.76-.12-.95-.09-.1-.38-.17-.45-.15,2.42-.8,4.76-2.19,6.75-3.78,1.06-.88,2.03-1.89,2.61-3.05,.42-.82,1.68-.2,1.26,.64-1.48,2.76-4.07,4.48-6.68,5.97-1.19,.62-2.34,1.24-3.65,1.6-.17,.02-.26,.06-.53-.02-.39-.13-.6-.64-.4-1.01,.09-.16,.17-.24,.25-.3,.22-.2,.33-.49,.48-.85,.36-.95,.57-1.99,.74-2.99l1.36,.36c-1.24,2.93-3.94,4.74-6.84,5.76-.61,.16-1.47,.49-1.92-.19-.19-.35-.12-.61,.04-.86,.21-.32,.65-.55,.91-.73,1.63-1.03,2.44-3.05,2.68-4.91l1.37,.31c-1.35,3.25-4.72,4.68-7.84,5.51-.76,.16-1.49,.35-2.29,.26-.21-.04-.42-.13-.57-.33-.27-.33-.14-.87,.16-1.08,.27-.22,.45-.26,.69-.38,1.75-.79,2.8-2.63,3.39-4.41l1.31,.51c-1.71,2.96-5.14,3.93-8.25,4.43-.6,.03-1.38,.26-1.68-.48-.13-.33,.07-.73,.34-.87,.32-.17,.4-.15,.67-.23,1.56-.42,2.57-1.91,3.13-3.39l1.12,.77c-3.21,2.49-7.29,3.3-11.26,3.16-.72-.09-1.44-.04-2.15-.53-.51-.43-.31-1.18,.24-1.43,.29-.16,.59-.19,.85-.27,2.53-.72,4.02-3.4,5.05-5.7l1.18,.74-1.7,1.56c-4.02,3.37-9.32,6.01-14.69,5.16h0Z"/><path class="cls-7" d="M260.3,36.49c2.16,2.35,3.63,5.25,5.26,7.98,1.58,2.77,3.1,5.57,4.58,8.41l-1.99,.73-1.67-7.71c-.51-2.26-1.17-5.48-1.77-7.69,1.69,4.16,3.9,10.56,5.48,14.82l-1.99,.73c-1.15-2.95-2.34-5.89-3.6-8.8-1.31-2.87-2.44-5.89-4.31-8.45h0Z"/><path class="cls-7" d="M278.8,108.35c-1.73-2.73-4.54-6.07-8-4.78-2.35,1.85-1.26,7.44-1.03,10.22-1.61-3.49-3.78-11.41,1.83-12.3,3.94-.44,6.97,3.13,7.74,6.66,.07,.31-.39,.48-.53,.2h0Z"/><path class="cls-7" d="M261.41,103.24c-2.1-2.02-6.32-2.45-9.01-3.18-1.59-.4-3.17-.88-4.73-1.43-2.33-.9-5.21-1.89-6.53-4.35-1.82-3.99-1.67-8.65,.09-12.6,.69-1.52,1.62-3,2.94-4.03-.84,1.42-1.33,2.94-1.72,4.46-.88,3.65-.87,7.73,.53,11.21,1.1,1.91,3.32,2.69,5.35,3.63,1.46,.65,2.95,1.22,4.48,1.76,2.94,1.16,6.61,1.82,8.59,4.54h0Z"/><path class="cls-7" d="M259.39,110.35c.68-2.35,.66-4.57-2.09-5.2-4.28-.56-8.63-.84-12.85-1.85-2.33-.58-4.8-1.19-6.71-2.7,2.11,1.17,4.53,1.42,6.87,1.73,3.56,.36,7.13,.49,10.71,.54,1.12,0,2.58,0,3.94,.6,3.05,1.21,3.34,5.08,2.09,7.71-.58,1.24-2.43,.46-1.96-.82h0Z"/><path class="cls-7" d="M236.34,98.71c-7.84-7.42-4.58-18.22,3.11-24.33,.26-.28,.72-.35,.97-.02,.13,.17,.16,.39,.09,.57-.17,.45-.21,1.04-.17,1.54,.06,.57,.31,1.07,.74,1.48-.62-.18-1.13-.68-1.41-1.26-.3-.63-.41-1.27-.39-1.98l1.06,.56c-5.5,7.92-8.44,14.08-3.99,23.44h0Z"/><path class="cls-7" d="M239.06,84.09c-1.99-.71-3.79-2.63-3.69-4.91-.01-.6,.46-1.09,1.05-1.11,.6-.01,1.09,.46,1.11,1.06,0,.14-.02,.27-.06,.39-.69,1.66,.31,3.4,1.6,4.56h0Z"/><path class="cls-7" d="M238.88,89.36c-2.05,.51-4.61-.11-5.79-2.06-.34-.49-.22-1.16,.27-1.5,.49-.34,1.16-.22,1.5,.27,.08,.11,.13,.23,.16,.36,.34,1.77,2.14,2.67,3.85,2.93h0Z"/><path class="cls-7" d="M238.91,93.64c-1.33,.69-3.08,1.02-4.59,.44-.92-.35-2.56-1.32-1.65-2.47,.39-.45,1.07-.51,1.52-.12,.1,.09,.19,.19,.25,.31,.78,1.62,2.75,2.03,4.47,1.84h0Z"/><path class="cls-7" d="M240.24,98.64c-2.28-.31-5.28-.71-6.29-3.15-.1-.28,.05-.58,.33-.67,.28-.09,.57,.06,.66,.34,.56,2.16,3.36,2.9,5.29,3.48h0Z"/><path class="cls-7" d="M246.72,101.15l-3.32,1.55c-.12,.06-.27,0-.33-.12-.06-.13,0-.3,.15-.34l3.5-1.09h0Z"/><path class="cls-7" d="M254.03,102.05l-3.32,1.55c-.12,.06-.27,0-.33-.12-.06-.13,0-.3,.15-.34l3.5-1.09h0Z"/><path class="cls-7" d="M283.01,128.57c-.52-2.11-1.45-4.55-3.76-5.14-.71-.21-1.62-.26-2.72-.2,.74-1.57,2.92-2.38,4.61-1.78,2.35,.68,3.9,3,4.27,5.32,.19,1.05,.37,2.91-1.21,2.88-.62-.03-1.07-.5-1.18-1.08h0Z"/><path class="cls-7" d="M285.17,137.71c4.59,1.16,9.75-.16,13.21-3.41,2.06-1.99,3.65-4.48,5.06-6.98,2-3.41,2.04-7.33,2.73-11.17,.65-3.94,1.33-7.8,2.14-11.76l2.03,1.23c-.69,.52-1.28,.84-2.01,1.2-3.16,1.71-6.89,1.35-10.2,2.28-3.64,1.37-7.06,4.07-8.91,7.59-1.19,2.07-1.87,4.44-3.11,6.5-.2,.28-.41,.58-.73,.72,.31-.16,.49-.47,.67-.76,1.59-3.45,2.29-7.33,4.79-10.34,1.9-2.17,4.08-3.94,6.76-5.16,2.59-1.07,5.42-.98,7.94-2.05,.88-.36,1.73-.79,2.51-1.33,.24-.17,.52-.38,.67-.52,.5-.46,1.28-.43,1.74,.06,.3,.33,.39,.77,.28,1.17-.9,3.78-1.71,7.69-2.47,11.55-.79,3.89-1.11,8.21-3.3,11.65-3.22,5.47-7.31,10.19-13.98,10.95-2.07,.22-4.1,.12-6.12-.46l.31-.97h0Z"/><path class="cls-7" d="M263.94,41.88l4.81,5.85c.53,.64,.63,1.49,.35,2.21l-5.56,14.21c-.23,.58-.67,1.01-1.21,1.24l-20.33,8.59,.91-3.43,5.44,7.1c.36,.47,.51,1.04,.45,1.58l-1.03,10.86-.54-1.7c2.21,2.45,4.46,5.11,7.02,7.15,.12,.09,.29,.18,.17,.12-.04-.01-.11-.04-.26-.07-.03,0-.1-.02-.15-.02h.01l.46,.02c3.6,.16,8.54,.78,12.15,1.06,1.17,.11,2.04,1.12,2.01,2.28l-.44,12.95-1.06-1.95s8.97,5.45,8.98,5.45c.73,.44,1.1,1.25,1.03,2.04l-1.07,12.12c-.13,1.99-2.86,2.67-3.93,1.02-3.04-4.25-7.63-7.67-12.72-8.88-11.13-2.52-21.12,5.19-28.53,12.82-13.55,13.62-18.04,28.31-2.83,42.82,8.21,7.75,18.7,13.23,29.24,17.2l-.47-.08c4.41,.06,8.91-.13,13.32-.59,5.79-.72,17.35-2.07,19.81-7.94,.16-.49,.23-.81,.27-1.35,.41-4.45,.79-8.92,.78-13.38,.09-.98-.47-2.32,.66-2.78l4.41-1.76c.56-.24,1.22,.03,1.45,.6,.3,4.54,.1,9.12,0,13.68-.13,2.01-.41,15.02-3.12,13.69-.34-.21-.47-.64-.32-1,1.63-4.03,2.91-8.29,3.66-12.59,.81-5.15,1.27-11.3-2.39-15.48-5.45-5.79-14.1-7.37-21-3.12,5.6-3.82,13.47-3.63,18.95,.43,4.2,2.62,5.92,6.82,6.09,11.62,.25,6.79-1.5,13.42-3.83,19.75l-1.42-.73c.2-.34,.37-.83,.5-1.32,.84-3.69,.86-7.52,.97-11.3,.06-4.38-.03-8.79-.22-13.16l1.53,.98-4.37,1.86,.71-1.2c.3,4.61-.06,9.16-.35,13.75l-.13,1.7c-.07,1.97-1.13,3.99-2.53,5.29-6.81,6.45-24.79,7.63-33.95,7.42-17.54-6.33-43.51-20.37-41.37-42.22,1.02-9.25,6.93-16.94,13.1-23.5,12.11-13.18,29.64-21.74,44.59-7.25,1.16,1.16,2.17,2.3,3.11,3.66l-3.94,.99,1.02-12.12,1.04,2.05-8.99-5.42c-.7-.42-1.08-1.18-1.06-1.95l.39-12.95,2.01,2.28c-3.59-.24-8.74-.87-12.25-1.01-1.49,0-2.66-1.11-3.66-1.95-2.35-2.13-4.39-4.39-6.48-6.74-.42-.48-.6-1.09-.55-1.68,0-.02,1.06-10.86,1.06-10.88l.45,1.58-5.43-7.11c-.9-1.13-.43-2.89,.91-3.43l20.34-8.55-1.2,1.24,5.58-14.2,.35,2.2-4.8-5.85c-1.76-2.2,1.45-5.03,3.4-2.79h0Z"/><path d="M443.8,220.98h-72.81c-.67,0-1.21-.54-1.21-1.21s.54-1.21,1.21-1.21h72.81c.67,0,1.21,.54,1.21,1.21s-.54,1.21-1.21,1.21Z"/><path d="M356.81,220.98h-24.34c-.67,0-1.21-.54-1.21-1.21s.54-1.21,1.21-1.21h24.34c.67,0,1.21,.54,1.21,1.21s-.54,1.21-1.21,1.21Z"/><path d="M438.81,17.97h-72.81c-.67,0-1.21-.54-1.21-1.21s.54-1.21,1.21-1.21h72.81c.67,0,1.21,.54,1.21,1.21s-.54,1.21-1.21,1.21Z"/><path d="M131.73,220.98H58.92c-.67,0-1.21-.54-1.21-1.21s.54-1.21,1.21-1.21h72.81c.67,0,1.21,.54,1.21,1.21s-.54,1.21-1.21,1.21Z"/><path d="M131.73,20.17H58.92c-.67,0-1.21-.54-1.21-1.21s.54-1.21,1.21-1.21h72.81c.67,0,1.21,.54,1.21,1.21s-.54,1.21-1.21,1.21Z"/><path d="M221.76,220.98h-72.81c-.67,0-1.21-.54-1.21-1.21s.54-1.21,1.21-1.21h72.81c.67,0,1.21,.54,1.21,1.21s-.54,1.21-1.21,1.21Z"/><path d="M350.06,17.97h-72.81c-.67,0-1.21-.54-1.21-1.21s.54-1.21,1.21-1.21h72.81c.67,0,1.21,.54,1.21,1.21s-.54,1.21-1.21,1.21Z"/><path d="M501.62,118.92h-72.81c-.67,0-1.21-.54-1.21-1.21s.54-1.21,1.21-1.21h72.81c.67,0,1.21,.54,1.21,1.21s-.54,1.21-1.21,1.21Z"/><path d="M490.28,169.65h-72.81c-.67,0-1.21-.54-1.21-1.21s.54-1.21,1.21-1.21h72.81c.67,0,1.21,.54,1.21,1.21s-.54,1.21-1.21,1.21Z"/><path d="M74.57,118.92H1.77c-.67,0-1.21-.54-1.21-1.21s.54-1.21,1.21-1.21H74.57c.67,0,1.21,.54,1.21,1.21s-.54,1.21-1.21,1.21Z"/><path d="M36.52,171.74H13.84c-.67,0-1.21-.54-1.21-1.21s.54-1.21,1.21-1.21h22.68c.67,0,1.21,.54,1.21,1.21s-.54,1.21-1.21,1.21Z"/><path d="M490.2,70.79h-22.68c-.67,0-1.21-.54-1.21-1.21s.54-1.21,1.21-1.21h22.68c.67,0,1.21,.54,1.21,1.21s-.54,1.21-1.21,1.21Z"/><path d="M455.14,70.79h-47.47c-.67,0-1.21-.54-1.21-1.21s.54-1.21,1.21-1.21h47.47c.67,0,1.21,.54,1.21,1.21s-.54,1.21-1.21,1.21Z"/><path d="M385.01,70.79h-22.68c-.67,0-1.21-.54-1.21-1.21s.54-1.21,1.21-1.21h22.68c.67,0,1.21,.54,1.21,1.21s-.54,1.21-1.21,1.21Z"/><path d="M476.56,51.62h-22.68c-.67,0-1.21-.54-1.21-1.21s.54-1.21,1.21-1.21h22.68c.67,0,1.21,.54,1.21,1.21s-.54,1.21-1.21,1.21Z"/><path d="M36.52,70.79H13.84c-.67,0-1.21-.54-1.21-1.21s.54-1.21,1.21-1.21h22.68c.67,0,1.21,.54,1.21,1.21s-.54,1.21-1.21,1.21Z"/><path d="M83.88,171.74h-24.34c-.67,0-1.21-.54-1.21-1.21s.54-1.21,1.21-1.21h24.34c.67,0,1.21,.54,1.21,1.21s-.54,1.21-1.21,1.21Z"/><path d="M122.44,188.19h-24.34c-.67,0-1.21-.54-1.21-1.21s.54-1.21,1.21-1.21h24.34c.67,0,1.21,.54,1.21,1.21s-.54,1.21-1.21,1.21Z"/><path d="M385.84,188.19h-24.34c-.67,0-1.21-.54-1.21-1.21s.54-1.21,1.21-1.21h24.34c.67,0,1.21,.54,1.21,1.21s-.54,1.21-1.21,1.21Z"/><path d="M425.68,188.19h-24.34c-.67,0-1.21-.54-1.21-1.21s.54-1.21,1.21-1.21h24.34c.67,0,1.21,.54,1.21,1.21s-.54,1.21-1.21,1.21Z"/><path d="M115.04,70.66h-24.34c-.67,0-1.21-.54-1.21-1.21s.54-1.21,1.21-1.21h24.34c.67,0,1.21,.54,1.21,1.21s-.54,1.21-1.21,1.21Z"/><path d="M151.53,70.66h-24.34c-.67,0-1.21-.54-1.21-1.21s.54-1.21,1.21-1.21h24.34c.67,0,1.21,.54,1.21,1.21s-.54,1.21-1.21,1.21Z"/></svg>