<?xml version="1.0" encoding="UTF-8"?><svg id="Blaser_Text" xmlns="http://www.w3.org/2000/svg" viewBox="0 0 900 310.44"><defs><style>.cls-1{fill:#fff;}</style></defs><rect y="-2.69" width="902.75" height="307.26"/><g><path class="cls-1" d="M819.68,180.54c-9.05-.39-15.35,13.38-15.35,13.38,0,0-1.18-4.33-3.15-16.53-1.97-12.2,.79-20.08,3.54-29.92,2.76-9.84,14.57-21.65,12.99-36.61-1.57-14.96-9.84-31.89-16.93-42.51-7.09-10.63-13.78-10.63-21.65-9.84-7.87,.79-29.13,7.48-42.12,7.48s-37.79-2.36-37.79-2.36c-9.05,.79-9.45,5.12-12.6,15.75-3.15,10.63-.79,37.4-.79,37.4,.79,12.6-1.57,35.82-4.72,44.48-3.15,8.66-1.18,16.53,.39,21.65,1.57,5.12,11.81,5.51,11.81,5.51,0,0,5.9,36.22,7.48,46.45,1.57,10.23,14.57,12.2,14.57,12.2,0,0-5.12,6.69,3.54,17.32,8.66,10.63,22.04,0,25.98-8.27,3.94-8.27-3.94-48.42-3.54-49.6,.39-1.18,3.15-2.76,5.51,1.57,2.36,4.33,14.17,43.3,21.65,49.21,7.48,5.9,16.93,3.15,24.8-.39,7.87-3.54,6.69-2.36,14.57,1.97,7.87,4.33,19.29,3.94,22.44-.79,3.15-4.72,1.97-13.78,.39-28.34-1.57-14.57,2.76-14.17,6.69-30.31,3.94-16.14-8.66-18.5-17.71-18.9Zm-51.96-45.86c-8.27,9.45-23.03,9.45-35.43,8.27l3.54-37.2s12.99-5.31,25.39-3.54,15.35,10.04,15.94,11.81c.59,1.77-1.18,11.22-9.45,20.67Z"/><path d="M819.68,213.21c5.31-7.09,9.45-18.6,2.07-19.19-7.38-.59-12.67,2.45-14.47,6.5-3.54,7.97-12.7,.3-14.47-10.33s-6.79-36.02-.3-48.12c6.5-12.1,19.78-23.62,12.4-43.7-7.38-20.08-11.51-27.46-18.01-29.82-6.5-2.36-8.56-2.66-15.65,0-7.09,2.66-25.98,4.43-45.47,2.36-19.49-2.07-23.62,.59-27.75,4.72s-7.97,11.81-6.2,21.26,3.84,19.49,2.66,30.7c-1.18,11.22-9.45,28.05-9.45,35.43s5.31,14.17,8.56,12.7c3.25-1.48,5.61-.89,6.79,3.54,1.18,4.43,4.13,47.24,7.68,51.67s11.51,3.84,13.29,2.66l1.77,18.9,.6,.42c2.54,1.79,6,1.44,8.12-.83l.73-.77s-1.48-38.97,0-47.53c1.48-8.56,3.25-13.58,10.04-13.58,3.85,0,10.63,15.35,15.06,27.46,4.43,12.1,15.35,34.84,25.39,32.77,10.04-2.07,10.63-4.13,16.24-4.43,5.61-.3,10.63,5.61,15.65,3.84,5.02-1.77,10.04-2.66,6.5-14.47-3.54-11.81-7.09-15.06-1.77-22.14Zm-57.83-91.05l-.28,1.06c-1.12,4.32-4.35,7.78-8.58,9.19l-9.15,3.05,1.18-21.26,10.7,.66c4.01-.32,7.14,3.4,6.13,7.29Z"/><path class="cls-1" d="M187.08,162.82c-3.18-8.07-9.05-20.08-11.81-29.13-2.76-9.05,5.9-13.38,11.81-24.41,5.9-11.02-1.06-32.91-5.9-42.51-11.22-22.24-38.97-25.19-56.29-24.01-11.78,.8-18.82,7.43-22.13,11.59-1.57,1.97-3.99,3.01-6.5,2.79-4.85-.42-12.61-.3-16.26,4.12-5.51,6.69-3.94,24.01,.39,32.28,4.33,8.27-.39,23.23-.39,23.23,0,0-5.9,20.47-6.3,25.59s3.94,9.05,5.12,13.78-8.27,30.31-9.45,35.04c-.76,3.03,3.02,7.2,5.83,9.79,1.73,1.6,2.61,3.9,2.35,6.25-.53,4.78-1.23,13.2-.7,20.57,.79,11.02,11.02,19.29,18.5,19.68,7.48,.39,10.63-6.69,12.2-8.27s3.94,.39,9.45,4.33c5.51,3.94,6.12,.24,10.63-4.72,1.97-2.16,3.54,.39,7.48,4.72,3.94,4.33,8.27,8.27,16.14,7.09,7.87-1.18,11.02-9.84,13.78-13.78,2.76-3.94,7.48-.79,10.63-2.76,3.15-1.97,4.72-8.66,11.42-32.28,6.69-23.62,2.56-32.48,0-38.97Zm-50.58,9.45c-1.18,16.53-9.25,19.88-12.6,21.65l2.17-39.76s11.61,1.57,10.43,18.11Zm-4.72-56.19v-15.35s8.46-.59,8.07,6.3c-.39,6.89-2.16,9.45-8.07,9.05Z"/><path d="M168.18,128.97c17.52-27.48,15.55-26.35,12.79-44.48-4.31-28.42-33.85-35.04-43.5-35.82-7.23-.59-16.53,.79-20.47,4.72s-9.45,12.6-15.75,9.45c-6.3-3.15-11.02,.79-15.75,7.09-4.72,6.3,3.94,25.19,4.72,33.85,.79,8.66,3.94,18.9-1.57,26.77-5.51,7.87-3.15,20.47-1.57,28.34,1.57,7.87-3.15,13.38-7.09,25.98-2.59,8.29-.06,12.49,1.96,14.39,1.08,1.02,1.61,2.5,1.27,3.95-4.03,16.92,3.54,30.59,7.79,34.41,3.4,3.05,8.66-7.87,14.17-11.02,5.51-3.15,9.15,8.46,12.6,7.09,3.1-1.24,9.57-4.06,14.96,1.57,7.43,7.77,19.95,2.81,25.14-1.23,7.53-5.86,10.92-11.51,15.01-24.75,5.52-17.88,8.27-33.85,5.71-44.68-1.03-4.37-18.48-22.99-10.43-35.63Zm-31.69,43.3c-1.18,16.53-9.25,19.88-12.6,21.65l2.17-39.76s11.61,1.57,10.43,18.11Zm-4.72-56.49v-15.35s8.46-.59,8.07,6.3c-.39,6.89-2.16,9.45-8.07,9.05Z"/><path class="cls-1" d="M141.81,155.54c-5.31-11.22-24.41-10.23-24.41-10.23l-1.38,59.84c5.9,1.77,22.24-8.27,26.97-16.73,4.72-8.46,4.13-21.65-1.18-32.87Zm-5.31,16.73c-1.18,16.53-9.25,19.88-12.6,21.65l2.17-39.76s11.61,1.57,10.43,18.11Z"/><path class="cls-1" d="M144.56,95.11c-1.88-1.74-18.7-1.97-18.7-1.97l-2.17,28.34c19.49,1.77,18.7-1.18,21.45-6.3,2.76-5.12,1.97-17.71-.59-20.08Zm-12.79,20.67v-15.35s8.46-.59,8.07,6.3c-.39,6.89-2.17,9.45-8.07,9.05Z"/><g><path class="cls-1" d="M226.77,246.5c.94-.72,1.6-1.72,1.93-2.85,.25-.87,.96-1.8,2.86-1.8,3.54,0,5.31,9.15,10.92,12.1,5.61,2.95,9.74,2.66,12.1,.89s3.25-9.45,5.9-9.45,4.13,6.2,7.97,6.79c3.84,.59,8.56-.3,10.04-2.36s5.02,3.54,9.45,2.07c4.43-1.48,7.09-4.43,7.38-6.2s0-37.5-.3-43.4-2.95-13.88-10.04-13.58c-7.09,.3-18.6,7.97-23.32,6.79s-11.81-5.61-11.81-14.76,8.86-33.07,10.04-55.51c1.18-22.44,1.48-67.91,.3-74.11s-7.38-12.1-14.17-7.68-13.65,17.63-14.47,18.9c-1.35,2.1-3.25,2.36-4.13-.89s-3.25-11.51-8.56-12.99-9.45-.59-11.81,1.77-8.56,7.38-9.45,29.82c-.89,22.44,1.18,50.49,3.25,56.98s4.76,14.71,4.19,20.54c-.37,3.72-5.08,15.77-3.9,21.97s.59,14.47,2.95,19.49-3.25,23.32-3.25,28.64-1.18,22.44,2.07,26.57c3.25,4.13,8.86,4.13,14.76-.59l5.9-4.72,3.18-2.43Z"/><path d="M211.2,245.13c-1.47-.33-2.54-1.59-2.75-3.09-.7-5.05-2.35-18.85-.12-23.32,2.76-5.51,7.48-9.45,4.33-16.14s-7.46-19.25-4.66-26.85c2.35-6.36,4.62-16.25,2.68-25.51-1.9-9.02-9.83-37-9.04-48.81s-.39-32.67,6.3-38.18,11.42-5.51,14.17-1.57,3.15,12.52,5.9,12.6c3.97,.11,11.81-19.29,17.32-19.29s8.66,3.54,9.84,9.45c1.18,5.9,.79,52.75-2.36,67.31-3.15,14.57-11.16,50.51-9.05,59.44,.93,3.96,2.36,11.42,14.57,11.02,12.2-.39,20.08-3.94,23.23-2.36,0,0,6.69,1.28,7.58,5.12s.59,26.57-.3,31.59-12.7,7.09-18.01,5.61c-5.31-1.48-5.61-6.2-10.04-5.31s-.3,5.02-7.97,6.2c-7.68,1.18-10.92-10.04-19.19-9.15s-7.38,5.31-12.99,8.86c-3.87,2.45-7.13,2.92-9.43,2.4Z"/></g><path class="cls-1" d="M336.89,247.37c.45-1.53,2.41-1.94,3.41-.7,2.38,2.95,6.09,6.8,9.35,6.99,5.31,.3,9.74,.3,11.51-4.43s1.46-31,3.25-38.38c2.36-9.74,6.5-19.49,12.1-20.96,4.89-1.29,6.5,2.66,7.38,6.5s1.48,51.08,5.02,59.05,8.82,9.43,12.4,9.15c11.51-.89,12.4-19.78,16.24-20.08,3.72-.29,7.09,12.1,12.7,12.1s7.38-.59,10.33-4.72,6.5-21.55,.59-34.25-17.71-43.11-19.19-66.72c-1.48-23.62,2.07-62.89,2.66-68.5s-5.02-25.06-14.76-26.28c-21.26-2.66-25.69,15.35-28.34,15.35s-9.15-10.92-16.83-12.4c-8.74-1.68-22.44,.89-29.52,10.63s-12.4,29.82-10.04,39.86,7.68,31,6.2,37.2-13.29,21.26-16.24,29.82-5.02,57.87-2.95,68.79c2.07,10.92,5.61,13.88,10.04,14.17,4.02,.27,11.2-.19,14.7-12.19Z"/><path d="M374.78,77.19c2.49,2.14,6.2,1.96,8.47-.41,5.08-5.31,14.15-13.69,19.84-12.67,8.27,1.48,17.12,9.74,14.76,20.08-2.36,10.33-8.27,38.97-6.2,64.07s18.6,54.62,20.37,64.07,5.9,29.52-2.66,28.05-9.45-8.56-13.88-7.38c-4.43,1.18-5.9,12.4-9.15,15.06-3.25,2.66-10.04,2.66-10.92-2.66s0-52.26-3.25-56.98-7.38-8.86-15.65-7.38-13.29,5.61-15.94,14.17-2.36,32.48-4.13,38.09c-1.77,5.61-4.13,11.22-9.74,8.86s-9.45-12.1-11.22-11.22-2.95,11.81-6.79,11.81-12.4-6.79-8.56-16.53,3.84-38.09,5.02-44.29,13.88-24.8,14.76-33.36-6.5-38.09-5.61-52.26,7.97-22.73,14.47-26.57,17.12-1.48,21.26,2.95c1.53,1.64,3.23,3.2,4.75,4.52Z"/><path class="cls-1" d="M388.45,148.5c-.4-1.46-1.03-2.83-1.81-4.09l-13.57-27.6c-.73-1.49-2.9-1.37-3.46,.2l-10.29,28.82c-1.01,2.07-1.6,4.39-1.6,6.85,0,8.64,7.01,15.65,15.65,15.65s15.65-7.01,15.65-15.65c0-1.45-.2-2.85-.57-4.18Z"/><path d="M383.77,149.14c-.28-1.03-.72-1.99-1.27-2.87l-9.53-19.39c-.51-1.05-2.03-.96-2.43,.14l-7.23,20.24c-.71,1.46-1.12,3.08-1.12,4.81,0,6.07,4.92,10.99,10.99,10.99s10.99-4.92,10.99-10.99c0-1.02-.14-2-.4-2.94Z"/><path class="cls-1" d="M477.09,170.29c-6.84-2.1-12.57-6.84-15.82-13.21-5.68-11.11-13.71-29.35-12.42-41.5,1.97-18.5,7.09-42.91,15.75-52.75,8.66-9.84,18.9-15.35,28.34-11.81s14.17,11.02,14.17,11.02c0,0,20.08-4.33,32.28-.39,12.2,3.94,23.62,16.14,24.41,26.37,.79,10.23,3.54,23.62-3.54,31.89s-10.23,12.6-15.35,13.38c-5.12,.79-4.72-3.54-8.66-2.76s-2.76,5.51-7.09,5.12-5.51,.79-9.05-3.15-6.69-1.97-10.63-4.33-8.66-5.9-10.23-9.45-3.94,5.9-1.97,8.27,10.23,11.42,24.41,12.6,27.95,7.09,31.1,10.23,7.48,8.66,8.66,18.11-1.57,21.26-7.48,25.19c-5.9,3.94-4.72,13.78-2.76,18.11s6.69,15.35,3.15,21.26c-3.54,5.9-6.69,16.14-14.57,15.35-7.87-.79-8.66-3.94-13.78,1.18s-9.05,11.02-12.2,11.42c-3.15,.39-3.54,2.76-9.05-3.54-5.51-6.3-5.9-9.84-10.63-7.09-4.72,2.76-8.66,8.27-13.78,7.48-5.12-.79-13.38-10.63-11.81-14.96s-11.81-8.27-14.17-11.81-14.17-24.41-9.84-38.18,7.48-18.9,13.38-19.68,14.96-1.97,18.9,2.76,4.33,11.02,4.33,12.6,9.05,4.72,11.02,7.87,3.94,8.66,3.94,8.66c0,0,23.23-.79,11.02-16.53-7.86-10.14-20.77-14.89-30.02-17.73Z"/><path d="M478.59,64.87c1.47-1.51,2.75-3.19,3.91-4.95,1-1.52,2.68-2.54,6.12-1.41,9.84,3.25,11.02,11.07,19.68,11.42,9.94,.39,13.78-8.17,30.7-.39,9.3,4.27,17.71,7.87,19.29,17.32s1.18,25.59-10.23,31.1-19.29,9.05-27.95,3.15-11.02-14.96-17.71-14.96-11.42,3.15-12.6,12.99,.39,22.44,14.57,27.16,28.74,2.76,35.43,7.48,12.2,9.05,12.2,16.53-5.12,18.11-7.87,19.68-3.15,11.42,0,16.53c3.15,5.12,4.72,20.86,1.97,24.41s-11.81,4.72-15.75,4.33-7.87,1.57-10.23,5.9-5.9,8.27-9.84,6.3c-3.94-1.97-8.27-9.05-14.57-7.09-6.3,1.97-8.66,9.05-12.99,5.51-4.33-3.54-5.9-11.02-9.84-12.2-3.94-1.18-14.17-6.3-16.53-14.17s-4.72-25.19-1.18-32.67c3.54-7.48,5.51-9.05,9.45-8.27s8.27,1.57,8.27,5.9c0,1.37-.04,3.1-.09,4.81-.12,3.88,1.83,7.44,4.95,9.74,1.06,.78,2.12,1.81,3.02,3.16,3.15,4.72,6.3,12.2,12.2,13.38s20.47,.79,24.41-9.84,3.94-31.89-10.63-35.82-38.18-15.75-41.73-40.94c-3.54-25.19-3.94-38.18,2.36-49.21,3.88-6.8,8.36-11.95,11.23-14.9Z"/><path class="cls-1" d="M572.85,249.33c4.04,.21,7.96,1.55,10.94,4.28s7,5.66,11.11,6.44c8.27,1.57,9.05,3.94,16.53-3.15s7.09-11.42,15.75-10.23c8.66,1.18,29.52,6.69,39.37-1.97,9.84-8.66,20.08-26.37,7.87-33.07-12.2-6.69-13.38-8.66-24.01-7.87-10.63,.79-13.38,4.33-15.35-1.57s-2.36-11.42,5.12-12.99c7.48-1.57,11.02,3.94,20.47,2.76s14.17-1.57,14.96-11.42-5.9-15.35-1.97-25.59c3.94-10.23,3.15-29.13-5.9-28.74s-14.57,1.18-20.08,7.48-8.66,10.23-12.2,8.66-3.94-11.81,5.9-17.32c9.84-5.51,11.02-6.3,17.32-5.9s14.96-5.51,15.75-14.57,9.45-18.9,10.23-22.04,4.72-17.32-13.38-21.65c-18.11-4.33-14.17-4.72-27.16-.39-12.99,4.33-43.3,6.69-53.54,2.36s-9.84,16.53-13.38,19.68-9.84,9.84-9.45,15.75c.39,5.9,6.69,17.32,7.48,26.77s-10.23,20.47-9.84,30.7,8.66,29.13,9.05,34.25-9.05,22.83-8.66,28.74v.12c.23,3.39-.68,6.72-2.47,9.61s-3.51,6.84-2.64,10.74c1.19,5.37,6.23,9.84,12.2,10.14Z"/><path d="M603.04,248.74c-3.29,1.21-6.99-.24-8.82-3.23-1-1.63-2.73-3.52-5.72-5.14-7.09-3.84-12.7-2.07-13.58-2.36s-4.72-11.81,.3-23.03c5.02-11.22,8.56-18.01,5.9-28.34s-8.56-15.65-5.02-27.16c3.54-11.51,8.56-18.6,6.5-28.34s-9.45-28.64-3.25-39.27,7.97-19.78,17.42-21.85,13.7,.63,17.42,2.95c9.45,5.9,28.05-5.9,42.51-5.61,11.25,.23,15.35-1.77,16.53,1.77s2.95,10.92-.89,15.06-5.31,10.92-7.68,17.42c-1.76,4.85-13.58,7.09-18.9,8.27s-18.3,7.68-20.96,18.6-.3,20.96,5.31,22.14,10.04,4.43,15.35-1.18,6.79-11.51,13.29-12.4c6.5-.89,10.04,1.48,10.33,4.43s-2.66,5.61-2.66,13.58,5.02,15.65,3.84,19.19-.59,9.15-7.68,7.97c-7.09-1.18-11.51-4.13-20.08-4.13s-22.14,7.68-22.14,14.76,2.07,20.67,16.53,21.26,18.26-2.09,19.19-2.07c10.83,.32,13.88,7.68,13.88,9.74,0,1.47-4.43,7.1-7.63,10.5-1.5,1.59-3.31,2.82-5.34,3.62-4.21,1.64-12.03,4-20.39,3-12.4-1.48-21.55-2.66-23.91,0-1.77,1.99-3.71,7.64-9.67,9.84Z"/><path class="cls-1" d="M776.68,114.86c-.58-1.73-3.46-9.8-15.56-11.53s-24.78,3.46-24.78,3.46l-3.46,36.31c12.1,1.15,26.51,1.15,34.58-8.07,8.07-9.22,9.8-18.44,9.22-20.17Zm-15.27,7.76l-.27,1.04c-1.09,4.22-4.25,7.59-8.38,8.97l-8.94,2.98,1.15-20.75,10.45,.65c3.91-.32,6.97,3.32,5.98,7.12Z"/></g></svg>