<?xml version="1.0" encoding="UTF-8"?><svg id="Layer_1" xmlns="http://www.w3.org/2000/svg" viewBox="0 0 400 400"><defs><style>.cls-1,.cls-2,.cls-3,.cls-4{fill:none;}.cls-2,.cls-3{stroke-miterlimit:10;}.cls-2,.cls-3,.cls-4{stroke:#000;}.cls-2,.cls-4{stroke-width:3px;}.cls-5,.cls-6{fill:#fff;}.cls-7{fill:#fff0a4;}.cls-8{fill:#ffdb2c;}.cls-9{fill:#bf4094;}.cls-10{fill:#1c5143;}.cls-11{fill:#7adb75;}.cls-6{opacity:.15;}.cls-4{stroke-linecap:round;stroke-linejoin:round;}</style></defs><circle class="cls-7" cx="200.01" cy="199.87" r="199.87"/><path class="cls-7" d="M216.73,325.91s-9.77-4.19-12.91-9.77c-3.14-5.58-5.93-25.46-5.93-25.46,0,0,5.58-.35,7.32-5.93s3.14-6.28,2.09-15.7c-1.05-9.42-8.37-24.42-7.32-30s6.28-11.16,10.12-11.51,9.42,4.88,9.42,4.88c0,0,2.44,1.05,4.53-4.19,2.09-5.23-2.44-13.25-2.79-14.65-.35-1.4,4.19-6.98,2.44-9.42-1.74-2.44-8.37-19.53-8.37-19.53l-11.51-28.95,3.84-8.72,8.37-1.05,7.67,7.32,28.95-5.93,5.23,2.79,2.44,6.98-28.95,13.95,.35,6.28,2.09,11.86,8.72,17.32-1.05,20.7-11.51,24.77-1.74,13.95s-4.88,25.81-4.53,33.83c.35,8.02,14.3,20.23,14.3,20.23l-21.28,5.93Z"/><path class="cls-11" d="M224.93,100.05s17.44-9.94,26.51-7.85c9.07,2.09,13.78,2.79,15.35,1.57s.87-3.84-1.57-7.15-10.29-24.77-15.52-29.3c-5.23-4.53-22.15-17.96-28.95-21.63-6.8-3.66-10.12-6.28-17.44-5.58-7.32,.7-12.56,2.96-13.08,4.71s-2.44,11.51,2.09,15.17c4.53,3.66,12.03,9.94,14.65,13.6s5.41,17.79,7.5,22.32c2.09,4.53,6.28,12.73,10.46,14.13Z"/><path class="cls-11" d="M262.54,123.02c5.12-7.21,6.05-8.14,3.72-9.53-2.33-1.4-7.21-2.79-13.95-2.09-6.74,.7-13.25,0-16.51-.7-3.26-.7-6.28-2.79-5.81-5.35,.46-2.56-2.33,0-2.33,0l-7.91-2.79-6.98-8.37,.46-4.65-7.91,13.02-2.79,3.26-4.65-6.05s-5.12-4.19-5.58-8.37c-.47-4.19-6.05-14.42-6.05-14.42l-6.98,2.33-11.16,34.42-22.32-27.9-12.56,5.58,4.65,51.62-36.28-14.88-8.37,27.9,29.65,29.18-32.09,11.16,.58,20.58,26.97,13.49-18.6,24.18,6.51,17.67,29.3-5.12-11.28,33.49,15,19.07,23.25-11.16-3.49,24.42,15.58,6.74,17.44-10.7,12.09,17.67,12.79-.47,5.12-14.18,13.72,6.98,8.14-4.65-.93-11.86s.46-2.33,1.4-2.09c.93,.23,9.3,1.63,9.3,1.63,0,0,6.05-5.58,6.98-10,.93-4.42-.7-8.6-.7-8.6l-5.12-2.56-1.86-2.09-.7-1.63,8.72-17.21s-5.46-10.23-17.79-11.63c-12.32-1.4-17.67-1.4-22.09,1.4s-9.3,18.37-10.23,22.56c-.93,4.19,.46,17.44,5.12,20,4.65,2.56,17.44,1.63,23.25-5.12,5.81-6.74,1.34-16.38-2.85-15.68-4.19,.7-5.52,10.57-9.24,8.47-3.72-2.09-7.21-7.44-5.12-11.39,2.09-3.95,8.6-8.84,13.25-8.6,4.65,.23,8.6,2.09,10,5.35,1.4,3.26,3.95,10.46,3.02,14.18-.93,3.72-2.56,12.79-10.7,16.98-8.14,4.19-25.35,20-59.06-1.86,0,0-23.25-20.93-30.93-41.39-7.67-20.46-11.63-38.37-11.63-38.37l-9.26-3.09c-1.69-.56-3.05-1.98-3.28-3.74-.03-.19-.04-.39-.04-.58h0c-.02-2.47,1.77-5.4,3.97-6.54,4.27-2.21,6.44-4.54,25.24-20.59,2.93-2.5,32.44-13.84,36.62-13.14,4.19,.7,18.65,6.71,21.16,8.84,1.36,1.15,7.09,3.74,13.12,8.66,2.28,1.86,3.15,1.13,4.32,1.13s6.54-1.57,10.93,1.83c2.42,1.87,5.35,.47,3.02-3.26-2.33-3.72-4.88-5.35-4.88-5.35,0,0,2.54-.64,2.18-5.87-.32-4.62-5.3-4.39-5.62-4.23-3.39,1.69-8.07,2.35-13.53,2.19,0,0-1.27-.4-3.34-1.05-.93-2.76-2.7-10.59-1.84-13.49,1.05-3.49,4.01-4.88,7.85-5.23,3.84-.35,8.72,7.5,8.72,7.5,0,0-.35-3.14-.52-6.8-.17-3.66-1.22-9.94-9.07-13.43-7.85-3.49-22.5-1.57-25.99-1.4-3.49,.17-20.43,.06-18.84-1.22,5.84-4.71,7.59-6.4,9.24-14.13,1.33-6.22,2.58-11.44,2.64-15.09,0-.3,.26-.53,.56-.51,1.99,.14,2.62,.2,4.54,.44,10.24,1.28,22.31-6.99,26.73-12.57l-8.6,11.39s2.56,1.16,7.21,.23c4.65-.93,10.93-4.65,10.93-4.65,0,0-2.09,6.05-4.19,6.74,0,0,7.91-2.09,10-4.65,0,0-1.63,5.81-2.79,6.28-1.16,.47,10.23-1.4,11.16-4.19,0,0-.93,4.88-2.09,5.58,0,0,6.98-2.14,9.43-5.89-.47,.96-1.06,2.35-1.06,3.33,0,1.63,6.74,1.86,11.86-5.35Zm-72.32,43.66c5.06,1.22,10.81,4.01,12.56,6.8,1.37,2.2-.49,9.12-1.35,11.98-5.52-1.64-11.06-3.21-14.7-4.08-9.77-2.33-13.72-3.95-20.93-3.72s-13.25-32.09-13.25-32.09c0,0,10.23-18.37,12.56-19.77,.23-.14,.65-.21,1.22-.23-.43,3.29,4.71,7,4.71,7,0,0-1.57,3.58-2.62,6.37-1.05,2.79-.35,11.69,1.4,16.92,1.74,5.23,15.35,9.59,20.41,10.81Z"/><path class="cls-10" d="M242.54,206.5s8.14-15.58,10-18.14c1.86-2.56,13.68-9.53,23.12-8.6s0,0,0,0l5.21-3.09s-3.91,23.32-4.14,27.28-7.21,19.77-12.56,22.56c-5.35,2.79-18.6,5.35-21.63,4.88s-1.16-14.88-.93-18.6c.23-3.72,.93-6.28,.93-6.28Z"/><path class="cls-10" d="M234,244.28c1.05-.35,40.64-7.85,40.64-7.85,0,0-1.57,7.32-4.71,9.42s-13.08,6.8-13.08,6.8c0,0-6.63,1.22-8.72-.17-2.09-1.4-5.93-6.63-7.15-5.23s-1.05,4.53-1.05,4.53c0,0-4.71-2.79-6.8-1.92-2.09,.87,.87-5.58,.87-5.58Z"/><path class="cls-10" d="M167.42,240.36l18.97,9.51,8.72,8.37,3.84,11.69,.87,9.24-1.92,11.51s-18.66-2.62-19.18-3.84c-.52-1.22-14.82-16.22-14.82-16.22l-4.01-16.57,1.93-15.52,5.61,1.83"/><path class="cls-9" d="M246.55,95.63c.17,0,15.23,3.08,17.38,5.35,2.15,2.27,2.85,5.93,2.21,7.03-.64,1.1-10.7,3.08-13.14,2.38s-18.43-7.03-18.84-8.37c-.41-1.34,12.38-6.39,12.38-6.39Z"/><path class="cls-9" d="M280.87,176.66c-.82,.24-1.63,.49-2.43,.77-.66,.23-1.51,.41-2.09,.82-.51,.36-.6,.93-.68,1.5-.12,.84-.24,1.68-.37,2.52-.53,3.32-1.22,6.61-2.06,9.87-.33,.37-.22,1.22,.36,.9,1.42-.79,2.8-1.65,4.12-2.59,1.12-.8,2.11-1.55,2.4-2.97,.32-1.6,.4-3.27,.58-4.89,.21-1.79,.41-3.58,.62-5.37,.03-.28-.07-.67-.44-.56Z"/><path class="cls-9" d="M167.42,240.36c-.21-.26-.47-.14-.63,.1-.71-.92-1.95-1.49-2.93-2.11-.83-.52-1.36-.57-2.06,.17-1.28,1.36-1.95,3.29-1.7,5.14,.23,1.76,1.21,3.43,2.67,4.44,1.72,1.19,4.06,1.45,5.5,3.06,.44,.5,.58,1.03,.82,1.62,.14,.35,.35,.73,.71,.87,.64,.26,1.23-.17,1.41-.76,.09-.1,.16-.24,.17-.42,.19-4.38-1.2-8.73-3.97-12.14Z"/><polygon class="cls-8" points="185.69 78.6 191.79 78.43 203.13 96.74 209.58 80.69 216.21 91.16 201.91 108.25 185.69 78.6"/><path class="cls-8" d="M192.84,34.13s-1.05,6.63,4.88,13.08c5.93,6.45,11.86,11.86,11.86,11.86,0,0,1.22-3.66-2.09-10.29-3.31-6.63,0-5.76,1.57-4.01,1.57,1.74,4.71,3.49,5.76,8.89,1.05,5.41,.17,16.92,.52,19.88s5.41,20.23,10.12,19.71,11.16-4.01,17.44-2.96l6.28,1.05s-15,7.32-19.71,8.2-6.45,4.01-9.24-2.09c-2.79-6.1-10.81-36.1-18.49-40.46-5.02-2.85-12.73-8.02-8.89-22.85Z"/><polygon class="cls-8" points="182.9 78.37 176.27 78.37 165.46 99.53 153.6 83.48 146.39 86.39 166.5 113.48 182.9 78.37"/><polygon class="cls-8" points="133.71 91.97 138.13 141.15 136.27 143.13 101.16 127.9 104.76 121.74 126.62 130.46 128.71 128.36 125.81 96.86 133.71 91.97"/><polygon class="cls-8" points="92.55 156.27 123.83 182.55 124.18 186.03 88.95 199.4 90.58 190.1 106.86 184.87 107.55 180.8 90.58 164.87 92.55 156.27"/><polygon class="cls-8" points="91.74 217.78 118.13 230.1 119.06 232.89 99.53 254.05 97.9 243.59 105.46 236.38 105.11 233.24 91.86 227.43 91.74 217.78"/><polygon class="cls-8" points="106.62 270.68 135.92 267.42 136.39 268.47 124.41 302.19 119.65 292.88 127.09 276.37 126.04 274.75 108.95 278 106.62 270.68"/><polygon class="cls-8" points="138.36 318.58 162.78 307.88 164.41 310.21 159.53 334.16 154.41 329.04 155.11 319.28 153.48 318.58 144.18 324.39 138.36 318.58"/><polygon class="cls-8" points="174.64 339.74 190.92 328.35 194.41 329.74 206.03 347.42 194.87 345.55 191.38 338.58 186.96 339.28 183.48 342.53 180.92 343.69 174.64 339.74"/><path class="cls-8" d="M215.57,344.86l6.51-12.79h1.63l13.02,6.98-5.12,2.56-4.42-2.56-2.79,.47s-1.86,1.4-1.86,2.09-.7,2.79-.7,2.79l-.93,2.09-5.35-1.63Z"/><polygon class="cls-8" points="242.08 333.23 243.01 321.84 244.87 320.21 254.17 322.07 242.08 333.23"/><polygon class="cls-8" points="253.47 299.51 260.45 279.05 264.63 286.49 259.75 292.07 259.28 296.49 261.84 299.28 264.4 301.61 266.26 306.95 264.17 308.58 253.47 299.51"/><circle class="cls-8" cx="139.47" cy="159.7" r="10.29"/><path class="cls-8" d="M163.71,126.39s-6.28,2.79-12.21,9.42c-5.93,6.63-9.07,15-9.07,16.74s-10.12,11.16-10.46,14.65,1.4,12.91,3.84,15.7,.88,8.08,.88,8.08c0,0,20.33-12.05,27.66-12.22,5.88-.13,7.05-5.3,7.1-6.01,.15-2.23-8.92-1.62-11.47-9.05-3.15-9.19-9.17-20.22,3.74-37.31Z"/><path class="cls-8" d="M152.55,284.05s-6.98-15.35-15-20.58c-8.02-5.23-14.65-7.67-15.35-15.35-.7-7.67-.54-15.35,3.17-15.58,1.31-.08,3.67-.25,5.7-.35,2.28-.11,4.22-.05,5.51,1.51,1.99,2.41,4.35,17.76,5.51,20.7,.69,1.75,10.46,29.65,10.46,29.65Z"/><circle class="cls-5" cx="240.91" cy="77.67" r="3.95"/><circle class="cls-6" cx="240.88" cy="77.73" r="7.43"/><path d="M257.19,315.79c-1.74,3.49-4.53,4.19-8.37,9.77-1.57,2.29-3.68,4.7-5.61,6.74-2.78,2.94-5.2,5.12-5.2,5.12,0,0-22.67,9.88-17.79,9.53,4.88-.35,19.3-4.77,23.84-9.65,0,0-8.14,20.35-58.37,15.81s-92.09-88.25-94.18-95.57c-2.09-7.32-10.12-65.23-5.58-96.97,4.53-31.74,13.6-62.79,46.74-76.39,33.14-13.6,61.39-8.02,76.04-6.98l1.57-.41s-8.55-18.43-13.43-18.08c-4.88,.35-2.66,11.02-11.51,11.16-7.44,.12-3.49-13.6-8.02-14.65s-5.58,11.86-9.07,12.91-7.67-1.74-10.81-5.23c-3.14-3.49-3.84-.7-4.53,.35-.7,1.05-2.09,9.07-5.58,9.77-3.49,.7-10.12-4.88-13.6-6.28-3.49-1.4-4.53,13.95-6.63,15.7s-6.28-2.44-10.46-2.44-1.74,6.98-3.14,8.72c-1.4,1.74-2.09,5.93-3.84,5.23-1.74-.7-8.37-4.53-10.46-3.84-2.09,.7,2.44,10.12,.35,13.6-2.09,3.49-8.02-.35-9.07,2.09-1.05,2.44,3.84,7.32,1.05,11.86-2.79,4.53-6.28,6.63-8.37,8.72-2.09,2.09,3.84,6.28,2.79,9.07s-4.88,1.74-5.93,3.49,2.44,2.79,3.84,4.53c1.4,1.74,2.79,3.84-2.09,5.58-4.88,1.74-1.4,6.98-.35,8.02,1.05,1.05-3.6,5.58-5.35,7.32-1.74,1.74,6.05,5.58,3.95,8.02s-6.98,2.79-7.33,6.63c-.35,3.84,4.53,3.84,5.58,7.67s-1.74,9.42-4.53,12.21c-2.79,2.79-.7,6.63,1.4,7.67,2.09,1.05,4.53,4.19,3.84,8.02-.7,3.84-6.98,6.98-6.28,8.02,.7,1.05,7.33,8.37,8.02,11.16,.7,2.79-4.88,10.46-1.74,13.25s8.02,5.23,8.72,9.07c.7,3.84-4.88,12.21-3.84,13.6,1.05,1.4,5.58,1.4,7.33,4.88,1.74,3.49,3.14,3.84,3.14,8.72s-2.09,8.02-1.05,8.72c1.05,.7,8.37,1.74,10.81,6.63,2.44,4.88,.7,15.35,2.09,16.05,1.4,.7,11.51-1.74,12.56,.35,.52,1.05,2.49,3.36,2.79,6.28s-1.05,6.45-.35,7.32c1.4,1.74,11.16-.35,12.56,2.09,0,0,2.44,4.53,3.49,9.42s-1.74,7.32-.35,8.72c1.4,1.4,11.16-3.14,14.65,.35,3.49,3.49,5.58,14.3,6.98,14.65s5.23-5.93,14.65-5.93c6.48,0,9.83,6.45,11.28,10.47,.38,1.05,1.75,1.27,2.44,.4,1.24-1.55,3.38-3.19,6.86-3.19,6.63,0,9.07,6.63,11.86,6.63s.7-3.49,5.93-6.28,6.98-4.19,11.16-1.74c5.34,3.11,7.27,10.19,7.25-3.32,0-2.72,1.97-5.07,4.67-5.46,4.4-.62,8.71-.39,10.06-3.78,1.4-3.49-1.05-9.42,4.53-10.12,5.58-.7,8.72-1.05,8.72-6.28s3.49-9.77,3.49-9.77c0,0-2.44-13.25-4.19-9.77Z"/><path class="cls-2" d="M210.45,78.25s-59.06-11.51-96.74,28.49c-14.18,15.06-20.52,39.19-23.16,61.68-4.72,40.32,2.68,81.3,22.63,116.66,10.21,18.09,24.31,36.06,43.32,47.22,29.84,17.52,73.48,25.11,99.06-8.37"/><path d="M153.83,83.48c2.21,2.98,7.81,10.52,9.95,13.39l.83,1.12c.16,.21,.34,.53,.64,.53,.22,.01,.43-.1,.52-.27l.5-1.18,8.64-20.5,2.72,1.26-10,19.86-.31,.62c-.34,.92-1.2,1.72-2.27,1.51-.65-.09-1.16-.59-1.45-1.14l-.75-1.17c-1.92-2.98-7.04-10.95-9.02-14.03h0Z"/><path d="M146.04,85.81c5.24,6.85,14.6,19.14,19.74,25.87,.42,.49,.53,.95,1.08,.78,.19-.06,.28-.25,.34-.42l.44-1.07,14.22-34.36,2.75,1.2-15.59,33.76-.49,1.05c-.22,.54-.67,1-1.23,1.17-.58,.19-1.24,.09-1.73-.28-.53-.45-.6-.74-.86-1.06l-2.67-3.81c-3.4-4.85-12.5-17.82-16.01-22.83h0Z"/><path d="M190.96,76.13c3.37,5.4,8.9,14.33,12.22,19.64,.04,.04,.15,0,.13-.05l-.04,.09,5.42-17.36,2.83,.99c-.05,.1-6.56,16.97-6.61,17.05-.56,1.21-2.41,1.35-3.11,.19-.41-.73-1.64-3.08-2.06-3.85-1.89-3.54-6.92-13-8.87-16.65l.09-.05h0Z"/><path d="M210.92,78.95c-1.19-6.66-2.45-14.07-7.93-18.58-8.35-7.1-15.1-8.28-14.68-21.39-.22-9.37,10.22-11.25,17.59-10.72,5.55,.11,10.99,2.28,15.57,5.11,7.72,4.77,14.33,10.35,21.71,15.28,7.08,5.71,11.83,13.69,15.66,21.77,1.46,3.27,2.74,6.38,4.43,9.51,1.61,3.11,3.29,6.21,4.84,9.4,1.72,3.09,3.04,8.38-.91,10.3-.62-.14-.83-.33-.95-.6-2.28-3.97-7.22-5.37-11.56-5.42-7.39,0-14.61,2.61-21.32,5.66-6.68,3.03-10.32,5.62-15.56-1.39-1.69-2.11-3.1-4.25-4.46-6.54l3.64,.18-12.61,17.31c-.61,.82-1.7,1.28-2.71,1.2-1.22-.06-2.31-.93-2.77-2.06-.14-.3-.62-1.21-.77-1.53l-2.07-4.08c-2.63-5.18-9.68-19.13-12.4-24.48l2.66-1.39c2.87,5.36,10.16,19,12.93,24.17,.66,1.21,2.5,4.69,3.14,5.86-.27-.45-.91-.33-1.14,.09,1.32-1.9,13.2-19.04,14.12-20.36,1.76,2.97,3.63,6.35,5.69,9.08,.82,1.11,1.98,2.49,2.95,3.03,1.51,.24,2.82-.33,4.44-.93,3.48-1.42,7.22-2.93,10.83-4.03,8.49-2.38,19.43-4.25,26.44,2.49,.71,.75,1.33,1.6,1.75,2.55,.15,.31,.2,.72-.28,1.18,1.16-3.4,.78-6.41-.96-9.37-2.4-4.67-5.17-9.21-7.51-13.96-3.55-7.87-7.67-15.63-13.66-21.88-2.34-2.55-5.2-4.37-8.06-6.27-5.85-4.06-11.28-8.52-17.18-12.04-4.41-2.68-9-4.61-14.11-4.76-4.53-.24-10.24-.02-13.36,3.58-.78,1.06-1.04,2.8-1.15,4.2-.2,3.15,.25,6.68,1.74,9.45,2.81,4.19,7.77,6.64,11.34,10.41,5.4,5.02,6.31,12.97,6.65,19.94h0Z"/><path d="M206.53,43.5c4.19-.12,8.25,3.23,9.57,7.27,1.82,5.27,.97,10.94,.07,16.24-.2,1.29-.46,2.47-.88,3.91-1.88-2.31-1.34-5.35-1.43-8.04,.18-7.69,1.45-16-7.33-19.39h0Z"/><path d="M239.52,60.81s-3.26-2.21-2.09-5.46c1.16-3.26,4.65-4.53,4.65-4.53l2.21,2.67s-1.4-.35-3.14,1.86c-1.74,2.21-1.86,3.37-1.63,5.46Z"/><path d="M222.54,77.09c-.43,5.58,2.49,11.23,7.52,13.76l-.34-.13,1.18,.16-.44,2.18c-.2-.05-1.23-.33-1.4-.37-5.07-3.33-7.71-9.68-6.52-15.61h0Z"/><path d="M227.95,74.65c-.43,5.58,2.49,11.23,7.52,13.76l-.34-.13,1.18,.16-.44,2.18c-.2-.05-1.23-.33-1.4-.37-5.07-3.33-7.71-9.68-6.52-15.61h0Z"/><path d="M253.23,73.25c1.19,5.93-1.46,12.28-6.52,15.61-.17,.05-1.2,.31-1.4,.37l-.44-2.18,1.18-.16-.34,.13c5.03-2.53,7.94-8.18,7.52-13.76h0Z"/><circle class="cls-1" cx="243.06" cy="75.52" r="12.38"/><circle class="cls-3" cx="240.91" cy="77.67" r="3.02"/><path d="M246.38,72.36c-.73-1.92-3.01-2.75-4.78-3.42-1.13-.43-2.29-.69-3.51-.56-.62,.06-1.23,.2-1.84,.34-.62,.14-1.15,.39-1.75,.59-.31,.1-.28,.47-.15,.71,.07,.13,.18,.26,.32,.32,.05,.02,.43,.04,.4,.01l.13-.19c.87-.38,1.95-.56,2.87-.63,1.14-.09,2.21,.2,3.27,.61,1.58,.62,3.6,1.32,4.25,3.04,.11,.28,.46,.16,.61,0,.22-.22,.27-.54,.16-.82Z"/><path d="M127.53,95.91l1.96,30.27c.03,.64,.15,1.44,0,2.09-.43,2.36-3.35,3.62-5.35,2.43l-6.88-3.18-13.77-6.36,14.07,5.67,7.03,2.84c.58,.25,1.02,.33,1.54,.27,1.26-.18,2.2-1.41,1.99-2.68l-.11-.94-3.46-30.14,2.99-.27h0Z"/><path d="M101.16,127.9c6.99,3.06,24.69,10.79,31.44,13.74,.66,.24,1.83,.91,2.48,.95,1.13,.13,2.27-.69,2.51-1.8,.1-.37,.05-.81,0-1.18l-.32-2.84-5.07-45.47,2.99-.28,3.57,45.61c.04,.58,.27,3.11,.26,3.64-.04,2.83-3.28,4.47-5.62,3.01l-1.29-.62c-6.58-3.14-24.18-11.53-30.97-14.77h0Z"/><path d="M93.5,155.57c5.19,4.4,18.28,15.48,23.28,19.72,1.28,1.09,4.58,3.88,5.82,4.93,.63,.57,1.54,1.18,1.97,1.96,1.44,2.26,.09,5.47-2.45,6.08l-1.21,.4c-7.54,2.5-23.68,7.84-31.38,10.39,7.68-2.88,23.47-8.73,30.98-11.53,.58-.25,1.69-.55,2.15-.93,1.44-1.06,1.39-3.36-.06-4.35l-1-.79c-1.27-.99-4.69-3.68-6-4.71-5.11-4.01-18.72-14.71-23.99-18.85l1.9-2.32h0Z"/><path d="M89.3,190.45l11.08-3.57c1.51-.52,4-1.21,5.43-1.81,1.65-.82,1.97-3.28,.56-4.45l-.54-.49c-4.41-4-11.7-10.59-16.18-14.65l2.08-2.16c4.23,4.37,11.03,11.36,15.2,15.66,2.42,1.98,2.27,5.73-.64,7.1-.91,.38-1.99,.54-2.89,.8-1.84,.46-12.05,3.04-14.1,3.56h0Z"/><path d="M91.09,215.83c4.72,2.33,16.63,8.2,21.19,10.45l3.53,1.74,1.77,.87c1.58,.72,2.36,2.72,1.68,4.31-.24,.66-.89,1.25-1.36,1.75l-2.72,2.84c-3.48,3.63-12.75,13.31-16.34,17.06,3.45-3.98,12.16-14.01,15.49-17.84l2.58-2.97,.65-.74c.83-.91,.49-2.48-.66-2.92-3.26-1.43-9.31-4.07-12.63-5.52l-14.43-6.31,1.26-2.72h0Z"/><path d="M95.58,245.8l5.61-5.57,2.8-2.79c.53-.5,.82-.82,.94-1.32,.27-.98-.33-1.99-1.28-2.28-3.28-1.43-9.35-4.07-12.69-5.52l1.33-2.69c2.31,1.28,8.15,4.51,10.38,5.74,.37,.21,1.89,1.03,2.22,1.25,1.26,.81,1.82,2.52,1.29,3.91-.23,.72-.89,1.34-1.44,1.75l-3.06,2.51-6.11,5.02h0Z"/><path d="M124.64,301.37l10.85-31.39,.32-.95c.17-.51-.32-1.07-.83-.98l-4.1,.55c-5.24,.71-19.27,2.59-24.68,3.32l-.33-2.98,16.54-1.47c2.75-.24,9.76-.87,12.42-1.1,1.07-.1,2.13,.61,2.45,1.6,.35,.85-.07,1.77-.39,2.53l-12.26,30.86h0Z"/><path d="M119.53,293.47c1.63-4.12,4.55-11.49,6.15-15.53,.14-.42,.72-1.64,.73-2,.02-.41-.36-.8-.71-.79-.17-.03-.68,.16-.87,.19l-1.15,.31c-2.93,.79-10.78,2.89-13.81,3.71l-.66-2.93c3.78-.69,11.56-2.15,15.25-2.83l.59-.11c1.53-.36,3.09,1.06,2.86,2.58-.04,.49-.31,.93-.51,1.34-.32,.68-1.23,2.51-1.57,3.21-1.34,2.73-4.91,10.02-6.29,12.85h0Z"/><path d="M159.29,333.23c.79-4.46,2.8-15.72,3.57-20.02l.59-3.34,.07-.42c.16-.79-.72-1.47-1.43-1.09-6.57,3.22-16.92,8.31-23.58,11.57l-1.25-2.73,12.48-5.29c2.89-1.22,8.08-3.43,10.92-4.63l.78-.33c1.53-.72,3.47,.49,3.44,2.19,0,.68-.8,3.57-.93,4.29-.99,4.21-3.64,15.44-4.67,19.79h0Z"/><path d="M154.41,331.37c.11-2.17,.39-7.66,.5-9.75l.08-1.63c.05-.75-.81-1.3-1.41-.91-2.2,1.56-6.6,4.74-8.83,6.34l-1.61-2.53c1.9-1.06,6.7-3.73,8.53-4.75l.71-.4c1.74-1.22,4.29,.28,3.91,2.39l-.27,1.6c-.34,2.05-1.26,7.51-1.62,9.63h0Z"/><path d="M172.39,339.21c3.84-2.48,11.69-7.62,15.44-10.05,2.83-2.28,6.56-1.45,8.12,1.84l.74,1.21,2.96,4.83,5.92,9.67-6.55-9.26-3.27-4.63c-.98-1.31-1.84-3.16-3.63-3.37-1.76-.36-3.07,1.07-4.4,2.01l-4.54,3.4-9.07,6.8-1.72-2.46h0Z"/><path d="M179.87,342.05c1.59-.79,5.6-2.78,7.13-3.54l1.19-.59c1.35-.92,3.54-.67,4.42,.82,.47,.82,.7,1.73,1.05,2.55l1.91,4.96c-.49-.88-2.8-5.02-3.23-5.8-.45-1.02-1.27-1.91-2.38-1.59-.49,.12-1.5,.96-1.99,1.26-1.4,.96-5.13,3.52-6.57,4.51l-1.52-2.59h0Z"/><path d="M214.17,345.95c1.34-3.03,4.06-9.25,5.36-12.21,.68-2.32,3.39-3.68,5.52-2.28,.88,.59,3.75,2.56,4.67,3.19l6.78,4.64-7.17-4c-.67-.38-3.88-2.16-4.48-2.5-1.12-.81-2.76-.58-3.35,.72-.16,.39-.47,1.38-.63,1.84-.83,2.48-3.04,9.11-3.9,11.68l-2.8-1.08h0Z"/><path d="M219.76,344.52l1.86-3.53,.46-.88c.56-1.17,1.81-2.04,3.08-2.11,1.62-.19,2.77,1.02,3.86,1.95l3.05,2.58c-1.21-.66-4.03-2.3-5.19-2.92-1.13-.57-2.61,.06-2.9,1.28l-.29,.95-1.17,3.82-2.77-1.14h0Z"/><path d="M240.81,335.32c.12-2.23,.42-7.86,.54-10.02,.07-.7,.04-1.95,.21-2.66,.36-1.7,2.02-3.01,3.71-2.98,1.03,.02,2.4,.56,3.39,.79l6.45,1.77-.03,.13-6.6-1.07c-.55-.08-1.94-.32-2.48-.4-1.11-.2-2.29,.47-2.67,1.47-.33,.73-.06,2.14-.06,2.94l.18,3.34,.36,6.68h-3Z"/><path class="cls-2" d="M246.4,330.65l.14-2.55c.1-1.85,1.05-3.23,2.14-3.12h0c1.01,.11,1.82,1.48,1.89,3.2l.11,2.75c.11,2.6-1.45,4.45-2.85,3.38l-.25-.19c-.79-.61-1.26-2-1.18-3.47Z"/><path d="M260.39,307.39l-5.86-5.58-.73-.7c-1.61-1.41-1.95-3.89-.9-5.72,.1-.19,7.14-15.71,7.54-16.57-.58,1.68-5.7,16.44-6.14,17.67-.39,1.08-.02,2.32,.91,2.99l.79,.63,6.35,5.02-1.97,2.27h0Z"/><path d="M261.31,300.87l-1.35-1.45c-1.48-1.22-2.37-3.73-1.41-5.61,.13-.29,4.16-7.28,4.45-7.79l-2.58,7.49c-.25,.68-.39,1.12-.35,1.62,.1,1.16,.59,1.62,1.62,2.32l1.6,1.16-1.98,2.25h0Z"/><path d="M218.14,325.31c-8.53-.07-14.81-7.57-17.52-15.05l-.96-2.56-.71-2.63c-1.17-4.04-1.71-9.19-2.1-13.42-.08-.71,.41-1.25,1.02-1.47,8.9-3.93,9.57-14.74,7.81-23.17-1.3-7.73-4.02-14.85-6.54-22.31-.62-2.12-1.4-4.82-.65-7.27,1.07-3.21,3.3-5.89,5.95-7.92,5.3-4.31,12.16-3.38,15.5,2.85l-1.15-.85c.06,0,.38,0,.57-.02,3.04-.38,3.81-3.95,3.88-6.62,.28-11.62-11.62-18.29-21.18-22.03-9.66-4.42-19.22-1.13-28.35,3.02-1.37,.5-3.18,1.15-5,.82-1.95-.45-3.59,.24-4.86,1.91-3.51,5.28-7.03,10.82-11.78,15.27-1.94,1.8-4.07,3.53-6.78,4.61-2.46,.9-4.84,1.7-7.26,2.56-.77,.36-1.72,.01-2-.81-.15-.41-.08-.86,.13-1.21,1.32-2.3,2.55-4.91,2.73-7.6,.04-.89-.08-1.84-.66-2.61,.77,.59,1.2,1.58,1.41,2.54,.58,2.98,.02,5.96-.73,8.87,0,0-1.89-2.02-1.86-2.02,2.39-.84,4.86-1.68,7.19-2.53,6.57-3.04,11.04-9.72,15.07-15.63,1.85-3.36,4.91-7.3,9.43-6.39,1.29,.3,2.41-.02,3.9-.59,4.61-1.95,9.66-4.24,14.76-4.93,5.26-1.03,10.91-.16,15.77,1.92,7.3,2.99,14.71,6.63,19.41,13.25,2.41,3.32,3.79,7.52,3.66,11.67,.06,4.51-2.5,10.04-7.87,9.52-.53-.06-.94-.4-1.15-.85-1.27-2.38-4.11-4.37-6.93-3.72-4.06,1-8.43,5.22-9.1,9.34,.17,4.83,2.84,9.63,4.18,14.41,1.89,5.86,3.41,11.97,3.98,18.12,.94,8.19-2.24,17.99-10.54,21.24l1.02-1.47,.18,5.25c.72,9.99,3.25,22.06,13.05,26.94,1.57,.76,3.3,1.28,5.06,1.37,.12,0,.12,.21,0,.2h0Z"/><path d="M211.32,196.67c-15.05-9.38-30.01-8.48-45.87-1.81-7.41,3.14-14.89,6.76-20.76,12.37-6.14,5.35-12.07,11.29-19.35,15.07,7.1-4.05,12.77-10.21,18.68-15.78,5.76-5.97,13.18-10.01,20.57-13.64,7.55-3.48,15.72-6.23,24.18-6,8.34,.23,16.98,3.48,22.55,9.78h0Z"/><path d="M125.34,232.54l6.49-.45c2.2-.34,4.53,.68,5.56,2.71,.53,1,.61,2.11,.87,3.15l.72,3.17c2.56,10.51,5.69,20.91,9.57,31,3.16,8,6.67,16,12.06,22.76,12.69,16.28,31.2,33.13,53.32,30.13,8.39-1.09,16.76-3.93,23.39-9.26,4.84-3.94,8.82-9.26,9.25-15.6,.9-7.52-1.53-18.12-10.2-19.28-7.17-.45-15.34,9.15-12.53,16.1,.92,2.52,3.89,2.91,5.29,.44,1.18-1.82,1.9-3.95,3.47-5.71,1.73-2.15,5.22-2.72,7.61-1.17,2.28,1.46,3.24,3.98,3.71,6.43,.88,3.64-.8,7.45-3.09,10.1-4.57,5.35-11.71,7.55-18.53,7.85-11.36,.33-13.71-12.5-12.69-21.31,1.16-10.16,4.79-22.43,15.41-26.36,1.04-.35,1.58-1.52,1.33-2.56-.72-5.77,1.41-11.41,3.27-16.58,1.56-4.14,3.66-8.16,6.09-11.82,2.45-3.52,4.24-6.73,3.23-10.99-.72-4.47,0-9.12,.98-13.47,.94-3.18,.92-6.9-.66-9.92-.55-1.03-1.3-2.04-2.19-2.96-.07-.08-.07-.2,0-.28,.94-.97,1.65-2.22,1.9-3.52,.25-1.29-.04-2.66-.7-3.72-.63-.98-2-1.25-3.3-1.28-4.93,0-9.68,1.96-14.72,1.81-7.88-.44-15.48-3.12-22.77-5.8-10.28-4.09-21.11-6.95-32.16-5.98-5.48,.26-10.41,2.05-15.03,5.08-8.32,4.89-19.15,14.02-27.03,19.83,7.22-8.81,15.57-16.61,25.19-22.81,4.9-3.25,10.63-5.29,16.58-5.55,8.71-.74,17.36,.86,25.56,3.63,7.94,2.81,15.57,6.55,23.72,8.47,2.66,.59,5.32,1.16,8.06,1.07,4.24,.18,14.14-3.14,16.77,.98,1.58,2.73,.47,6.15-1.8,8.07l-.04-.32c2.72,.7,4.91,3.01,5.78,5.68,.91,2.53,.66,6.22,.02,8.23-.94,4.15-1.61,8.25-.98,12.3,.4,2.18,.45,4.98-.41,7.15-.84,2.35-2.19,4.2-3.34,5.99-2.37,3.56-4.32,7.25-5.84,11.22-1.81,5.03-3.83,10.21-3.08,15.45,.29,2.31-1.18,4.69-3.4,5.42-9.3,3.45-12.41,14.75-13.5,23.78-.79,7.24,.44,18.42,9.74,18.2,6.02-.27,12.44-2.14,16.45-6.81,1.52-1.86,2.77-4.02,2.68-6.36-.16-2.16-.78-4.84-2.63-6.07-4.11-2.22-5.61,3.37-7.42,6.06-1.42,2.44-4.71,3.72-7.35,2.2-3.49-2.15-3.82-6.84-2.93-10.31,1.9-6.42,8.41-12.82,15.51-12.33,11.46,1.65,13.9,15.81,11.61,25.27-1.4,5.55-5.29,10.15-9.6,13.63-6.99,5.52-15.7,8.4-24.43,9.47-13.3,1.9-26.51-3.98-36.55-12.26-9.96-8.42-18.92-18.43-24.72-30.15-6.52-13.74-10.83-28.43-14.24-43.21l-.67-3.18c-.25-1.06-.31-2.16-.8-3.11-.95-1.97-3.21-3-5.35-2.7l-6.49,.33h0Z"/><path class="cls-4" d="M200.34,240.8s14.18,7.56,18.14-6.98"/><path d="M171.45,172.74l-1.07,5.67-4.58-.28s4.02,.65,5.65-5.39Z"/><path d="M139.75,226.78c3.63-4.56,7.07-10.25,6.52-16.33,1.37,4.6,.1,9.57-1.62,13.93-.61,1.5-1.25,2.91-2.09,4.4-.47,.83-1.53,1.12-2.36,.65-.95-.52-1.16-1.84-.45-2.64h0Z"/><path d="M146.55,221.54c3.63-4.56,7.07-10.25,6.52-16.33,1.37,4.6,.1,9.57-1.62,13.93-.61,1.5-1.25,2.91-2.09,4.4-.47,.83-1.53,1.12-2.36,.65-.95-.52-1.16-1.84-.45-2.64h0Z"/><path d="M152.31,216.31c3.63-4.56,7.07-10.25,6.52-16.33,1.37,4.6,.1,9.57-1.62,13.93-.61,1.5-1.25,2.91-2.09,4.4-.47,.83-1.53,1.12-2.36,.65-.95-.52-1.16-1.84-.45-2.64h0Z"/><path d="M158.24,210.91c3.63-4.56,7.07-10.25,6.52-16.33,1.37,4.6,.1,9.57-1.62,13.93-.61,1.5-1.25,2.91-2.09,4.4-.47,.83-1.53,1.12-2.36,.65-.95-.52-1.16-1.84-.45-2.64h0Z"/><path d="M172.9,194.75c-1.62,4.16-3.66,9.23-8.33,10.73l.6-.43c-5.59,9.94-13.61,18.68-23.7,24.15-2,1.04-3.62-1.92-1.64-3.03,9.89-4.7,18.08-12.81,23.88-22.03,.12-.2,.33-.32,.55-.35,4.22-.89,6.7-5.49,8.64-9.04h0Z"/><path d="M176.73,193.82c1.37,2.83,1.62,9.73-2.48,10.41-.41,.11-.84-.14-.95-.56-.11-.41,.14-.84,.56-.95,3.29,.14,3.72-6.68,2.87-8.91h0Z"/><path d="M181.5,191.96c1.37,2.83,1.62,9.73-2.48,10.41-.41,.11-.84-.14-.95-.56-.11-.41,.14-.84,.56-.95,3.29,.14,3.72-6.68,2.87-8.91h0Z"/><path d="M186.62,191.5c1.37,2.83,1.62,9.73-2.48,10.41-.41,.11-.84-.14-.95-.56s.14-.84,.56-.95c3.29,.14,3.72-6.68,2.87-8.91h0Z"/><path d="M191.5,190.22c1.37,2.83,1.62,9.73-2.48,10.41-.41,.11-.84-.14-.95-.56-.11-.41,.14-.84,.56-.95,3.29,.14,3.72-6.68,2.87-8.91h0Z"/><path d="M190.92,190.8c.89,.48,1.17,1.62,1.44,2.52,.89,3.13-.33,7.13-4.1,7.31-.42,.04-.8-.27-.84-.69-.04-.42,.27-.8,.69-.84,3.14,.3,4.22-3.1,3.87-5.71-.14-.9-.27-2.01-1.06-2.59h0Z"/><path d="M196.38,191.15c.89,.48,1.17,1.62,1.44,2.52,.89,3.13-.33,7.13-4.1,7.31-.42,.04-.8-.27-.84-.69-.04-.42,.27-.8,.69-.84,3.14,.3,4.22-3.1,3.87-5.71-.14-.9-.27-2.01-1.06-2.59h0Z"/><path d="M199.75,200.92c1.74-.12,3.34-1.23,3.53-3.02,.18-1.32-.05-2.87-.91-3.91l-.14-.13s-.05,0-.06-.02c-.3-.43-.74-1-.15-1.42,1.39-.48,2.11,1.79,2.22,2.82,.46,2.98-1.21,5.95-4.5,5.67h0Z"/><path d="M207.2,195.1c2.18,1.32,2.27,5.97,.17,7.52-.71,.59-3.46,1.79-3.69,.36-.06-.48,.35-.9,.83-.86,1.6,.11,3.08-.61,3.54-2.25,.41-1.5,.49-3.69-.86-4.77h0Z"/><path d="M211.61,196.96c2.18,1.32,2.27,5.97,.17,7.52-.71,.59-3.46,1.79-3.69,.36-.06-.48,.35-.9,.83-.86,1.6,.11,3.08-.61,3.54-2.25,.41-1.5,.49-3.69-.86-4.77h0Z"/><path d="M216.61,199.87c2.18,1.32,2.27,5.97,.17,7.52-.71,.59-3.46,1.79-3.69,.36-.06-.48,.35-.9,.83-.86,1.6,.11,3.08-.61,3.54-2.25,.41-1.5,.49-3.69-.86-4.77h0Z"/><path d="M221.96,203.71c2.18,1.32,2.27,5.97,.17,7.52-.71,.59-3.46,1.79-3.69,.36-.06-.48,.35-.9,.83-.86,1.6,.11,3.08-.61,3.54-2.25,.41-1.5,.49-3.69-.86-4.77h0Z"/><path d="M233.31,188.99c-1.25-5.71-2.6-13.81-4.12-19.32-1.1-6.28-6.44-10.65-12.65-11.34-2.62-.25-7.04-.23-9.79-.36-9.63-.33-20.22-.68-29.8-1.21-.51,0-.93-.43-.9-.95,.02-.41,.32-.74,.7-.82,6.06-2.64,8.61-10.83,10.2-16.78l.65-2.93c-1.09,7.35-2.62,15.81-8.84,20.63-.48,.31-.88,.59-1.58,.82l-.19-1.77c6.63-.02,13.26,0,19.88,.12,3.28,.05,11.73,.17,14.91,.25,5.16-.16,10.81,.8,14.81,4.46,2.79,2.2,4.47,5.87,5.11,9.23,1.48,6.6,2.12,13.21,2.41,19.87-.02,.46-.67,.61-.8,.09h0Z"/><path d="M201.74,155.89c-.31-2.73,.66-5.79,2.76-7.67,2.05-1.74,4.11-3.1,6.7-3.95,5.89-2.05,10.99,3.34,13.71,7.85,.01,.02,.03,.05,.04,.06-.14-.23-.38-.42-.63-.49,.22,0,1.15-.07,1.7-.17,8.11-1.52,16.08-3.96,24.02-6.22,6.17-.46,11.75,4.62,11.44,10.92v2.15c0,.61-.37,1.14-.89,1.37l-28.34,12.5-1.95-.71c-1.23-3.33-4.31-5.92-7.9-6.59,4.08-.3,8.22,1.83,10.59,5.27l-1.95-.71,28.34-12.5-.89,1.37v-2.15c.15-3.05-1.62-6.04-4.45-7.24-1.11-.53-2.21-.6-3.73-.74l.57-.06c-8.08,2.31-16.11,4.77-24.39,6.3-1.22,.14-3.13,.64-4.03-.63l-.02-.03-.03-.05-.49-.74c-2.26-3.31-5.49-7.27-9.84-5.89-3.11,1.19-7.04,3.31-7.36,7.03-.05,.48-.02,.91,.01,1.56l-3,.17h0Z"/><path d="M144.09,151.94c-2.77-2.26-6.04-.31-8.58,1.33-1.35,.87-2.53,1.94-3.23,3.42-.71,1.5-1.06,3.31-.96,4.96,.1,1.72,.62,3.89,2.37,4.26,6.65,1.42,9.02-2.37,10.54-5.36,.78-1.53,1.7-3.26,1.65-5.03-.04-1.38-.73-2.71-1.8-3.58Z"/><path d="M142.58,176.21c-.17-1.09-.57-2.06-1.55-2.65-1.1-.66-2.3-1.16-3.6-.96-1.17,.19-2.38,.71-3.4,1.29-2.05,1.15-2.86,4.12-2.19,6.29,.33,1.06,1.04,2,2.04,2.5,.54,.26,3.67,.79,3.93,.74,2.01-.36,3.72-1.87,4.46-3.75,.43-1.1,.49-2.29,.31-3.46Z"/><circle cx="146.79" cy="165.22" r="2.78"/><circle cx="148.25" cy="172.78" r="3.44"/><path d="M146.05,186.05s.63-6.47,2.31-7.34,3.31-1.45,4.59-.47c1.77,1.37,.93,4.07-.35,4.42s-6.56,3.39-6.56,3.39Z"/><path d="M261.73,276.37s-2.44-11.34-4.19-12.21-5.23,4.88-5.23,4.88c0,0-.52-8.02-2.96-9.77-2.44-1.74-5.76,6.28-5.76,6.28l-4.01,.17s.17-7.32-4.01-7.5-1.22,8.89-1.22,8.89c0,0,22.5-5.93,27.38,9.24Z"/><path d="M236.79,262.42s5.23-1.74,8.2-.52c2.96,1.22,12.56,6.98,15.7,11.51,3.14,4.53-13.08-7.85-17.09-7.85s-6.63,.52-6.63,.52l-.17-3.66Z"/><line class="cls-4" x1="234.74" y1="317.79" x2="230.45" y2="312.6"/><path class="cls-4" d="M229.52,252.77s3.49-4.42,7.44-2.79,4.88,4.19,4.88,4.19c0,0,.7-5.58-2.79-6.51,0,0,.7-3.49,5.12,.47,4.42,3.95,5.12,5.12,10.46,4.65,5.35-.47,16.74-7.44,20-12.79,3.26-5.35,2.09-5.58,2.09-5.58,0,0-9.77,5.12-22.56,5.58-12.79,.47-23.02,4.42-24.65,12.79Z"/><path d="M169.99,253l28.19,37.69-.63,.1c2.7-10.09,1.92-21.29-2.61-30.75-3.37-6.76-9.99-11-16.74-14.06-4.12-1.9-8.46-3.32-12.66-5.1-1.52-.72-2.98-1.28-4.18-2.65l1.61-.35c-2.13,10.76-4.16,26.56,3.89,35.16,7.78,9.33,18.4,17.21,31,16.61,.83-.02,1.52,.63,1.54,1.46,.02,.84-.65,1.53-1.49,1.54-13.53,.42-24.81-8.01-32.89-18.04-2.14-2.36-3.89-5.5-4.69-8.63-2.43-9.4-1.21-19.22,.85-28.53,.12-.49,.61-.8,1.1-.68,.21,.05,.39,.17,.52,.33,.81,.96,2.27,1.6,3.46,2.18,4.15,1.84,8.47,3.32,12.59,5.3,6.85,3.22,13.79,7.84,17.18,14.95,3.24,6.99,4.43,14.82,3.83,22.47-.25,3.06-.73,6.08-1.63,9.04-.06,.19-.26,.29-.44,.24-.21,.09-27.66-38.19-27.8-38.25h0Z"/><path d="M241.4,227.73c4.18-6.96,9.91-12.59,15.36-18.49,5.49-5.71,11.1-11.29,16.82-16.75-5.37,5.81-10.61,11.72-15.71,17.75-4.88,5.99-10.19,11.96-13.78,18.8-.85,1.91-3.69,.54-2.7-1.31h0Z"/><path d="M257.54,197.2c.6,2.85-.13,5.8-.66,8.61-.62,2.83-1.38,5.62-2.25,8.4,0,.05-1.25-.89-1.26-.88,5.26-3.88,10.43-7.98,16.21-11.07-5.48,3.54-10.28,8.03-15.19,12.3-.6,.57-1.59-.16-1.25-.9,1.1-2.62,2.11-5.32,2.97-8.05,.77-2.72,1.76-5.54,1.43-8.4h0Z"/><path d="M125.75,160.75c-.37-.53-.99-.69-1.61-.65-.6,.04-1.19,.22-1.75,.41-.59,.2-1.19,.44-1.7,.8-.52,.36-.94,.82-1.2,1.4-.33,.72-.3,1.52-.16,2.28,.13,.68,.31,1.43,.81,1.94,.23,.23,.52,.35,.85,.34,.27,0,1.25-.1,1.71-.6,.59-.64,1.13-1.33,1.69-1.99,.5-.59,1.02-1.16,1.35-1.87,.29-.63,.43-1.44,0-2.05Z"/><path d="M120.91,151.01c-.52-.4-1.09-.74-1.75-.83-.57-.08-1.18,.08-1.63,.45-1.09,.9-.9,2.49-.36,3.64,.26,.56,.66,1.1,1.18,1.45,.29,.19,.59,.32,.93,.37,.27,.05,1.71,.02,2.18-.22,.59-.3,.96-.91,1.08-1.55,.26-1.37-.6-2.51-1.63-3.3Z"/><path d="M130.84,151.79c-.21-1.15-1.22-2.13-2.41-2.14-.17,0-.32,.13-.42,.29-.1,.03-.2,.05-.3,.1-.26,.12-.49,.26-.7,.44-.44,.37-.79,.84-.98,1.38-.37,1.05-.17,2.23,.55,3.08,.36,.42,.91,.79,1.48,.78,.6,0,1.16-.37,1.6-.75,.88-.78,1.39-2.02,1.18-3.19Z"/><path d="M136.01,242.36c-.15-1.43-.33-2.86-1.6-3.74-1.2-.84-2.76-1.7-4.26-1.68-1.34,.02-2.59,.74-3.47,1.71-1.03,1.12-1.58,2.58-1.81,4.07-.25,1.57-.3,3.31,.04,4.87,.33,1.54,1.25,2.88,2.57,3.73,.46,.3,4.94,.53,5.96-.37,1.13-.99,2.01-2.18,2.41-3.64,.44-1.61,.32-3.3,.15-4.94Z"/><path d="M130.35,258.6c.26-.96,0-2.04-.51-2.87-.43-.71-1.14-1.33-2.01-1.29-.97,.05-1.73,.81-1.79,1.79-.05,.96,.66,1.78,1.41,2.27,.43,.28,.9,.5,1.41,.61,.26,.06,.53,.1,.79,.11,.3,0,.7,0,.71-.39,0-.06-.01-.12-.03-.18,0-.01,.01-.03,.02-.05Z"/><path d="M139.96,255.04c.03-.65-.04-1.32-.21-1.95-.17-.64-.39-1.29-1.01-1.61-.29-.15-.61-.22-.88-.4-.32-.21-.6-.41-1-.36-.61,.08-1.15,.61-1.46,1.12-.66,1.12-.62,2.52-.18,3.71,.26,.72,.64,1.37,1.13,1.95,.23,.27,.48,.53,.75,.75,.14,.11,.28,.22,.42,.32,.28,.2,.43,.25,.79,.28,.34,.02,.38-.29,.32-.54,.83-.89,1.25-2.07,1.32-3.28Z"/><path d="M145.09,275.26c-.55-1.22-1.48-2.71-3.03-2.55-1.59,.16-2.15,2.06-2.1,3.42,.05,1.4,.7,2.79,1.87,3.61,.63,.44,1.34,.72,2.11,.82,.19,.03,.39,.04,.59,.03,.26,0,.73,0,.93-.09,.32-.15,.29-.48,.12-.74,.5-1.51,.15-3.07-.49-4.49Z"/><path d="M147.39,288.67c-.08-.66-.15-1.41-.43-2.03-.26-.57-.86-.87-1.37-1.18-.56-.33-1.17-.62-1.83-.63-1.31-.02-2.32,1.07-2.19,2.38,.13,1.3,1.27,2.28,2.22,3.07,.52,.43,1.11,.83,1.76,1.01,.3,.08,.71,.15,1.06,.11,.08,.14,.22,.24,.39,.18,.29-.1,.42-.43,.44-.71,.05-.74,.03-1.47-.06-2.21Z"/><path d="M154.3,286.2c-.86-2.56-1.9-5.04-3.1-7.38-.17-.33-.5-.19-.65,.05-.03,.05-.05,.11-.07,.16-.02-.04-.04-.08-.07-.11-.26-.25-.53,.07-.64,.34-.85,1.98-.81,4.54,.14,6.56,.49,1.05,1.2,1.78,2.17,1.89,.45,.05,.89-.02,1.33-.12,.3-.07,.64-.09,.73-.4,.18-.25,.28-.68,.17-1Z"/><path d="M168.89,265.79l17.79,8.21-1.07,.93-6.31-21.23,7.76,20.74c.27,.64-.49,1.28-1.07,.93l-17.09-9.58h0Z"/><path d="M215.65,94.19c1.63,3.47,4.39,9.12,8.61,9.34,.84-.08,1.77-.34,2.58-.59,3.82-1.26,6.88-4.27,10.67-6,5.98-2.96,13.16-2.71,19.21-.48,4,1.36,12.39,6.2,10.54,11.3-.46,1.16-1.55,2.08-2.71,2.38-2.07,.62-4.23,.89-6.36,.87-4.29-.03-8.45-1.26-12.27-2.96-3.62-1.73-7.93-3.2-11.13-5.57-.2-.2-.1-.61,.23-.64,.4-.05,.47,.58,.07,.62,.05,0,.1-.02,.15-.07,.2-.2-.07-.38,.16-.19,3.4,2.09,7.23,3.43,10.89,5.01,3.8,1.59,7.84,2.66,11.91,2.59,2.03-.02,4.05-.33,5.95-.95,1.7-.45,2.53-2.56,1.66-4.02-4.39-6.36-14.27-8.55-21.48-7.24-6.4,1.02-10.37,6.31-16.33,8.59-.79,.29-1.66,.54-2.49,.72-6.84,1.22-11.05-6.05-13.5-11.23-1-2.47,2.62-3.97,3.65-1.49h0Z"/><path d="M265.09,102.86c.64,.48,1.56,.26,1.91-.45,.69-1.39,1.74-3.51,2.34-4.79,1.51-3.26,.08-6.1-.68-7.61-.18-.36-.7-.33-.85,.05-.71,1.8-2.82,5.21-8.06,2.62-1.2-.59,5.12,4.13,4.71,5.76-.41,1.63-5.23,.06-5.23,.06l5.86,4.37Z"/><path d="M260.76,100.08c-5.62-3.66-12.86-4.68-19.17-2.31-4.04,1.36-8.42,3.51-10.55,7.31-1.18,2.35-.77,3.28,1.84,4.1,4.19,1.16,8.9,1.2,13.24,1.53,5.56,.15,11.4-.72,17.08,.12,5.32,.71,6.04,4.29,4.65,8.95-1.44,4.57-4,8.57-7.28,12.02-2.71,2.48-5.66,5.29-9.68,5.45-1.85,.05-3.46-1.72-3.56-3.47l2.84,.47c-2.54,4.68-5.45,9.67-10.63,11.81-1.08,.42-2.25-.64-1.96-1.75,.35-1.51,.54-3.25,.46-4.81-.08-1.56-.47-3.07-1.28-3.97l2.29-.06c-.75,.92-1.5,1.73-2.31,2.55-1.34,1.61-9.6,8.46-10.7,4.43-.04-.25-.02-.48,.06-.7,.61-2.35,1.43-5.42,.3-7.66l2.35,.19c-2.66,2.75-5.45,5.26-8.84,7.1-1.38,.62-5.11,2.6-5.62-.08-.04-.47,.14-.91,.46-1.21,2.24-2.19,3.23-5.53,2.82-8.62l2.67,.72c-3.25,3.78-6.77,7.86-11.94,8.83-.82,.1-1.56-.47-1.66-1.29-.01-.81,.28-1.62,.31-2.48,.16-1.6,.16-4.07-.71-5.18l2.48-.16c-4.18,6.39-8.43,12.71-13.12,18.73-1.67,1.95-3.13,4.19-5.4,5.49-.12,.05-.26,0-.31-.12-.05-.11,0-.24,.1-.3,2.01-1.41,3.29-3.74,4.71-5.72,4.14-6.32,7.83-12.96,11.43-19.6,.48-.95,1.88-1.03,2.48-.16,1.97,2.89,1.51,6.38,.98,9.61l-1.64-1.81c4.11-.88,7.31-4.64,9.95-7.73,.51-.64,1.44-.75,2.08-.24,.33,.26,.51,.63,.55,1.01,.24,2,.1,4.06-.54,5.98-.68,2.01-1.64,3.67-3.21,5.22l-1.1-2.62c3.15-.46,5.97-2.94,8.37-5,.86-.78,1.73-1.61,2.5-2.43,.56-.62,1.52-.66,2.12-.09,2.21,3.15,1.15,7.11,.29,10.51l-1.65-1.94c3.82-.88,6.87-4.27,9.39-7.13,.56-.73,1.69-.76,2.29-.06,2.08,2.42,2.22,5.69,1.96,8.67-.1,.95-.23,1.83-.46,2.82l-1.95-1.79c4.2-1.83,6.82-6.43,8.93-10.33,.37-.74,1.27-1.03,2.01-.65,.46,.24,.75,.69,.81,1.17,.04,.36,.15,.62,.24,.71,.08,.1,.2,.17,.51,.2,2.75-.16,5.54-2.57,7.61-4.43,3.48-3.55,8.13-10.01,7.35-15.13-.41-1.28-1.85-1.5-3.2-1.84-5.52-.92-11.06-.2-16.77-.49-2.33-.18-4.51-.4-6.8-.64-2.26-.27-4.54-.54-6.81-1.28-1.21-.45-2.47-.94-3.12-2.23-.58-1.27,.06-2.67,.63-3.81,3.54-5.75,11.74-8.41,18.15-8.77,4.62-.05,9.16,1.4,12.97,3.95,.27,.22,0,.61-.3,.41h0Z"/><path d="M193.88,126.74c8.83,.76,17.1-4.08,23.23-10.03l2.55-2.69c.74-.79,2.05,.05,1.66,1.04-2.09,4.85-5.31,9.99-10.88,11.12,0-.02-.03,.06,.16-.18,.16-.17,.16-.71-.04-.92,5.79,.93,14.32-.36,19.49-4.53,.42-.36,1.07-.31,1.42,.13,.22,.28,.27,.64,.16,.95-.43,1.2-.95,2.22-1.64,3.23-1.24,1.94-3.46,3.61-5.65,4.02,.67-.42,.46-1.43-.13-1.66-.06-.04-.24-.06-.1-.05,3-.14,6.05-1.05,8.72-2.34,1.88-.95,3.59-2.26,4.47-3.98,.54-1.07,2.2-.38,1.84,.75-1.13,3.78-3.76,7.67-7.5,9.08,.09-.06,.26-.37,.25-.57,.05-.34-.28-.83-.58-.89,3.41-.14,6.85-1.47,9.77-3.16,2.08-1.26,3.92-2.97,4.72-5.12,.39-1.08,2.07-.68,1.92,.46-.46,4.26-2.58,8.34-6.38,10.48,0-.02,0,.04,.11-.22,.12-.27-.09-.93-.52-1.05,4.01-.93,9.43-4.22,11.14-8.63,.41-1.1,2.12-.63,1.92,.52-.57,2.69-.8,5.7-2.81,7.79,.51-.47,.24-1.46-.48-1.6-.24-.04-.19-.01-.22-.02h.03c4.08-1.37,7.98-3.68,11.33-6.35,1.78-1.48,3.41-3.17,4.4-5.13,.24-.5,.85-.7,1.35-.45,.49,.25,.69,.85,.44,1.35-2.44,4.56-6.75,7.42-11.07,9.89-1.96,1.03-3.88,2.06-6.05,2.65-.88,.25-1.79-.5-1.35-1.46,.18-.33,.34-.39,.54-.61,1.16-1.79,1.53-4.25,1.92-6.35l1.92,.51c-2.03,4.83-6.53,7.84-11.3,9.5-.88,.21-1.38,.5-2.39,.26-.96-.34-.91-1.49-.36-1.98,.39-.4,.91-.68,1.29-.94,2.78-1.75,4.16-5.18,4.56-8.34l1.93,.43c-2.22,5.34-7.81,7.72-12.97,9.08-1.25,.21-4.73,1.33-4.8-.76,.15-1.21,1.52-1.29,2.31-1.84,2.52-1.52,4.1-4.33,5.01-7.11l1.85,.72c-1.2,2.29-3.27,3.77-5.33,4.83-3.18,1.47-6.6,2.63-10.11,2.51-.56-.09-1.07-.8-.77-1.44,.18-.48,.77-.68,1.09-.76,2.89-.57,4.8-3.22,5.79-5.89l1.58,1.08c-5.74,4.42-14.19,6.15-21.25,4.84-1.92-.53-1.69-2.44,.22-2.82,4.65-.95,7.36-5.7,9.18-9.79l1.66,1.04c-7.1,6.99-16.94,12.87-27.24,11.35h0Z"/><path d="M200.57,60.99c3.57,3.95,5.98,8.82,8.67,13.38,2.6,4.65,5.09,9.34,7.52,14.09l-2.81,1.03c-1.73-7.42-4.06-18.38-6-25.64,1.45,3.52,3.2,8.75,4.52,12.38l4.36,12.44-2.81,1.03c-1.96-4.91-3.99-9.81-6.13-14.65-2.24-4.77-4.16-9.8-7.33-14.05h0Z"/><path d="M231.53,180.94c-2.78-4.71-7.67-10.45-13.55-8.15-4.02,3.05-2.12,12.65-1.6,17.25-2.47-5.64-6.02-18.98,3.07-20.3,6.48-.71,11.42,5.15,12.83,10.92,.12,.45-.55,.7-.75,.28h0Z"/><path d="M202.43,172.43c-1.99-1.9-4.53-2.84-7.09-3.56-5.24-1.32-10.64-2.46-15.75-4.37-3.84-1.51-8.58-3.13-10.75-7.17-2.97-6.59-2.76-14.3,.07-20.85,1.11-2.53,2.61-5.01,4.75-6.79-1.46,2.32-2.33,4.85-3.02,7.39-1.58,6.14-1.59,13.02,.81,18.89,1.86,3.26,5.66,4.59,9.08,6.16,2.46,1.07,4.96,2.01,7.5,2.89,4.93,1.9,11.02,2.93,14.4,7.4h0Z"/><path d="M199.3,184.41c1.66-5.55,.39-8.9-5.72-9.34-4.51-.41-9.03-.87-13.51-1.54-5.86-1.11-12.25-1.9-17.18-5.51,3.5,1.99,7.55,2.46,11.45,3.02,6.43,.72,12.92,.96,19.39,1.06,8.32,.06,11.35,6.15,8.33,13.48-.82,1.77-3.45,.65-2.77-1.16h0Z"/><path d="M160.57,164.87c-12.67-12.74-7.27-30.01,5.31-40.5,.36-.39,.99-.46,1.34-.02,.19,.23,.24,.54,.15,.81-.26,.79-.31,1.78-.21,2.63,.13,.95,.58,1.79,1.31,2.44-1-.33-1.82-1.16-2.26-2.14-.47-1.04-.63-2.09-.58-3.26l1.49,.79c-9.5,13.1-14.42,23.72-6.55,39.26h0Z"/><path d="M165.11,140.46c-3.22-1.26-6.11-4.43-5.9-8.15,0-.84,.67-1.53,1.51-1.53s1.53,.67,1.53,1.51c-.08,.81-.49,1.54-.39,2.41,.1,2.26,1.5,4.24,3.25,5.76h0Z"/><path d="M164.82,149.26c-3.38,.73-7.54-.33-9.41-3.55-.47-.7-.28-1.64,.42-2.11s1.64-.28,2.11,.42c.1,.15,.17,.3,.21,.46,.7,2.97,3.77,4.43,6.68,4.78h0Z"/><path d="M164.86,156.4c-3.08,1.57-7.37,1.62-10.01-1.01-.63-.55-.69-1.52-.14-2.15,.55-.63,1.52-.69,2.15-.14,.13,.12,.24,.25,.32,.39,1.44,2.69,4.78,3.31,7.68,2.9h0Z"/><path d="M167.08,164.76c-3.76-.56-8.72-1.27-10.37-5.29-.13-.39,.09-.81,.48-.94,.39-.12,.81,.09,.93,.48,.96,3.55,5.75,4.84,8.96,5.74h0Z"/><path d="M177.9,168.94l-5.57,2.53c-.17,.08-.38,0-.46-.17-.09-.19,.01-.41,.21-.47l5.82-1.89h0Z"/><path d="M190.1,170.45l-5.57,2.53c-.17,.08-.38,0-.46-.17-.09-.19,.01-.41,.21-.47l5.82-1.89h0Z"/><path d="M238.81,214.7c-.58-2.48-1.48-5.41-3.38-7.14-2.2-1.99-4.66-2.14-7.77-1.76,.92-1.56,2.58-2.64,4.57-2.94,4.07-.52,7.75,2.67,9.14,6.29,.63,1.79,2.3,7.06-.88,7.11-.89-.03-1.56-.72-1.69-1.55h0Z"/><path d="M242.06,230.12c7.74,1.97,16.38-.23,22.22-5.67,3.47-3.33,6.14-7.5,8.52-11.68,2.48-4.24,3.24-8.96,3.86-13.78,1.27-8.19,2.72-16.37,4.39-24.53,0,0,2.86,1.74,2.86,1.74-.61,.48-1.09,.77-1.65,1.1-2.64,1.55-5.57,2.55-8.55,3.13-3.36,.6-6.87,.57-10.05,1.63-3.97,1.46-8,4.25-11.01,7.3-3.06,3.34-5.02,7.55-6.75,11.73-1,1.98-1.54,4.57-3.47,5.86,1.81-1.39,2.2-4.01,3.06-6.02,1.49-4.38,3.2-8.77,6.16-12.43,1.48-1.85,3.32-3.41,5.18-4.79,1.86-1.41,3.84-2.89,6.08-3.73,4.32-1.75,9.05-1.58,13.27-3.36,1.49-.6,2.93-1.32,4.25-2.22,.41-.28,.88-.63,1.16-.88,.72-.65,1.82-.59,2.47,.13,.41,.46,.54,1.06,.39,1.62-1.48,6.33-2.83,12.86-4.09,19.31-1.02,4.78-1.45,10.13-3.18,14.75-1.9,4.79-4.83,8.93-8.01,12.94-2.08,2.65-4.82,5-7.73,6.7-4.46,2.59-9.67,3.74-14.79,3.36-1.71-.12-3.36-.37-5.06-.87l.44-1.36h0Z"/><path d="M206.22,70.35l8.03,9.76c.74,.9,.89,2.09,.5,3.11,0,0-9.28,23.73-9.29,23.74-.32,.82-.95,1.43-1.7,1.75l-33.94,14.33,1.29-4.84,9.08,11.85c.51,.66,.71,1.46,.64,2.23l-1.73,18.14-.77-2.4c3.82,4.18,7.77,9.01,12.24,12.29-.04-.01-.13-.05-.32-.08-.04,0-.14-.02-.21-.02h.06c3.73,.18,7.32,.55,10.93,.85l10.07,.93c1.65,.15,2.89,1.58,2.83,3.22l-.73,21.62-1.49-2.75,14.98,9.09c1.03,.62,1.57,1.76,1.47,2.89l-1.78,20.23c-.22,2.86-4.06,3.78-5.57,1.4-2.55-3.62-5.87-6.84-9.47-9.42-21.26-15.35-44.72-.5-60.21,15.99-6.54,6.93-12.8,14.22-16.69,22.61-9.03,18.37-2.35,36.08,12.02,49.55,13.79,12.99,31.32,22.13,49,28.78l-.66-.11c7.38,.1,14.9-.24,22.28-1.01,9.75-1.21,29.27-3.55,33.35-13.52,.27-.83,.39-1.42,.47-2.34,.6-6.51,1.13-13.07,1.26-19.6,.03-1.75,.03-3.75-.08-5.45-.09-.74,.34-1.43,1-1.7l7.35-2.95c.98-.45,2.16,.32,2.16,1.39,.17,7.4,.16,14.78-.1,22.18-.14,3.7-.34,7.4-.71,11.1-.5,3.81-.69,7.73-2.58,11.22-.77,1.12-2.51,.29-2-1.04,2.72-6.75,4.84-13.87,6.08-21.07,1.13-7.08,1.69-14.75-1.18-21.46-2.18-5.05-6.98-8.37-11.68-10.91-8.25-4.2-18.45-3.56-26.36,1.29,9.42-6.35,22.41-6,31.59,.78,10.68,6.52,11.07,19.45,9.44,30.58-1.13,7.42-3.12,14.62-5.8,21.66l-2-1.04c1.5-3.09,1.66-6.82,2.03-10.24,.29-3.63,.42-7.29,.49-10.95,.11-7.32-.02-14.68-.33-21.99l2.16,1.39-7.3,3.09,1-1.7c.11,1.09,.13,1.99,.16,2.97,.13,7.59-.41,15.19-1,22.75-.35,7.73-8.12,12.36-14.46,14.69-7.34,2.73-14.92,4.03-22.49,4.96-7.79,.81-15.63,1.55-23.49,1.2-29.01-10.49-72.32-33.9-68.72-70.05,1.7-15.34,11.53-28.07,21.76-38.94,17.41-18.88,43.57-34.26,67.74-17.06,4.27,3.07,8.04,6.7,11.07,11.02l-5.57,1.4,1.71-20.23,1.47,2.89-15.01-9.05c-.99-.6-1.53-1.67-1.49-2.75l.66-21.63,2.83,3.22c-6.03-.4-14.59-1.46-20.5-1.69-.97,.03-2.05-.39-2.75-.83-2.61-1.66-4.66-3.85-6.77-5.95-2.41-2.47-4.7-4.97-6.97-7.56-.6-.68-.85-1.54-.77-2.37,0-.02,1.76-18.14,1.76-18.16l.64,2.23-9.06-11.87c-1.06-1.39-.8-3.38,.59-4.44,.21-.16,.46-.3,.69-.4l33.96-14.27-1.7,1.74,9.32-23.71,.49,3.11-8.01-9.77c-2.48-3.08,2-7.11,4.8-3.94h0Z"/></svg>