<?xml version="1.0" encoding="utf-8"?>
<!-- Generator: Adobe Illustrator 26.3.1, SVG Export Plug-In . SVG Version: 6.00 Build 0)  -->
<svg version="1.1" id="Blaser_Text" xmlns="http://www.w3.org/2000/svg" xmlns:xlink="http://www.w3.org/1999/xlink" x="0px"
	 y="0px" viewBox="0 0 768.9 227" style="enable-background:new 0 0 768.9 227;" xml:space="preserve">
<style type="text/css">
	.st0{fill:#7ADB75;}
</style>
<g>
	<path d="M750.4,138.6c-9-0.4-15.3,13.4-15.3,13.4s-1.2-4.3-3.2-16.5c-2-12.2,0.8-20.1,3.5-29.9c2.8-9.8,14.6-21.6,13-36.6
		c-1.6-15-9.8-31.9-16.9-42.5c-7.1-10.6-13.8-10.6-21.7-9.8c-7.9,0.8-29.1,7.5-42.1,7.5S630,21.7,630,21.7c-9,0.8-9.5,5.1-12.6,15.8
		c-3.2,10.6-0.8,37.4-0.8,37.4c0.8,12.6-1.6,35.8-4.7,44.5c-3.2,8.7-1.2,16.5,0.4,21.7s11.8,5.5,11.8,5.5s5.9,36.2,7.5,46.4
		c1.6,10.2,14.6,12.2,14.6,12.2s-5.1,6.7,3.5,17.3s22,0,26-8.3c3.9-8.3-3.9-48.4-3.5-49.6c0.4-1.2,3.2-2.8,5.5,1.6
		s14.2,43.3,21.7,49.2c7.5,5.9,16.9,3.1,24.8-0.4s6.7-2.4,14.6,2c7.9,4.3,19.3,3.9,22.4-0.8c3.2-4.7,2-13.8,0.4-28.3
		c-1.6-14.6,2.8-14.2,6.7-30.3C772.1,141.4,759.5,139,750.4,138.6L750.4,138.6z M698.5,92.8c-8.3,9.4-23,9.4-35.4,8.3l3.5-37.2
		c0,0,13-5.3,25.4-3.5s15.3,10,15.9,11.8S706.7,83.3,698.5,92.8L698.5,92.8z"/>
	<path class="st0" d="M750.4,171.3c5.3-7.1,9.5-18.6,2.1-19.2s-12.7,2.4-14.5,6.5c-3.5,8-12.7,0.3-14.5-10.3s-6.8-36-0.3-48.1
		c6.5-12.1,19.8-23.6,12.4-43.7s-11.5-27.5-18-29.8s-8.6-2.7-15.7,0s-26,4.4-45.5,2.4c-19.5-2.1-23.6,0.6-27.8,4.7s-8,11.8-6.2,21.3
		s3.8,19.5,2.7,30.7c-1.2,11.2-9.5,28.1-9.5,35.4c0,7.4,5.3,14.2,8.6,12.7c3.2-1.5,5.6-0.9,6.8,3.5s4.1,47.2,7.7,51.7
		s11.5,3.8,13.3,2.7l1.8,18.9l0.6,0.4c2.5,1.8,6,1.4,8.1-0.8l0.7-0.8c0,0-1.5-39,0-47.5s3.2-13.6,10-13.6c3.8,0,10.6,15.4,15.1,27.5
		c4.4,12.1,15.3,34.8,25.4,32.8c10-2.1,10.6-4.1,16.2-4.4c5.6-0.3,10.6,5.6,15.7,3.8s10-2.7,6.5-14.5S745.1,178.4,750.4,171.3
		L750.4,171.3z M697.3,78.8l-0.4,1.6c-1.7,6.6-6.7,11.9-13.2,14.1l-14,4.7l1.8-32.6l16.4,1C694.1,67.2,698.9,72.9,697.3,78.8z"/>
	<path d="M117.8,120.9c-3.2-8.1-9.1-20.1-11.8-29.1s5.9-13.4,11.8-24.4c5.9-11-1.1-32.9-5.9-42.5c-11.2-22.2-39-25.2-56.3-24
		C43.8,1.7,36.8,8.3,33.5,12.4c-1.6,2-4,3-6.5,2.8c-4.8-0.4-12.6-0.3-16.3,4.1c-5.5,6.7-3.9,24,0.4,32.3s-0.4,23.2-0.4,23.2
		s-5.9,20.5-6.3,25.6s3.9,9.1,5.1,13.8s-8.3,30.3-9.4,35c-0.8,3,3,7.2,5.8,9.8c1.7,1.6,2.6,3.9,2.3,6.2c-0.5,4.8-1.2,13.2-0.7,20.6
		c0.8,11,11,19.3,18.5,19.7c7.5,0.4,10.6-6.7,12.2-8.3s3.9,0.4,9.4,4.3c5.5,3.9,6.1,0.2,10.6-4.7c2-2.2,3.5,0.4,7.5,4.7
		s8.3,8.3,16.1,7.1c7.9-1.2,11-9.8,13.8-13.8s7.5-0.8,10.6-2.8c3.1-2,4.7-8.7,11.4-32.3C124.5,136.3,120.4,127.4,117.8,120.9
		L117.8,120.9z M67.2,130.4C66,146.9,58,150.2,54.6,152l2.2-39.8C56.8,112.3,68.4,113.8,67.2,130.4L67.2,130.4z M62.5,74.2V58.8
		c0,0,8.5-0.6,8.1,6.3C70.2,72,68.4,74.6,62.5,74.2L62.5,74.2z"/>
	<path class="st0" d="M98.9,87.1c17.5-27.5,15.6-26.3,12.8-44.5c-4.3-28.4-33.9-35-43.5-35.8C61,6.2,51.7,7.6,47.7,11.5
		S38.3,24.1,32,20.9S21,21.7,16.2,28c-4.7,6.3,3.9,25.2,4.7,33.8c0.8,8.7,3.9,18.9-1.6,26.8s-3.2,20.5-1.6,28.3
		c1.6,7.9-3.2,13.4-7.1,26c-2.6,8.3-0.1,12.5,2,14.4c1.1,1,1.6,2.5,1.3,3.9c-4,16.9,3.5,30.6,7.8,34.4c3.4,3.1,8.7-7.9,14.2-11
		c5.5-3.1,9.2,8.5,12.6,7.1c3.1-1.2,9.6-4.1,15,1.6c7.4,7.8,19.9,2.8,25.1-1.2c7.5-5.9,10.9-11.5,15-24.8
		c5.5-17.9,8.3-33.8,5.7-44.7C108.3,118.3,90.9,99.7,98.9,87.1L98.9,87.1z M68.7,130c-1.4,20.3-11.4,24.4-15.5,26.6l2.7-48.9
		C55.8,107.7,70.1,109.6,68.7,130L68.7,130z M59.8,78.9V53.4c0,0,14.1-1,13.4,10.5S69.6,79.6,59.8,78.9z"/>
	<path d="M72.5,113.6c-5.3-11.2-24.4-10.2-24.4-10.2l-1.4,59.8c5.9,1.8,22.2-8.3,27-16.7C78.4,138.1,77.8,124.9,72.5,113.6
		L72.5,113.6z M67.2,130.4C66,146.9,58,150.2,54.6,152l2.2-39.8C56.8,112.3,68.4,113.8,67.2,130.4L67.2,130.4z"/>
	<path d="M75.3,53.2c-1.9-1.7-18.7-2-18.7-2l-2.2,28.3c19.5,1.8,18.7-1.2,21.4-6.3C78.6,68.2,77.8,55.6,75.3,53.2L75.3,53.2z
		 M62.5,73.9V58.5c0,0,8.5-0.6,8.1,6.3C70.2,71.7,68.4,74.3,62.5,73.9L62.5,73.9z"/>
	<g>
		<path d="M157.5,204.6c0.9-0.7,1.6-1.7,1.9-2.9c0.2-0.9,1-1.8,2.9-1.8c3.5,0,5.3,9.1,10.9,12.1c5.6,3,9.7,2.7,12.1,0.9
			s3.2-9.4,5.9-9.4s4.1,6.2,8,6.8s8.6-0.3,10-2.4s5,3.5,9.5,2.1c4.4-1.5,7.1-4.4,7.4-6.2s0-37.5-0.3-43.4s-3-13.9-10-13.6
			s-18.6,8-23.3,6.8c-4.7-1.2-11.8-5.6-11.8-14.8s8.9-33.1,10-55.5c1.2-22.4,1.5-67.9,0.3-74.1s-7.4-12.1-14.2-7.7
			s-13.6,17.6-14.5,18.9c-1.4,2.1-3.2,2.4-4.1-0.9s-3.2-11.5-8.6-13s-9.4-0.6-11.8,1.8s-8.6,7.4-9.4,29.8s1.2,50.5,3.2,57
			s4.8,14.7,4.2,20.5c-0.4,3.7-5.1,15.8-3.9,22s0.6,14.5,2.9,19.5s-3.2,23.3-3.2,28.6s-1.2,22.4,2.1,26.6s8.9,4.1,14.8-0.6l5.9-4.7
			L157.5,204.6L157.5,204.6z"/>
		<path class="st0" d="M141.9,203.2c-1.5-0.3-2.5-1.6-2.8-3.1c-0.7-5.1-2.4-18.9-0.1-23.3c2.8-5.5,7.5-9.4,4.3-16.1
			s-7.5-19.2-4.7-26.9c2.4-6.4,4.6-16.3,2.7-25.5c-1.9-9-9.8-37-9-48.8s-0.4-32.7,6.3-38.2s11.4-5.5,14.2-1.6s3.1,12.5,5.9,12.6
			c4,0.1,11.8-19.3,17.3-19.3s8.7,3.5,9.8,9.4c1.2,5.9,0.8,52.7-2.4,67.3c-3.1,14.6-11.2,50.5-9.1,59.4c0.9,4,2.4,11.4,14.6,11
			c12.2-0.4,20.1-3.9,23.2-2.4c0,0,6.7,1.3,7.6,5.1s0.6,26.6-0.3,31.6s-12.7,7.1-18,5.6s-5.6-6.2-10-5.3s-0.3,5-8,6.2
			c-7.7,1.2-10.9-10-19.2-9.1s-7.4,5.3-13,8.9C147.5,203.3,144.2,203.8,141.9,203.2L141.9,203.2z"/>
	</g>
	<g>
		<path d="M371.9,175.7c-5.9-12.7-17.7-43.1-19.2-66.7s2.1-62.9,2.7-68.5s-5-25.1-14.8-26.3c-21.3-2.7-25.7,15.3-28.3,15.3
			s-9.1-10.9-16.8-12.4c-8.7-1.7-22.4,0.9-29.5,10.6s-12.4,29.8-10,39.9c2.4,10,7.7,31,6.2,37.2c-1.5,6.2-13.3,21.3-16.2,29.8
			c-3,8.6-5,57.9-3,68.8c2.1,10.9,5.6,13.9,10,14.2c4,0.3,11.2-0.2,14.7-12.2c0.5-1.5,2.4-1.9,3.4-0.7c2.4,2.9,6.1,6.8,9.4,7
			c5.3,0.3,9.7,0.3,11.5-4.4c1.8-4.7,1.5-31,3.2-38.4c2.4-9.7,6.5-19.5,12.1-21c4.9-1.3,6.5,2.7,7.4,6.5c0.9,3.8,1.5,51.1,5,59
			c3.5,8,8.8,9.4,12.4,9.1c11.5-0.9,12.4-19.8,16.2-20.1c3.7-0.3,7.1,12.1,12.7,12.1s7.4-0.6,10.3-4.7
			C374.3,205.9,377.8,188.4,371.9,175.7L371.9,175.7z M360.1,198.5c-8.6-1.5-9.5-8.6-13.9-7.4s-5.9,12.4-9.1,15.1s-10,2.7-10.9-2.7
			c-0.9-5.3,0-52.3-3.2-57s-7.4-8.9-15.6-7.4s-13.3,5.6-15.9,14.2s-2.4,32.5-4.1,38.1s-4.1,11.2-9.7,8.9s-9.5-12.1-11.2-11.2
			s-3,11.8-6.8,11.8c-3.8,0-12.4-6.8-8.6-16.5s3.8-38.1,5-44.3c1.2-6.2,13.9-24.8,14.8-33.4c0.9-8.6-6.5-38.1-5.6-52.3
			s8-22.7,14.5-26.6c6.5-3.8,17.1-1.5,21.3,2.9c1.5,1.6,3.2,3.2,4.8,4.5c2.5,2.1,6.2,2,8.5-0.4c5.1-5.3,14.1-13.7,19.8-12.7
			c8.3,1.5,17.1,9.7,14.8,20.1c-2.4,10.3-8.3,39-6.2,64.1c2.1,25.1,18.6,54.6,20.4,64.1C364.5,179.9,368.7,200,360.1,198.5
			L360.1,198.5z"/>
		<path class="st0" d="M342.4,106.4c-2.1-25.1,3.8-53.7,6.2-64.1c2.4-10.3-6.5-18.6-14.8-20.1c-5.7-1-14.8,7.4-19.8,12.7
			c-2.3,2.4-6,2.6-8.5,0.4c-1.5-1.3-3.2-2.9-4.8-4.5c-4.1-4.4-14.8-6.8-21.3-2.9c-6.5,3.8-13.6,12.4-14.5,26.6s6.5,43.7,5.6,52.3
			s-13.6,27.2-14.8,33.4c-1.2,6.2-1.2,34.5-5,44.3s4.7,16.5,8.6,16.5c3.8,0,5-10.9,6.8-11.8s5.6,8.9,11.2,11.2
			c5.6,2.4,8-3.2,9.7-8.9s1.5-29.5,4.1-38.1s7.7-12.7,15.9-14.2s12.4,2.7,15.6,7.4s2.4,51.7,3.2,57s7.7,5.3,10.9,2.7
			c3.2-2.7,4.7-13.9,9.1-15.1s5.3,5.9,13.9,7.4s4.4-18.6,2.7-28.1S344.5,131.4,342.4,106.4L342.4,106.4z M304.1,126.4
			c-8.6,0-15.6-7-15.6-15.6c0-2.5,0.6-4.8,1.6-6.9l10.3-28.8c0.6-1.6,2.7-1.7,3.5-0.2l13.6,27.6c0.8,1.3,1.4,2.6,1.8,4.1
			c0.4,1.3,0.6,2.7,0.6,4.2C319.8,119.4,312.7,126.4,304.1,126.4L304.1,126.4z"/>
		<path d="M317.4,102.5l-13.6-27.6c-0.7-1.5-2.9-1.4-3.5,0.2l-10.3,28.8c-1,2.1-1.6,4.4-1.6,6.9c0,8.6,7,15.6,15.6,15.6
			s15.6-7,15.6-15.6c0-1.4-0.2-2.9-0.6-4.2C318.8,105.1,318.2,103.8,317.4,102.5L317.4,102.5z M303.9,121.2c-6.1,0-11-4.9-11-11
			c0-1.7,0.4-3.4,1.1-4.8l7.2-20.2c0.4-1.1,1.9-1.2,2.4-0.1l9.5,19.4c0.5,0.9,1,1.8,1.3,2.9c0.3,0.9,0.4,1.9,0.4,2.9
			C314.9,116.3,310,121.2,303.9,121.2L303.9,121.2z"/>
	</g>
	<path d="M407.8,128.4c-6.8-2.1-12.6-6.8-15.8-13.2c-5.7-11.1-13.7-29.4-12.4-41.5c2-18.5,7.1-42.9,15.8-52.7s18.9-15.3,28.3-11.8
		s14.2,11,14.2,11s20.1-4.3,32.3-0.4s23.6,16.1,24.4,26.4s3.5,23.6-3.5,31.9s-10.2,12.6-15.3,13.4c-5.1,0.8-4.7-3.5-8.7-2.8
		s-2.8,5.5-7.1,5.1s-5.5,0.8-9-3.1s-6.7-2-10.6-4.3s-8.7-5.9-10.2-9.4s-3.9,5.9-2,8.3s10.2,11.4,24.4,12.6
		c14.2,1.2,28,7.1,31.1,10.2s7.5,8.7,8.7,18.1s-1.6,21.3-7.5,25.2c-5.9,3.9-4.7,13.8-2.8,18.1s6.7,15.4,3.2,21.3
		c-3.5,5.9-6.7,16.1-14.6,15.4c-7.9-0.8-8.7-3.9-13.8,1.2c-5.1,5.1-9,11-12.2,11.4c-3.2,0.4-3.5,2.8-9-3.5
		c-5.5-6.3-5.9-9.8-10.6-7.1c-4.7,2.8-8.7,8.3-13.8,7.5c-5.1-0.8-13.4-10.6-11.8-15s-11.8-8.3-14.2-11.8s-14.2-24.4-9.8-38.2
		c4.3-13.8,7.5-18.9,13.4-19.7s15-2,18.9,2.8s4.3,11,4.3,12.6s9,4.7,11,7.9s3.9,8.7,3.9,8.7s23.2-0.8,11-16.5
		C430,136,417.1,131.2,407.8,128.4L407.8,128.4z"/>
	<path class="st0" d="M409.3,23c1.5-1.5,2.8-3.2,3.9-5c1-1.5,2.7-2.5,6.1-1.4c9.8,3.2,11,11.1,19.7,11.4c9.9,0.4,13.8-8.2,30.7-0.4
		c9.3,4.3,17.7,7.9,19.3,17.3s1.2,25.6-10.2,31.1s-19.3,9.1-28,3.2s-11-15-17.7-15s-11.4,3.2-12.6,13s0.4,22.4,14.6,27.2
		s28.7,2.8,35.4,7.5s12.2,9.1,12.2,16.5c0,7.5-5.1,18.1-7.9,19.7s-3.2,11.4,0,16.5c3.2,5.1,4.7,20.9,2,24.4s-11.8,4.7-15.8,4.3
		s-7.9,1.6-10.2,5.9s-5.9,8.3-9.8,6.3s-8.3-9.1-14.6-7.1c-6.3,2-8.7,9.1-13,5.5c-4.3-3.5-5.9-11-9.8-12.2s-14.2-6.3-16.5-14.2
		s-4.7-25.2-1.2-32.7s5.5-9.1,9.5-8.3s8.3,1.6,8.3,5.9c0,1.4,0,3.1-0.1,4.8c-0.1,3.9,1.8,7.4,5,9.7c1.1,0.8,2.1,1.8,3,3.2
		c3.1,4.7,6.3,12.2,12.2,13.4s20.5,0.8,24.4-9.8c3.9-10.6,3.9-31.9-10.6-35.8c-14.6-3.9-38.2-15.8-41.7-40.9
		c-3.5-25.2-3.9-38.2,2.4-49.2C402,31,406.5,25.9,409.3,23L409.3,23z"/>
	<path d="M503.6,207.4c4,0.2,8,1.6,10.9,4.3c3,2.7,7,5.7,11.1,6.4c8.3,1.6,9,3.9,16.5-3.1s7.1-11.4,15.8-10.2
		c8.7,1.2,29.5,6.7,39.4-2c9.8-8.7,20.1-26.4,7.9-33.1c-12.2-6.7-13.4-8.7-24-7.9c-10.6,0.8-13.4,4.3-15.3-1.6s-2.4-11.4,5.1-13
		s11,3.9,20.5,2.8s14.2-1.6,15-11.4s-5.9-15.4-2-25.6c3.9-10.2,3.2-29.1-5.9-28.7s-14.6,1.2-20.1,7.5s-8.7,10.2-12.2,8.7
		s-3.9-11.8,5.9-17.3c9.8-5.5,11-6.3,17.3-5.9s15-5.5,15.8-14.6s9.5-18.9,10.2-22S620.1,23.3,602,19c-18.1-4.3-14.2-4.7-27.2-0.4
		s-43.3,6.7-53.5,2.4s-9.8,16.5-13.4,19.7s-9.8,9.8-9.5,15.8c0.4,5.9,6.7,17.3,7.5,26.8s-10.2,20.5-9.8,30.7s8.7,29.1,9,34.3
		s-9,22.8-8.7,28.7v0.1c0.2,3.4-0.7,6.7-2.5,9.6s-3.5,6.8-2.6,10.7C492.6,202.7,497.6,207.1,503.6,207.4L503.6,207.4z"/>
	<path class="st0" d="M533.8,206.8c-3.3,1.2-7-0.2-8.8-3.2c-1-1.6-2.7-3.5-5.7-5.1c-7.1-3.8-12.7-2.1-13.6-2.4s-4.7-11.8,0.3-23
		c5-11.2,8.6-18,5.9-28.3s-8.6-15.6-5-27.2c3.5-11.5,8.6-18.6,6.5-28.3s-9.5-28.6-3.2-39.3s8-19.8,17.4-21.8s13.7,0.6,17.4,2.9
		c9.5,5.9,28-5.9,42.5-5.6c11.2,0.2,15.3-1.8,16.5,1.8s3,10.9-0.9,15.1s-5.3,10.9-7.7,17.4c-1.8,4.8-13.6,7.1-18.9,8.3
		s-18.3,7.7-21,18.6s-0.3,21,5.3,22.1s10,4.4,15.3-1.2S583,96,589.5,95.1s10,1.5,10.3,4.4s-2.7,5.6-2.7,13.6s5,15.7,3.8,19.2
		s-0.6,9.1-7.7,8c-7.1-1.2-11.5-4.1-20.1-4.1s-22.1,7.7-22.1,14.8s2.1,20.7,16.5,21.3c14.5,0.6,18.3-2.1,19.2-2.1
		c10.8,0.3,13.9,7.7,13.9,9.7c0,1.5-4.4,7.1-7.6,10.5c-1.5,1.6-3.3,2.8-5.3,3.6c-4.2,1.6-12,4-20.4,3c-12.4-1.5-21.5-2.7-23.9,0
		C541.7,199,539.7,204.6,533.8,206.8L533.8,206.8z"/>
	<path d="M707.4,73c-0.6-1.7-3.5-9.8-15.6-11.5s-24.8,3.5-24.8,3.5l-3.5,36.3c12.1,1.1,26.5,1.1,34.6-8.1
		C706.3,83.9,708,74.7,707.4,73L707.4,73z M692.1,80.7l-0.3,1c-1.1,4.2-4.2,7.6-8.4,9l-8.9,3l1.2-20.8l10.5,0.7
		C690.1,73.3,693.1,76.9,692.1,80.7L692.1,80.7z"/>
</g>
</svg>
