<?xml version="1.0" encoding="UTF-8"?><svg id="Layer_1" xmlns="http://www.w3.org/2000/svg" xmlns:xlink="http://www.w3.org/1999/xlink" viewBox="0 0 263.58 271.58"><defs><style>.cls-1,.cls-2{fill:none;}.cls-3{clip-path:url(#clippath);}.cls-4{fill:#fff;}.cls-5,.cls-6,.cls-7{fill:#fff0a4;}.cls-8{fill:#ffdb2c;}.cls-9{fill:#bf4094;}.cls-10{fill:#1c5143;}.cls-11{fill:#5be397;}.cls-12{fill:#ffe6d2;}.cls-12,.cls-6{stroke-miterlimit:10;}.cls-12,.cls-6,.cls-7,.cls-2{stroke:#000;stroke-width:2px;}.cls-7,.cls-2{stroke-linecap:round;stroke-linejoin:round;}.cls-13{opacity:.15;}</style><clipPath id="clippath"><circle class="cls-1" cx="131.4" cy="135.28" r="124.64"/></clipPath></defs><g><g><circle class="cls-12" cx="131.4" cy="135.28" r="126.67"/><path class="cls-6" d="M52.04,37.3V234.78c-6.49-5.23-12.45-11.08-17.79-17.46-7.09-8.46-13.09-17.86-17.79-27.98V82.73c4.7-10.12,10.71-19.52,17.79-27.98,5.34-6.39,11.31-12.23,17.79-17.45Z"/><path class="cls-6" d="M247.73,85.09v100.4c-4.59,10.63-10.61,20.51-17.79,29.4-5.32,6.58-11.28,12.61-17.79,18V37.68c6.51,5.39,12.47,11.43,17.79,18,7.19,8.89,13.2,18.77,17.79,29.41Z"/><path d="M181.41,250.32c-7.98-1-14.15-6.93-18.75-13.1-4.89-6.57-9.25-13.56-13.77-20.39,3.7,.16,7.42-1.29,9.94-4.08,.86-.95-.55-2.37-1.41-1.41-2.49,2.75-6.37,4.09-10.02,3.33-.8-.17-1.31,.56-1.24,1.18-.04,.21-.01,.44,.15,.68,2.65,3.97,5.3,7.94,7.94,11.91,2.49,3.73,4.91,7.52,7.66,11.06,4.9,6.31,11.31,11.79,19.5,12.82,1.27,.16,1.26-1.84,0-2Z"/><line class="cls-2" x1="229.94" y1="90.63" x2="229.94" y2="55.68"/><line class="cls-2" x1="229.94" y1="214.89" x2="229.94" y2="177.02"/><line class="cls-2" x1="34.25" y1="90.63" x2="34.25" y2="55.68"/><line class="cls-2" x1="34.25" y1="214.89" x2="34.25" y2="177.02"/><path d="M192.94,244.05c-9.64-1.94-17.94-8.52-22.04-17.46-.52-1.12-2.11-.22-1.75,.88-.04,0-.07-.02-.11-.02-.17,0-.32,.04-.44,.1-.01,0-.02,.01-.03,.02-.11,.06-.21,.14-.28,.24h0c-.05-.04-.09-.08-.15-.11-.02-.01-.05-.01-.08-.02-.37-.4-1.06-.56-1.47-.08-.71,.84-1.36,1.73-1.9,2.69-.34,.6-.66,1.25-.45,1.96,.2,.67,.8,1.05,1.42,1.26,1.96,.66,4.31-.35,5.14-2.25,.05-.12,.08-.25,.13-.38,4.7,7.69,12.61,13.31,21.49,15.1,1.26,.25,1.79-1.67,.53-1.93Z"/><path class="cls-6" d="M186.74,248.74c-2.07,.64-4.14,1.29-6.2,1.93-.2,.06-.34,.18-.45,.3-7.59-1.29-13.5-7.01-17.94-12.97-.6-.8-1.17-1.63-1.75-2.44,1.38-.51,2.77-1.03,4.15-1.54,.19,.11,.39,.21,.59,.28,1.96,.66,4.31-.35,5.14-2.25,.05-.12,.08-.25,.13-.38,4.61,7.54,12.3,13.08,20.96,14.98-1.24,1.2-3.03,1.6-4.63,2.09Z"/><line class="cls-7" x1="131.4" y1="261.96" x2="131.4" y2="249"/><line class="cls-7" x1="131.4" y1="22.64" x2="131.4" y2="9.68"/><line class="cls-7" x1="81.31" y1="250.99" x2="81.31" y2="238.03"/><line class="cls-7" x1="81.31" y1="30.85" x2="81.31" y2="17.89"/><line class="cls-7" x1="176.79" y1="30.85" x2="176.79" y2="17.89"/></g><g class="cls-3"><path class="cls-4" d="M513.25-56.84c-39.1,5.95-77.24,16.19-114.25,30.1-37.33,14.04-74.65,30.59-114.85,33.98-20.43,1.72-39.81-2.05-59.91-5.04C205.05-.64,185.59-.46,166.24-.67c-20.42-.22-40.79-1.08-61.13-2.99-20.03-1.87-39.88-5.26-59.9-7.17-19.97-1.91-40.04-2.29-60.08-3.16-20.65-.9-41.29-2.01-61.93-3.02-40.42-1.98-80.84-3.9-121.25-5.96-2.2-.11-4.39-.23-6.59-.35v1.78c5.94,.42,11.87,.81,17.79,1.1,21.11,1.04,42.22,2.07,63.34,3.11C-81.24-15.25-38.98-12.91,3.31-11.3c21.29,.81,42.37,2.21,63.48,5.13C87.12-3.36,107.54-1.15,128.04,.09c20.67,1.25,41.36,1.04,62.05,1.55,10.95,.27,21.85,.77,32.7,2.33,9.39,1.35,18.7,3.19,28.1,4.44,40.34,5.36,79.75-7.03,117.05-21.14,19.01-7.19,37.85-14.83,57.17-21.16,19.46-6.38,39.29-11.66,59.34-15.81,9.73-2.01,19.51-3.74,29.32-5.23,1.25-.19,.72-2.09-.52-1.9Z"/><path class="cls-4" d="M515.55-48.76c-38.76,10.74-76.24,25.97-114.68,37.76-20.44,6.27-41.01,12.13-61.51,18.21-10.24,3.04-20.5,5.87-31.18,6.79-10.23,.88-20.51,.58-30.76,.44-20.59-.28-41.2-.22-61.79-.89-21.29-.7-42.16-3.69-63.27-6.27-10.71-1.31-21.48-2.48-32.27-2.81-10.29-.32-20.59,.44-30.88,.15-10.95-.31-21.05-2.94-31.68-5.2-9.31-1.97-18.7-2.06-28.17-1.63C8.68-1.26-11.91,1.82-32.65,1.48c-20.61-.33-39.92-6.93-60.24-9.44-21.31-2.63-42.18-1.31-63.47,.57-16.14,1.42-32.19,1.2-48.26,0v2.01c12.9,1.02,25.84,1.45,38.78,.67,22.34-1.34,44.08-4.12,66.5-2C-77.44-4.62-56.56,2.82-34.5,3.41-12.22,4.01,9.88,.44,32.11-.35c11.54-.41,22.24,1,33.44,3.69,10.33,2.48,20.52,3.39,31.14,3.3,11.32-.09,22.55-.46,33.86,.39,11.09,.83,22.13,2.21,33.15,3.67,22.38,2.96,44.51,4.81,67.09,5.16,22.14,.34,44.38,1.12,66.52,.66,22.19-.47,42.44-7.54,63.52-13.75,21.85-6.44,43.72-12.65,65.38-19.72,21.46-7,42.64-14.83,64.05-21.95,8.38-2.79,16.8-5.41,25.3-7.8v-2.05Z"/><path class="cls-4" d="M515.55-33.46c-27.23,.68-54.94,6.74-79.34,18.94-12.53,6.27-24.15,14.21-36.77,20.29-13.69,6.59-28.24,9.22-43.21,11.06-14.28,1.76-28.52,3.73-42.76,5.75-16.18,2.29-32.41,5.17-48.71,6.42-30.42,2.33-60.05-6.35-90.22-8.43-31.53-2.17-63.33,.95-94.72-3.49C50.09,12.87,21.09,7.78-9.11,9.2c-15.36,.72-30.19,1.27-45.53-.09-15.57-1.39-31.11-1.04-46.72-1.32-15.65-.27-31.29-.86-46.94-.6-15.52,.26-31,1.35-46.53,1.45-3.25,.02-6.53,.02-9.8,0v1.92c27.25,.28,54.48-1.81,81.75-1.27,15.41,.31,30.81,.46,46.22,.6,14.89,.14,29.66,2.57,44.55,2.38,15.82-.21,31.49-1.82,47.34-1.16,15.25,.63,30.42,2.47,45.5,4.84,14.8,2.32,29.34,4.64,44.34,5.26,15.54,.65,31.1,.3,46.65,.49,15.8,.2,31.41,1.27,47.05,3.57,15.05,2.21,30.06,4.99,45.27,5.87,14.62,.85,28.99-.86,43.44-2.9,15.15-2.14,30.31-4.29,45.46-6.44,16.68-2.36,33.85-3.31,50.16-7.73,14.19-3.84,26.8-11.48,39.41-18.79,28.59-16.58,60-25.89,93.05-26.75v-1.98Z"/><path class="cls-4" d="M514.21,76.98c-30.61-9.11-61.21-18.21-91.82-27.32-14.4-4.28-28.75-8.92-43.39-12.34-13.99-3.27-28.04-4.6-42.4-4.53-31.01,.15-61.97,1.09-92.98,.65-30.92-.43-61.82-1.47-92.71-2.8-7.45-.32-14.89-.87-22.34-.45-7.35,.41-14.53,.84-21.9,.3-15.82-1.18-31.4-4.28-47.02-6.9-14.52-2.43-29.17-4.47-43.92-4.27-15.33,.21-30.56,1.67-45.91,1.38-31.08-.61-62.05-3.64-93.14-4.22-27.12-.51-54.39-.22-81.29,3.58v1.86c49.12-7.31,100.14-3.17,149.24-.31,15.49,.9,31.02,1.51,46.54,.87,15.28-.63,30.26-1.75,45.53-.17,30.19,3.12,59.54,11.91,90.1,9.97,14.96-.95,30.17,.62,45.15,1.19,15.43,.59,30.86,1.09,46.29,1.46,31.25,.75,62.52,.96,93.78,.34,17.36-.35,34.86-1.43,52.11,1.15,16.49,2.47,32.45,7.61,48.39,12.35,33.73,10.04,67.46,20.07,101.19,30.11,1.22,.36,1.74-1.54,.52-1.9Z"/><path class="cls-4" d="M515.55,77.58c-.15-.15-.35-.26-.62-.27-15.11-.91-29.74-5.1-44.78-6.52-5.92-.56-11.63-.72-17.34,1.12-5.42,1.74-10.35,4.69-15.09,7.79-11.52,7.51-22.19,14.04-35.86,17.03-15.26,3.34-31.22,3.7-46.79,3.81-31.8,.23-63.61-2.24-95.35-4.01-31.43-1.75-62.86-3.62-94.29-5.37-15.04-.84-30.1-1.46-45.17-1.22-7.48,.12-14.96,.44-22.41,1.07-7.34,.62-14.62,1.83-22,1.9-13.13,.12-26.21-2.43-38.51-6.96-6.39-2.35-12.57-5.27-18.47-8.68-2.73-1.58-5.4-3.27-7.99-5.06-3.05-2.11-7.45-4.47-9.64-7.48-.39-.34-.77-.68-1.16-1.02,.35-3.67,1.82-5.25,4.4-4.74,1.56-.23,3.67,.38,5.24,.52,3.18,.28,6.37,.48,9.56,.62,8.3,.37,16.61,.29,24.92,.04,15.99-.49,31.93-1.56,47.89-2.65,15.05-1.03,30.11-1.94,45.2-1.06,15.5,.9,30.9,2.95,46.39,4.01,35.52,2.44,71.05,4.72,106.58,6.91,16.75,1.04,33.62,3.5,50.4,3.47,9.09-.01,18.19-.34,27.28-.52,4.56-.09,9.13-.18,13.69-.27,3.39-.07,7.5-.68,10.86,.44-44.78,13.26-90.84,11.26-135.82-.16-22.18-5.63-45.49-5.62-68.26-5.28-11.79,.18-23.52,1.47-35.29,2.06-11.94,.6-23.78,.11-35.72,.03-27.86-.19-55.79-.69-83.65,.04-.77,.02-1.41,1.12-.7,1.68,6.71,5.3,15.34,7.6,23.52,9.61,9.07,2.22,18.37,3.51,27.68,4.14,19.69,1.32,39.41-.37,59.02-2.09,19.97-1.75,40.03-3.59,60.09-2.46,20.5,1.15,40.24,6.66,60.38,10.23,20.01,3.54,39.53,2.6,59.73,1.7,21.51-.96,43.03-2.03,64.48-3.97,9.29-.84,18.65-1.87,27.67-4.33,4.59-1.25,16.24-3.39,15.75-10.18-.41-5.63-7.94-7.9-12.28-9.16-10.23-2.97-20.79-4.49-31.32-5.94-20.49-2.81-40.99-5.61-61.6-7.45-21.68-1.94-43.2-2.04-64.95-1.8-21.46,.24-42.89-1.34-64.3-2.56-21.6-1.23-43.2-2.46-64.79-3.91-42.78-2.86-85.45-6.09-128.36-4.77-10.52,.32-21.02,.99-31.53,.07-10.7-.93-21.35-2.7-31.99-4.17-20.42-2.82-40.9-5.48-61.51-6.46-28.38-1.35-56.07,2.14-83.36,8.15v1.77c13.86-3.19,27.83-5.71,41.89-7.11,40.51-4.03,81.02,2.68,121.06,8.13,9.22,1.26,18.39,2.27,27.71,2.16,10.14-.11,20.26-.71,30.4-.84,20.45-.26,40.9,.32,61.33,1.4,41.36,2.19,82.66,5.47,124.02,7.82,20.46,1.16,40.91,2.54,61.42,2.26,20.43-.28,40.69-.11,61.06,1.65,21.07,1.83,42.05,4.68,63,7.55,9.91,1.36,19.85,2.79,29.52,5.43,2.18,.6,4.38,1.19,6.47,2.06,1.17,.49,2.19,1.02,3.2,1.8,2.63,2.02,2.54,1.95,1.14,5.27-1.4,3.32-1.58,3.19-4.84,4.45-.83,.32-1.67,.63-2.51,.91-2.81,.96-5.68,1.76-8.57,2.43-19.48,4.52-40.26,4.87-60.15,5.99-20.06,1.12-40.46,2.91-60.56,2.58-19.88-.33-39.14-5.54-58.54-9.3-18.54-3.59-37.03-4.7-55.89-3.85-37.92,1.73-76.38,9.4-114.12,1.68-8.51-1.74-18.19-3.8-25.65-8.66,24.03-.52,48.04,.25,72.06,.04,12.31-.11,24.6,.63,36.91,.25,11.78-.36,23.49-1.6,35.25-2.14,11.89-.55,23.8-.09,35.69,.21,12.22,.31,24.07,1.02,36,3.91,22.21,5.38,44.03,9.92,66.97,10.54,25.64,.69,51.29-2.65,75.81-10.22,.85-.26,.92-1.32,.23-1.8-4.92-3.43-12.33-1.83-17.95-1.72-8.48,.17-16.95,.33-25.43,.5-16.02,.31-31.59-1.3-47.54-2.37-33.57-2.25-67.16-4.2-100.73-6.44-32.16-2.15-64.36-6.93-96.62-5.27-33.08,1.7-66.47,5.94-99.58,2.75-3.51-.34-9.38-1.29-10.69,3.33-1.12,3.97,4.41,6.94,6.91,8.91,10.08,7.94,21.47,14.19,33.54,18.54,12.48,4.5,25.78,6.97,39.06,6.74,7.42-.13,14.76-1.36,22.15-1.96,8.08-.65,16.19-.96,24.3-1.03,32.53-.28,65.1,2.63,97.56,4.44,33.47,1.87,66.95,4.05,100.45,5.48,16.81,.72,33.66,1.05,50.48,.28,14.54-.66,29.42-1.91,43.16-7.05,11.83-4.42,21.1-12.86,32.23-18.53,14.58-7.44,30.9-2.87,46.18-.11,7.23,1.3,14.46,2.44,21.79,2.89,.27,.02,.46-.07,.62-.2v-1.49Z"/><path class="cls-4" d="M121.33,40.43c-66.59,2.49-133.45,5.44-199.96-.28-32.94-2.83-65.47-5.67-98.28,.32-9.31,1.7-18.54,3.82-27.72,6.2v2.19c3.82-1.01,7.65-1.99,11.5-2.9,33.69-7.98,67.22-8.43,101.54-5.06,33.8,3.32,67.7,4.56,101.66,4.48,37.11-.09,74.19-1.6,111.27-2.98,1.26-.05,1.27-2.02,0-1.97Z"/><path class="cls-4" d="M515.55,127.07c-23.28,15.64-52.5,21.36-80,15.85-6.82-1.37-13.5-3.41-19.9-6.15-7.42-3.18-14.32-7.42-21.69-10.72-13.13-5.87-27.42-7.71-41.57-9.48-33.21-4.14-66.49-7.66-99.82-10.64-32.94-2.95-66-6.01-99.08-6.78-16.65-.39-33.33-.09-49.93,1.41-15.18,1.37-30.33,5.93-45.59,3.04-30.67-5.83-55.19-27.08-83.44-38.94-26.87-11.28-58.19-15.32-86.35-6.48-26.03,8.17-48.51,25.01-73.1,36.46-6.47,3.01-13.04,5.78-19.71,8.32v2.14c13.2-5.03,26.06-10.99,38.51-17.67,12.13-6.51,23.84-13.82,36.24-19.84,13.44-6.53,27.59-11.04,42.57-11.96,15.82-.97,31.75,1.13,46.9,5.72,30.23,9.15,54.71,30.29,84.43,40.51,6.57,2.26,13.48,4.11,20.43,4.62,7.05,.52,14.13-.47,21.08-1.53,16.52-2.5,32.99-3.78,49.7-3.96,33.07-.36,66.12,2.56,99.05,5.32,33.34,2.8,66.64,6.1,99.87,10.01,16.29,1.92,33.16,3.05,48.94,7.77,14.52,4.34,26.93,13.5,41.41,18.02,24.27,7.59,51.23,6.12,74.61-3.84,5.76-2.45,11.23-5.44,16.46-8.87v-2.36Z"/><path class="cls-4" d="M395.7,140.6c-25.07-9.1-50.43-17.79-76.83-22.13-27.13-4.46-54.84-3.98-82.24-5.05-14.29-.56-28.55-1.49-42.74-3.3-13.33-1.7-26.56-3.55-40.03-3.56-26.52,0-52.77,4.89-79.28,4.96-13.29,.04-26.62-1.21-39.43-4.89-13.58-3.9-26.13-10.89-38.91-16.79-22.38-10.33-44.45-21.86-69.51-23.06-22.72-1.08-44.44,4.1-65.14,13.16-12.06,5.28-22.94,11.75-33.72,19.27-9.71,6.77-21.06,11.05-32.5,13.9v1.86c4.38-1.02,8.72-2.2,13.01-3.76,11-4,19.74-10.32,29.46-16.59,21.19-13.66,46.12-23.36,71.33-25.51,11.95-1.02,24.14-.59,35.88,2.03,12.73,2.84,24.64,8.86,36.49,14.16,23.92,10.71,46.66,24.07,73.11,27.14,25.99,3.01,52.05-1.2,77.96-3.07,13.09-.94,26.21-1.25,39.28-.01,13.65,1.3,27.18,3.58,40.86,4.66,31.65,2.5,63.62,1.09,95.17,4.84,30.11,3.58,58.9,13.31,87.26,23.61,1.19,.43,1.71-1.47,.52-1.9Z"/><path class="cls-4" d="M96.48,272.69c2.79-1.11,6-2.47,7-5.61,.96-3.03-.63-5.28-3.33-6.54-3.91-1.83-9.04-1.9-13.26-2.22-7.02-.54-13.54-1.95-20.13-4.42-10.85-4.07-20.34-11.17-31.41-14.69-9.83-3.13-19.72-2.02-29.12,2.03-7.81,3.37-16.14,8.12-22.67,13.63-5.74,4.84-9.38,11.7-6.13,19.12,3.66,8.36,13.54,12.96,21.41,16.34,10.47,4.5,21.8,7,33.2,7.27,5.39,.13,11.01-.14,16.01-2.38,5.56-2.48,9.32-7.52,14.4-10.72,10.22-6.44,22.86-7.67,34.03-11.81,1.18-.44,.67-2.34-.52-1.9-7.64,2.83-15.65,4.38-23.36,6.99-7.34,2.48-12.94,6.14-18.78,11.14-8.26,7.07-18.16,7.35-28.54,6.28-9.67-1-19.18-3.62-27.99-7.72-8.19-3.81-20.62-10.16-18.99-21.04,1.17-7.83,9.35-12.44,15.51-16.16,7.51-4.54,15.15-9.04,23.94-10.53,10.25-1.74,19.68,1.76,28.66,6.39,8.79,4.53,17.24,9.25,26.83,11.96,4.52,1.27,9,1.83,13.67,2.19,3.21,.25,6.51,.4,9.63,1.21,.62,.16,3.13,.62,3.69,1.25,.32,1.55,.64,3.11,.96,4.66-1.41,1.65-3.15,2.78-5.21,3.39-1.16,.46-.66,2.37,.52,1.9Z"/><path class="cls-4" d="M121.27,253.48c-.58-4.96-3.8-8.22-8.58-9.5-3.36-.9-6.89-.56-10.32-.46-4.21,.12-8.36-.15-12.52-.86-7.86-1.35-15.49-4.12-22.29-8.27-6.74-4.11-13.25-8.53-20.54-11.64-14.02-5.98-30.24-7.44-45.22-5.11-15.66,2.44-28.06,11.66-42.67,16.96-16.22,5.88-33.39,2.64-49.98,.44-17.86-2.37-35.8-4.1-53.77-5.2-17.56-1.07-35.47-.56-52.84-3.64-2.45-.43-4.83-.99-7.16-1.63v1.96c7.16,1.8,14.53,2.85,22.03,3.42,16.81,1.28,33.68,1.41,50.49,2.72,17.08,1.32,34.05,3.4,51.02,5.66,15.02,2,29.75,2.77,44.03-3.13,7-2.89,13.56-6.72,20.44-9.88,7.71-3.54,15.67-5.66,24.12-6.42,17.5-1.57,34.6,2.34,49.66,11.31,5.96,3.55,11.59,7.59,18.04,10.24,6.36,2.61,13.13,4.26,19.98,4.85,7.4,.63,21.13-2.9,23.9,6.79,1.77,6.21-.73,14.59-3.12,20.32-2.97,7.11-7.49,11.69-14.73,14.42-6.53,2.46-13.17,4.51-19.68,7.07-15.23,6-30.41,12.42-46.29,16.54-16.4,4.25-33.91,5.82-50.13-.03-14.73-5.31-26.91-15.73-41.08-22.21-6.76-3.09-13.78-5.58-20.68-8.35-6.78-2.73-13.52-6.78-20.87-7.73-8.25-1.07-17.01,.83-25.31,1.03-9.2,.23-18.29-.42-27.38-1.82-15.3-2.36-30.22-5.23-45.78-3.81-2.9,.27-5.8,.66-8.67,1.14v2.01c14.6-2.41,29.04-1.57,43.77,.87,17.36,2.88,34.02,4.24,51.62,2.78,4.17-.35,8.31-.78,12.47-.09,4.85,.81,9.22,3.07,13.68,5.02,7.31,3.2,14.86,5.82,22.22,8.92,14.59,6.16,26.98,16.29,41.48,22.54,14.14,6.1,29.57,6.57,44.57,3.94,16.78-2.95,32.7-9.32,48.47-15.54,7.24-2.85,14.41-5.93,21.83-8.3,5.15-1.64,10.76-3.19,14.96-6.77,7.88-6.72,12.01-20.49,10.83-30.6Z"/><path class="cls-4" d="M171.81,253.54c-4.65-5.85-12.54-7.05-19.42-8.46-17.37-3.57-34.84-6.72-51.99-11.29-16.91-4.51-32.37-11.49-48.36-18.41-13.52-5.85-27.83-10.39-42.73-8.41-15.53,2.06-29.15,10.43-43.16,16.83-17.23,7.88-35.39,10.5-54.25,9.54-18.4-.93-36.5-4.59-54.71-7.1-17.51-2.42-36.04-1.36-52.75-7.72-3.11-1.18-6.12-2.55-9.08-4.02v2.04c8.54,4.09,17.42,7.18,27.14,8.35,8.47,1.02,17.02,1.22,25.5,2.16,9.22,1.02,18.38,2.51,27.54,3.94,16.47,2.57,33.12,5.07,49.84,4.45,16.1-.59,30.99-4.76,45.48-11.68,14.69-7.02,29.35-15.36,46.11-15.32,16.61,.04,31.77,7.56,46.55,14.27,14.56,6.61,29.58,11.46,45.13,15.2,16.85,4.05,34.26,6.23,50.97,10.78,4.57,1.24,9.42,3.36,11.79,7.74,2.84,5.24-.12,11.05-4.62,14.21-6.89,4.84-16.58,4.39-24.51,6.2-7.64,1.75-15.12,4.46-22.04,8.15-7.26,3.86-13.82,8.92-21.26,12.46-7.76,3.68-16.04,6.23-24.01,9.43-8.17,3.28-16.38,6.49-24.81,9.05-17.98,5.46-36.36,6.76-54.89,3.51-34.33-6.02-63-26.98-96.79-34.53-17.21-3.84-34.79-6.08-52.32-7.89-16.8-1.73-33.87-3.79-50.79-4.09v1.89c10.04,.16,20.16,1.38,30.02,2.23,19.42,1.67,38.84,3.6,58.06,6.92,18.42,3.19,35.61,8.27,52.56,16.21,15.96,7.47,31.8,14.86,48.99,19.09,16.28,4,33.21,5.31,49.79,2.41,17.91-3.13,34.36-10.76,51.3-16.98,7.66-2.82,15.06-5.78,22.05-10.06,7.79-4.77,15.24-9.58,23.89-12.73,7.93-2.88,15.98-4,24.24-5.46,6.29-1.11,12.72-3.35,16.29-9.02,2.81-4.47,2.54-9.74-.74-13.88Z"/><path class="cls-4" d="M95.96,175.28c3.52-1.39,7.34-1.94,11.12-1.72,2.29,.13,4.71,.56,6.73,1.68,.8,.58,1.61,1.16,2.41,1.74-.37,1.88-.75,3.76-1.12,5.64-.59,.78-2.6,1.26-3.44,1.76-4.41,2.59-7.93,6.46-13.51,5.99-3.45-.29-6.49-2.22-7.4-5.68-1.14-4.31,1.79-7.64,5.45-9.52,1.13-.58,.13-2.28-.99-1.7-6.07,3.12-9.56,10.54-3.97,15.98,6.4,6.23,14.21,1.41,20.12-2.55,2.5-1.67,6.47-2.61,7.8-5.62,1.19-2.69-.62-5.06-2.69-6.66-5.66-4.38-14.72-3.74-21.02-1.25-1.16,.46-.66,2.36,.52,1.9Z"/><path class="cls-4" d="M133.66,171.27c4.36,11-3.12,17.24-12.75,20.83-9.28,3.46-23.69,9.26-32.92,4.06-6.65-3.75-7.77-11.87-6.85-18.77,1.08-8.02,4.49-13.93,12.56-16.44,13.72-4.28,32.93-4.44,40.06,10.56,.54,1.14,2.24,.15,1.7-.99-5.71-12.02-19.48-15.23-31.7-13.67-6.02,.77-13.17,1.93-18.03,5.91-4.24,3.47-5.83,9.14-6.54,14.37-1.46,10.82,3.02,21.86,15.09,22.83,6.13,.49,12.18-1.38,18-3.06,4.33-1.25,8.67-2.5,12.78-4.37,9.36-4.24,14.56-11.57,10.51-21.78-.46-1.16-2.37-.66-1.9,.52Z"/><path class="cls-4" d="M138.48,198.32c11.25-7.26,20.89-21.58,11.24-34.19-8.86-11.58-26.21-16.69-40.23-16.06-13.03,.58-30.24,6.82-34.48,20.56-2.07,6.71-3.28,16.83-.05,23.29,2.93,5.86,9.78,9.58,15.59,12,15.24,6.37,34.17,2.71,47.93-5.6,1.08-.65,.09-2.36-.99-1.7-12.97,7.84-30.6,11.39-45.13,5.91-9.45-3.57-17.36-9.33-17.12-20.29,.23-10.64,2.47-19.1,11.74-25.19,13.93-9.16,32.62-9.02,47.4-1.97,7.74,3.69,16.76,9.86,17.31,19.26,.58,9.81-6.53,17.33-14.21,22.28-1.06,.68-.08,2.39,.99,1.7Z"/><path class="cls-4" d="M-10.49,139.23c3.05,2.05,5.65,5.02,7.24,8.34,.99,2.07,1.82,4.78,.99,7.05-1.19,3.27-6.34,5.66-9.12,7.5-7.88,5.22-15.32,10.77-22.94,16.33-8.04,5.87-17.91,11.91-28.13,12.12-10.47,.21-16.73-7.4-24.11-13.51-10.22-8.46-48.37-24.17-33.22-42.26,6.69-7.99,18.32-7.86,27.7-9.86,9.35-1.99,17.8-5.71,26.57-9.33,5.72-2.36,12.09-4.34,18.29-2.68,5.94,1.59,8.68,6.38,12.27,10.83,6.67,8.27,15.66,10.32,24.46,15.45,1.1,.64,2.09-1.06,.99-1.7-4.89-2.85-10.38-4.44-15.27-7.28-5.83-3.38-8.91-8.63-13.17-13.56-6.96-8.05-17.53-7.1-26.63-3.58-5.41,2.1-10.57,4.73-16.07,6.62-6.14,2.11-12.43,3.51-18.84,4.57-9.06,1.49-19.99,3.58-24.23,12.93-3.79,8.36,1.88,16.92,8.05,22.31,9.21,8.06,20.8,12.75,29.98,20.89,7.42,6.59,14.26,12.81,24.88,12.03,10.45-.76,20.69-7.1,28.81-13.32,5.59-4.27,11.15-8.39,17.01-12.28,3.06-2.03,6.12-4.04,9.17-6.08,1.85-1.24,3.84-2.34,4.92-4.39,3.6-6.79-3.3-15.3-8.61-18.87-1.05-.71-2.04,1-.99,1.7Z"/><path class="cls-4" d="M503.91,281.93c3.95,.76,7.81,1.63,11.64,2.44v-1.75c-4.01-.96-8-2.02-12.05-2.76-12.4-2.29-25.02-1.52-37.55-1.37-27.42,.33-54.25-5.42-81.45-7.79-27.01-2.36-54.28-1.87-81.37-2.18-13.08-.15-26.26-.74-39.27,.88-12.08,1.51-23.81,5.35-35.42,8.9-25.81,7.9-51.83,15.02-77.5,23.38-25.49,8.31-50.49,18.04-76.01,26.25-13.08,4.21-25.7,7.39-39.48,8.06-13.3,.65-26.64,.52-39.9-.78-26.16-2.55-51.82-9.26-76.21-18.98-12.47-4.97-24.68-10.54-37.49-14.6-5.46-1.73-10.99-3.28-16.4-5.19-6.78-2.38-12.97-5.76-19.46-8.8-9.34-4.37-19.72-6.82-30.04-6.64-1.27,.02-1.27,1.99,0,1.97,12.52-.21,23.85,3.71,34.88,9.28,10.08,5.08,20.7,8.13,31.41,11.57,23.43,7.51,45.32,18.77,69.16,25.22,23.77,6.43,48.25,9.63,72.88,9.23,10.67-.17,21.5-.46,31.96-2.82,12.48-2.82,24.72-7.33,36.77-11.56,24.04-8.43,47.97-17.09,72.27-24.75,23.97-7.55,48.15-14.42,72.25-21.55,12.56-3.72,24.93-6.64,38.07-7.17,12.3-.49,24.66,.01,36.96,.15,25.69,.29,51.54-.09,77.13,2.57,25.43,2.64,50.6,7.61,76.26,7.3,12.67-.15,25.43-.95,37.96,1.47Z"/><path class="cls-4" d="M515.55,268.75c-12.78-2-25.55-4.08-38.49-4.82-20.81-1.2-41.68-.31-62.5-.99-21.38-.69-42.22-4.53-63.37-7.35-20.21-2.69-39.53-2.11-59.68,.72-21.39,3-42.76,6.37-64.2,8.94-17.98,2.15-35.55,4.55-51.99,12.61-17.7,8.68-33.66,20.02-52.31,26.8-8.94,3.25-18.09,5.78-27.38,7.79-9.64,2.08-18.39,5.93-27.78,8.82-20.29,6.23-41.86,8.19-62.94,5.64-20.39-2.46-39.32-10.08-58.59-16.76-19.54-6.78-39.41-12.61-59.51-17.47-29.15-7.05-60.94-14.38-91.43-11.49v2.13c24.08-2.15,49.26,2.19,72.64,7.12,20.24,4.27,40.27,9.52,60,15.73,19.2,6.04,37.87,14.05,57.38,19.06,18.58,4.77,38.06,5.93,57.08,3.5,9.53-1.22,18.93-3.29,28.07-6.25,8.99-2.91,17.39-6.33,26.66-8.36,18.43-4.02,36.05-10.43,52.49-19.69,16.96-9.56,33.01-19.7,52.39-23.59,19.63-3.95,39.93-5.56,59.76-8.37,20.96-2.97,42.27-7.34,63.51-7.05,20.93,.28,41.46,4.89,62.16,7.45,20.74,2.57,41.61,2.25,62.46,2.33,21.73,.08,42.64,1.98,64.08,5.38,.5,.08,1,.15,1.49,.23v-2.08Z"/><path class="cls-4" d="M515.55,258.97c-7.06-1.17-14.13-2.41-21.21-3.54-10.75-1.71-21.7-3.37-32.61-3.41-12.02-.05-23.82,.76-35.87,.24-48.67-2.1-97.39-3.46-146.11-2.89-24.65,.29-49.73,2.6-74.1-2.12-22.95-4.44-44.61-13.19-66.97-19.72-22.63-6.6-46.45-11.09-68.21-20.3-8.5-3.59-16.9-7.13-26.19-7.94-10.72-.94-21.54,.53-31.91,3.21-21.79,5.63-41.77,16.67-63.67,21.96-23.61,5.72-48.26,3.87-71.74-1.57-28.25-6.54-54.76-18.2-81.59-28.97v1.8c18.99,7.76,37.81,16.03,57.01,22.3,20.9,6.84,42.75,11.8,64.84,11.92,21.86,.12,41.84-5.8,62.02-13.7,22.23-8.71,46.27-18.83,70.66-14.2,10.22,1.94,19.36,7.29,29.11,10.67,10.76,3.73,21.96,6.4,32.95,9.4,22.78,6.22,44.99,14.02,67.62,20.59,21.78,6.32,42.83,9.68,65.54,9.3,49.21-.82,98.3-.81,147.5,.9,11.97,.42,23.93,.9,35.9,1.42,11.98,.52,23.83-.69,35.77-.3,17.26,.55,34.25,3.99,51.26,6.94v-2.01Z"/><g><path class="cls-4" d="M268.93,235.31c-17.18-1.01-34.29-2.84-51.35-5-17.68-2.24-35.75-3.93-53.12-8.03-3.99-.94-8.43-1.77-12.09-3.66-1.53-.79-3.75-2.06-4.49-3.7-2.35-5.13,5.58-7.25,8.59-8.28,8.11-2.77,16.62-4.17,25.11-5.11,17.36-1.93,34.86-2.87,52.31-3.76,17.2-.88,34.64-2.4,51.87-2.12,16.81,.28,33.24,4.06,49.62,7.49,15.83,3.31,31.57,5.78,47.78,5.98,16.19,.19,32.34-1.22,48.45-2.63,18.15-1.59,36.36-3.23,54.59-2.57,9.73,.35,19.45,1.38,28.98,3.39,.12,.03,.25,.05,.37,.08v-2c-5.58-1.17-11.24-2.02-16.91-2.6-18.12-1.83-36.37-.83-54.47,.65-17.93,1.46-35.85,3.42-53.85,3.7-18.79,.29-36.96-2.22-55.31-6.08-17.15-3.6-34.4-7.48-52.02-7.38-19.55,.11-39.24,1.54-58.76,2.65-18.1,1.02-36.6,1.66-54.46,4.92-6.8,1.24-16.31,2.65-21.9,7.07-4.04,3.19-2.64,7.68,1.04,10.48,6.61,5.03,17.22,6.06,25.14,7.44,10.03,1.75,20.16,2.97,30.25,4.32,21.48,2.87,42.99,5.46,64.63,6.73,1.27,.07,1.26-1.89,0-1.97Z"/><path class="cls-4" d="M515.55,215.96c-15.89-.06-31.77-.36-47.67-.22-12.31,.11-24.6-.63-36.91-.25-11.78,.36-23.49,1.6-35.25,2.14-11.89,.55-23.8,.09-35.69-.21-12.22-.31-24.07-1.02-36-3.91-22.21-5.38-44.03-9.92-66.97-10.54-25.64-.69-51.29,2.65-75.81,10.22-.85,.26-.92,1.32-.24,1.8,4.69,3.27,11.62,1.84,16.97,1.74,8.15-.16,16.3-.32,24.45-.48,15.76-.31,31.02,.92,46.71,2.13,32.53,2.51,65.15,4.09,97.71,6.25,18.11,1.2,36.19,2.5,54.26,4.27,1.26,.12,1.25-1.85,0-1.97-39.95-3.91-80.09-6.01-120.14-8.52-19.48-1.22-38.99-3.37-58.48-4.23-9.92-.44-19.91,.1-29.83,.3-5.22,.1-10.43,.2-15.65,.31-3.84,.07-8.91,.92-12.81-.41,44.78-13.25,90.83-11.26,135.81,.16,22.18,5.63,45.49,5.62,68.26,5.28,11.79-.18,23.52-1.47,35.29-2.06,11.94-.6,23.78-.11,35.72-.03,18.74,.13,37.51,.39,56.27,.33v-2.1Z"/></g><path class="cls-4" d="M477.9,193.94c8.71-.7,17.31-2.15,26.07-1.95,3.88,.09,7.75,.42,11.59,.95v-1.98c-3.32-.45-6.66-.75-10.01-.88-8.99-.35-17.78,1.08-26.71,1.83-20.29,1.7-40.69,1.22-61,.2-42.1-2.12-84.19-4.79-126.28-7.14-21.03-1.17-42.08-2.48-63.15-2.6-19.03-.11-38.89-.05-57.45,4.68-7.97,2.03-15.52,5.13-22.49,9.5-6.86,4.3-13.3,9.39-20.69,12.78-8.92,4.09-18.24,3.5-27.72,2.05-8.86-1.35-17.73-3.78-25.7-7.93-7.53-3.92-12.97-11.05-20.63-14.53-7.35-3.34-16.31-2.7-24-1.1-9.54,1.98-18.43,6.1-27.49,9.55-9.76,3.71-19.81,6.54-29.9,9.19-20.19,5.31-41.11,10.34-62.12,7.94-20.23-2.32-37.99-11.71-56.19-20.09-17.91-8.25-38.68-8.68-56.36-17.37-.77-.38-1.52-.77-2.28-1.17v2.17c1.82,.95,3.67,1.83,5.58,2.59,8.81,3.48,18.34,5.37,27.49,7.76,9.83,2.57,19.24,5.08,28.42,9.55,7.72,3.76,15.44,7.51,23.44,10.65,17.56,6.89,35.48,9.79,54.29,7.74,18.81-2.05,37.61-7.16,55.65-12.76,18.1-5.62,37.57-18.04,57.18-14.47,9.09,1.65,14.43,9.08,21.89,13.75,6.58,4.12,14.01,6.87,21.52,8.71,7.44,1.82,15.27,2.96,22.94,2.99,7.02,.02,13.48-2.42,19.52-5.85,6.63-3.76,12.63-8.51,19.24-12.3,7.91-4.54,16.73-7.25,25.67-8.92,19.58-3.65,40.07-3.43,59.91-3,40.63,.88,81.26,4.01,121.83,6.28,39.15,2.18,78.75,6.36,117.95,3.2Z"/><path class="cls-4" d="M515.55,178.71c-1.49-.18-2.99-.32-4.49-.4-11.03-.59-21.94,2.22-32.82,3.51-12.75,1.51-25.68,1.97-38.51,2.07-50.37,.37-101.08-5.24-151.15-10.31-25.72-2.6-51.6-5.04-77.15-8.98-12.35-1.91-23.79-5.26-34.92-11-8.64-4.46-17.09-8.77-26.47-11.48-18.17-5.26-37.99-6-56.39-1.44-9.29,2.3-17.14,6.45-25.67,10.57-10.52,5.08-21.96,7.78-32.94,11.6-21.03,7.32-40.4,18.45-58.95,30.6-10.49,6.87-21.23,12.82-33.96,13.94-13.2,1.15-25.78-2.87-37.16-9.28-19.36-10.91-37.6-21.93-58.91-28.83-16.4-5.31-33.48-8.7-50.69-10.07v2.2c8.89,.58,17.79,1.73,26.79,3.59,22.82,4.72,44.89,13.01,65.06,24.71,18.66,10.83,35.89,22.51,58.57,19.24,21.34-3.08,38.56-19.55,57.02-29.46,10.53-5.66,21.46-10.82,32.76-14.75,9.7-3.37,19.7-5.89,29.18-9.9,9.93-4.2,18.83-9.66,29.43-12.28,10.64-2.63,21.71-3.39,32.62-2.61,10.43,.75,20.84,2.93,30.61,6.67,10.11,3.87,19.18,9.91,29.26,13.83,21.75,8.46,47.18,9.1,70.15,11.69,50.01,5.63,100.32,10.67,150.61,13,24.33,1.13,49.16,1.55,73.36-1.69,11.56-1.55,23.11-4.24,34.77-2.71v-2.04Z"/><path class="cls-4" d="M515.55,171.83c-14.76-1.04-29.67-.03-44.39,1.28-22.12,1.97-44.27,4.49-66.49,2.37-22.09-2.11-43.83-5.21-66.04-6.05-44.66-1.7-88.69-1.69-131.09-17.65-10.33-3.89-20.85-7.25-31.34-10.68-10.62-3.47-21.12-7.83-31.99-10.45-20.77-5-40.31-2.28-60.6,3.24-12.77,3.47-24.23,4.63-36.99,.43-11.24-3.7-22.36-7.88-33.44-12.03-11.71-4.39-23.3-9.07-34.72-14.17-8.92-3.98-17.87-8.06-27.37-10.48-18.87-4.82-38.93-2.26-55.67,7.72-8.98,5.35-17.45,11.34-26.76,16.14-10.34,5.34-21.13,9.8-32.22,13.33-13.49,4.3-27.2,6.76-41.06,8.47v2.18c1.97-.24,3.94-.48,5.91-.75,20.73-2.82,40.94-8.68,59.94-17.42,9.73-4.48,18.92-9.77,27.88-15.62,9.33-6.09,18.7-11.26,29.8-13.25,25.18-4.51,46.19,6.27,68.67,15.79,20.43,8.65,41.84,17.7,63.29,23.44,21.39,5.73,41.75-6.54,62.98-7.77,23.6-1.37,44.53,7.45,66.5,14.62,21.14,6.9,41.64,15.71,63.55,19.93,20.34,3.92,41.08,5.15,61.75,5.88,21.95,.78,43.96,.98,65.84,3.13,22.85,2.24,44.84,5.69,67.9,4.3,21.5-1.3,42.9-4.53,64.47-4.42,3.91,.02,7.81,.17,11.71,.45v-1.97Z"/><path class="cls-4" d="M509.11,157.87c-30.78,3.77-61.89,4.45-92.8,1.91-31.87-2.62-62.71-9.19-93.48-17.66-14.53-4-28.91-8.64-43.43-12.6-14.01-3.82-28.94-3.69-43.33-4.78-32.77-2.47-65.53-5.17-98.31-7.41-15.45-1.06-30.46-.75-45.73,1.91-15.13,2.64-30.58,6.11-45.99,3.67-14.98-2.37-25.14-13.17-38.21-19.72-12.89-6.46-26.62-11.16-40.46-15.1-13.52-3.85-28.01-8.64-42.18-8.8-12.31-.14-23.79,4.61-34.27,10.71-11.89,6.92-22.77,15.45-34.99,21.83-13.38,6.99-27.79,11.7-42.38,15.43-6.04,1.55-12.09,3-18.18,4.24v2.1c25.84-5.25,51.48-12.96,73.8-27.25,11.6-7.43,22.79-16.02,35.71-21.1,14.75-5.79,28.79-3.75,43.77-.05,14.49,3.57,28.92,7.52,42.84,12.94,7.27,2.83,14.61,5.93,21.26,10.05,5.98,3.7,11.5,8.14,17.68,11.53,25.66,14.08,56.44-.03,83.35-1.06,16.06-.61,32.2,1.23,48.19,2.44,16.25,1.23,32.49,2.45,48.74,3.68,16.09,1.22,32.21,2.23,48.29,3.51,15.7,1.25,29.83,6.57,44.89,10.72,29.22,8.07,58.27,16.03,88.37,20.1,31.03,4.2,62.47,5.23,93.7,2.98,7.73-.56,15.44-1.33,23.13-2.27,1.24-.15,1.26-2.12,0-1.97Z"/><path class="cls-4" d="M73.65,124.69c22.9-3.13,46.03-1.91,68.94,.53,22.7,2.41,45.38,5.36,67.98,8.55,22.39,3.16,44.72,6.9,66.75,12.04,21.79,5.09,43.23,11.52,65.26,15.58,24.21,4.46,48.77,6.7,73.39,6.81,1.27,0,1.27-1.96,0-1.97-23.18-.11-46.31-2.08-69.15-6.07-22.37-3.91-44.12-10.31-66.17-15.58-43.41-10.38-88.07-15.67-132.36-20.7-24.98-2.84-50.14-4.5-75.15-1.08-1.25,.17-.72,2.07,.52,1.9h0Z"/><path class="cls-4" d="M30.32,228.71c-19.45-2.34-38.17,3.52-56.54,9.17-9.42,2.9-18.88,5.77-28.6,7.48-11.3,1.98-22.6,1.75-33.95,.35-37.91-4.67-77.57-14.29-115.86-8.42v2.08c15.71-2.31,31.56-1.82,47.55-.51,22.24,1.82,44.09,5.6,66.18,8.54,19.53,2.6,37.45,.57,56.27-4.92,21.19-6.18,42.48-14.49,64.96-11.79,1.25,.15,1.24-1.82,0-1.97Z"/><path class="cls-4" d="M103.79,251.93c-6.13-.95-12.12,1.1-18.33-.27-6.45-1.42-12.21-4.82-17.92-8.01-10.96-6.13-22.59-11.39-34.94-13.95-10.37-2.15-22.68-3.29-32.64,1.06-5.32,2.32-9.71,6.21-14.36,9.59-5.77,4.2-12.09,7.55-18.83,9.92-14.37,5.06-29,5.16-43.77,2.03-6.9-1.47-13.82-1.12-20.83-1.21-8.46-.11-16.92-.36-25.38-.67-16.9-.62-33.59-2.26-50.41-3.88-10.57-1.02-20.97-.73-31.03,.96v1.87c8.86-1.54,17.98-1.94,27.2-1.21,14.53,1.16,28.94,3.02,43.51,3.76,14.02,.71,28.11,1.21,42.15,1.14,12.96-.07,25.19,4.19,38.24,3.33,11.38-.74,22.6-3.94,32.58-9.49,4.96-2.76,9.29-6.29,13.87-9.6,6.08-4.4,12.23-6.86,19.8-7.29,13.38-.76,26.71,2.66,38.92,7.9,10.3,4.42,19.64,11.5,30.35,14.86,4.93,1.55,9.65,1.67,14.75,1.26,3.69-.3,7.84-.89,11.02,1.5,4.66,3.5,2.81,9.52,.24,13.7-6.3,10.23-19.25,14.4-30.33,16.88-4.62,1.03-9.24,2-13.45,4.25-5.77,3.08-10.75,7.48-16.54,10.55-26,13.82-54.42-1.63-76.12-16.33-4.84-3.28-9.53-6.99-14.75-9.65-5.31-2.71-11.03-3.55-16.93-3.55-13.72,0-27.36,1.59-41.11,1.13-30.36-1.02-59.6-10.95-89.93-11.99-4.46-.15-8.97-.09-13.46,.21v1.97c6.03-.41,12.08-.38,18.02,.01,28.74,1.89,56.52,10.79,85.37,11.76,14.3,.48,28.55-1.51,42.81-1.11,15.39,.43,26.93,12.02,39.42,19.71,20.49,12.61,46.51,21.62,69.1,8.74,5.21-2.97,9.83-6.94,15.11-9.76,5.9-3.15,12.71-3.73,19.06-5.57,9.23-2.67,18.99-6.95,24.66-15.09,5.02-7.21,5.47-17.8-5.13-19.45Z"/><path class="cls-4" d="M67.67,269.49c-4.72,.52-9.32,.16-12.87,3.81-2.38,2.44-3.79,5.55-6.58,7.64-3.45,2.58-7.71,3.55-11.93,3.96-7.16,.69-14.56,.16-21.72-.41-7.81-.62-17.25-.9-23.29-6.58-11.35-10.68,4.38-20.48,13.26-24.57,4.6-2.12,9.49-4.08,14.42-5.26,4.2-1,8.74-1.5,12.99-.44,4.18,1.04,7.67,3.47,11.26,5.72,6.61,4.14,13.88,6.7,21.4,8.69,3.52,.93,7.86,1.19,11.18,2.62,1.59,.69,1.36-.41,2,1.85,.72,2.56-1.15,1.74-3.15,2.01-2.41,.33-4.81,.66-7.22,.99-1.25,.17-.72,2.07,.52,1.9,2.63-.36,17.8-.26,13.57-6.35-1.64-2.36-5.84-2.43-8.33-2.99-4.6-1.03-9.19-2.15-13.68-3.56-4.84-1.53-9.56-3.4-13.92-6.01-3.74-2.24-7.27-4.94-11.46-6.31-7.6-2.47-15.64-.41-22.88,2.27-8.82,3.26-22.93,8.48-25.54,18.78-1.36,5.37,1.8,10.47,6.04,13.56,6.64,4.84,15.86,5.11,23.74,5.71,9.18,.69,19.88,1.91,28.76-1.27,3.42-1.23,6.22-3.19,8.51-6,2.25-2.74,3.72-5.96,7.44-7.01,2.38-.67,5.05-.53,7.49-.79,1.25-.14,1.26-2.11,0-1.97Z"/><path class="cls-4" d="M45.82,266.82c-6.21,4.93-14.95,7.01-22.54,8.91-5.77,1.44-10.81,1.36-16.33-1.07-1.87-.82-4.86-1.94-5.4-4.13-.59-2.43,1.32-4.77,2.76-6.42,4.65-5.3,11.74-9.43,18.81-9.98,4.77-.37,9.42,1.04,13.69,3.03,2.73,1.27,13.34,5.42,9.01,9.66-.91,.89,.49,2.28,1.39,1.39,7.9-7.74-12.1-14.47-17.41-15.58-10.22-2.12-21.28,2.99-27.68,11.02-6.78,8.5,2.65,13.76,10.77,14.92,6.48,.92,12.71-1.52,18.82-3.29,5.64-1.64,10.85-3.38,15.5-7.07,.99-.79-.41-2.17-1.39-1.39Z"/><path class="cls-4" d="M-119.95,125.28c13.44-6.48,27.8-10.11,42.26-13.52,7.62-1.8,15.37-4.17,23.23-4.49,7.92-.33,15.41,1.96,22.46,5.4,11.92,5.81,22.66,13.59,34.89,18.83,12.79,5.48,27.19,8.18,38.16,17.21v-1.39c-5.4,6.01-15.19,5.34-22.25,8.44-8.03,3.53-14.72,9.39-21.78,14.46-6.91,4.96-15.31,7.7-21.89,13-7.48,6.03-11.52,15.78-22.28,16.63-10.43,.82-20.71-5.25-29.88-9.37-9.09-4.08-18.22-8.09-27.49-11.75-19.79-7.82-40.98-11.47-60.26-20.45-.31-.14-2.25-.84-2.7-1.29-4.12-4.14-.45-5.5,2.04-6.96,2.47-1.45,5.06-2.72,7.65-3.93,5.12-2.39,10.44-4.36,15.88-5.91,3.67-1.05,6.58-1.34,8.99-4.46,3.75-4.84,7.48-7.73,12.96-10.45,1.13-.56,.14-2.26-.99-1.7-4.03,2-8.22,4.1-11.19,7.59-1.13,1.33-1.86,3.18-3.12,4.38-2.42,2.3-7.36,2.74-10.47,3.74-4.45,1.43-8.81,3.14-13.05,5.11-3.73,1.74-9.6,3.66-12.08,7.17-4.49,6.35,8.02,9.81,11.75,11.4,10.99,4.69,22.69,6.9,34.05,10.5,11.98,3.79,23.65,8.48,35.17,13.47,10.1,4.38,20.05,9.83,30.58,13.11,8.23,2.56,16.92,2.78,23.83-3,3.49-2.92,6.1-6.71,9.27-9.93,4.2-4.27,9.41-6.45,14.62-9.18,9.61-5.03,17.39-12.76,26.78-18.13,5.09-2.91,10.24-4.26,15.89-5.49,4.35-.94,8.3-2.21,11.35-5.6,.33-.37,.43-1.04,0-1.39-10.82-8.91-24.64-11.72-37.31-16.99-13.99-5.82-26.04-15.24-39.96-21.1-6.25-2.63-12.83-4.21-19.64-3.92-7.46,.31-14.76,2.44-21.99,4.15-15.22,3.59-30.34,7.31-44.49,14.13-1.14,.55-.14,2.25,.99,1.7Z"/><path class="cls-4" d="M130.36,261.03c-2.98-9.05,15.16-6.59,19.17-4.75,1.14,.52,2.14-1.17,.99-1.7-5.5-2.52-25.86-4.57-22.06,6.98,.39,1.2,2.3,.68,1.9-.52h0Z"/><path class="cls-4" d="M158.07,259.74c2.04,.07,3.9,1.06,5.06,2.74,.72,1.03,2.42,.05,1.7-.99-1.57-2.27-3.99-3.62-6.76-3.72-1.27-.04-1.26,1.92,0,1.97h0Z"/></g></g><g><path class="cls-4" d="M142.52,53.11s-23.71-4.5-31.04-1.59-30.64,5.08-41.76,30.19c0,0-9.7,69.31-.36,94.28s48.67,52.76,63.94,51.13,34.66-2.4,37.14-11.1c2.48-8.7-5.63-1.13-24.67-4.71s-55.15-41.53-48.48-55.4,19.46-33.12,36.74-25.65,23.43,3.3,17.54-1.4c-5.89-4.7-13.01-8.24-13.01-8.24,0,0-5.33-1.63-12.93-2.57-4.75-.59-16.24-.36-20.65-1.76-2.65-.84,5.46-12.65,5.46-12.65-4.71,4.26-1.73,.76-4.71,4.26s-.89-22.94-1.31-11.47c-.42,11.47-7.91-7.65-1.03-17.96,6.88-10.31,36.2-5.42,36.2-5.42l10.27-17.18-7.33-2.75Z"/><path class="cls-4" d="M142.44,120.17c-.76-3.56-2.33-7.31-5.2-9.69-.03-.02-.05-.04-.08-.06-.94-1.07-2.05-1.98-3.34-2.65-1.85-.96-3.88-1.49-5.84-2.2-3.19-1.16-5.74-3.59-6.71-6.89-1.17-3.94,.34-8.08,.03-12.1-.15-1.95-.54-4.84-2.49-5.84-2-1.03-4.4,.9-5.94,2.06-1.77,1.33-3.16,2.9-3.9,5.02-.69,1.97-.71,4.2-.77,6.27-.09,3.79,.25,7.86,2.27,11.17,2.05,3.36,5.57,5.35,9.34,6.16,2.09,.45,4.26,.62,6.4,.62,2.18,0,4.57-.36,6.65,.48,.51,.2,.97,.47,1.39,.78,.09,.1,.17,.21,.26,.32,1.95,2.67,2.49,6.19,3.02,9.37,.18,1.1,1.54,1.71,2.53,1.43,1.01-.28,1.48-1.15,1.47-2.09,.67-.43,1.12-1.2,.91-2.18Z"/><g><path class="cls-5" d="M147.52,207.9s-6.08-2.61-8.03-6.08-3.69-15.85-3.69-15.85c0,0,3.47-.22,4.56-3.69,1.09-3.47,1.95-3.91,1.3-9.77-.65-5.86-5.21-15.2-4.56-18.67,.65-3.47,3.91-6.95,6.3-7.16s5.86,3.04,5.86,3.04c0,0,1.52,.65,2.82-2.61s-1.52-8.25-1.74-9.12,2.61-4.34,1.52-5.86-5.21-12.16-5.21-12.16l-7.16-18.02,2.39-5.43,5.21-.65,4.78,4.56,18.02-3.69,3.26,1.74,1.52,4.34-18.02,8.68,.22,3.91,1.3,7.38,5.43,10.78-.65,12.88-7.16,15.41-1.09,8.68s-3.04,16.07-2.82,21.06,8.9,12.59,8.9,12.59l-13.24,3.69Z"/><path class="cls-11" d="M152.62,67.33s10.85-6.19,16.5-4.88,8.58,1.74,9.55,.98,.54-2.39-.98-4.45c-1.52-2.06-6.4-15.41-9.66-18.24s-13.79-11.18-18.02-13.46-6.3-3.91-10.85-3.47-7.82,1.85-8.14,2.93-1.52,7.16,1.3,9.44c2.82,2.28,7.49,6.19,9.12,8.47s3.37,11.07,4.67,13.89c1.3,2.82,3.91,7.92,6.51,8.79Z"/><path class="cls-11" d="M176.03,81.62c3.18-4.49,3.76-5.07,2.32-5.93-1.45-.87-4.49-1.74-8.68-1.3s-8.25,0-10.28-.43c-2.03-.43-3.91-1.74-3.62-3.33,.29-1.59-1.45,0-1.45,0l-4.92-1.74-4.34-5.21,.29-2.89-4.92,8.11-1.74,2.03-2.89-3.76s-3.18-2.61-3.47-5.21c-.29-2.61-3.76-8.97-3.76-8.97l-4.34,1.45-6.95,21.42-13.89-17.37-7.82,3.47,2.89,32.13-22.58-9.26-5.21,17.37,18.45,18.16-19.97,6.95,.36,12.81,16.79,8.39-11.58,15.05,4.05,11,18.24-3.18-7.02,20.84,9.34,11.87,14.47-6.95-2.17,15.2,9.7,4.2,10.85-6.66,7.53,11,7.96-.29,3.18-8.83,8.54,4.34,5.07-2.89-.58-7.38s.29-1.45,.87-1.3c.58,.14,5.79,1.01,5.79,1.01,0,0,3.76-3.47,4.34-6.22,.58-2.75-.43-5.36-.43-5.36l-3.18-1.59-1.16-1.3-.43-1.01,5.43-10.71s-3.4-6.37-11.07-7.24c-7.67-.87-11-.87-13.75,.87s-5.79,11.43-6.37,14.04c-.58,2.61,.29,10.85,3.18,12.45,2.89,1.59,10.85,1.01,14.47-3.18s.83-10.19-1.77-9.76c-2.61,.43-3.44,6.58-5.75,5.27s-4.49-4.63-3.18-7.09c1.3-2.46,5.36-5.5,8.25-5.36,2.89,.14,5.36,1.3,6.22,3.33s2.46,6.51,1.88,8.83c-.58,2.32-1.59,7.96-6.66,10.57-5.07,2.61-15.78,12.45-36.76-1.16,0,0-14.47-13.03-19.25-25.76-4.78-12.74-7.24-23.88-7.24-23.88l-5.76-1.92c-1.05-.35-1.9-1.23-2.04-2.33-.02-.12-.02-.24-.02-.36h0c-.01-1.54,1.1-3.36,2.47-4.07,2.66-1.38,4.01-2.83,15.71-12.81,1.82-1.56,20.19-8.61,22.8-8.18,2.61,.43,11.61,4.18,13.17,5.5,.85,.72,4.41,2.33,8.17,5.39,1.42,1.16,1.96,.71,2.69,.71s4.07-.98,6.8,1.14c1.5,1.17,3.33,.29,1.88-2.03-1.45-2.32-3.04-3.33-3.04-3.33,0,0,1.58-.4,1.36-3.65-.2-2.88-3.3-2.73-3.5-2.63-2.11,1.05-5.02,1.47-8.42,1.37,0,0-.79-.25-2.08-.65-.58-1.72-1.68-6.59-1.14-8.39,.65-2.17,2.5-3.04,4.88-3.26,2.39-.22,5.43,4.67,5.43,4.67,0,0-.22-1.95-.33-4.23-.11-2.28-.76-6.19-5.64-8.36-4.88-2.17-14-.98-16.17-.87-2.17,.11-12.71,.04-11.72-.76,3.64-2.93,4.73-3.98,5.75-8.79,.83-3.87,1.6-7.12,1.65-9.39,0-.19,.16-.33,.35-.32,1.24,.09,1.63,.12,2.83,.27,6.37,.8,13.89-4.35,16.64-7.82l-5.36,7.09s1.59,.72,4.49,.14c2.89-.58,6.8-2.89,6.8-2.89,0,0-1.3,3.76-2.61,4.2,0,0,4.92-1.3,6.22-2.89,0,0-1.01,3.62-1.74,3.91-.72,.29,6.37-.87,6.95-2.61,0,0-.58,3.04-1.3,3.47,0,0,4.35-1.33,5.87-3.66-.29,.6-.66,1.46-.66,2.07,0,1.01,4.2,1.16,7.38-3.33Zm-45.01,27.17c3.15,.76,6.73,2.5,7.82,4.23,.85,1.37-.3,5.68-.84,7.46-3.44-1.02-6.88-2-9.15-2.54-6.08-1.45-8.54-2.46-13.03-2.32s-8.25-19.97-8.25-19.97c0,0,6.37-11.43,7.82-12.3,.15-.09,.41-.13,.76-.14-.27,2.05,2.93,4.36,2.93,4.36,0,0-.98,2.23-1.63,3.96-.65,1.74-.22,7.27,.87,10.53,1.09,3.26,9.55,5.97,12.7,6.73Z"/><path class="cls-10" d="M163.58,133.58s5.07-9.7,6.22-11.29c1.16-1.59,8.51-5.93,14.39-5.35,5.87,.58,0,0,0,0l3.24-1.93s-2.43,14.52-2.58,16.98-4.49,12.3-7.82,14.04-11.58,3.33-13.46,3.04-.72-9.26-.58-11.58,.58-3.91,.58-3.91Z"/><path class="cls-10" d="M158.26,157.1c.65-.22,25.29-4.88,25.29-4.88,0,0-.98,4.56-2.93,5.86s-8.14,4.23-8.14,4.23c0,0-4.12,.76-5.43-.11s-3.69-4.12-4.45-3.26-.65,2.82-.65,2.82c0,0-2.93-1.74-4.23-1.19s.54-3.47,.54-3.47Z"/><path class="cls-10" d="M116.82,154.65l11.81,5.92,5.43,5.21,2.39,7.27,.54,5.75-1.19,7.16s-11.61-1.63-11.94-2.39-9.23-10.1-9.23-10.1l-2.5-10.31,1.2-9.66,3.49,1.14"/><path class="cls-9" d="M166.08,64.58c.11,0,9.48,1.92,10.82,3.33s1.77,3.69,1.37,4.38-6.66,1.92-8.18,1.48-11.47-4.38-11.72-5.21,7.71-3.98,7.71-3.98Z"/><path class="cls-9" d="M187.43,115.01c-.51,.15-1.01,.31-1.52,.48-.41,.14-.94,.26-1.3,.51-.31,.22-.38,.58-.42,.93-.07,.52-.15,1.05-.23,1.57-.33,2.07-.76,4.12-1.28,6.14-.2,.23-.14,.76,.22,.56,.88-.49,1.74-1.02,2.56-1.61,.7-.5,1.32-.96,1.49-1.85,.2-.99,.25-2.04,.36-3.04,.13-1.11,.26-2.23,.39-3.34,.02-.17-.04-.41-.27-.35Z"/><path class="cls-9" d="M116.82,154.65c-.13-.16-.29-.09-.39,.07-.44-.57-1.22-.93-1.82-1.31-.51-.32-.84-.36-1.28,.11-.8,.85-1.21,2.04-1.06,3.2,.15,1.1,.75,2.13,1.66,2.76,1.07,.74,2.53,.9,3.42,1.91,.27,.31,.36,.64,.51,1.01,.09,.22,.22,.45,.44,.54,.4,.16,.77-.1,.87-.47,.06-.06,.1-.15,.11-.26,.12-2.72-.75-5.44-2.47-7.55Z"/><polygon class="cls-8" points="128.19 53.97 131.99 53.87 139.05 65.26 143.07 55.28 147.19 61.79 138.29 72.43 128.19 53.97"/><path class="cls-8" d="M132.64,26.29s-.65,4.12,3.04,8.14c3.69,4.02,7.38,7.38,7.38,7.38,0,0,.76-2.28-1.3-6.4-2.06-4.12,0-3.58,.98-2.5s2.93,2.17,3.58,5.54c.65,3.37,.11,10.53,.33,12.37s3.37,12.59,6.3,12.27,6.95-2.5,10.85-1.85l3.91,.65s-9.34,4.56-12.27,5.1-4.02,2.5-5.75-1.3c-1.74-3.8-6.73-22.47-11.51-25.18-3.12-1.78-7.92-4.99-5.54-14.22Z"/><polygon class="cls-8" points="126.46 53.83 122.33 53.83 115.6 67 108.22 57.01 103.73 58.82 116.25 75.68 126.46 53.83"/><polygon class="cls-8" points="95.85 62.3 98.6 92.91 97.44 94.14 75.58 84.66 77.83 80.82 91.43 86.25 92.73 84.95 90.93 65.34 95.85 62.3"/><polygon class="cls-8" points="70.23 102.31 89.7 118.67 89.91 120.84 67.99 129.16 69 123.37 79.13 120.12 79.56 117.58 69 107.67 70.23 102.31"/><polygon class="cls-8" points="69.72 140.6 86.15 148.27 86.73 150 74.57 163.17 73.56 156.66 78.26 152.17 78.04 150.22 69.79 146.6 69.72 140.6"/><polygon class="cls-8" points="78.98 173.52 97.22 171.5 97.51 172.15 90.06 193.13 87.09 187.34 91.72 177.07 91.07 176.06 80.43 178.08 78.98 173.52"/><polygon class="cls-8" points="98.74 203.34 113.94 196.68 114.95 198.13 111.91 213.03 108.73 209.85 109.16 203.77 108.15 203.34 102.36 206.96 98.74 203.34"/><polygon class="cls-8" points="121.32 216.51 131.45 209.42 133.62 210.28 140.86 221.28 133.91 220.13 131.74 215.78 128.99 216.22 126.82 218.25 125.23 218.97 121.32 216.51"/><path class="cls-8" d="M146.79,219.69l4.05-7.96h1.01l8.11,4.34-3.18,1.59-2.75-1.59-1.74,.29s-1.16,.87-1.16,1.3-.43,1.74-.43,1.74l-.58,1.3-3.33-1.01Z"/><polygon class="cls-8" points="163.29 212.46 163.87 205.36 165.03 204.35 170.82 205.51 163.29 212.46"/><polygon class="cls-8" points="170.38 191.47 174.73 178.73 177.33 183.36 174.29 186.84 174 189.59 175.59 191.32 177.19 192.77 178.34 196.1 177.04 197.11 170.38 191.47"/><circle class="cls-8" cx="99.43" cy="104.45" r="6.4"/><path class="cls-8" d="M114.52,83.72s-3.91,1.74-7.6,5.86c-3.69,4.12-5.64,9.34-5.64,10.42s-6.3,6.95-6.51,9.12,.87,8.03,2.39,9.77,.55,5.03,.55,5.03c0,0,12.65-7.5,17.22-7.6,3.66-.08,4.39-3.3,4.42-3.74,.09-1.39-5.55-1.01-7.14-5.63-1.96-5.72-5.71-12.58,2.32-23.22Z"/><path class="cls-8" d="M107.57,181.84s-4.34-9.55-9.34-12.81-9.12-4.78-9.55-9.55c-.43-4.78-.33-9.55,1.97-9.7,.82-.05,2.29-.16,3.55-.22,1.42-.07,2.63-.03,3.43,.94,1.24,1.5,2.7,11.05,3.43,12.88,.43,1.09,6.51,18.45,6.51,18.45Z"/><circle class="cls-4" cx="162.57" cy="53.4" r="2.46"/><g class="cls-13"><circle class="cls-4" cx="162.55" cy="53.43" r="4.63"/></g><path d="M172.7,201.6c-1.09,2.17-2.82,2.61-5.21,6.08-.98,1.43-2.29,2.92-3.49,4.2-1.73,1.83-3.24,3.19-3.24,3.19,0,0-14.11,6.15-11.07,5.93,3.04-.22,12.01-2.97,14.84-6.01,0,0-5.07,12.66-36.33,9.84-31.26-2.82-56.31-54.08-58.62-59.48-2.97-6.95-6.32-40.73-3.47-60.35,2.87-19.75,8.47-39.08,29.09-47.54,20.62-8.47,38.21-4.99,47.33-4.34l.98-.25s-5.32-11.47-8.36-11.25c-3.04,.22-1.65,6.86-7.16,6.95-4.63,.07-2.17-8.47-4.99-9.12s-3.47,7.38-5.64,8.03-4.78-1.09-6.73-3.26c-1.95-2.17-2.39-.43-2.82,.22-.43,.65-1.3,5.64-3.47,6.08-2.17,.43-6.3-3.04-8.47-3.91-2.17-.87-2.82,8.68-4.12,9.77s-3.91-1.52-6.51-1.52-1.09,4.34-1.95,5.43c-.87,1.09-1.3,3.69-2.39,3.26-1.09-.43-5.21-2.82-6.51-2.39-1.3,.43,1.52,6.3,.22,8.47-1.3,2.17-4.99-.22-5.64,1.3-.65,1.52,2.39,4.56,.65,7.38-1.74,2.82-3.91,4.12-5.21,5.43-1.3,1.3,2.39,3.91,1.74,5.64s-3.04,1.09-3.69,2.17,1.52,1.74,2.39,2.82c.87,1.09,1.74,2.39-1.3,3.47s-.87,4.34-.22,4.99c.65,.65-2.24,3.47-3.33,4.56s3.76,3.47,2.46,4.99-4.34,1.74-4.56,4.12c-.22,2.39,2.82,2.39,3.47,4.78s-1.09,5.86-2.82,7.6c-1.74,1.74-.43,4.12,.87,4.78,1.3,.65,2.82,2.61,2.39,4.99-.43,2.39-4.34,4.34-3.91,4.99,.43,.65,4.56,5.21,4.99,6.95,.43,1.74-3.04,6.51-1.09,8.25s4.99,3.26,5.43,5.64c.43,2.39-3.04,7.6-2.39,8.47,.65,.87,3.47,.87,4.56,3.04,1.09,2.17,1.95,2.39,1.95,5.43s-1.3,4.99-.65,5.43c.65,.43,5.21,1.09,6.73,4.12,1.52,3.04,.43,9.55,1.3,9.99,.87,.43,7.16-1.09,7.82,.22,.33,.65,1.55,2.09,1.74,3.91s-.65,4.02-.22,4.56c.87,1.09,6.95-.22,7.82,1.3,0,0,1.52,2.82,2.17,5.86s-1.09,4.56-.22,5.43c.87,.87,6.95-1.95,9.12,.22,2.17,2.17,3.47,8.9,4.34,9.12s3.26-3.69,9.12-3.69c4.04,0,6.12,4.01,7.02,6.51,.24,.65,1.09,.79,1.52,.25,.77-.97,2.1-1.99,4.27-1.99,4.12,0,5.64,4.12,7.38,4.12s.43-2.17,3.69-3.91,4.34-2.61,6.95-1.09c3.32,1.94,4.53,6.34,4.51-2.07,0-1.7,1.23-3.16,2.9-3.4,2.74-.39,5.42-.24,6.26-2.35,.87-2.17-.65-5.86,2.82-6.3,3.47-.43,5.43-.65,5.43-3.91s2.17-6.08,2.17-6.08c0,0-1.52-8.25-2.61-6.08Z"/><path d="M141.6,222.41c-10.36,0-21.78-3.36-32.19-9.47-10.5-6.16-19.72-16.21-27.41-29.85-12.36-21.92-17.29-47.29-14.23-73.36,2.08-17.77,7.04-30.92,14.74-39.09,23.64-25.1,60.97-18.17,61.34-18.09l-.47,2.42c-.36-.07-36.38-6.73-59.08,17.37-7.33,7.78-12.07,20.46-14.09,37.69-2.99,25.55,1.83,50.39,13.93,71.86,7.48,13.26,16.4,22.99,26.51,28.93,28.69,16.85,50.28,7.89,60.05-4.9l1.96,1.5c-7.44,9.74-18.09,14.93-30.81,14.99-.09,0-.17,0-.26,0Z"/><path d="M108.37,57.01c1.79,2.35,5.2,6.95,6.97,9.24,.12,.1,.34,.04,.39-.09l.3-.72,5.3-12.8,2,.93-6.3,12.32-.2,.39c-.22,.59-.81,1.12-1.5,.98-.74-.1-1.03-.94-1.41-1.47-1.18-1.86-4.34-6.85-5.56-8.77h0Z"/><path d="M103.52,58.46c2.36,3.06,8.31,10.8,10.58,13.76l1.76,2.29c.36,.5,.4,.51,.59,.46,.09-.03,.13-.14,.16-.22l.27-.67,8.77-21.42,2.02,.88-9.78,20.98c-.16,.3-.35,.88-.61,1.11-.15,.15-.33,.25-.52,.31-.38,.12-.82,.06-1.14-.19-.36-.31-.39-.48-.55-.68l-1.65-2.37c-2.11-3.03-7.74-11.12-9.91-14.25h0Z"/><path d="M131.48,52.44c2.06,3.27,5.54,8.78,7.56,12,.04,.06,.1,.17,.11,.18,0-.04-.04-.06-.09-.02-.13,.35,3.31-10.84,3.28-10.76l2.08,.73c-.03,.07-4.15,10.54-4.18,10.6-.38,.82-1.63,.91-2.1,.13-.26-.46-1.01-1.92-1.27-2.41-1.16-2.21-4.26-8.12-5.46-10.4l.06-.04h0Z"/><path d="M143.9,54.19c-.55-3.18-1.3-6.4-2.91-9.19-1.86-2.67-4.72-4.18-7.3-6.22-3.57-2.36-4.6-7.26-3.79-11.29,.63-3.33,4.49-4.69,7.42-4.97,10.37-1.36,17.53,6.51,25.35,11.67,6.13,4.12,9.69,11.04,12.5,17.64,1.37,2.97,3,5.8,4.43,8.77,1.08,1.94,1.93,5.38-.67,6.47-.45-.08-.58-.18-.66-.34-.61-1.12-1.67-1.89-2.82-2.41-6.28-2.54-13.88,1.06-19.66,3.71-1.15,.54-2.75,1.17-4.21,.9-.9-.19-1.3-.56-1.71-.86-2.02-1.75-3.31-3.83-4.67-6.03-.01,0,2.68,.13,2.68,.13l-7.87,10.76c-.84,1.16-2.76,1.1-3.53-.11-2.69-5.23-6.99-13.87-9.69-19.2l1.96-1.02c1.79,3.33,6.35,11.81,8.08,15.03,.41,.74,1.56,2.91,1.95,3.62-.24-.4-.84-.34-1.06,.05,1.03-1.5,8.15-11.81,8.97-13,1.58,2.54,3.19,5.94,5.41,7.77,1.39,.22,3.47-.97,4.84-1.43,6.26-2.44,15.61-5.22,21.14,.05,.45,.47,.83,1.02,1.1,1.62,.1,.19,.12,.46-.24,.77,.44-1.92,.49-3.39-.34-5.06-1.58-3.17-3.48-6.2-5.06-9.4-3.06-6.77-6.89-13.63-13.49-17.44-5.37-3.62-10.15-8.21-16.34-10-2.93-.59-6.21-.77-9.03,.26-1.32,.56-2.33,1.15-2.65,2.57-.51,2.34-.26,5.11,.82,7.24,1.73,2.58,4.8,4.13,7,6.48,3.36,3.16,3.92,8.13,4.07,12.48h0Z"/><path d="M141.17,32.13c3.77-.2,6.51,3.58,6.69,7.13,.33,2.48-.11,5.1-.56,7.51-.14,.8-.34,1.52-.67,2.43-.7-.7-.92-1.65-.99-2.5-.47-5.27,1.78-12.02-4.47-14.57h0Z"/><path d="M161.7,42.9s-2.03-1.37-1.3-3.4,2.89-2.82,2.89-2.82l1.37,1.66s-.87-.22-1.95,1.16c-1.09,1.37-1.16,2.1-1.01,3.4Z"/><path d="M151.13,53.03c-.21,3.5,1.6,6.92,4.74,8.46l-.25-.1,.73,.09-.32,1.61c-.15-.04-.77-.21-.9-.25-3.16-2.12-4.79-6.11-4-9.82h0Z"/><path d="M154.5,51.51c-.21,3.5,1.6,6.92,4.74,8.46l-.25-.1,.73,.09-.32,1.61c-.15-.04-.77-.21-.9-.25-3.16-2.12-4.79-6.11-4-9.82h0Z"/><path d="M170.23,50.65c.79,3.71-.85,7.7-4,9.82-.13,.04-.76,.21-.9,.25l-.32-1.61,.73-.09-.25,.1c3.14-1.54,4.95-4.96,4.74-8.46h0Z"/><circle class="cls-1" cx="163.91" cy="52.06" r="7.71"/><path d="M162.57,55.69c-1.26,0-2.29-1.03-2.29-2.29s1.03-2.29,2.29-2.29,2.29,1.03,2.29,2.29-1.03,2.29-2.29,2.29Zm0-3.76c-.81,0-1.47,.66-1.47,1.47s.66,1.47,1.47,1.47,1.47-.66,1.47-1.47-.66-1.47-1.47-1.47Z"/><path d="M165.97,50.09c-.45-1.2-1.87-1.71-2.97-2.13-.7-.27-1.43-.43-2.18-.35-.39,.04-.77,.12-1.14,.21-.38,.09-.72,.24-1.09,.37-.2,.06-.17,.29-.09,.44,.05,.08,.11,.16,.2,.2,.03,.01,.27,.02,.25,0l.08-.12c.54-.24,1.21-.35,1.79-.39,.71-.05,1.38,.12,2.04,.38,.98,.38,2.24,.82,2.65,1.89,.07,.17,.28,.1,.38,0,.14-.14,.17-.34,.1-.51Z"/><path d="M92.17,64.73l1.14,18.85,.04,.59c.21,1.84-1.9,3.22-3.48,2.29-2.72-1.27-10.02-4.68-12.83-6l8.77,3.49,4.39,1.75c.63,.29,1.23,.21,1.7-.24,.51-.46,.41-1.17,.31-1.78l-2.24-18.75,2.2-.2h0Z"/><path d="M75.58,84.66l13.06,5.66,6.53,2.83c.53,.21,1.13,.55,1.53,.58,.79,.09,1.54-.6,1.51-1.39,0-.24-.21-1.88-.24-2.16l-3.24-28.29,2.2-.21,2.14,28.4c.01,.1,.15,1.98,.15,2,.15,1.44-1.19,2.77-2.63,2.54-.65-.08-1.22-.48-1.77-.72l-6.42-3.08-12.83-6.17h0Z"/><path d="M70.93,101.75c3.22,2.75,11.34,9.67,14.45,12.32,.8,.68,2.84,2.42,3.61,3.08,.4,.36,.97,.75,1.24,1.25,.92,1.45,.05,3.51-1.57,3.9-.47,.17-1.77,.57-2.26,.74-3.84,1.26-14.09,4.61-18.05,5.91,3.96-1.49,13.96-5.25,17.78-6.69l1.48-.56c.35-.15,1.05-.34,1.32-.57,.85-.64,.82-1.99-.05-2.58-2.55-1.99-6.77-5.28-9.36-7.3l-9.98-7.79,1.4-1.71h0Z"/><path d="M68.2,123.59l6.88-2.26c.93-.34,2.49-.76,3.36-1.14,.98-.5,1.16-1.96,.32-2.65l-.34-.3c-2.76-2.47-7.32-6.55-10.12-9.06l1.53-1.59c2.32,2.43,6.49,6.76,8.78,9.15l.63,.65c.83,.71,1.31,1.88,.96,2.94-.21,.71-.73,1.32-1.4,1.6-.59,.24-1.24,.33-1.81,.49-1.15,.28-7.51,1.85-8.79,2.17h0Z"/><path d="M69.39,139.23c2.93,1.46,10.33,5.15,13.16,6.56,.72,.37,2.59,1.28,3.29,1.64,1.31,.58,1.66,2.46,.64,3.47-3.28,3.41-9.01,9.32-12.35,12.78,2.14-2.48,7.53-8.75,9.59-11.15l1.6-1.86,.4-.46c.47-.53,.28-1.43-.39-1.68-2.03-.88-5.81-2.51-7.87-3.4l-9-3.89,.93-2h0Z"/><path d="M72.11,158.04l3.46-3.5,1.73-1.75c.84-.64,.77-1.79-.21-2.11-2.05-.87-5.85-2.48-7.93-3.37l.98-1.98c1.43,.81,5.05,2.85,6.43,3.63,.24,.14,1.18,.65,1.39,.79,.82,.53,1.17,1.64,.82,2.54-.15,.46-.57,.86-.92,1.12l-1.92,1.55-3.83,3.09h0Z"/><path d="M90.2,192.63l6.67-19.57,.2-.59c.08-.26-.17-.54-.42-.49l-2.55,.35c-3.26,.45-11.99,1.66-15.35,2.13l-.25-2.19c3.43-.29,12.13-1.03,15.45-1.31l2.58-.22c1.1-.11,2.01,1.05,1.62,2.07l-.25,.63-7.71,19.18h0Z"/><path d="M87.02,187.71c.72-1.85,2.53-6.52,3.22-8.31,.17-.46,.64-1.63,.81-2.08,.03-.11,.19-.42,.17-.53,0-.21-.2-.41-.37-.39-2.5,.64-7.26,2-9.8,2.69l-.49-2.15c2.55-.45,7.38-1.32,9.88-1.76,1.25-.29,2.35,1.14,1.72,2.24-.29,.6-.86,1.71-1.16,2.32-.85,1.7-3.1,6.22-3.97,7.97h0Z"/><path d="M111.77,212.46c.48-2.78,1.69-9.79,2.16-12.47,.02-.12,.4-2.31,.4-2.34,.08-.43-.4-.8-.78-.58l-.47,.23c-3.87,1.92-10.25,5.09-14.17,7.04l-.92-2.01c4.07-1.7,10.59-4.43,14.6-6.1l.49-.2c1-.47,2.28,.33,2.25,1.44,0,.44-.51,2.22-.6,2.68-.63,2.62-2.32,9.6-2.97,12.3h0Z"/><path d="M108.73,211.3c.06-1.35,.19-4.77,.25-6.08l.04-1.01c.01-.4-.45-.69-.76-.47-1.34,.99-4.08,3-5.45,4l-1.18-1.86c1.19-.65,4.2-2.28,5.34-2.9l.45-.24c1.14-.79,2.82,.2,2.56,1.58l-.18,1c-.23,1.27-.84,4.67-1.07,5.99h0Z"/><path d="M119.82,216.04c2.4-1.53,7.31-4.7,9.65-6.2,1.8-1.44,4.19-.9,5.17,1.19l.46,.76,1.82,3.02,3.65,6.04-4.11-5.74c-.39-.54-2.23-3.11-2.57-3.59-.6-1.1-1.88-1.77-3.02-1.09-.33,.21-1,.75-1.35,1.01-1.79,1.36-6.58,4.99-8.44,6.4l-1.26-1.81h0Z"/><path d="M124.49,217.8c1-.48,3.51-1.69,4.47-2.15l.75-.36c.87-.58,2.29-.41,2.85,.56,.51,1.07,1.34,3.58,1.79,4.71l-1.65-2.87c-.46-.7-.8-1.95-1.83-1.64-.27,.07-.91,.61-1.2,.79-.86,.61-3.17,2.23-4.06,2.86l-1.12-1.9h0Z"/><path d="M145.76,220.31c.7-1.56,2.47-5.49,3.14-6.99l.26-.58c.45-1.49,2.2-2.35,3.57-1.44,.55,.37,2.32,1.61,2.89,2.01l4.19,2.92c-1.95-1.06-5.65-3.1-7.56-4.13-.6-.32-1.43-.04-1.69,.58-.1,.28-.29,.86-.38,1.14-.5,1.55-1.85,5.69-2.37,7.29l-2.06-.79h0Z"/><path d="M149.25,219.42l1.2-2.18,.3-.55c.37-.76,1.19-1.32,2.01-1.35,1.03-.11,1.76,.66,2.44,1.27l1.87,1.64-2.19-1.19c-.63-.3-1.26-.87-1.96-.63-.67,.18-.79,.87-.94,1.43l-.69,2.39-2.04-.84h0Z"/><path d="M162.33,213.76c.09-1.39,.31-4.89,.4-6.24,.05-.45,.03-1.22,.15-1.67,.24-1.1,1.31-1.93,2.4-1.9,.65,0,1.5,.37,2.13,.51l4.01,1.14-.02,.1-4.12-.63c-.52-.05-1.45-.28-1.95-.24-.66,.08-1.19,.62-1.24,1.25-.03,.24,.07,1.17,.07,1.44,.08,1.33,.31,4.87,.4,6.24h-2.21Z"/><path d="M167.39,214.56c-.44,0-.88-.15-1.27-.45l-.16-.12c-.83-.63-1.29-1.86-1.22-3.21l.09-1.59c.06-1.09,.47-2.03,1.12-2.59,.45-.39,1.01-.57,1.57-.51,1.27,.14,2.21,1.44,2.28,3.17l.07,1.71c.06,1.51-.55,2.83-1.56,3.35-.3,.15-.61,.23-.93,.23Zm-.07-5.44c0,.07-.02,.14-.02,.21l-.09,1.59c-.02,.37,.04,.67,.12,.87,.05-.18,.09-.42,.08-.72l-.07-1.71c0-.09-.01-.17-.02-.25Z"/><path d="M174.58,196.5l-3.62-3.51-.45-.44c-1.03-.91-1.25-2.51-.57-3.69,.06-.12,4.53-9.75,4.78-10.28-.35,1.05-3.47,10.26-3.73,11.04-.22,.63,0,1.35,.55,1.73l.5,.39,3.98,3.09-1.45,1.67h0Z"/><path d="M175.15,192.44l-.83-.92c-.93-.78-1.51-2.43-.87-3.63,.08-.19,2.67-4.5,2.86-4.82l-1.53,4.7c-.15,.43-.22,.69-.19,.98,.09,.7,.36,.89,1,1.32l1.01,.71-1.46,1.66h0Z"/><path d="M148.4,207.54c-5.03,0-8.84-4.22-10.69-8.55-1.66-3.9-2.36-8.2-2.72-12.4-.07-.53,.31-.9,.75-1.08,5.99-2.66,5.78-10.32,4.44-15.79-.44-2.07-1-4.12-1.66-6.15-.9-3.24-2.66-6.17-2.7-9.73,.43-3.49,3.88-6.86,7.28-7.67,2.64-.6,5.38,1.09,6.57,3.44l-.85-.62c1.99,.05,2.55-2.29,2.58-3.97,.21-5.32-4.33-9.39-8.83-11.62-2.7-1.32-5.59-2.72-8.55-3.15-2.94-.36-6.03,.3-8.82,1.29-2.38,.74-4.42,2.34-7.16,2.38l-.42-.05-.26-.04c-1.09-.18-1.88,.25-2.61,1.17-3.15,4.6-6.23,9.98-11.62,12.42-1.54,.56-3.01,1.06-4.52,1.59-.57,.28-1.29,.05-1.49-.57-.11-.31-.06-.65,.11-.9,.58-.91,1.1-1.98,1.46-3.02,.32-1.05,.65-2.27-.01-3.27,1.45,1.28,1.13,3.57,.95,5.31-.09,.62-.2,1.21-.37,1.86l-1.38-1.48c1.49-.53,3.03-1.05,4.48-1.58,4.03-1.87,6.81-6.01,9.29-9.66,1.05-1.86,2.75-4.25,5.3-4.11,.42,0,.83,.09,1.24,.13,.47,.04,1.16-.17,1.84-.43,2.86-1.21,6.04-2.65,9.22-3.08,3.26-.65,6.88-.1,9.9,1.21,4.57,1.88,9.21,4.16,12.16,8.31,2.04,2.83,2.9,6.6,1.89,10.01-.52,1.96-2.49,3.72-4.67,3.44-.39-.04-.69-.29-.85-.62-.76-1.4-2.44-2.61-4.12-2.22-2.33,.54-5.16,3.19-5.53,5.66,.11,2.96,1.77,5.95,2.59,8.9,1.18,3.67,2.13,7.46,2.49,11.32,.59,5.17-1.44,11.35-6.67,13.39l.75-1.08,.09,3.26c.35,7.03,2.85,16.69,11.11,17.62,.04,0,.08,.03,.08,.08,0,.04-.03,.07-.07,.07h0Z"/><path d="M144.15,127.46c-9.41-5.58-18.66-5.13-28.5-1.01-4.61,1.92-9.27,4.16-12.93,7.63-3.84,3.31-7.54,7-12.08,9.34,4.95-2.89,8.82-7.29,12.95-11.21,5.43-4.58,11.89-7.93,18.7-9.96,7.43-2.25,16.66-.95,21.86,5.21h0Z"/><path d="M90.64,149.79l4.04-.28c1.36-.22,2.83,.43,3.47,1.68,.33,.62,.38,1.32,.55,1.96l.45,1.97c1.6,6.54,3.56,13.01,5.98,19.28,1.97,4.97,4.16,9.95,7.51,14.14,10.16,13.02,23.74,23.54,40.81,16.79,5.3-2.04,10.67-5.91,12.22-11.58,.83-4.11,.57-9.51-2.8-12.34-4.02-3.77-9.77,.74-10.93,5.05-.47,1.68-.15,5.08,2.19,4.49,.69-.14,1.3-1.36,1.92-2.57,.69-1.37,1.79-2.98,3.56-3.18,3.25-.52,5.06,3,5.13,5.75,.13,1.98-.92,3.89-2.09,5.31-3.04,3.84-11.87,6.72-16.1,3.66-5.58-4.4-3.89-14.52-1.68-20.3,1.35-3.55,4.03-7.19,7.89-8.46,.51-.23,.72-.83,.59-1.35-.46-3.63,.88-7.18,2.04-10.41,.97-2.58,2.29-5.11,3.81-7.39,.74-1.14,1.47-2.21,1.84-3.27,.42-1.19,.35-2.15,.14-3.45-.21-1.39-.24-2.91-.09-4.31,.14-2.18,.84-4.08,1.08-6.24,.16-2.15-.48-4.19-1.95-5.83l-.04-.04c-.05-.06-.04-.14,0-.19,1.15-1.15,1.64-3.07,.7-4.46-1.49-1.88-7.38,.36-9.76,.38-1.81,.16-3.66-.15-5.44-.46-6.93-1.29-13.21-4.78-20.05-6.1-4.93-.95-10.09-1.19-14.92,.24-7.86,3.44-14.2,9.46-21.37,14.43,2.15-2.82,4.59-5.38,7.17-7.79,3.96-3.61,8.21-7.09,13.33-9.05,5.25-1.59,11-1.34,16.28-.18,8.53,1.72,16.09,7.17,24.89,7.45,2.73,.12,8.74-1.97,10.5,.69,.98,1.73,.27,3.87-1.16,5.07l-.03-.24c1.75,.37,3.17,1.82,3.74,3.52,1.09,3.2-.39,5.9-.63,9.04-.31,2.08,.21,3.84,.24,5.97-.02,2.27-1.42,4.44-2.55,6.1-1.47,2.21-2.68,4.49-3.62,6.95-.93,2.45-1.79,5-2,7.47-.06,.73-.02,1.4,.08,2.07,.09,.87-.16,1.78-.71,2.47-.44,.57-1.07,.95-1.74,1.17-3.08,1.16-5.02,3.96-6.26,7.03-2.16,5.18-4.29,18.56,4.07,18.69,2.49-.11,5.11-.67,7.27-1.88,3.12-1.68,5.7-5.2,3.87-8.68-.46-.92-1.19-1.5-2.21-1.38-1.76,.4-2.1,2.62-3.13,3.98-.93,1.58-3.06,2.4-4.77,1.41-2.24-1.38-2.46-4.37-1.89-6.59,1.55-5.61,8.89-10.64,13.92-5.9,3.9,3.4,4.22,9.28,3.22,14.02-1.73,6.24-7.51,10.39-13.28,12.55-17.75,6.78-31.7-3.95-41.97-17.61-3.34-4.31-5.48-9.39-7.39-14.45-1.87-5.07-3.43-10.26-4.75-15.49-.5-1.89-.93-4-1.34-5.93-.18-1.32-.55-2.7-1.87-3.3-.59-.31-1.27-.37-1.94-.31l-4.04,.2h0Z"/><path d="M142.19,157.38c-2.85,0-5.31-1.29-5.45-1.37-.6-.32-.83-1.07-.51-1.67,.32-.6,1.06-.83,1.67-.51,.05,.03,3.64,1.88,6.43,.67,1.46-.64,2.5-2.06,3.1-4.25,.18-.66,.86-1.04,1.51-.87,.66,.18,1.04,.86,.87,1.51-.8,2.95-2.32,4.92-4.51,5.87-1.02,.44-2.08,.61-3.1,.61Z"/><path d="M119.33,112.56l-.67,3.53-2.85-.17s2.5,.41,3.51-3.36Z"/><path d="M99.45,146.09c2.3-2.8,4.49-6.24,4.22-10.05,1.14,3.9-.37,8.02-2.15,11.52-.97,1.6-3.26-.02-2.06-1.47h0Z"/><path d="M103.68,142.83c2.3-2.8,4.49-6.24,4.22-10.05,1.14,3.9-.37,8.02-2.15,11.52-.97,1.6-3.26-.02-2.06-1.47h0Z"/><path d="M107.26,139.57c2.3-2.8,4.49-6.24,4.22-10.05,1.14,3.9-.37,8.02-2.15,11.52-.97,1.6-3.26-.02-2.06-1.47h0Z"/><path d="M110.95,136.21c2.3-2.8,4.49-6.24,4.22-10.05,1.14,3.9-.37,8.02-2.15,11.52-.97,1.6-3.26-.02-2.06-1.47h0Z"/><path d="M120.23,126.27c-.99,2.62-2.23,5.81-5.17,6.77l.44-.32c-3.49,6.25-8.42,11.68-14.75,15.16-.62,.33-1.38,.1-1.72-.51-.35-.64-.08-1.45,.58-1.75,3.01-1.4,5.79-3.36,8.27-5.67,2.48-2.33,4.76-5.01,6.55-7.9,.09-.14,.24-.23,.39-.24,2.62-.53,4.16-3.34,5.4-5.53h0Z"/><path d="M122.62,125.69c.83,1.67,1.04,5.46-.99,6.4-.42,.17-1.09,.36-1.25-.24-.08-.31,.1-.62,.41-.7,1.1,.08,1.62-1.11,1.83-2.09,.19-1.08,.37-2.32,0-3.37h0Z"/><path d="M125.59,124.53c.83,1.67,1.04,5.46-.99,6.4-.42,.17-1.09,.36-1.25-.24-.08-.31,.1-.62,.41-.7,1.1,.08,1.62-1.11,1.83-2.09,.19-1.08,.37-2.32,0-3.37h0Z"/><path d="M128.77,124.24c.83,1.67,1.04,5.46-.99,6.4-.42,.17-1.09,.36-1.25-.24-.08-.31,.1-.62,.41-.7,1.1,.08,1.62-1.11,1.83-2.09,.19-1.08,.37-2.32,0-3.37h0Z"/><path d="M131.81,123.45c.83,1.67,1.04,5.46-.99,6.4-.42,.17-1.09,.36-1.25-.24-.08-.31,.1-.62,.41-.7,1.1,.08,1.62-1.11,1.83-2.09,.19-1.08,.37-2.32,0-3.37h0Z"/><path d="M131.45,123.81c.56,.29,.74,1,.92,1.57,.59,1.98-.19,4.51-2.57,4.64-.31,.03-.59-.19-.62-.51-.04-.34,.24-.64,.58-.62,1.87,.2,2.54-1.91,2.33-3.46-.08-.56-.15-1.25-.64-1.62h0Z"/><path d="M134.85,124.02c.56,.29,.74,1,.92,1.57,.59,1.98-.19,4.51-2.57,4.64-.31,.03-.59-.19-.62-.51-.04-.34,.24-.64,.58-.62,1.87,.2,2.54-1.91,2.33-3.46-.08-.56-.15-1.25-.64-1.62h0Z"/><path d="M136.95,130.1c1.08-.09,2.05-.78,2.16-1.89,.1-.77-.06-1.95-.68-2.43l.1-.92c.01-.1,.1-.18,.21-.17,1.27,.62,1.25,2.47,.92,3.65-.31,1.19-1.54,1.87-2.7,1.75h0Z"/><path d="M141.58,126.48c1.39,.87,1.47,3.7,.14,4.73-.52,.41-2.24,1.2-2.43,.19-.05-.36,.26-.67,.62-.64,.47,.02,.93-.02,1.32-.24,1.2-.66,1.41-3.16,.35-4.05h0Z"/><path d="M144.33,127.64c1.39,.87,1.47,3.7,.14,4.73-.52,.41-2.24,1.2-2.43,.19-.05-.36,.26-.67,.62-.64,.47,.02,.93-.02,1.32-.24,1.2-.66,1.41-3.16,.35-4.05h0Z"/><path d="M147.44,129.45c1.39,.87,1.47,3.7,.14,4.73-.52,.41-2.24,1.2-2.43,.19-.05-.36,.26-.67,.62-.64,.47,.02,.93-.02,1.32-.24,1.2-.66,1.41-3.16,.35-4.05h0Z"/><path d="M150.77,131.84c1.39,.87,1.47,3.7,.14,4.73-.52,.41-2.24,1.2-2.43,.19-.05-.36,.26-.67,.62-.64,.47,.02,.93-.02,1.32-.24,1.2-.66,1.41-3.16,.35-4.05h0Z"/><path d="M157.79,122.68c-.82-3.54-1.71-8.57-2.66-11.99-1.01-5.27-5.77-7.32-10.74-7.07-7.04-.21-14.62-.48-21.63-.9-.38,0-.71-.31-.68-.7,.02-.3,.25-.55,.53-.6,3.78-1.66,5.33-6.64,6.36-10.35l.42-1.82-.26,1.86c-.72,4-1.8,8.46-5.2,11.06-.31,.2-.55,.38-1.01,.53l-.14-1.3c8.16-.02,16.68-.05,24.84,.31,4.53,.46,8.68,3.91,9.35,8.51,.91,4.13,1.28,8.24,1.4,12.4,0,.34-.5,.43-.59,.07h0Z"/><path d="M138.02,102.09c-.5-3.74,2.78-6.32,6.01-7.4,3.73-1.31,7.01,2.09,8.72,4.95,0,.01,.02,.03,.03,.04-.11-.19-.34-.35-.54-.39,.25,.01,.66-.04,1.03-.1,5.03-.94,9.99-2.46,14.92-3.86,2.15-.17,4.54,.77,5.89,2.52,1.01,1.22,1.51,2.87,1.46,4.43v1.34c0,.45-.27,.84-.66,1.01l-17.64,7.78-.19,.08c-.47,.2-1.01-.02-1.21-.48-.13-.45-.38-1-.7-1.48-.61-.92-1.44-1.71-2.44-2.21-.51-.28-1.07-.45-1.66-.61,2.24-.21,4.5,.74,6.05,2.37,.24,.26,.45,.47,.69,.84l-1.44-.52,17.64-7.78-.66,1.01v-1.34c.09-1.83-.97-3.63-2.67-4.35-.67-.32-1.31-.36-2.27-.45l.42-.04c-4.3,1.25-8.58,2.48-12.95,3.49-1.32,.25-2.57,.65-3.98,.54-.38-.05-.77-.28-.97-.61-1.42-2.13-3.4-4.93-6.24-4.06-1.87,.72-4.27,1.99-4.46,4.23-.03,.29-.01,.54,0,.94l-2.2,.12h0Z"/><path d="M102.3,99.62c-1.73-1.41-3.76-.19-5.34,.82-.84,.54-1.57,1.21-2.01,2.13-.44,.93-.66,2.06-.6,3.09,.06,1.07,.39,2.42,1.48,2.65,4.14,.88,5.61-1.48,6.56-3.33,.49-.95,1.06-2.03,1.03-3.13-.03-.86-.46-1.69-1.12-2.23Z"/><path d="M101.36,114.73c-.11-.68-.35-1.28-.96-1.65-.68-.41-1.43-.72-2.24-.6-.73,.12-1.48,.44-2.12,.8-1.27,.72-1.78,2.56-1.36,3.92,.2,.66,.64,1.24,1.27,1.55,.33,.16,2.28,.49,2.44,.46,1.25-.22,2.32-1.16,2.78-2.34,.27-.69,.3-1.43,.19-2.15Z"/><circle cx="103.99" cy="107.89" r="1.73"/><circle cx="104.89" cy="112.59" r="2.14"/><path d="M103.53,120.85s.39-4.03,1.44-4.57,2.06-.9,2.86-.29c1.1,.85,.58,2.53-.22,2.75s-4.08,2.11-4.08,2.11Z"/><path d="M175.52,177.07s-1.52-7.06-2.61-7.6-3.26,3.04-3.26,3.04c0,0-.33-4.99-1.85-6.08s-3.58,3.91-3.58,3.91l-2.5,.11s.11-4.56-2.5-4.67-.76,5.54-.76,5.54c0,0,14-3.69,17.04,5.75Z"/><path d="M160,168.38s3.26-1.09,5.1-.33,7.82,4.34,9.77,7.16c1.95,2.82-8.14-4.88-10.64-4.88s-4.12,.33-4.12,.33l-.11-2.28Z"/><path d="M158.73,204.08c-.36,0-.71-.15-.95-.45l-2.67-3.23c-.43-.52-.36-1.3,.17-1.73,.52-.43,1.3-.36,1.73,.17l2.67,3.23c.43,.52,.36,1.3-.17,1.73-.23,.19-.51,.28-.78,.28Z"/><path d="M163.15,164.48c-.51,0-.98-.32-1.16-.81,0-.02-.49-1.12-2.35-1.89-1.56-.64-3.18,1.34-3.2,1.36-.35,.45-.96,.59-1.48,.36-.52-.24-.8-.8-.7-1.36,1.04-5.35,7.06-8.61,16.51-8.96,7.57-.28,13.45-3.3,13.51-3.33,.25-.13,.53-.17,.81-.12,.43,.09,.79,.39,.98,.81,.32,.73,.19,1.78-1.47,4.51-2.29,3.76-9.82,8.24-13.39,8.55-3.57,.31-4.5-.54-6.75-2.58l-.24-.22c.23,.92,.24,1.88,.15,2.59-.07,.57-.52,1.01-1.08,1.07-.05,0-.09,0-.14,0Zm-.69-7.4c1.31,.02,2.52,1.09,2.96,1.49l.7,.63c2.07,1.88,2.39,2.17,4.88,1.95,2.86-.25,9.64-4.32,11.5-7.37,.14-.22,.26-.43,.37-.62-2.58,.99-6.91,2.31-12.01,2.49-3.33,.12-6.16,.61-8.4,1.43Zm-3.47,2.11c.39,0,.8,.06,1.2,.18-.02-.13-.02-.27,.01-.41,.07-.36,.26-.79,.59-1.15-.8,.41-1.49,.88-2.07,1.39,.09,0,.18,0,.27,0Z"/><path d="M118.42,162.52l17.58,23.43-.47,.07c1.8-7.05,1.2-15.37-3.12-21.4-3.48-4.4-9-6.56-14.15-8.5-1.84-.78-3.84-1.23-5.3-2.74l1.19-.26c-1.31,6.68-2.56,16.45,2.43,21.77,4.83,5.77,11.4,10.64,19.19,10.25,1.45-.02,1.53,2.13,.07,2.21-8.45,.28-15.59-5.04-20.61-11.31-2.82-3.01-3.69-7.44-3.75-11.42-.07-4.01,.45-7.94,1.36-11.83,.08-.36,.45-.58,.8-.5,.16,.04,.29,.13,.38,.25,.18,.24,.55,.49,.91,.71,8.15,3.86,17.9,6.11,20.8,15.97,1.79,5.46,1.88,11.44,.29,16.97-.04,.14-.19,.22-.32,.18-.18,.03-17.17-23.78-17.3-23.85h0Z"/><path d="M162.72,146.72c2.63-4.34,6.22-7.83,9.65-11.49,3.44-3.54,6.95-6.99,10.53-10.37-3.32,3.63-6.56,7.34-9.71,11.1-3,3.73-6.29,7.47-8.49,11.72-.62,1.42-2.72,.4-1.98-.97h0Z"/><path d="M172.92,127.79c.52,3.55-.83,7.21-1.73,10.63l-.92-.66c3.3-2.39,6.53-4.92,10.14-6.82-3.39,2.23-6.36,5.04-9.39,7.72-.45,.42-1.17-.11-.92-.66,1.24-3.25,2.95-6.65,2.83-10.21h0Z"/><path d="M90.89,105.11c-.23-.33-.61-.43-1-.4-.37,.03-.74,.14-1.09,.25-.37,.12-.74,.28-1.06,.5-.32,.22-.59,.51-.75,.87-.21,.45-.19,.94-.1,1.42,.08,.42,.19,.89,.5,1.21,.14,.14,.33,.22,.53,.21,.17,0,.78-.06,1.07-.37,.37-.4,.7-.83,1.05-1.24,.31-.37,.64-.73,.84-1.17,.18-.39,.27-.9,0-1.27Z"/><path d="M87.88,99.04c-.32-.25-.68-.46-1.09-.52-.35-.05-.73,.05-1.01,.28-.68,.56-.56,1.55-.23,2.27,.16,.35,.41,.69,.73,.9,.18,.12,.37,.2,.58,.23,.17,.03,1.06,.01,1.35-.14,.37-.19,.6-.57,.68-.97,.16-.85-.38-1.56-1.01-2.06Z"/><path d="M94.06,99.53c-.13-.72-.76-1.33-1.5-1.33-.11,0-.2,.08-.26,.18-.06,.02-.12,.03-.19,.06-.16,.07-.3,.16-.44,.28-.27,.23-.49,.52-.61,.86-.23,.65-.11,1.39,.34,1.92,.22,.26,.57,.49,.92,.49,.38,0,.72-.23,1-.47,.55-.48,.86-1.26,.73-1.99Z"/><path d="M97.28,155.9c-.09-.89-.21-1.78-.99-2.33-.74-.52-1.72-1.06-2.65-1.05-.83,.01-1.61,.46-2.16,1.06-.64,.7-.98,1.61-1.13,2.53-.15,.98-.19,2.06,.02,3.03,.2,.96,.78,1.79,1.6,2.32,.29,.19,3.07,.33,3.71-.23,.7-.62,1.25-1.36,1.5-2.27,.28-1,.2-2.05,.1-3.07Z"/><path d="M93.75,166c.16-.6,0-1.27-.32-1.79-.27-.44-.71-.83-1.25-.8-.6,.03-1.08,.51-1.11,1.11-.03,.6,.41,1.11,.88,1.41,.27,.18,.56,.31,.88,.38,.16,.04,.33,.06,.49,.07,.19,0,.44,0,.44-.24,0-.04,0-.08-.02-.11,0,0,0-.02,.01-.03Z"/><path d="M99.74,163.79c.02-.41-.03-.82-.13-1.22-.1-.4-.24-.8-.63-1-.18-.09-.38-.14-.55-.25-.2-.13-.37-.26-.62-.22-.38,.05-.72,.38-.91,.7-.41,.7-.38,1.57-.11,2.31,.16,.45,.4,.85,.7,1.22,.14,.17,.3,.33,.47,.47,.08,.07,.17,.14,.26,.2,.18,.12,.27,.16,.49,.17,.21,.01,.24-.18,.2-.34,.52-.55,.78-1.29,.82-2.04Z"/><path d="M102.93,176.38c-.34-.76-.92-1.68-1.88-1.59-.99,.1-1.34,1.28-1.31,2.13,.03,.87,.44,1.74,1.16,2.24,.39,.28,.84,.45,1.31,.51,.12,.02,.24,.02,.37,.02,.16,0,.45,0,.58-.06,.2-.09,.18-.3,.08-.46,.31-.94,.09-1.91-.3-2.8Z"/><path d="M104.36,184.72c-.05-.41-.09-.88-.27-1.26-.16-.35-.53-.54-.85-.73-.35-.21-.73-.38-1.14-.39-.81-.01-1.44,.66-1.36,1.48,.08,.81,.79,1.42,1.38,1.91,.32,.27,.69,.52,1.1,.63,.19,.05,.44,.1,.66,.07,.05,.09,.14,.15,.25,.11,.18-.06,.26-.27,.27-.44,.03-.46,.02-.92-.03-1.37Z"/><path d="M108.66,183.18c-.53-1.59-1.18-3.13-1.93-4.6-.11-.21-.31-.12-.4,.03-.02,.03-.03,.07-.05,.1-.01-.02-.02-.05-.04-.07-.16-.15-.33,.04-.4,.21-.53,1.23-.51,2.83,.08,4.08,.31,.65,.74,1.11,1.35,1.18,.28,.03,.55-.01,.83-.07,.19-.04,.4-.06,.46-.25,.11-.16,.17-.42,.1-.62Z"/><path d="M117.74,170.48l11.11,5.03-.79,.68-3.84-13.24,4.91,12.88c.2,.47-.36,.94-.79,.68l-10.6-6.04h0Z"/><path d="M147.05,63.59c.96,2.06,2.65,5.55,5.14,5.68,.49,0,1.07-.19,1.55-.33,2.36-.77,4.26-2.64,6.63-3.7,3.76-1.84,8.28-1.67,12.07-.25,2.54,.88,7.77,3.93,6.6,7.17-.3,.74-1,1.34-1.74,1.52-3.87,1.17-8.08,.3-11.64-1.33-2.29-1.07-4.7-1.97-6.81-3.37-.14-.11-.28-.31-.12-.5,.32-.3,.64,.28,.22,.37,.04,0,.08-.02,.11-.05,.07-.08,.07-.15,.04-.21,0,0,.03,.02,.06,.05,2.12,1.29,4.5,2.12,6.77,3.1,2.36,.98,4.87,1.64,7.39,1.59,1.26-.02,2.51-.21,3.68-.6,1.02-.27,1.49-1.52,.99-2.38-.63-1.01-1.59-1.82-2.63-2.47-4.17-2.45-9.74-3.06-14.01-.69-2.68,1.52-5.08,4.01-8.33,4.61-4.37,.76-7.09-3.75-8.65-7.1-.74-1.82,1.93-2.92,2.69-1.1h0Z"/><path d="M177.62,69.07c.4,.3,.97,.16,1.19-.28,.43-.86,1.08-2.19,1.46-2.98,.94-2.03,.05-3.8-.43-4.73-.11-.22-.44-.2-.53,.03-.44,1.12-1.75,3.25-5.02,1.63-.75-.37,3.18,2.57,2.93,3.58s-3.26,.04-3.26,.04l3.65,2.72Z"/><path d="M174.9,67.37c-3.5-2.27-7.98-2.89-11.9-1.41-2.5,.85-5.21,2.19-6.52,4.53-.21,.43-.52,1.18-.32,1.58,.18,.38,.82,.68,1.43,.86,1.27,.38,2.66,.52,4.05,.64,4.25,.52,8.29,.09,12.62,.14,1.73,.13,3.78,.08,5.06,1.62,.82,1.28,.52,2.98,.14,4.31-.43,1.45-1.09,2.78-1.85,4.04-1.8,2.87-5.16,6.76-8.84,6.96-1.22,.04-2.31-1.15-2.37-2.31l2.09,.35c-1.15,2.24-2.48,4.31-4.37,6.01-.84,.67-2.97,2.47-3.75,.77-.08-.22-.08-.44-.03-.65,.35-1.59,.58-4.03-.48-5.29l1.68-.05c-1.97,2.23-4.08,4.54-7.14,5.18-.6,.09-1.16-.31-1.25-.91-.04-.61,.28-1.16,.35-1.78,.18-1.06,.41-2.43-.11-3.36l1.73,.14c-1.67,1.73-3.42,3.3-5.55,4.46-.95,.47-3.42,1.66-3.75-.18-.06-.66,.43-.91,.8-1.4,1.03-1.32,1.46-3.05,1.24-4.71l1.97,.53c-.49,.62-.98,1.17-1.51,1.72-.96,1.2-6.49,5.82-7.26,2.89,.12-1.38,.59-3.55-.21-4.69l1.82-.12c-3.36,4.9-6.53,9.98-10.65,14.28-.3,.27-.6,.55-1.01,.73-.09,.04-.19,0-.23-.09-.04-.09,0-.19,.09-.23,2.31-1.99,3.7-5.02,5.34-7.58,1.58-2.71,3.1-5.47,4.56-8.24,.28-.52,.92-.72,1.45-.45,1.09,.83,1.22,2.33,1.29,3.53,.02,1.01-.08,1.92-.28,2.93l-1.21-1.33c1.83-.33,3.4-1.87,4.7-3.17,.87-.7,1.6-2.68,2.92-1.76,.24,.19,.38,.46,.41,.74,.33,2.6-.48,5.26-2.39,7.12l-.81-1.93c2.61-.49,4.81-2.77,6.67-4.59,1.41-1.2,2.26,.89,2.34,1.97,.18,1.64-.12,3.15-.57,4.71l-1.21-1.43c1.71-.34,3.2-1.73,4.45-2.95,.85-.68,1.58-2.51,2.85-1.59,1.86,2.02,1.6,4.94,1.1,7.43l-1.43-1.31c1.74-.65,3.3-2.71,4.36-4.38,.4-.64,.79-1.33,1.11-1.98,.47-.97,1.98-.66,2.07,.39,.02,.2,.08,.33,.1,.35,.4,.23,1.06-.06,1.68-.34,3.46-1.82,6.14-5.3,7.43-8.95,.28-.92,.52-1.88,.22-2.77-.05-.12-.12-.2-.24-.3-.9-.64-2.42-.75-3.59-.84-2.74-.17-5.55,.04-8.43-.09-2.33-.38-10.63-.22-10.63-3.37,.58-3.67,4.54-5.44,7.68-6.44,4.09-1.41,8.76-.7,12.32,1.74,.2,.16,0,.45-.22,.3h0Z"/><path d="M133.3,83.93c6.3,.48,11.98-3.46,15.96-7.99,.53-.58,1.5,.02,1.23,.75-.82,1.96-1.87,3.74-3.42,5.22-.88,.88-2.14,1.5-3.41,1.78,.01-.02,0,.04,.15-.15,.03-.04,.08-.15,.08-.23,.05-.18-.08-.5-.18-.55-.1-.07,0,0,.07,0,4.03,.65,8.73-.28,11.99-2.78,.31-.25,.77-.2,1.02,.11,.16,.2,.2,.47,.12,.7-.27,.76-.6,1.4-1.03,2.04-.7,1.15-2.27,2.34-3.55,2.53,.25-.15,.38-.51,.28-.81-.15-.33-.26-.38-.47-.46,1.68-.08,3.76-.65,5.36-1.45,1.15-.58,2.2-1.38,2.73-2.41,.18-.37,.63-.53,1-.34,.32,.17,.47,.54,.37,.87-.27,.87-.6,1.62-1.04,2.37-.76,1.32-1.88,2.56-3.32,3.18-.04,.01-.39,.18-.35,.16,.03-.03,.03-.02,.11-.14,.2-.3,.03-.84-.33-.95,.32,0,1.22-.12,1.73-.26,2.74-.7,6-2.09,7.11-4.81,.13-.39,.56-.59,.95-.45,.32,.12,.51,.44,.47,.77-.09,.85-.28,1.59-.55,2.35-.58,1.77-1.84,3.31-3.45,4.24,.28-.32,.03-.94-.39-1,1.56-.27,3.09-1.16,4.38-2.13,1.09-.86,2.01-1.92,2.5-3.14,.15-.38,.58-.57,.96-.42,.33,.13,.51,.47,.46,.8-.12,.78-.28,1.52-.48,2.28-.19,.81-.75,2.26-1.25,2.57,.22-.26,.18-.78-.12-.99-.09-.1-.39-.18-.46-.15,2.52-.84,4.94-2.28,7.01-3.93,1.1-.92,2.11-1.97,2.71-3.17,.44-.85,1.74-.21,1.31,.67-1.54,2.87-4.23,4.66-6.94,6.2-1.24,.65-2.43,1.29-3.8,1.66-.18,.02-.27,.07-.55-.02-.41-.13-.63-.66-.41-1.05,.09-.16,.18-.25,.26-.31,.23-.21,.34-.51,.5-.88,.37-.98,.59-2.07,.76-3.11l1.41,.38c-1.29,3.04-4.1,4.93-7.1,5.98-.63,.17-1.52,.51-1.99-.2-.19-.36-.12-.63,.04-.9,.22-.34,.67-.57,.94-.76,1.7-1.07,2.54-3.17,2.79-5.1l1.42,.32c-1.41,3.37-4.9,4.86-8.15,5.72-.79,.17-1.54,.36-2.38,.27-.22-.04-.43-.14-.59-.34-.28-.34-.14-.9,.17-1.13,.28-.23,.47-.27,.72-.39,1.82-.82,2.91-2.73,3.52-4.59l1.36,.53c-1.78,3.08-5.34,4.08-8.58,4.61-.62,.03-1.43,.27-1.75-.5-.13-.34,.08-.76,.35-.91,.33-.17,.42-.16,.7-.24,1.62-.43,2.67-1.99,3.25-3.52l1.16,.8c-3.33,2.58-7.57,3.43-11.7,3.28-.75-.09-1.5-.04-2.23-.55-.53-.45-.33-1.23,.25-1.48,.3-.16,.61-.2,.88-.28,2.62-.75,4.18-3.54,5.25-5.92l1.22,.77-1.77,1.62c-4.18,3.51-9.69,6.25-15.26,5.37h0Z"/><path d="M137.46,43.01c2.24,2.44,3.77,5.46,5.47,8.29,1.64,2.88,3.22,5.79,4.76,8.74l-2.07,.76-1.73-8.02c-.54-2.35-1.21-5.7-1.84-7.99,1.75,4.32,4.06,10.97,5.69,15.4l-2.07,.76c-1.19-3.06-2.43-6.12-3.74-9.15-1.37-2.98-2.54-6.12-4.48-8.78h0Z"/><path d="M156.68,117.69c-1.8-2.84-4.72-6.31-8.31-4.97-2.44,1.93-1.31,7.73-1.07,10.62-1.67-3.62-3.93-11.86,1.9-12.78,4.09-.45,7.24,3.25,8.04,6.92,.08,.33-.4,.5-.55,.21h0Z"/><path d="M138.61,112.37c-2.18-2.09-6.57-2.55-9.36-3.31-1.65-.42-3.3-.92-4.91-1.49-2.42-.93-5.42-1.96-6.79-4.52-1.89-4.14-1.74-8.99,.09-13.09,.71-1.58,1.69-3.11,3.05-4.19-.87,1.47-1.38,3.05-1.79,4.63-.91,3.8-.9,8.04,.55,11.65,1.14,1.99,3.45,2.8,5.56,3.78,1.52,.67,3.07,1.27,4.65,1.82,3.06,1.2,6.87,1.9,8.93,4.71h0Z"/><path d="M136.51,119.76c.7-2.45,.69-4.75-2.18-5.4-4.45-.58-8.97-.87-13.35-1.93-2.42-.6-4.99-1.23-6.97-2.81,2.2,1.21,4.71,1.47,7.14,1.8,3.7,.38,7.41,.51,11.13,.56,1.17,0,2.68,.01,4.1,.62,3.17,1.26,3.47,5.28,2.17,8.01-.6,1.29-2.52,.47-2.04-.85h0Z"/><path d="M112.56,107.67c-8.15-7.71-4.76-18.94,3.23-25.28,.27-.29,.74-.36,1.01-.02,.14,.17,.17,.4,.09,.6-.17,.47-.22,1.08-.17,1.6,.06,.59,.32,1.11,.76,1.53-.64-.19-1.17-.71-1.46-1.31-.31-.66-.42-1.31-.41-2.06l1.1,.58c-5.72,8.23-8.77,14.63-4.15,24.36h0Z"/><path d="M115.39,92.47c-2.07-.73-3.94-2.73-3.84-5.1-.01-.62,.48-1.13,1.1-1.15,.62-.01,1.13,.48,1.15,1.1,0,.14-.02,.28-.07,.41-.72,1.73,.32,3.54,1.66,4.74h0Z"/><path d="M115.21,97.95c-2.13,.53-4.79-.11-6.01-2.14-.35-.51-.23-1.21,.28-1.56,.51-.35,1.21-.23,1.56,.28,.08,.12,.14,.24,.17,.38,.35,1.84,2.22,2.77,4,3.04h0Z"/><path d="M115.23,102.4c-1.38,.72-3.2,1.06-4.77,.46-.96-.37-2.66-1.37-1.72-2.57,.4-.47,1.11-.53,1.58-.13,.11,.09,.2,.2,.26,.32,.81,1.69,2.86,2.11,4.65,1.92h0Z"/><path d="M116.62,107.6c-2.37-.33-5.48-.74-6.53-3.27-.1-.29,.05-.61,.35-.7,.29-.09,.6,.06,.69,.35,.59,2.24,3.49,3.02,5.5,3.62h0Z"/><path d="M123.35,110.2l-3.45,1.61c-.13,.06-.28,0-.34-.12-.07-.14,0-.31,.16-.35l3.64-1.14h0Z"/><path d="M130.94,111.14l-3.45,1.61c-.13,.06-.28,0-.34-.12-.07-.14,0-.31,.16-.35l3.64-1.14h0Z"/><path d="M161.06,138.69c-.54-2.2-1.51-4.73-3.91-5.35-.74-.22-1.68-.27-2.83-.21,.77-1.63,3.04-2.47,4.79-1.85,2.44,.71,4.05,3.11,4.44,5.52,.19,1.09,.39,3.03-1.26,2.99-.64-.03-1.11-.52-1.22-1.12h0Z"/><path d="M163.31,148.2c4.77,1.2,10.13-.17,13.73-3.54,2.14-2.07,3.79-4.66,5.26-7.25,2.08-3.54,2.12-7.62,2.84-11.6,.68-4.09,1.38-8.11,2.22-12.22l2.11,1.28c-.71,.54-1.33,.88-2.09,1.25-3.28,1.77-7.16,1.41-10.6,2.37-3.78,1.43-7.34,4.23-9.26,7.88-1.24,2.15-1.95,4.61-3.23,6.75-.21,.29-.43,.6-.76,.74,.32-.17,.51-.49,.69-.79,1.65-3.59,2.38-7.62,4.98-10.75,1.97-2.26,4.24-4.1,7.02-5.37,2.69-1.11,5.63-1.01,8.25-2.14,.92-.37,1.8-.82,2.6-1.38,.25-.17,.54-.39,.7-.54,.52-.48,1.33-.45,1.81,.07,.31,.34,.41,.8,.3,1.21-.93,3.93-1.78,8-2.57,12-.82,4.05-1.15,8.53-3.43,12.11-3.35,5.68-7.59,10.59-14.53,11.38-2.15,.23-4.26,.13-6.36-.48l.32-1h0Z"/><path d="M141.25,48.62l5,6.07c.55,.66,.66,1.54,.36,2.29l-5.78,14.77c-.24,.6-.7,1.05-1.25,1.28l-21.12,8.92,.95-3.56,5.65,7.38c.37,.49,.53,1.08,.47,1.64l-1.07,11.29-.56-1.76c2.29,2.55,4.63,5.31,7.3,7.43,.12,.09,.3,.18,.17,.12-.04-.01-.12-.04-.27-.07-.03,0-.11-.02-.16-.02h.01l.48,.02c3.74,.17,8.87,.81,12.62,1.1,1.22,.11,2.12,1.16,2.09,2.37l-.46,13.46-1.1-2.02s9.33,5.66,9.33,5.67c.76,.46,1.15,1.3,1.07,2.12l-1.11,12.59c-.14,2.07-2.98,2.77-4.08,1.06-3.16-4.42-7.93-7.97-13.22-9.23-11.56-2.61-21.95,5.39-29.65,13.32-14.09,14.15-18.75,29.41-2.94,44.49,8.53,8.06,19.44,13.74,30.38,17.88l-.49-.08c4.58,.07,9.25-.14,13.84-.61,6.02-.75,18.03-2.15,20.59-8.25,.16-.51,.24-.84,.28-1.4,.43-4.62,.82-9.27,.81-13.9,.1-1.01-.49-2.41,.68-2.89l4.58-1.83c.59-.25,1.27,.03,1.51,.62,.31,4.72,.1,9.48,0,14.21-.14,2.09-.42,15.61-3.24,14.23-.36-.22-.49-.66-.33-1.03,1.7-4.18,3.03-8.61,3.8-13.08,.84-5.36,1.32-11.74-2.48-16.08-5.66-6.02-14.65-7.66-21.83-3.24,5.82-3.97,14-3.77,19.69,.44,4.36,2.72,6.15,7.09,6.33,12.08,.26,7.05-1.56,13.95-3.98,20.52l-1.47-.76c.21-.35,.38-.86,.52-1.37,.88-3.83,.9-7.82,1.01-11.75,.06-4.55-.03-9.13-.23-13.67l1.59,1.02-4.54,1.93,.74-1.25c.32,4.79-.06,9.52-.37,14.29l-.14,1.76c-.08,2.04-1.18,4.14-2.62,5.49-7.07,6.7-25.76,7.93-35.28,7.71-18.23-6.58-45.21-21.17-42.99-43.87,1.06-9.62,7.2-17.6,13.61-24.42,12.58-13.69,30.8-22.59,46.33-7.54,1.2,1.2,2.26,2.38,3.24,3.81l-4.1,1.03,1.06-12.59,1.08,2.13-9.35-5.63c-.73-.44-1.13-1.23-1.1-2.02l.41-13.46,2.09,2.37c-3.73-.25-9.08-.91-12.73-1.05-1.55,0-2.76-1.15-3.8-2.03-2.44-2.21-4.57-4.57-6.73-7.01-.44-.5-.62-1.13-.57-1.75,0-.02,1.1-11.29,1.1-11.31l.47,1.64-5.64-7.39c-.93-1.18-.44-3,.95-3.56l21.14-8.88-1.25,1.28,5.8-14.76,.36,2.29-4.99-6.08c-1.83-2.29,1.51-5.22,3.53-2.9h0Z"/></g></g></svg>