<?xml version="1.0" encoding="utf-8"?>
<!-- Generator: Adobe Illustrator 26.3.1, SVG Export Plug-In . SVG Version: 6.00 Build 0)  -->
<svg version="1.1" id="Blaser_Text" xmlns="http://www.w3.org/2000/svg" xmlns:xlink="http://www.w3.org/1999/xlink" x="0px"
	 y="0px" viewBox="0 0 900 310.4" style="enable-background:new 0 0 900 310.4;" xml:space="preserve">
<style type="text/css">
	.st0{fill:#444444;}
	.st1{fill:#FFFFFF;}
</style>
<rect y="-2.7" class="st0" width="902.8" height="319.7"/>
<g>
	<path class="st1" d="M819.7,180.5c-9-0.4-15.3,13.4-15.3,13.4s-1.2-4.3-3.2-16.5c-2-12.2,0.8-20.1,3.5-29.9
		c2.8-9.8,14.6-21.7,13-36.6c-1.6-15-9.8-31.9-16.9-42.5c-7.1-10.6-13.8-10.6-21.7-9.8S750,66,737,66s-37.8-2.4-37.8-2.4
		c-9,0.8-9.5,5.1-12.6,15.8c-3.2,10.6-0.8,37.4-0.8,37.4c0.8,12.6-1.6,35.8-4.7,44.5c-3.2,8.7-1.2,16.5,0.4,21.6s11.8,5.5,11.8,5.5
		s5.9,36.2,7.5,46.4c1.6,10.2,14.6,12.2,14.6,12.2s-5.1,6.7,3.5,17.3c8.7,10.6,22,0,26-8.3c3.9-8.3-3.9-48.4-3.5-49.6
		c0.4-1.2,3.2-2.8,5.5,1.6s14.2,43.3,21.7,49.2c7.5,5.9,16.9,3.1,24.8-0.4c7.9-3.5,6.7-2.4,14.6,2c7.9,4.3,19.3,3.9,22.4-0.8
		c3.2-4.7,2-13.8,0.4-28.3c-1.6-14.6,2.8-14.2,6.7-30.3C841.3,183.3,828.7,180.9,819.7,180.5L819.7,180.5z M767.7,134.7
		c-8.3,9.4-23,9.4-35.4,8.3l3.5-37.2c0,0,13-5.3,25.4-3.5s15.3,10,15.9,11.8S776,125.2,767.7,134.7L767.7,134.7z"/>
	<path class="st0" d="M819.7,213.2c5.3-7.1,9.5-18.6,2.1-19.2s-12.7,2.4-14.5,6.5c-3.5,8-12.7,0.3-14.5-10.3s-6.8-36-0.3-48.1
		c6.5-12.1,19.8-23.6,12.4-43.7s-11.5-27.5-18-29.8s-8.6-2.7-15.7,0s-26,4.4-45.5,2.4c-19.5-2.1-23.6,0.6-27.8,4.7s-8,11.8-6.2,21.3
		s3.8,19.5,2.7,30.7c-1.2,11.2-9.5,28.1-9.5,35.4s5.3,14.2,8.6,12.7c3.2-1.5,5.6-0.9,6.8,3.5s4.1,47.2,7.7,51.7s11.5,3.8,13.3,2.7
		l1.8,18.9l0.6,0.4c2.5,1.8,6,1.4,8.1-0.8l0.7-0.8c0,0-1.5-39,0-47.5s3.2-13.6,10-13.6c3.8,0,10.6,15.4,15.1,27.5
		c4.4,12.1,15.3,34.8,25.4,32.8c10-2.1,10.6-4.1,16.2-4.4c5.6-0.3,10.6,5.6,15.7,3.8s10-2.7,6.5-14.5S814.4,220.3,819.7,213.2
		L819.7,213.2z M761.8,122.2l-0.3,1.1c-1.1,4.3-4.3,7.8-8.6,9.2l-9.2,3.1l1.2-21.3l10.7,0.7C759.7,114.5,762.9,118.3,761.8,122.2
		L761.8,122.2z"/>
	<path class="st1" d="M187.1,162.8c-3.2-8.1-9.1-20.1-11.8-29.1s5.9-13.4,11.8-24.4c5.9-11-1.1-32.9-5.9-42.5
		c-11.2-22.2-39-25.2-56.3-24c-11.8,0.8-18.8,7.4-22.1,11.6c-1.6,2-4,3-6.5,2.8c-4.8-0.4-12.6-0.3-16.3,4.1
		c-5.5,6.7-3.9,24,0.4,32.3S80,116.8,80,116.8s-5.9,20.5-6.3,25.6s3.9,9.1,5.1,13.8s-8.3,30.3-9.4,35c-0.8,3,3,7.2,5.8,9.8
		c1.7,1.6,2.6,3.9,2.3,6.2c-0.5,4.8-1.2,13.2-0.7,20.6c0.8,11,11,19.3,18.5,19.7c7.5,0.4,10.6-6.7,12.2-8.3s3.9,0.4,9.4,4.3
		c5.5,3.9,6.1,0.2,10.6-4.7c2-2.2,3.5,0.4,7.5,4.7s8.3,8.3,16.1,7.1c7.9-1.2,11-9.8,13.8-13.8s7.5-0.8,10.6-2.8
		c3.1-2,4.7-8.7,11.4-32.3C193.8,178.2,189.6,169.3,187.1,162.8L187.1,162.8z M136.5,172.3c-1.2,16.5-9.2,19.9-12.6,21.6l2.2-39.8
		C126.1,154.2,137.7,155.7,136.5,172.3z M131.8,116.1v-15.3c0,0,8.5-0.6,8.1,6.3S137.7,116.5,131.8,116.1z"/>
	<path class="st0" d="M168.2,129c17.5-27.5,15.6-26.3,12.8-44.5c-4.3-28.4-33.8-35-43.5-35.8c-7.2-0.6-16.5,0.8-20.5,4.7
		s-9.4,12.6-15.8,9.5c-6.3-3.2-11,0.8-15.8,7.1c-4.7,6.3,3.9,25.2,4.7,33.8c0.8,8.7,3.9,18.9-1.6,26.8s-3.2,20.5-1.6,28.3
		c1.6,7.9-3.2,13.4-7.1,26c-2.6,8.3-0.1,12.5,2,14.4c1.1,1,1.6,2.5,1.3,3.9c-4,16.9,3.5,30.6,7.8,34.4c3.4,3.1,8.7-7.9,14.2-11
		c5.5-3.1,9.2,8.5,12.6,7.1c3.1-1.2,9.6-4.1,15,1.6c7.4,7.8,19.9,2.8,25.1-1.2c7.5-5.9,10.9-11.5,15-24.8
		c5.5-17.9,8.3-33.9,5.7-44.7C177.6,160.2,160.1,141.6,168.2,129L168.2,129z M136.5,172.3c-1.2,16.5-9.2,19.9-12.6,21.6l2.2-39.8
		C126.1,154.2,137.7,155.7,136.5,172.3z M131.8,115.8v-15.3c0,0,8.5-0.6,8.1,6.3S137.7,116.2,131.8,115.8z"/>
	<path class="st1" d="M141.8,155.5c-5.3-11.2-24.4-10.2-24.4-10.2l-1.4,59.8c5.9,1.8,22.2-8.3,27-16.7
		C147.7,180,147.1,166.8,141.8,155.5L141.8,155.5z M136.5,172.3c-1.2,16.5-9.2,19.9-12.6,21.6l2.2-39.8
		C126.1,154.2,137.7,155.7,136.5,172.3z"/>
	<path class="st1" d="M144.6,95.1c-1.9-1.7-18.7-2-18.7-2l-2.2,28.3c19.5,1.8,18.7-1.2,21.4-6.3C147.9,110.1,147.1,97.5,144.6,95.1
		L144.6,95.1z M131.8,115.8v-15.3c0,0,8.5-0.6,8.1,6.3C139.4,113.6,137.7,116.2,131.8,115.8L131.8,115.8z"/>
	<g>
		<path class="st1" d="M226.8,246.5c0.9-0.7,1.6-1.7,1.9-2.9c0.2-0.9,1-1.8,2.9-1.8c3.5,0,5.3,9.1,10.9,12.1
			c5.6,2.9,9.7,2.7,12.1,0.9s3.3-9.4,5.9-9.4s4.1,6.2,8,6.8s8.6-0.3,10-2.4s5,3.5,9.5,2.1c4.4-1.5,7.1-4.4,7.4-6.2s0-37.5-0.3-43.4
			s-3-13.9-10-13.6s-18.6,8-23.3,6.8s-11.8-5.6-11.8-14.8s8.9-33.1,10-55.5c1.2-22.4,1.5-67.9,0.3-74.1S252.8,39,246,43.4
			s-13.6,17.6-14.5,18.9c-1.4,2.1-3.2,2.4-4.1-0.9s-3.2-11.5-8.6-13s-9.4-0.6-11.8,1.8s-8.6,7.4-9.4,29.8s1.2,50.5,3.2,57
			s4.8,14.7,4.2,20.5c-0.4,3.7-5.1,15.8-3.9,22s0.6,14.5,2.9,19.5s-3.2,23.3-3.2,28.6s-1.2,22.4,2.1,26.6s8.9,4.1,14.8-0.6l5.9-4.7
			L226.8,246.5L226.8,246.5z"/>
		<path class="st0" d="M211.2,245.1c-1.5-0.3-2.5-1.6-2.8-3.1c-0.7-5.1-2.4-18.9-0.1-23.3c2.8-5.5,7.5-9.4,4.3-16.1
			s-7.5-19.2-4.7-26.9c2.4-6.4,4.6-16.2,2.7-25.5c-1.9-9-9.8-37-9-48.8s-0.4-32.7,6.3-38.2s11.4-5.5,14.2-1.6s3.1,12.5,5.9,12.6
			c4,0.1,11.8-19.3,17.3-19.3s8.7,3.5,9.8,9.4c1.2,5.9,0.8,52.8-2.4,67.3c-3.1,14.6-11.2,50.5-9.1,59.4c0.9,4,2.4,11.4,14.6,11
			c12.2-0.4,20.1-3.9,23.2-2.4c0,0,6.7,1.3,7.6,5.1s0.6,26.6-0.3,31.6s-12.7,7.1-18,5.6s-5.6-6.2-10-5.3s-0.3,5-8,6.2
			c-7.7,1.2-10.9-10-19.2-9.1s-7.4,5.3-13,8.9C216.8,245.2,213.5,245.7,211.2,245.1L211.2,245.1z"/>
	</g>
	<path class="st1" d="M336.9,247.4c0.5-1.5,2.4-1.9,3.4-0.7c2.4,2.9,6.1,6.8,9.4,7c5.3,0.3,9.7,0.3,11.5-4.4s1.5-31,3.2-38.4
		c2.4-9.7,6.5-19.5,12.1-21c4.9-1.3,6.5,2.7,7.4,6.5s1.5,51.1,5,59.1c3.5,8,8.8,9.4,12.4,9.2c11.5-0.9,12.4-19.8,16.2-20.1
		c3.7-0.3,7.1,12.1,12.7,12.1s7.4-0.6,10.3-4.7s6.5-21.6,0.6-34.2s-17.7-43.1-19.2-66.7c-1.5-23.6,2.1-62.9,2.7-68.5
		s-5-25.1-14.8-26.3c-21.3-2.7-25.7,15.3-28.3,15.3s-9.1-10.9-16.8-12.4c-8.7-1.7-22.4,0.9-29.5,10.6s-12.4,29.8-10,39.9
		s7.7,31,6.2,37.2s-13.3,21.3-16.2,29.8s-5,57.9-3,68.8c2.1,10.9,5.6,13.9,10,14.2C326.2,259.8,333.4,259.4,336.9,247.4L336.9,247.4
		z"/>
	<path class="st0" d="M374.8,77.2c2.5,2.1,6.2,2,8.5-0.4c5.1-5.3,14.1-13.7,19.8-12.7c8.3,1.5,17.1,9.7,14.8,20.1
		c-2.4,10.3-8.3,39-6.2,64.1s18.6,54.6,20.4,64.1s5.9,29.5-2.7,28.1s-9.5-8.6-13.9-7.4s-5.9,12.4-9.1,15.1s-10,2.7-10.9-2.7
		s0-52.3-3.2-57s-7.4-8.9-15.6-7.4s-13.3,5.6-15.9,14.2s-2.4,32.5-4.1,38.1c-1.8,5.6-4.1,11.2-9.7,8.9s-9.5-12.1-11.2-11.2
		s-3,11.8-6.8,11.8s-12.4-6.8-8.6-16.5s3.8-38.1,5-44.3s13.9-24.8,14.8-33.4s-6.5-38.1-5.6-52.3s8-22.7,14.5-26.6s17.1-1.5,21.3,2.9
		C371.6,74.3,373.3,75.9,374.8,77.2L374.8,77.2z"/>
	<path class="st1" d="M388.5,148.5c-0.4-1.5-1-2.8-1.8-4.1l-13.6-27.6c-0.7-1.5-2.9-1.4-3.5,0.2l-10.3,28.8c-1,2.1-1.6,4.4-1.6,6.9
		c0,8.6,7,15.6,15.6,15.6s15.6-7,15.6-15.6C389,151.2,388.8,149.8,388.5,148.5L388.5,148.5z"/>
	<path class="st0" d="M383.8,149.1c-0.3-1-0.7-2-1.3-2.9l-9.5-19.4c-0.5-1.1-2-1-2.4,0.1l-7.2,20.2c-0.7,1.5-1.1,3.1-1.1,4.8
		c0,6.1,4.9,11,11,11s11-4.9,11-11C384.2,151.1,384,150.1,383.8,149.1L383.8,149.1z"/>
	<path class="st1" d="M477.1,170.3c-6.8-2.1-12.6-6.8-15.8-13.2c-5.7-11.1-13.7-29.3-12.4-41.5c2-18.5,7.1-42.9,15.8-52.8
		s18.9-15.3,28.3-11.8s14.2,11,14.2,11s20.1-4.3,32.3-0.4S563,77.8,563.8,88s3.5,23.6-3.5,31.9s-10.2,12.6-15.3,13.4
		c-5.1,0.8-4.7-3.5-8.7-2.8s-2.8,5.5-7.1,5.1s-5.5,0.8-9-3.1s-6.7-2-10.6-4.3s-8.7-5.9-10.2-9.4s-3.9,5.9-2,8.3
		c2,2.4,10.2,11.4,24.4,12.6c14.2,1.2,28,7.1,31.1,10.2s7.5,8.7,8.7,18.1s-1.6,21.3-7.5,25.2c-5.9,3.9-4.7,13.8-2.8,18.1
		s6.7,15.4,3.2,21.3c-3.5,5.9-6.7,16.1-14.6,15.4c-7.9-0.8-8.7-3.9-13.8,1.2s-9,11-12.2,11.4c-3.1,0.4-3.5,2.8-9-3.5
		c-5.5-6.3-5.9-9.8-10.6-7.1c-4.7,2.8-8.7,8.3-13.8,7.5c-5.1-0.8-13.4-10.6-11.8-15s-11.8-8.3-14.2-11.8s-14.2-24.4-9.8-38.2
		s7.5-18.9,13.4-19.7s15-2,18.9,2.8s4.3,11,4.3,12.6s9,4.7,11,7.9s3.9,8.7,3.9,8.7s23.2-0.8,11-16.5
		C499.3,177.9,486.3,173.1,477.1,170.3L477.1,170.3z"/>
	<path class="st0" d="M478.6,64.9c1.5-1.5,2.8-3.2,3.9-5c1-1.5,2.7-2.5,6.1-1.4c9.8,3.2,11,11.1,19.7,11.4
		c9.9,0.4,13.8-8.2,30.7-0.4c9.3,4.3,17.7,7.9,19.3,17.3s1.2,25.6-10.2,31.1s-19.3,9.1-28,3.2s-11-15-17.7-15s-11.4,3.2-12.6,13
		s0.4,22.4,14.6,27.2s28.7,2.8,35.4,7.5s12.2,9.1,12.2,16.5s-5.1,18.1-7.9,19.7s-3.2,11.4,0,16.5c3.2,5.1,4.7,20.9,2,24.4
		s-11.8,4.7-15.8,4.3s-7.9,1.6-10.2,5.9s-5.9,8.3-9.8,6.3c-3.9-2-8.3-9.1-14.6-7.1c-6.3,2-8.7,9.1-13,5.5c-4.3-3.5-5.9-11-9.8-12.2
		s-14.2-6.3-16.5-14.2s-4.7-25.2-1.2-32.7s5.5-9.1,9.5-8.3s8.3,1.6,8.3,5.9c0,1.4,0,3.1-0.1,4.8c-0.1,3.9,1.8,7.4,5,9.7
		c1.1,0.8,2.1,1.8,3,3.2c3.1,4.7,6.3,12.2,12.2,13.4s20.5,0.8,24.4-9.8s3.9-31.9-10.6-35.8S468.6,154.1,465,129
		c-3.5-25.2-3.9-38.2,2.4-49.2C471.3,72.9,475.7,67.8,478.6,64.9L478.6,64.9z"/>
	<path class="st1" d="M572.8,249.3c4,0.2,8,1.6,10.9,4.3s7,5.7,11.1,6.4c8.3,1.6,9,3.9,16.5-3.1s7.1-11.4,15.8-10.2
		c8.7,1.2,29.5,6.7,39.4-2c9.8-8.7,20.1-26.4,7.9-33.1c-12.2-6.7-13.4-8.7-24-7.9c-10.6,0.8-13.4,4.3-15.3-1.6s-2.4-11.4,5.1-13
		s11,3.9,20.5,2.8s14.2-1.6,15-11.4s-5.9-15.4-2-25.6c3.9-10.2,3.2-29.1-5.9-28.7s-14.6,1.2-20.1,7.5s-8.7,10.2-12.2,8.7
		s-3.9-11.8,5.9-17.3s11-6.3,17.3-5.9s15-5.5,15.8-14.6s9.5-18.9,10.2-22s4.7-17.3-13.4-21.7c-18.1-4.3-14.2-4.7-27.2-0.4
		s-43.3,6.7-53.5,2.4s-9.8,16.5-13.4,19.7s-9.8,9.8-9.5,15.8c0.4,5.9,6.7,17.3,7.5,26.8s-10.2,20.5-9.8,30.7s8.7,29.1,9,34.2
		s-9,22.8-8.7,28.7v0.1c0.2,3.4-0.7,6.7-2.5,9.6s-3.5,6.8-2.6,10.7C561.9,244.6,566.9,249,572.8,249.3L572.8,249.3z"/>
	<path class="st0" d="M603,248.7c-3.3,1.2-7-0.2-8.8-3.2c-1-1.6-2.7-3.5-5.7-5.1c-7.1-3.8-12.7-2.1-13.6-2.4s-4.7-11.8,0.3-23
		c5-11.2,8.6-18,5.9-28.3s-8.6-15.6-5-27.2c3.5-11.5,8.6-18.6,6.5-28.3s-9.5-28.6-3.2-39.3s8-19.8,17.4-21.8s13.7,0.6,17.4,2.9
		c9.5,5.9,28-5.9,42.5-5.6c11.2,0.2,15.3-1.8,16.5,1.8s3,10.9-0.9,15.1s-5.3,10.9-7.7,17.4c-1.8,4.8-13.6,7.1-18.9,8.3
		s-18.3,7.7-21,18.6s-0.3,21,5.3,22.1s10,4.4,15.3-1.2s6.8-11.5,13.3-12.4s10,1.5,10.3,4.4s-2.7,5.6-2.7,13.6s5,15.6,3.8,19.2
		s-0.6,9.1-7.7,8c-7.1-1.2-11.5-4.1-20.1-4.1s-22.1,7.7-22.1,14.8s2.1,20.7,16.5,21.3s18.3-2.1,19.2-2.1c10.8,0.3,13.9,7.7,13.9,9.7
		c0,1.5-4.4,7.1-7.6,10.5c-1.5,1.6-3.3,2.8-5.3,3.6c-4.2,1.6-12,4-20.4,3c-12.4-1.5-21.5-2.7-23.9,0
		C610.9,240.9,609,246.5,603,248.7L603,248.7z"/>
	<path class="st1" d="M776.7,114.9c-0.6-1.7-3.5-9.8-15.6-11.5s-24.8,3.5-24.8,3.5l-3.5,36.3c12.1,1.1,26.5,1.1,34.6-8.1
		S777.3,116.6,776.7,114.9L776.7,114.9z M761.4,122.6l-0.3,1c-1.1,4.2-4.2,7.6-8.4,9l-8.9,3l1.2-20.8l10.5,0.7
		C759.3,115.2,762.4,118.8,761.4,122.6L761.4,122.6z"/>
</g>
</svg>
