<?xml version="1.0" encoding="utf-8"?>
<!-- Generator: Adobe Illustrator 26.3.1, SVG Export Plug-In . SVG Version: 6.00 Build 0)  -->
<svg version="1.1" id="Layer_1" xmlns="http://www.w3.org/2000/svg" xmlns:xlink="http://www.w3.org/1999/xlink" x="0px" y="0px"
	 viewBox="0 0 720 240" style="enable-background:new 0 0 720 240;" xml:space="preserve">
<style type="text/css">
	.st0{fill:#FFE6D2;}
	.st1{fill:#232323;}
	.st2{fill:#FFF0A4;}
	.st3{fill:#FFFFFF;}
	.st4{fill:#5BE397;}
	.st5{fill:#1C5143;}
	.st6{fill:#BF4094;}
	.st7{fill:#FFDB2C;}
	.st8{opacity:0.15;}
	.st9{fill:none;}
</style>
<g>
	<path class="st0" d="M116.3,238.5C53,238.5,1.5,187,1.5,123.7v-7.4C1.5,53,53,1.5,116.3,1.5h489.6c63.3,0,114.8,51.5,114.8,114.8
		v7.4c0,63.3-51.5,114.8-114.8,114.8H116.3z"/>
	<path class="st1" d="M605.9,3c30.3,0,58.7,11.8,80.1,33.2c21.4,21.4,33.2,49.9,33.2,80.1v7.4c0,30.3-11.8,58.7-33.2,80.1
		c-21.4,21.4-49.9,33.2-80.1,33.2H116.3c-30.3,0-58.7-11.8-80.1-33.2S3,154,3,123.7v-7.4C3,86,14.8,57.6,36.2,36.2S86.1,3,116.3,3
		H605.9 M605.9,0H116.3C52.1,0,0,52.1,0,116.3v7.4C0,187.9,52.1,240,116.3,240h489.6c64.2,0,116.3-52.1,116.3-116.3v-7.4
		C722.2,52.1,670.1,0,605.9,0L605.9,0z"/>
</g>
<g>
	<g>
		<path class="st2" d="M24.7,48.4c3.3-4.4,6.9-8.6,10.8-12.6C57.9,13.4,87.5,1,119,1h484.3c36.9,0,72,17.7,94.2,47.4H24.7z"/>
		<path class="st1" d="M603.3,2c18.7,0,37.4,4.6,53.9,13.3c14.8,7.8,28,18.9,38.3,32.2H26.8c2.9-3.8,6.1-7.4,9.5-10.9
			C58.4,14.3,87.7,2,119,2H603.3 M603.3,0H119C86.1,0,56.4,13.4,34.9,35.1c-4.4,4.4-8.4,9.2-12.1,14.3h676.7
			C677.8,19.5,642.8,0,603.3,0L603.3,0z"/>
	</g>
	<path d="M658.8,25.9h-72.2c-0.7,0-1.2-0.5-1.2-1.2s0.5-1.2,1.2-1.2h72.2c0.7,0,1.2,0.5,1.2,1.2S659.4,25.9,658.8,25.9z"/>
	<path d="M570.8,25.9h-72.2c-0.7,0-1.2-0.5-1.2-1.2s0.5-1.2,1.2-1.2h72.2c0.7,0,1.2,0.5,1.2,1.2S571.5,25.9,570.8,25.9z"/>
	<path d="M71.1,23.5l72.2,0c0.7,0,1.2,0.5,1.2,1.2s-0.5,1.2-1.2,1.2l-72.2,0c-0.7,0-1.2-0.5-1.2-1.2S70.5,23.5,71.1,23.5z"/>
	<path d="M154.4,23.5l24.1,0c0.7,0,1.2,0.5,1.2,1.2c0,0.7-0.5,1.2-1.2,1.2l-24.1,0c-0.7,0-1.2-0.5-1.2-1.2S153.7,23.5,154.4,23.5z"
		/>
</g>
<g>
	<path class="st2" d="M5,143.7C3.4,136,2.6,128,2.6,120S3.4,104,5,96.3h713.9c1.6,7.8,2.3,15.7,2.3,23.7c0,7.2-0.9,15-2.6,23.7H5z"
		/>
	<path class="st1" d="M718,97.3c1.4,7.4,2.2,15.1,2.2,22.7c0,7-0.8,14.4-2.4,22.7H5.8c-1.4-7.4-2.2-15.1-2.2-22.7s0.7-15.3,2.2-22.7
		H718 M719.7,95.3H4.2c-1.7,8-2.5,16.2-2.5,24.7s0.9,16.7,2.5,24.7h715.2c1.7-8,2.8-16.2,2.8-24.7
		C722.2,111.5,721.3,103.3,719.7,95.3L719.7,95.3z"/>
</g>
<path d="M1.2,118.8h72.2c0.7,0,1.2,0.5,1.2,1.2s-0.5,1.2-1.2,1.2H1.2c-0.7,0-1.2-0.5-1.2-1.2S0.5,118.8,1.2,118.8z"/>
<path d="M12.4,68.6h72.2c0.7,0,1.2,0.5,1.2,1.2S85.3,71,84.6,71H12.4c-0.7,0-1.2-0.5-1.2-1.2S11.8,68.6,12.4,68.6z"/>
<path d="M12.5,167.5H35c0.7,0,1.2,0.5,1.2,1.2s-0.5,1.2-1.2,1.2H12.5c-0.7,0-1.2-0.5-1.2-1.2S11.9,167.5,12.5,167.5z"/>
<path d="M47.3,167.5h47.1c0.7,0,1.2,0.5,1.2,1.2s-0.5,1.2-1.2,1.2H47.3c-0.7,0-1.2-0.5-1.2-1.2S46.6,167.5,47.3,167.5z"/>
<path d="M116.8,167.5h22.5c0.7,0,1.2,0.5,1.2,1.2s-0.5,1.2-1.2,1.2h-22.5c-0.7,0-1.2-0.5-1.2-1.2S116.1,167.5,116.8,167.5z"/>
<path d="M721.2,122.4l-72.8,0c-0.7,0-1.2-0.5-1.2-1.2s0.5-1.2,1.2-1.2l72.8,0c0.7,0,1.2,0.5,1.2,1.2S721.9,122.4,721.2,122.4z"/>
<g>
	<g>
		<path class="st2" d="M119,239c-36.9,0-72-17.7-94.2-47.4h672.7c-3.3,4.4-6.9,8.6-10.8,12.6c-22.3,22.5-51.9,34.9-83.4,34.9H119z"
			/>
		<path class="st1" d="M695.5,192.6c-2.9,3.8-6.1,7.4-9.5,10.9c-22.1,22.3-51.5,34.6-82.7,34.6H119c-18.7,0-37.4-4.6-53.9-13.3
			c-14.8-7.8-28-18.9-38.3-32.2H695.5 M699.5,190.6H22.8c21.6,30,56.7,49.4,96.2,49.4h484.3c32.8,0,62.6-13.4,84.1-35.1
			C691.8,200.4,695.8,195.7,699.5,190.6L699.5,190.6z"/>
	</g>
	<path d="M63.5,214.1h72.2c0.7,0,1.2,0.5,1.2,1.2s-0.5,1.2-1.2,1.2H63.5c-0.7,0-1.2-0.5-1.2-1.2S62.8,214.1,63.5,214.1z"/>
	<path d="M151.4,214.1h72.2c0.7,0,1.2,0.5,1.2,1.2s-0.5,1.2-1.2,1.2h-72.2c-0.7,0-1.2-0.5-1.2-1.2S150.8,214.1,151.4,214.1z"/>
	<path d="M651.1,216.5l-72.2,0c-0.7,0-1.2-0.5-1.2-1.2s0.5-1.2,1.2-1.2l72.2,0c0.7,0,1.2,0.5,1.2,1.2S651.8,216.5,651.1,216.5z"/>
	<path d="M567.8,216.5h-24.1c-0.7,0-1.2-0.5-1.2-1.2s0.5-1.2,1.2-1.2h24.1c0.7,0,1.2,0.5,1.2,1.2S568.5,216.5,567.8,216.5z"/>
</g>
<path d="M711,171.8l-72.8,0c-0.7,0-1.2-0.5-1.2-1.2s0.5-1.2,1.2-1.2l72.8,0c0.7,0,1.2,0.5,1.2,1.2S711.7,171.8,711,171.8z"/>
<path d="M711.9,72.9l-22.7,0c-0.7,0-1.2-0.5-1.2-1.2s0.5-1.2,1.2-1.2l22.7,0c0.7,0,1.2,0.5,1.2,1.2S712.6,72.9,711.9,72.9z"/>
<path d="M676.9,72.9l-47.5,0c-0.7,0-1.2-0.5-1.2-1.2s0.5-1.2,1.2-1.2l47.5,0c0.7,0,1.2,0.5,1.2,1.2S677.5,72.9,676.9,72.9z"/>
<path d="M606.7,72.9l-22.7,0c-0.7,0-1.2-0.5-1.2-1.2s0.5-1.2,1.2-1.2l22.7,0c0.7,0,1.2,0.5,1.2,1.2S607.4,72.9,606.7,72.9z"/>
<g>
	<path class="st3" d="M379.1,105.2c-0.8-3.8-2.5-7.7-5.5-10.2c0,0-0.1,0-0.1-0.1c-1-1.1-2.2-2.1-3.5-2.8c-2-1-4.1-1.6-6.2-2.3
		c-3.4-1.2-6.1-3.8-7.1-7.3c-1.2-4.2,0.4-8.6,0-12.8c-0.2-2.1-0.6-5.1-2.6-6.2c-2.1-1.1-4.7,1-6.3,2.2c-1.9,1.4-3.3,3.1-4.1,5.3
		c-0.7,2.1-0.8,4.4-0.8,6.6c-0.1,4,0.3,8.3,2.4,11.8c2.2,3.6,5.9,5.7,9.9,6.5c2.2,0.5,4.5,0.7,6.8,0.7c2.3,0,4.8-0.4,7,0.5
		c0.5,0.2,1,0.5,1.5,0.8c0.1,0.1,0.2,0.2,0.3,0.3c2.1,2.8,2.6,6.6,3.2,9.9c0.2,1.2,1.6,1.8,2.7,1.5c1.1-0.3,1.6-1.2,1.6-2.2
		C378.9,107.1,379.4,106.2,379.1,105.2L379.1,105.2z"/>
	<path class="st2" d="M385.1,203.1c0,0-6.4-2.8-8.5-6.4c-2.1-3.7-3.9-16.8-3.9-16.8s3.7-0.2,4.8-3.9c1.1-3.7,2.1-4.1,1.4-10.3
		s-5.5-16.1-4.8-19.8c0.7-3.7,4.1-7.4,6.7-7.6c2.5-0.2,6.2,3.2,6.2,3.2s1.6,0.7,3-2.8c1.4-3.4-1.6-8.7-1.8-9.6
		c-0.2-0.9,2.8-4.6,1.6-6.2c-1.1-1.6-5.5-12.9-5.5-12.9L376.6,91l2.5-5.7l5.5-0.7l5.1,4.8l19.1-3.9l3.4,1.8l1.6,4.6l-19.1,9.2
		l0.2,4.1l1.4,7.8l5.7,11.4l-0.7,13.6l-7.6,16.3l-1.1,9.2c0,0-3.2,17-3,22.3c0.2,5.3,9.4,13.3,9.4,13.3L385.1,203.1L385.1,203.1z"/>
	<path class="st4" d="M390.5,54.4c0,0,11.5-6.5,17.5-5.2c6,1.4,9.1,1.8,10.1,1c1-0.8,0.6-2.5-1-4.7c-1.6-2.2-6.8-16.3-10.2-19.3
		S392.2,14.4,387.7,12s-6.7-4.1-11.5-3.7c-4.8,0.5-8.3,2-8.6,3.1s-1.6,7.6,1.4,10c3,2.4,7.9,6.5,9.6,9c1.7,2.4,3.6,11.7,4.9,14.7
		C385,48.1,387.7,53.5,390.5,54.4L390.5,54.4z"/>
	<path class="st4" d="M415.3,69.5c3.4-4.7,4-5.4,2.5-6.3c-1.5-0.9-4.7-1.8-9.2-1.4c-4.4,0.5-8.7,0-10.9-0.5
		c-2.1-0.5-4.1-1.8-3.8-3.5c0.3-1.7-1.5,0-1.5,0l-5.2-1.8l-4.6-5.5l0.3-3.1l-5.2,8.6l-1.8,2.1l-3.1-4c0,0-3.4-2.8-3.7-5.5
		c-0.3-2.8-4-9.5-4-9.5l-4.6,1.5l-7.4,22.7L338.4,45l-8.3,3.7l3.1,34l-23.9-9.8l-5.5,18.4l19.5,19.2l-21.1,7.4l0.4,13.6l17.8,8.9
		l-12.2,15.9l4.3,11.6l19.3-3.4l-7.4,22.1l9.9,12.6l15.3-7.4l-2.3,16.1l10.3,4.4l11.5-7l8,11.6l8.4-0.3l3.4-9.3l9,4.6l5.4-3.1
		l-0.6-7.8c0,0,0.3-1.5,0.9-1.4c0.6,0.2,6.1,1.1,6.1,1.1s4-3.7,4.6-6.6c0.6-2.9-0.5-5.7-0.5-5.7l-3.4-1.7l-1.2-1.4l-0.5-1.1
		l5.7-11.3c0,0-3.6-6.7-11.7-7.7c-8.1-0.9-11.6-0.9-14.5,0.9c-2.9,1.8-6.1,12.1-6.7,14.9s0.3,11.5,3.4,13.2
		c3.1,1.7,11.5,1.1,15.3-3.4c3.8-4.4,0.9-10.8-1.9-10.3c-2.8,0.5-3.6,7-6.1,5.6c-2.5-1.4-4.7-4.9-3.4-7.5c1.4-2.6,5.7-5.8,8.7-5.7
		c3.1,0.2,5.7,1.4,6.6,3.5c0.9,2.1,2.6,6.9,2,9.3s-1.7,8.4-7,11.2c-5.4,2.8-16.7,13.2-38.9-1.2c0,0-15.3-13.8-20.4-27.3
		c-5.1-13.5-7.7-25.3-7.7-25.3l-6.1-2c-1.1-0.4-2-1.3-2.2-2.5c0-0.1,0-0.3,0-0.4l0,0c0-1.6,1.2-3.6,2.6-4.3c2.8-1.5,4.2-3,16.6-13.6
		c1.9-1.6,21.4-9.1,24.1-8.7s12.3,4.4,13.9,5.8c0.9,0.8,4.7,2.5,8.6,5.7c1.5,1.2,2.1,0.7,2.8,0.7s4.3-1,7.2,1.2
		c1.6,1.2,3.5,0.3,2-2.1c-1.5-2.5-3.2-3.5-3.2-3.5s1.7-0.4,1.4-3.9c-0.2-3-3.5-2.9-3.7-2.8c-2.2,1.1-5.3,1.6-8.9,1.4
		c0,0-0.8-0.3-2.2-0.7c-0.6-1.8-1.8-7-1.2-8.9c0.7-2.3,2.6-3.2,5.2-3.4c2.5-0.2,5.7,4.9,5.7,4.9s-0.2-2.1-0.3-4.5
		c-0.1-2.4-0.8-6.5-6-8.8c-5.2-2.3-14.8-1-17.1-0.9c-2.3,0.1-13.4,0-12.4-0.8c3.8-3.1,5-4.2,6.1-9.3c0.9-4.1,1.7-7.5,1.7-9.9
		c0-0.2,0.2-0.4,0.4-0.3c1.3,0.1,1.7,0.1,3,0.3c6.7,0.8,14.7-4.6,17.6-8.3l-5.7,7.5c0,0,1.7,0.8,4.7,0.2s7.2-3.1,7.2-3.1
		s-1.4,4-2.8,4.4c0,0,5.2-1.4,6.6-3.1c0,0-1.1,3.8-1.8,4.1c-0.8,0.3,6.7-0.9,7.4-2.8c0,0-0.6,3.2-1.4,3.7c0,0,4.6-1.4,6.2-3.9
		c-0.3,0.6-0.7,1.6-0.7,2.2C407.5,74.1,411.9,74.3,415.3,69.5L415.3,69.5z M367.6,98.2c3.3,0.8,7.1,2.6,8.3,4.5
		c0.9,1.4-0.3,6-0.9,7.9c-3.6-1.1-7.3-2.1-9.7-2.7c-6.4-1.5-9-2.6-13.8-2.5c-4.7,0.2-8.7-21.1-8.7-21.1s6.7-12.1,8.3-13
		c0.2-0.1,0.4-0.1,0.8-0.2c-0.3,2.2,3.1,4.6,3.1,4.6s-1,2.4-1.7,4.2s-0.2,7.7,0.9,11.1C355.3,94.5,364.3,97.4,367.6,98.2L367.6,98.2
		z"/>
	<path class="st5" d="M402.1,124.4c0,0,5.4-10.3,6.6-11.9c1.2-1.7,9-6.3,15.2-5.7c6.2,0.6,0,0,0,0l3.4-2c0,0-2.6,15.4-2.7,18
		c-0.2,2.6-4.7,13-8.3,14.9c-3.5,1.8-12.2,3.5-14.2,3.2c-2-0.3-0.8-9.8-0.6-12.2C401.6,126.1,402.1,124.5,402.1,124.4L402.1,124.4z"
		/>
	<path class="st5" d="M396.5,149.3c0.7-0.2,26.8-5.2,26.8-5.2s-1,4.8-3.1,6.2c-2.1,1.4-8.6,4.5-8.6,4.5s-4.4,0.8-5.7-0.1
		c-1.4-0.9-3.9-4.4-4.7-3.4c-0.8,0.9-0.7,3-0.7,3s-3.1-1.8-4.5-1.3C394.5,153.6,396.5,149.3,396.5,149.3L396.5,149.3z"/>
	<path class="st5" d="M352.6,146.7l12.5,6.3l5.7,5.5l2.5,7.7l0.6,6.1l-1.3,7.6c0,0-12.3-1.7-12.6-2.5s-9.8-10.7-9.8-10.7l-2.6-10.9
		l1.3-10.2L352.6,146.7"/>
	<path class="st6" d="M404.7,51.4c0.1,0,10,2,11.4,3.5c1.4,1.5,1.9,3.9,1.5,4.6c-0.4,0.7-7,2-8.7,1.6c-1.6-0.5-12.1-4.6-12.4-5.5
		S404.7,51.4,404.7,51.4L404.7,51.4z"/>
	<path class="st6" d="M427.3,104.8c-0.5,0.2-1.1,0.3-1.6,0.5c-0.4,0.2-1,0.3-1.4,0.5c-0.3,0.2-0.4,0.6-0.5,1
		c-0.1,0.5-0.2,1.1-0.2,1.7c-0.4,2.2-0.8,4.4-1.4,6.5c-0.2,0.2-0.1,0.8,0.2,0.6c0.9-0.5,1.8-1.1,2.7-1.7c0.7-0.5,1.4-1,1.6-2
		c0.2-1.1,0.3-2.2,0.4-3.2c0.1-1.2,0.3-2.4,0.4-3.5C427.6,105,427.6,104.7,427.3,104.8z"/>
	<path class="st6" d="M352.6,146.7c-0.1-0.2-0.3-0.1-0.4,0.1c-0.5-0.6-1.3-1-1.9-1.4c-0.5-0.3-0.9-0.4-1.4,0.1
		c-0.8,0.9-1.3,2.2-1.1,3.4c0.2,1.2,0.8,2.3,1.8,2.9c1.1,0.8,2.7,1,3.6,2c0.3,0.3,0.4,0.7,0.5,1.1c0.1,0.2,0.2,0.5,0.5,0.6
		c0.4,0.2,0.8-0.1,0.9-0.5c0.1-0.1,0.1-0.2,0.1-0.3C355.4,151.8,354.4,149,352.6,146.7L352.6,146.7z"/>
	<polygon class="st7" points="364.7,40.2 368.7,40.1 376.1,52.2 380.4,41.6 384.7,48.5 375.3,59.8 	"/>
	<path class="st7" d="M369.4,10.9c0,0-0.7,4.4,3.2,8.6c3.9,4.3,7.8,7.8,7.8,7.8s0.8-2.4-1.4-6.8s0-3.8,1-2.6s3.1,2.3,3.8,5.9
		s0.1,11.1,0.3,13.1c0.2,2,3.6,13.3,6.7,13c3.1-0.3,7.4-2.6,11.5-2l4.1,0.7c0,0-9.9,4.8-13,5.4c-3.1,0.6-4.3,2.6-6.1-1.4
		c-1.8-4-7.1-23.8-12.2-26.6C371.9,24.1,366.8,20.7,369.4,10.9L369.4,10.9z"/>
	<polygon class="st7" points="362.8,40.1 358.5,40.1 351.3,54 343.5,43.4 338.8,45.4 352,63.2 	"/>
	<polygon class="st7" points="330.4,49 333.3,81.4 332.1,82.7 309,72.7 311.4,68.6 325.8,74.4 327.1,73 325.2,52.2 	"/>
	<polygon class="st7" points="303.3,91.4 323.9,108.7 324.2,111 301,119.8 302,113.6 312.8,110.2 313.2,107.5 302,97 	"/>
	<polygon class="st7" points="302.8,131.9 320.2,140 320.8,141.8 307.9,155.8 306.9,148.9 311.8,144.1 311.6,142.1 302.9,138.2 	"/>
	<polygon class="st7" points="312.6,166.7 331.9,164.6 332.2,165.2 324.3,187.5 321.2,181.3 326.1,170.5 325.4,169.4 314.1,171.5 	
		"/>
	<polygon class="st7" points="333.5,198.2 349.6,191.2 350.6,192.7 347.4,208.5 344.1,205.1 344.5,198.7 343.4,198.2 337.3,202.1 	
		"/>
	<polygon class="st7" points="357.4,212.2 368.1,204.7 370.4,205.6 378.1,217.2 370.7,216 368.4,211.4 365.5,211.9 363.2,214 
		361.5,214.8 	"/>
	<path class="st7" d="M384.3,215.6l4.3-8.4h1.1l8.6,4.6l-3.4,1.7l-2.9-1.7l-1.8,0.3c0,0-1.2,0.9-1.2,1.4c0,0.5-0.5,1.8-0.5,1.8
		l-0.6,1.4L384.3,215.6L384.3,215.6z"/>
	<polygon class="st7" points="401.8,207.9 402.4,200.4 403.6,199.3 409.7,200.5 	"/>
	<polygon class="st7" points="409.3,185.7 413.9,172.2 416.6,177.1 413.4,180.8 413.1,183.7 414.8,185.5 416.5,187.1 417.7,190.6 
		416.3,191.7 	"/>
	<circle class="st7" cx="334.2" cy="93.6" r="6.8"/>
	<path class="st7" d="M350.2,71.7c0,0-4.1,1.8-8,6.2c-3.9,4.4-6,9.9-6,11s-6.7,7.4-6.9,9.6c-0.2,2.3,0.9,8.5,2.5,10.3
		s0.6,5.3,0.6,5.3s13.4-7.9,18.2-8c3.9-0.1,4.6-3.5,4.7-4c0.1-1.5-5.9-1.1-7.6-6C345.7,90.2,341.7,82.9,350.2,71.7L350.2,71.7z"/>
	<path class="st7" d="M342.8,175.5c0,0-4.6-10.1-9.9-13.6s-9.6-5.1-10.1-10.1c-0.5-5.1-0.4-10.1,2.1-10.3c0.9-0.1,2.4-0.2,3.7-0.2
		c1.5-0.1,2.8,0,3.6,1c1.3,1.6,2.9,11.7,3.6,13.6C336.4,157.1,342.8,175.5,342.8,175.5L342.8,175.5z"/>
	<circle class="st3" cx="401" cy="39.6" r="2.6"/>
	<g class="st8">
		<circle class="st3" cx="401" cy="39.7" r="4.9"/>
	</g>
	<path class="st1" d="M411.7,196.4c-1.1,2.3-3,2.8-5.5,6.4c-1,1.5-2.4,3.1-3.7,4.4c-1.8,1.9-3.4,3.4-3.4,3.4s-14.9,6.5-11.7,6.3
		c3.2-0.2,12.7-3.1,15.7-6.4c0,0-5.4,13.4-38.4,10.4c-33.1-3-59.6-57.2-62-62.9c-3.1-7.4-6.7-43.1-3.7-63.8c3-20.9,9-41.3,30.8-50.3
		c21.8-9,40.4-5.3,50.1-4.6l1-0.3c0,0-5.6-12.1-8.8-11.9c-3.2,0.2-1.7,7.3-7.6,7.4c-4.9,0.1-2.3-9-5.3-9.6c-3-0.7-3.7,7.8-6,8.5
		s-5.1-1.1-7.1-3.4c-2.1-2.3-2.5-0.5-3,0.2c-0.5,0.7-1.4,6-3.7,6.4c-2.3,0.5-6.7-3.2-9-4.1s-3,9.2-4.4,10.3
		c-1.4,1.1-4.1-1.6-6.9-1.6c-2.8,0-1.1,4.6-2.1,5.7c-0.9,1.1-1.4,3.9-2.5,3.4c-1.1-0.5-5.5-3-6.9-2.5c-1.4,0.5,1.6,6.7,0.2,9
		c-1.4,2.3-5.3-0.2-6,1.4c-0.7,1.6,2.5,4.8,0.7,7.8c-1.8,3-4.1,4.4-5.5,5.7c-1.4,1.4,2.5,4.1,1.8,6c-0.7,1.8-3.2,1.1-3.9,2.3
		c-0.7,1.1,1.6,1.8,2.5,3c0.9,1.1,1.8,2.5-1.4,3.7c-3.2,1.1-0.9,4.6-0.2,5.3c0.7,0.7-2.4,3.7-3.5,4.8c-1.1,1.1,4,3.7,2.6,5.3
		c-1.4,1.6-4.6,1.8-4.8,4.4s3,2.5,3.7,5.1c0.7,2.5-1.1,6.2-3,8c-1.8,1.8-0.5,4.4,0.9,5.1c1.4,0.7,3,2.8,2.5,5.3
		c-0.5,2.5-4.6,4.6-4.1,5.3c0.5,0.7,4.8,5.5,5.3,7.4c0.5,1.8-3.2,6.9-1.1,8.7c2.1,1.8,5.3,3.4,5.7,6c0.5,2.5-3.2,8-2.5,9
		c0.7,0.9,3.7,0.9,4.8,3.2c1.1,2.3,2.1,2.5,2.1,5.7c0,3.2-1.4,5.3-0.7,5.7c0.7,0.5,5.5,1.1,7.1,4.4c1.6,3.2,0.5,10.1,1.4,10.6
		c0.9,0.5,7.6-1.1,8.3,0.2c0.3,0.7,1.6,2.2,1.8,4.1c0.2,1.9-0.7,4.3-0.2,4.8c0.9,1.1,7.4-0.2,8.3,1.4c0,0,1.6,3,2.3,6.2
		c0.7,3.2-1.1,4.8-0.2,5.7c0.9,0.9,7.4-2.1,9.6,0.2s3.7,9.4,4.6,9.6c0.9,0.2,3.4-3.9,9.6-3.9c4.3,0,6.5,4.2,7.4,6.9
		c0.3,0.7,1.2,0.8,1.6,0.3c0.8-1,2.2-2.1,4.5-2.1c4.4,0,6,4.4,7.8,4.4c1.8,0,0.5-2.3,3.9-4.1c3.4-1.8,4.6-2.8,7.4-1.1
		c3.5,2,4.8,6.7,4.8-2.2c0-1.8,1.3-3.3,3.1-3.6c2.9-0.4,5.7-0.3,6.6-2.5c0.5-1.1,0.3-2.6,0.5-3.9l0.1,0.3c0.3-0.7,0.8-1.3,1.7-1.5
		l-0.5-1.2c0.3-0.2,0.7-0.3,1.2-0.4c3.7-0.5,5.7-0.7,5.7-4.1c0-3.4,2.3-6.4,2.3-6.4S412.9,194.2,411.7,196.4L411.7,196.4z"/>
	<path class="st1" d="M378.8,218.4c-11,0-23-3.6-34.1-10c-11.1-6.5-20.9-17.1-29-31.6c-13.1-23.2-18.3-50-15.1-77.6
		c2.2-18.8,7.5-32.7,15.6-41.4c25-26.5,64.5-19.2,64.9-19.1l-0.5,2.6c-0.4-0.1-38.5-7.1-62.5,18.4c-7.8,8.2-12.8,21.6-14.9,39.9
		c-3.2,27,1.9,53.3,14.7,76c7.9,14,17.3,24.3,28,30.6c30.4,17.8,53.2,8.3,63.5-5.2l2.1,1.6c-7.9,10.3-19.1,15.8-32.6,15.9
		C379,218.4,378.9,218.4,378.8,218.4L378.8,218.4z"/>
	<path class="st1" d="M343.7,43.4c1.9,2.5,5.5,7.4,7.4,9.8c0.1,0.1,0.4,0,0.4-0.1l0.3-0.8l5.6-13.5l2.1,1l-6.7,13l-0.2,0.4
		c-0.2,0.6-0.9,1.2-1.6,1c-0.8-0.1-1.1-1-1.5-1.6C348.3,50.8,345,45.5,343.7,43.4L343.7,43.4L343.7,43.4z"/>
	<path class="st1" d="M338.5,45c2.5,3.2,8.8,11.4,11.2,14.6l1.9,2.4c0.4,0.5,0.4,0.5,0.6,0.5c0.1,0,0.1-0.1,0.2-0.2l0.3-0.7
		l9.3-22.7l2.1,0.9L353.8,62c-0.2,0.3-0.4,0.9-0.6,1.2c-0.2,0.2-0.3,0.3-0.5,0.3c-0.4,0.1-0.9,0.1-1.2-0.2c-0.4-0.3-0.4-0.5-0.6-0.7
		l-1.7-2.5C346.8,56.9,340.9,48.3,338.5,45L338.5,45L338.5,45z"/>
	<path class="st1" d="M368.1,38.6c2.2,3.5,5.9,9.3,8,12.7c0,0.1,0.1,0.2,0.1,0.2c0,0,0-0.1-0.1,0c-0.1,0.4,3.5-11.5,3.5-11.4
		l2.2,0.8c0,0.1-4.4,11.1-4.4,11.2c-0.4,0.9-1.7,1-2.2,0.1c-0.3-0.5-1.1-2-1.3-2.6C372.6,47.3,369.4,41.1,368.1,38.6L368.1,38.6
		L368.1,38.6L368.1,38.6z"/>
	<path class="st1" d="M381.3,40.5c-0.6-3.4-1.4-6.8-3.1-9.7c-2-2.8-5-4.4-7.7-6.6c-3.8-2.5-4.9-7.7-4-11.9c0.7-3.5,4.7-5,7.8-5.3
		c11-1.4,18.5,6.9,26.8,12.3c6.5,4.4,10.3,11.7,13.2,18.7c1.5,3.1,3.2,6.1,4.7,9.3c1.1,2.1,2,5.7-0.7,6.8c-0.5-0.1-0.6-0.2-0.7-0.4
		c-0.6-1.2-1.8-2-3-2.6c-6.7-2.7-14.7,1.1-20.8,3.9c-1.2,0.6-2.9,1.2-4.5,0.9c-0.9-0.2-1.4-0.6-1.8-0.9c-2.1-1.9-3.5-4.1-4.9-6.4
		l2.8,0.1l-8.3,11.4c-0.9,1.2-2.9,1.2-3.7-0.1c-2.8-5.5-7.4-14.7-10.3-20.3l2.1-1.1c1.9,3.5,6.7,12.5,8.6,15.9
		c0.4,0.8,1.6,3.1,2.1,3.8c-0.3-0.4-0.9-0.4-1.1,0.1c1.1-1.6,8.6-12.5,9.5-13.8c1.7,2.7,3.4,6.3,5.7,8.2c1.5,0.2,3.7-1,5.1-1.5
		c6.6-2.6,16.5-5.5,22.4,0c0.5,0.5,0.9,1.1,1.2,1.7c0.1,0.2,0.1,0.5-0.3,0.8c0.5-2,0.5-3.6-0.4-5.4c-1.7-3.4-3.7-6.6-5.4-9.9
		c-3.2-7.2-7.3-14.4-14.3-18.4c-5.7-3.8-10.7-8.7-17.3-10.6c-3.1-0.6-6.6-0.8-9.6,0.3c-1.4,0.6-2.5,1.2-2.8,2.7
		c-0.5,2.5-0.3,5.4,0.9,7.7c1.8,2.7,5.1,4.4,7.4,6.8C380.5,30.6,381.1,35.8,381.3,40.5L381.3,40.5L381.3,40.5z"/>
	<path class="st1" d="M378.4,17.1c4-0.2,6.9,3.8,7.1,7.5c0.4,2.6-0.1,5.4-0.6,7.9c-0.1,0.8-0.4,1.6-0.7,2.6c-0.7-0.7-1-1.7-1-2.6
		C382.6,27,385,19.8,378.4,17.1L378.4,17.1L378.4,17.1z"/>
	<path class="st1" d="M400.1,28.5c0,0-2.1-1.5-1.4-3.6s3.1-3,3.1-3l1.5,1.8c0,0-0.9-0.2-2.1,1.2C400,26.4,400,27.1,400.1,28.5
		L400.1,28.5z"/>
	<path class="st1" d="M388.9,39.2c-0.2,3.7,1.7,7.3,5,8.9l-0.3-0.1l0.8,0.1l-0.3,1.7c-0.2,0-0.8-0.2-1-0.3
		C389.8,47.4,388.1,43.2,388.9,39.2C388.9,39.2,388.9,39.2,388.9,39.2z"/>
	<path class="st1" d="M392.5,37.6c-0.2,3.7,1.7,7.3,5,8.9l-0.3-0.1l0.8,0.1l-0.3,1.7c-0.2,0-0.8-0.2-1-0.3
		C393.4,45.8,391.7,41.6,392.5,37.6C392.5,37.6,392.5,37.6,392.5,37.6z"/>
	<path class="st1" d="M409.1,36.7c0.8,3.9-0.9,8.1-4.2,10.4c-0.1,0-0.8,0.2-1,0.3l-0.3-1.7l0.8-0.1l-0.3,0.1
		C407.4,44,409.4,40.4,409.1,36.7C409.1,36.7,409.1,36.7,409.1,36.7z"/>
	<circle class="st9" cx="402.4" cy="38.2" r="8.2"/>
	<path class="st1" d="M401,42c-1.3,0-2.4-1.1-2.4-2.4c0-1.3,1.1-2.4,2.4-2.4c1.3,0,2.4,1.1,2.4,2.4C403.4,41,402.4,42,401,42z
		 M401,38.1c-0.9,0-1.6,0.7-1.6,1.6s0.7,1.6,1.6,1.6c0.9,0,1.6-0.7,1.6-1.6S401.9,38.1,401,38.1z"/>
	<path class="st1" d="M404.6,36.1c-0.5-1.3-2-1.8-3.1-2.3c-0.7-0.3-1.5-0.5-2.3-0.4c-0.4,0-0.8,0.1-1.2,0.2
		c-0.4,0.1-0.8,0.3-1.2,0.4c-0.2,0.1-0.2,0.3-0.1,0.5c0,0.1,0.1,0.2,0.2,0.2c0,0,0.3,0,0.3,0l0.1-0.1c0.6-0.3,1.3-0.4,1.9-0.4
		c0.8-0.1,1.5,0.1,2.2,0.4c1,0.4,2.4,0.9,2.8,2c0.1,0.2,0.3,0.1,0.4,0C404.7,36.5,404.7,36.3,404.6,36.1L404.6,36.1z"/>
	<path class="st1" d="M326.5,51.6l1.2,19.9l0,0.6c0.2,2-2,3.4-3.7,2.4c-2.9-1.4-10.6-5-13.6-6.3l9.3,3.7l4.6,1.8
		c0.7,0.3,1.3,0.2,1.8-0.3c0.5-0.5,0.4-1.2,0.3-1.9l-2.4-19.8L326.5,51.6L326.5,51.6L326.5,51.6z"/>
	<path class="st1" d="M309,72.7l13.8,6l6.9,3c0.6,0.2,1.2,0.6,1.6,0.6c0.8,0.1,1.6-0.6,1.6-1.5c0-0.3-0.2-2-0.3-2.3l-3.4-29.9
		l2.3-0.2l2.3,30c0,0.1,0.2,2.1,0.2,2.1c0.2,1.5-1.3,2.9-2.8,2.7c-0.7-0.1-1.3-0.5-1.9-0.8l-6.8-3.3L309,72.7L309,72.7L309,72.7z"/>
	<path class="st1" d="M304.1,90.8c3.4,2.9,12,10.2,15.3,13c0.8,0.7,3,2.6,3.8,3.3c0.4,0.4,1,0.8,1.3,1.3c1,1.5,0.1,3.7-1.7,4.1
		c-0.5,0.2-1.9,0.6-2.4,0.8c-4.1,1.3-14.9,4.9-19.1,6.2c4.2-1.6,14.8-5.6,18.8-7.1l1.6-0.6c0.4-0.2,1.1-0.4,1.4-0.6
		c0.9-0.7,0.9-2.1-0.1-2.7c-2.7-2.1-7.2-5.6-9.9-7.7l-10.6-8.2L304.1,90.8L304.1,90.8L304.1,90.8z"/>
	<path class="st1" d="M301.2,113.9l7.3-2.4c1-0.4,2.6-0.8,3.6-1.2c1-0.5,1.2-2.1,0.3-2.8l-0.4-0.3c-2.9-2.6-7.8-6.9-10.7-9.6
		l1.6-1.7c2.5,2.6,6.9,7.2,9.3,9.7l0.7,0.7c0.9,0.8,1.4,2,1,3.1c-0.2,0.7-0.8,1.4-1.5,1.7c-0.6,0.3-1.3,0.4-1.9,0.5
		C309.3,111.9,302.6,113.5,301.2,113.9L301.2,113.9L301.2,113.9z"/>
	<path class="st1" d="M302.4,130.4c3.1,1.6,10.9,5.5,13.9,6.9c0.8,0.4,2.7,1.4,3.5,1.7c1.4,0.6,1.8,2.6,0.7,3.7
		c-3.5,3.6-9.5,9.9-13.1,13.5c2.3-2.6,8-9.3,10.1-11.8l1.7-2l0.4-0.5c0.5-0.6,0.3-1.5-0.4-1.8c-2.1-0.9-6.1-2.6-8.3-3.6l-9.5-4.1
		L302.4,130.4L302.4,130.4L302.4,130.4z"/>
	<path class="st1" d="M305.3,150.3l3.7-3.7l1.8-1.8c0.9-0.7,0.8-1.9-0.2-2.2c-2.2-0.9-6.2-2.6-8.4-3.6l1-2.1c1.5,0.9,5.3,3,6.8,3.8
		c0.3,0.1,1.2,0.7,1.5,0.8c0.9,0.6,1.2,1.7,0.9,2.7c-0.2,0.5-0.6,0.9-1,1.2l-2,1.6L305.3,150.3L305.3,150.3L305.3,150.3z"/>
	<path class="st1" d="M324.5,186.9l7.1-20.7l0.2-0.6c0.1-0.3-0.2-0.6-0.5-0.5l-2.7,0.4c-3.5,0.5-12.7,1.8-16.2,2.3l-0.3-2.3
		c3.6-0.3,12.8-1.1,16.3-1.4l2.7-0.2c1.2-0.1,2.1,1.1,1.7,2.2l-0.3,0.7L324.5,186.9L324.5,186.9L324.5,186.9z"/>
	<path class="st1" d="M321.1,181.7c0.8-2,2.7-6.9,3.4-8.8c0.2-0.5,0.7-1.7,0.9-2.2c0-0.1,0.2-0.4,0.2-0.6c0-0.2-0.2-0.4-0.4-0.4
		c-2.6,0.7-7.7,2.1-10.4,2.8l-0.5-2.3c2.7-0.5,7.8-1.4,10.4-1.9c1.3-0.3,2.5,1.2,1.8,2.4c-0.3,0.6-0.9,1.8-1.2,2.5
		C324.4,175.1,322,179.9,321.1,181.7L321.1,181.7L321.1,181.7z"/>
	<path class="st1" d="M347.3,207.9c0.5-2.9,1.8-10.4,2.3-13.2c0-0.1,0.4-2.4,0.4-2.5c0.1-0.5-0.4-0.8-0.8-0.6l-0.5,0.3
		c-4.1,2-10.8,5.4-15,7.5l-1-2.1c4.3-1.8,11.2-4.7,15.4-6.5l0.5-0.2c1.1-0.5,2.4,0.4,2.4,1.5c0,0.5-0.5,2.4-0.6,2.8
		C349.8,197.6,348,205,347.3,207.9L347.3,207.9L347.3,207.9z"/>
	<path class="st1" d="M344.1,206.7c0.1-1.4,0.2-5,0.3-6.4l0-1.1c0-0.4-0.5-0.7-0.8-0.5c-1.4,1-4.3,3.2-5.8,4.2l-1.3-2
		c1.3-0.7,4.4-2.4,5.7-3.1l0.5-0.3c1.2-0.8,3,0.2,2.7,1.7l-0.2,1.1C345,201.7,344.3,205.3,344.1,206.7L344.1,206.7L344.1,206.7z"/>
	<path class="st1" d="M355.8,211.7c2.5-1.6,7.7-5,10.2-6.6c1.9-1.5,4.4-1,5.5,1.3l0.5,0.8l1.9,3.2l3.9,6.4l-4.4-6.1
		c-0.4-0.6-2.4-3.3-2.7-3.8c-0.6-1.2-2-1.9-3.2-1.1c-0.3,0.2-1.1,0.8-1.4,1.1c-1.9,1.4-7,5.3-8.9,6.8L355.8,211.7L355.8,211.7
		L355.8,211.7z"/>
	<path class="st1" d="M360.7,213.5c1.1-0.5,3.7-1.8,4.7-2.3l0.8-0.4c0.9-0.6,2.4-0.4,3,0.6c0.5,1.1,1.4,3.8,1.9,5l-1.7-3
		c-0.5-0.7-0.8-2.1-1.9-1.7c-0.3,0.1-1,0.6-1.3,0.8c-0.9,0.6-3.4,2.4-4.3,3L360.7,213.5L360.7,213.5L360.7,213.5z"/>
	<path class="st1" d="M383.2,216.2c0.7-1.6,2.6-5.8,3.3-7.4l0.3-0.6c0.5-1.6,2.3-2.5,3.8-1.5c0.6,0.4,2.5,1.7,3.1,2.1l4.4,3.1
		c-2.1-1.1-6-3.3-8-4.4c-0.6-0.3-1.5,0-1.8,0.6c-0.1,0.3-0.3,0.9-0.4,1.2c-0.5,1.6-2,6-2.5,7.7L383.2,216.2L383.2,216.2L383.2,216.2
		z"/>
	<path class="st1" d="M386.9,215.3l1.3-2.3l0.3-0.6c0.4-0.8,1.3-1.4,2.1-1.4c1.1-0.1,1.9,0.7,2.6,1.3l2,1.7l-2.3-1.3
		c-0.7-0.3-1.3-0.9-2.1-0.7c-0.7,0.2-0.8,0.9-1,1.5l-0.7,2.5L386.9,215.3L386.9,215.3L386.9,215.3z"/>
	<path class="st1" d="M400.8,209.3c0.1-1.5,0.3-5.2,0.4-6.6c0.1-0.5,0-1.3,0.2-1.8c0.3-1.2,1.4-2,2.5-2c0.7,0,1.6,0.4,2.3,0.5
		l4.2,1.2l0,0.1l-4.4-0.7c-0.5-0.1-1.5-0.3-2.1-0.3c-0.7,0.1-1.3,0.6-1.3,1.3c0,0.3,0.1,1.2,0.1,1.5c0.1,1.4,0.3,5.1,0.4,6.6
		L400.8,209.3L400.8,209.3z"/>
	<path class="st1" d="M406.1,210.1c-0.5,0-0.9-0.2-1.3-0.5l-0.2-0.1c-0.9-0.7-1.4-2-1.3-3.4l0.1-1.7c0.1-1.2,0.5-2.2,1.2-2.7
		c0.5-0.4,1.1-0.6,1.7-0.5c1.3,0.1,2.3,1.5,2.4,3.4l0.1,1.8c0.1,1.6-0.6,3-1.6,3.5C406.8,210,406.5,210.1,406.1,210.1L406.1,210.1z
		 M406.1,204.4c0,0.1,0,0.1,0,0.2l-0.1,1.7c0,0.4,0,0.7,0.1,0.9c0.1-0.2,0.1-0.5,0.1-0.8l-0.1-1.8
		C406.1,204.5,406.1,204.4,406.1,204.4L406.1,204.4z"/>
	<path class="st1" d="M413.7,191l-3.8-3.7l-0.5-0.5c-1.1-1-1.3-2.7-0.6-3.9c0.1-0.1,4.8-10.3,5.1-10.9c-0.4,1.1-3.7,10.9-3.9,11.7
		c-0.2,0.7,0,1.4,0.6,1.8l0.5,0.4l4.2,3.3L413.7,191L413.7,191L413.7,191z"/>
	<path class="st1" d="M414.3,186.7l-0.9-1c-1-0.8-1.6-2.6-0.9-3.8c0.1-0.2,2.8-4.8,3-5.1l-1.6,5c-0.2,0.5-0.2,0.7-0.2,1
		c0.1,0.7,0.4,0.9,1.1,1.4l1.1,0.7L414.3,186.7L414.3,186.7L414.3,186.7z"/>
	<path class="st1" d="M386,202.7c-5.3,0-9.4-4.5-11.3-9c-1.8-4.1-2.5-8.7-2.9-13.1c-0.1-0.6,0.3-1,0.8-1.1
		c6.3-2.8,6.1-10.9,4.7-16.7c-0.5-2.2-1.1-4.4-1.7-6.5c-1-3.4-2.8-6.5-2.9-10.3c0.5-3.7,4.1-7.3,7.7-8.1c2.8-0.6,5.7,1.2,6.9,3.6
		l-0.9-0.7c2.1,0.1,2.7-2.4,2.7-4.2c0.2-5.6-4.6-9.9-9.3-12.3c-2.9-1.4-5.9-2.9-9-3.3c-3.1-0.4-6.4,0.3-9.3,1.4
		c-2.5,0.8-4.7,2.5-7.6,2.5l-0.5-0.1l-0.3,0c-1.1-0.2-2,0.3-2.8,1.2c-3.3,4.9-6.6,10.6-12.3,13.1c-1.6,0.6-3.2,1.1-4.8,1.7
		c-0.6,0.3-1.4,0-1.6-0.6c-0.1-0.3-0.1-0.7,0.1-1c0.6-1,1.2-2.1,1.6-3.2c0.3-1.1,0.7-2.4,0-3.5c1.5,1.4,1.2,3.8,1,5.6
		c-0.1,0.7-0.2,1.3-0.4,2l-1.5-1.6c1.6-0.6,3.2-1.1,4.7-1.7c4.3-2,7.2-6.4,9.8-10.2c1.1-2,2.9-4.5,5.6-4.4c0.4,0,0.9,0.1,1.3,0.1
		c0.5,0,1.2-0.2,1.9-0.5c3-1.3,6.4-2.8,9.8-3.3c3.4-0.7,7.3-0.1,10.5,1.3c4.8,2,9.7,4.4,12.9,8.8c2.2,3,3.1,7,2,10.6
		c-0.5,2.1-2.6,3.9-4.9,3.6c-0.4,0-0.7-0.3-0.9-0.7c-0.8-1.5-2.6-2.8-4.4-2.4c-2.5,0.6-5.5,3.4-5.8,6c0.1,3.1,1.9,6.3,2.7,9.4
		c1.2,3.9,2.3,7.9,2.6,12c0.6,5.5-1.5,12-7.1,14.2l0.8-1.1l0.1,3.5c0.4,7.4,3,17.7,11.8,18.6C386.1,202.5,386.1,202.5,386,202.7
		C386.1,202.6,386.1,202.7,386,202.7L386,202.7L386,202.7z"/>
	<path class="st1" d="M381.5,118c-9.9-5.9-19.7-5.4-30.2-1.1c-4.9,2-9.8,4.4-13.7,8.1c-4.1,3.5-8,7.4-12.8,9.9
		c5.2-3.1,9.3-7.7,13.7-11.9c5.7-4.8,12.6-8.4,19.8-10.5C366.3,110.1,376,111.5,381.5,118C381.5,118,381.5,118,381.5,118z"/>
	<path class="st1" d="M324.9,141.6l4.3-0.3c1.4-0.2,3,0.5,3.7,1.8c0.4,0.7,0.4,1.4,0.6,2.1l0.5,2.1c1.7,6.9,3.8,13.8,6.3,20.4
		c2.1,5.3,4.4,10.5,7.9,15c10.8,13.8,25.1,24.9,43.2,17.8c5.6-2.2,11.3-6.2,12.9-12.2c0.9-4.3,0.6-10.1-3-13
		c-4.3-4-10.3,0.8-11.6,5.3c-0.5,1.8-0.2,5.4,2.3,4.7c0.7-0.1,1.4-1.4,2-2.7c0.7-1.5,1.9-3.1,3.8-3.4c3.4-0.5,5.4,3.2,5.4,6.1
		c0.1,2.1-1,4.1-2.2,5.6c-3.2,4.1-12.6,7.1-17,3.9c-5.9-4.7-4.1-15.4-1.8-21.5c1.4-3.7,4.3-7.6,8.3-8.9c0.5-0.2,0.8-0.9,0.6-1.4
		c-0.5-3.8,0.9-7.6,2.2-11c1-2.7,2.4-5.4,4-7.8c0.8-1.2,1.6-2.3,1.9-3.5c0.5-1.3,0.4-2.3,0.1-3.6c-0.2-1.5-0.3-3.1-0.1-4.6
		c0.2-2.3,0.9-4.3,1.1-6.6c0.2-2.3-0.5-4.4-2.1-6.2l0,0c-0.1-0.1,0-0.2,0-0.2c1.2-1.2,1.7-3.2,0.7-4.7c-1.6-2-7.8,0.4-10.3,0.4
		c-1.9,0.2-3.9-0.2-5.7-0.5c-7.3-1.4-14-5.1-21.2-6.5c-5.2-1-10.7-1.3-15.8,0.3c-8.3,3.6-15,10-22.6,15.3c2.3-3,4.8-5.7,7.6-8.2
		c4.2-3.8,8.7-7.5,14.1-9.6c5.6-1.7,11.6-1.4,17.2-0.2c9,1.8,17,7.6,26.3,7.9c2.9,0.1,9.2-2.1,11.1,0.7c1,1.8,0.3,4.1-1.2,5.4l0-0.3
		c1.8,0.4,3.4,1.9,4,3.7c1.2,3.4-0.4,6.2-0.7,9.6c-0.3,2.2,0.2,4.1,0.3,6.3c0,2.4-1.5,4.7-2.7,6.5c-1.6,2.3-2.8,4.7-3.8,7.4
		c-1,2.6-1.9,5.3-2.1,7.9c-0.1,0.8,0,1.5,0.1,2.2c0.1,0.9-0.2,1.9-0.7,2.6c-0.5,0.6-1.1,1-1.8,1.2c-3.3,1.2-5.3,4.2-6.6,7.4
		c-2.3,5.5-4.5,19.6,4.3,19.8c2.6-0.1,5.4-0.7,7.7-2c3.3-1.8,6-5.5,4.1-9.2c-0.5-1-1.3-1.6-2.3-1.5c-1.9,0.4-2.2,2.8-3.3,4.2
		c-1,1.7-3.2,2.5-5,1.5c-2.4-1.5-2.6-4.6-2-7c1.6-5.9,9.4-11.3,14.7-6.2c4.1,3.6,4.5,9.8,3.4,14.8c-1.8,6.6-7.9,11-14,13.3
		c-18.8,7.2-33.5-4.2-44.4-18.6c-3.5-4.6-5.8-9.9-7.8-15.3c-2-5.4-3.6-10.9-5-16.4c-0.5-2-1-4.2-1.4-6.3c-0.2-1.4-0.6-2.9-2-3.5
		c-0.6-0.3-1.3-0.4-2.1-0.3L324.9,141.6L324.9,141.6L324.9,141.6z"/>
	<path class="st1" d="M379.5,149.6c-3,0-5.6-1.4-5.8-1.4c-0.6-0.3-0.9-1.1-0.5-1.8c0.3-0.6,1.1-0.9,1.8-0.5c0.1,0,3.8,2,6.8,0.7
		c1.6-0.7,2.6-2.2,3.3-4.5c0.2-0.7,0.9-1.1,1.6-0.9c0.7,0.2,1.1,0.9,0.9,1.6c-0.8,3.1-2.5,5.2-4.8,6.2
		C381.6,149.5,380.5,149.6,379.5,149.6L379.5,149.6z"/>
	<path class="st1" d="M355.3,102.2l-0.7,3.7l-3-0.2C351.6,105.8,354.2,106.2,355.3,102.2z"/>
	<path class="st1" d="M334.2,137.7c2.4-3,4.7-6.6,4.5-10.6c1.2,4.1-0.4,8.5-2.3,12.2C335.4,140.9,333,139.2,334.2,137.7L334.2,137.7
		L334.2,137.7z"/>
	<path class="st1" d="M338.7,134.2c2.4-3,4.7-6.6,4.5-10.6c1.2,4.1-0.4,8.5-2.3,12.2C339.9,137.5,337.5,135.8,338.7,134.2
		L338.7,134.2L338.7,134.2z"/>
	<path class="st1" d="M342.5,130.8c2.4-3,4.7-6.6,4.5-10.6c1.2,4.1-0.4,8.5-2.3,12.2C343.7,134,341.2,132.3,342.5,130.8L342.5,130.8
		L342.5,130.8z"/>
	<path class="st1" d="M346.4,127.2c2.4-3,4.7-6.6,4.5-10.6c1.2,4.1-0.4,8.5-2.3,12.2C347.6,130.5,345.2,128.7,346.4,127.2
		L346.4,127.2L346.4,127.2z"/>
	<path class="st1" d="M356.2,116.7c-1,2.8-2.4,6.1-5.5,7.2l0.5-0.3c-3.7,6.6-8.9,12.4-15.6,16c-0.6,0.4-1.5,0.1-1.8-0.5
		c-0.4-0.7-0.1-1.5,0.6-1.9c3.2-1.5,6.1-3.6,8.8-6c2.6-2.5,5-5.3,6.9-8.4c0.1-0.2,0.3-0.2,0.4-0.3C353.3,122,354.9,119,356.2,116.7
		L356.2,116.7L356.2,116.7z"/>
	<path class="st1" d="M358.8,116.1c0.9,1.8,1.1,5.8-1,6.8c-0.5,0.2-1.1,0.4-1.3-0.3c-0.1-0.3,0.1-0.6,0.4-0.7
		c1.2,0.1,1.7-1.2,1.9-2.2C359,118.5,359.2,117.2,358.8,116.1L358.8,116.1z"/>
	<path class="st1" d="M361.9,114.9c0.9,1.8,1.1,5.8-1,6.8c-0.5,0.2-1.1,0.4-1.3-0.3c-0.1-0.3,0.1-0.6,0.4-0.7
		c1.2,0.1,1.7-1.2,1.9-2.2C362.1,117.3,362.3,116,361.9,114.9L361.9,114.9z"/>
	<path class="st1" d="M365.3,114.6c0.9,1.8,1.1,5.8-1,6.8c-0.5,0.2-1.1,0.4-1.3-0.3c-0.1-0.3,0.1-0.6,0.4-0.7
		c1.2,0.1,1.7-1.2,1.9-2.2C365.5,117,365.7,115.7,365.3,114.6L365.3,114.6z"/>
	<path class="st1" d="M368.5,113.7c0.9,1.8,1.1,5.8-1,6.8c-0.5,0.2-1.1,0.4-1.3-0.3c-0.1-0.3,0.1-0.6,0.4-0.7
		c1.2,0.1,1.7-1.2,1.9-2.2C368.7,116.2,368.9,114.8,368.5,113.7L368.5,113.7z"/>
	<path class="st1" d="M368.1,114.1c0.6,0.3,0.8,1.1,1,1.7c0.6,2.1-0.2,4.8-2.7,4.9c-0.3,0-0.6-0.2-0.7-0.5c0-0.4,0.3-0.7,0.6-0.7
		c2,0.2,2.7-2,2.5-3.7C368.7,115.2,368.6,114.5,368.1,114.1L368.1,114.1L368.1,114.1z"/>
	<path class="st1" d="M371.7,114.3c0.6,0.3,0.8,1.1,1,1.7c0.6,2.1-0.2,4.8-2.7,4.9c-0.3,0-0.6-0.2-0.7-0.5c0-0.4,0.3-0.7,0.6-0.7
		c2,0.2,2.7-2,2.5-3.7C372.3,115.5,372.2,114.7,371.7,114.3L371.7,114.3L371.7,114.3z"/>
	<path class="st1" d="M373.9,120.8c1.1-0.1,2.2-0.8,2.3-2c0.1-0.8-0.1-2.1-0.7-2.6l0.1-1c0-0.1,0.1-0.2,0.2-0.2
		c1.3,0.7,1.3,2.6,1,3.9C376.5,120.2,375.2,120.9,373.9,120.8L373.9,120.8L373.9,120.8z"/>
	<path class="st1" d="M378.8,116.9c1.5,0.9,1.6,3.9,0.2,5c-0.5,0.4-2.4,1.3-2.6,0.2c-0.1-0.4,0.3-0.7,0.6-0.7c0.5,0,1,0,1.4-0.3
		C379.7,120.5,379.9,117.9,378.8,116.9L378.8,116.9z"/>
	<path class="st1" d="M381.7,118.2c1.5,0.9,1.6,3.9,0.2,5c-0.5,0.4-2.4,1.3-2.6,0.2c-0.1-0.4,0.3-0.7,0.6-0.7c0.5,0,1,0,1.4-0.3
		C382.6,121.7,382.8,119.1,381.7,118.2L381.7,118.2z"/>
	<path class="st1" d="M385,120.1c1.5,0.9,1.6,3.9,0.2,5c-0.5,0.4-2.4,1.3-2.6,0.2c-0.1-0.4,0.3-0.7,0.6-0.7c0.5,0,1,0,1.4-0.3
		C385.9,123.6,386.1,121,385,120.1L385,120.1z"/>
	<path class="st1" d="M388.5,122.6c1.5,0.9,1.6,3.9,0.2,5c-0.5,0.4-2.4,1.3-2.6,0.2c-0.1-0.4,0.3-0.7,0.6-0.7c0.5,0,1,0,1.4-0.3
		C389.4,126.2,389.7,123.5,388.5,122.6L388.5,122.6z"/>
	<path class="st1" d="M396,112.9c-0.9-3.7-1.8-9.1-2.8-12.7c-1.1-5.6-6.1-7.7-11.4-7.5c-7.5-0.2-15.5-0.5-22.9-1
		c-0.4,0-0.7-0.3-0.7-0.7c0-0.3,0.3-0.6,0.6-0.6c4-1.8,5.6-7,6.7-10.9l0.4-1.9l-0.3,2c-0.8,4.2-1.9,9-5.5,11.7
		c-0.3,0.2-0.6,0.4-1.1,0.6l-0.2-1.4c8.6,0,17.6,0,26.3,0.3c4.8,0.5,9.2,4.1,9.9,9c1,4.4,1.4,8.7,1.5,13.1
		C396.6,113.2,396,113.3,396,112.9L396,112.9L396,112.9z"/>
	<path class="st1" d="M375.1,91.1c-0.5-4,2.9-6.7,6.4-7.8c3.9-1.4,7.4,2.2,9.2,5.2c0,0,0,0,0,0c-0.1-0.2-0.4-0.4-0.6-0.4
		c0.3,0,0.7,0,1.1-0.1c5.3-1,10.6-2.6,15.8-4.1c2.3-0.2,4.8,0.8,6.2,2.7c1.1,1.3,1.6,3,1.6,4.7v1.4c0,0.5-0.3,0.9-0.7,1.1l-18.7,8.2
		l-0.2,0.1c-0.5,0.2-1.1,0-1.3-0.5c-0.1-0.5-0.4-1.1-0.7-1.6c-0.6-1-1.5-1.8-2.6-2.3c-0.5-0.3-1.1-0.5-1.7-0.6
		c2.4-0.2,4.8,0.8,6.4,2.5c0.3,0.3,0.5,0.5,0.7,0.9l-1.5-0.5l18.7-8.2l-0.7,1.1v-1.4c0.1-1.9-1-3.8-2.8-4.6
		c-0.7-0.3-1.4-0.4-2.4-0.5l0.5,0c-4.6,1.3-9.1,2.6-13.7,3.7c-1.4,0.3-2.7,0.7-4.2,0.6c-0.4-0.1-0.8-0.3-1-0.6
		c-1.5-2.3-3.6-5.2-6.6-4.3c-2,0.8-4.5,2.1-4.7,4.5c0,0.3,0,0.6,0,1L375.1,91.1L375.1,91.1L375.1,91.1z"/>
	<path class="st1" d="M337.3,88.5c-1.8-1.5-4-0.2-5.7,0.9c-0.9,0.6-1.7,1.3-2.1,2.3c-0.5,1-0.7,2.2-0.6,3.3c0.1,1.1,0.4,2.6,1.6,2.8
		c4.4,0.9,5.9-1.6,6.9-3.5c0.5-1,1.1-2.1,1.1-3.3C338.4,90,338,89.1,337.3,88.5z"/>
	<path class="st1" d="M336.3,104.5c-0.1-0.7-0.4-1.4-1-1.7c-0.7-0.4-1.5-0.8-2.4-0.6c-0.8,0.1-1.6,0.5-2.2,0.8
		c-1.4,0.8-1.9,2.7-1.4,4.1c0.2,0.7,0.7,1.3,1.3,1.6c0.4,0.2,2.4,0.5,2.6,0.5c1.3-0.2,2.5-1.2,2.9-2.5
		C336.3,106,336.4,105.3,336.3,104.5L336.3,104.5z"/>
	<circle class="st1" cx="339" cy="97.3" r="1.8"/>
	<circle class="st1" cx="340" cy="102.2" r="2.3"/>
	<path class="st1" d="M338.6,111c0,0,0.4-4.3,1.5-4.8c1.1-0.6,2.2-1,3-0.3c1.2,0.9,0.6,2.7-0.2,2.9C342,109,338.5,111,338.6,111
		L338.6,111z"/>
	<path class="st1" d="M414.7,170.5c0,0-1.6-7.5-2.8-8c-1.2-0.6-3.4,3.2-3.4,3.2s-0.3-5.3-2-6.4c-1.6-1.1-3.8,4.1-3.8,4.1l-2.6,0.1
		c0,0,0.1-4.8-2.6-4.9c-2.7-0.1-0.8,5.9-0.8,5.9S411.5,160.5,414.7,170.5L414.7,170.5z"/>
	<path class="st1" d="M398.3,161.3c0,0,3.4-1.1,5.4-0.3c2,0.8,8.3,4.6,10.3,7.6c2.1,3-8.6-5.2-11.3-5.2s-4.4,0.3-4.4,0.3
		L398.3,161.3z"/>
	<path class="st1" d="M397,199c-0.4,0-0.7-0.2-1-0.5l-2.8-3.4c-0.5-0.5-0.4-1.4,0.2-1.8c0.5-0.5,1.4-0.4,1.8,0.2l2.8,3.4
		c0.5,0.5,0.4,1.4-0.2,1.8C397.6,198.9,397.3,199,397,199L397,199z"/>
	<path class="st1" d="M401.6,157.1c-0.5,0-1-0.3-1.2-0.9c0,0-0.5-1.2-2.5-2c-1.6-0.7-3.4,1.4-3.4,1.4c-0.4,0.5-1,0.6-1.6,0.4
		c-0.5-0.3-0.8-0.8-0.7-1.4c1.1-5.7,7.5-9.1,17.5-9.5c8-0.3,14.2-3.5,14.3-3.5c0.3-0.1,0.6-0.2,0.9-0.1c0.5,0.1,0.8,0.4,1,0.9
		c0.3,0.8,0.2,1.9-1.6,4.8c-2.4,4-10.4,8.7-14.2,9c-3.8,0.3-4.8-0.6-7.1-2.7l-0.3-0.2c0.2,1,0.3,2,0.2,2.7c-0.1,0.6-0.5,1.1-1.1,1.1
		C401.7,157.1,401.7,157.1,401.6,157.1L401.6,157.1z M400.9,149.3c1.4,0,2.7,1.2,3.1,1.6l0.7,0.7c2.2,2,2.5,2.3,5.2,2.1
		c3-0.3,10.2-4.6,12.2-7.8c0.1-0.2,0.3-0.5,0.4-0.7c-2.7,1-7.3,2.4-12.7,2.6C406.3,147.9,403.3,148.4,400.9,149.3L400.9,149.3z
		 M397.2,151.5c0.4,0,0.8,0.1,1.3,0.2c0-0.1,0-0.3,0-0.4c0.1-0.4,0.3-0.8,0.6-1.2c-0.8,0.4-1.6,0.9-2.2,1.5
		C397,151.5,397.1,151.5,397.2,151.5L397.2,151.5z"/>
	<path class="st1" d="M354.3,155.1l18.6,24.8l-0.5,0.1c1.9-7.5,1.3-16.3-3.3-22.6c-3.7-4.7-9.5-6.9-15-9c-1.9-0.8-4.1-1.3-5.6-2.9
		l1.3-0.3c-1.4,7.1-2.7,17.4,2.6,23c5.1,6.1,12.1,11.3,20.3,10.9c1.5,0,1.6,2.3,0.1,2.3c-8.9,0.3-16.5-5.3-21.8-12
		c-3-3.2-3.9-7.9-4-12.1c-0.1-4.2,0.5-8.4,1.4-12.5c0.1-0.4,0.5-0.6,0.8-0.5c0.2,0,0.3,0.1,0.4,0.3c0.2,0.3,0.6,0.5,1,0.7
		c8.6,4.1,18.9,6.5,22,16.9c1.9,5.8,2,12.1,0.3,18c0,0.1-0.2,0.2-0.3,0.2C372.4,180.3,354.5,155.2,354.3,155.1L354.3,155.1
		L354.3,155.1z"/>
	<path class="st1" d="M401.2,138.3c2.8-4.6,6.6-8.3,10.2-12.2c3.6-3.7,7.4-7.4,11.1-11c-3.5,3.8-6.9,7.8-10.3,11.8
		c-3.2,3.9-6.7,7.9-9,12.4C402.6,140.9,400.4,139.8,401.2,138.3L401.2,138.3L401.2,138.3z"/>
	<path class="st1" d="M412,118.3c0.5,3.8-0.9,7.6-1.8,11.2l-1-0.7c3.5-2.5,6.9-5.2,10.7-7.2c-3.6,2.4-6.7,5.3-9.9,8.2
		c-0.5,0.4-1.2-0.1-1-0.7C410.3,125.7,412.1,122.1,412,118.3L412,118.3L412,118.3z"/>
	<path class="st1" d="M325.2,94.3c-0.2-0.4-0.6-0.5-1.1-0.4c-0.4,0-0.8,0.1-1.2,0.3c-0.4,0.1-0.8,0.3-1.1,0.5s-0.6,0.5-0.8,0.9
		c-0.2,0.5-0.2,1-0.1,1.5c0.1,0.4,0.2,0.9,0.5,1.3c0.2,0.2,0.3,0.2,0.6,0.2c0.2,0,0.8-0.1,1.1-0.4c0.4-0.4,0.7-0.9,1.1-1.3
		c0.3-0.4,0.7-0.8,0.9-1.2C325.4,95.3,325.5,94.7,325.2,94.3L325.2,94.3z"/>
	<path class="st1" d="M322,87.9c-0.3-0.3-0.7-0.5-1.2-0.5c-0.4-0.1-0.8,0.1-1.1,0.3c-0.7,0.6-0.6,1.6-0.2,2.4c0.2,0.4,0.4,0.7,0.8,1
		c0.2,0.1,0.4,0.2,0.6,0.2c0.2,0,1.1,0,1.4-0.1c0.4-0.2,0.6-0.6,0.7-1C323.3,89.2,322.7,88.4,322,87.9z"/>
	<path class="st1" d="M328.5,88.4c-0.1-0.8-0.8-1.4-1.6-1.4c-0.1,0-0.2,0.1-0.3,0.2c-0.1,0-0.1,0-0.2,0.1c-0.2,0.1-0.3,0.2-0.5,0.3
		c-0.3,0.2-0.5,0.5-0.6,0.9c-0.2,0.7-0.1,1.5,0.4,2c0.2,0.3,0.6,0.5,1,0.5c0.4,0,0.8-0.2,1.1-0.5C328.4,90,328.7,89.2,328.5,88.4
		L328.5,88.4z"/>
	<path class="st1" d="M331.9,148.1c-0.1-0.9-0.2-1.9-1.1-2.5c-0.8-0.5-1.8-1.1-2.8-1.1c-0.9,0-1.7,0.5-2.3,1.1
		c-0.7,0.7-1,1.7-1.2,2.7c-0.2,1-0.2,2.2,0,3.2c0.2,1,0.8,1.9,1.7,2.5c0.3,0.2,3.3,0.4,3.9-0.2c0.7-0.6,1.3-1.4,1.6-2.4
		C332.1,150.3,332,149.1,331.9,148.1L331.9,148.1z"/>
	<path class="st1" d="M328.2,158.7c0.2-0.6,0-1.3-0.3-1.9c-0.3-0.5-0.7-0.9-1.3-0.8c-0.6,0-1.1,0.5-1.2,1.2c0,0.6,0.4,1.2,0.9,1.5
		c0.3,0.2,0.6,0.3,0.9,0.4c0.2,0,0.4,0.1,0.5,0.1c0.2,0,0.5,0,0.5-0.3C328.2,158.9,328.2,158.8,328.2,158.7
		C328.2,158.8,328.2,158.8,328.2,158.7L328.2,158.7z"/>
	<path class="st1" d="M334.6,156.4c0-0.4,0-0.9-0.1-1.3s-0.3-0.8-0.7-1.1c-0.2-0.1-0.4-0.1-0.6-0.3c-0.2-0.1-0.4-0.3-0.7-0.2
		c-0.4,0.1-0.8,0.4-1,0.7c-0.4,0.7-0.4,1.7-0.1,2.4c0.2,0.5,0.4,0.9,0.7,1.3c0.2,0.2,0.3,0.4,0.5,0.5c0.1,0.1,0.2,0.1,0.3,0.2
		c0.2,0.1,0.3,0.2,0.5,0.2c0.2,0,0.3-0.2,0.2-0.4C334.2,158,334.5,157.2,334.6,156.4L334.6,156.4z"/>
	<path class="st1" d="M337.9,169.7c-0.4-0.8-1-1.8-2-1.7c-1,0.1-1.4,1.4-1.4,2.3c0,0.9,0.5,1.8,1.2,2.4c0.4,0.3,0.9,0.5,1.4,0.5
		c0.1,0,0.3,0,0.4,0c0.2,0,0.5,0,0.6-0.1c0.2-0.1,0.2-0.3,0.1-0.5C338.6,171.7,338.3,170.7,337.9,169.7L337.9,169.7z"/>
	<path class="st1" d="M339.4,178.5c-0.1-0.4-0.1-0.9-0.3-1.3c-0.2-0.4-0.6-0.6-0.9-0.8c-0.4-0.2-0.8-0.4-1.2-0.4
		c-0.9,0-1.5,0.7-1.4,1.6c0.1,0.9,0.8,1.5,1.5,2c0.3,0.3,0.7,0.5,1.2,0.7c0.2,0.1,0.5,0.1,0.7,0.1c0.1,0.1,0.1,0.2,0.3,0.1
		c0.2-0.1,0.3-0.3,0.3-0.5C339.5,179.5,339.5,179.1,339.4,178.5L339.4,178.5z"/>
	<path class="st1" d="M344,176.9c-0.6-1.7-1.3-3.3-2-4.9c-0.1-0.2-0.3-0.1-0.4,0c0,0,0,0.1,0,0.1c0,0,0-0.1,0-0.1
		c-0.2-0.2-0.4,0-0.4,0.2c-0.6,1.3-0.5,3,0.1,4.3c0.3,0.7,0.8,1.2,1.4,1.2c0.3,0,0.6,0,0.9-0.1c0.2,0,0.4-0.1,0.5-0.3
		C344,177.4,344.1,177.1,344,176.9L344,176.9z"/>
	<path class="st1" d="M353.6,163.5l11.8,5.3l-0.8,0.7l-4.1-14l5.2,13.6c0.2,0.5-0.4,1-0.8,0.7L353.6,163.5L353.6,163.5L353.6,163.5z
		"/>
	<path class="st1" d="M384.6,50.4c1,2.2,2.8,5.9,5.4,6c0.5,0,1.1-0.2,1.6-0.4c2.5-0.8,4.5-2.8,7-3.9c4-1.9,8.8-1.8,12.8-0.3
		c2.7,0.9,8.2,4.2,7,7.6c-0.3,0.8-1.1,1.4-1.8,1.6c-4.1,1.2-8.5,0.3-12.3-1.4c-2.4-1.1-5-2.1-7.2-3.6c-0.1-0.1-0.3-0.3-0.1-0.5
		c0.3-0.3,0.7,0.3,0.2,0.4c0,0,0.1,0,0.1-0.1c0.1-0.1,0.1-0.2,0-0.2c0,0,0,0,0.1,0c2.2,1.4,4.8,2.2,7.2,3.3c2.5,1,5.2,1.7,7.8,1.7
		c1.3,0,2.6-0.2,3.9-0.6c1.1-0.3,1.6-1.6,1-2.5c-0.7-1.1-1.7-1.9-2.8-2.6c-4.4-2.6-10.3-3.2-14.8-0.7c-2.8,1.6-5.4,4.2-8.8,4.9
		c-4.6,0.8-7.5-4-9.2-7.5C381,49.6,383.8,48.5,384.6,50.4L384.6,50.4L384.6,50.4z"/>
	<path class="st1" d="M416.9,56.2c0.4,0.3,1,0.2,1.3-0.3c0.5-0.9,1.1-2.3,1.5-3.2c1-2.1,0.1-4-0.5-5c-0.1-0.2-0.5-0.2-0.6,0
		c-0.5,1.2-1.9,3.4-5.3,1.7c-0.8-0.4,3.4,2.7,3.1,3.8c-0.3,1.1-3.4,0-3.4,0S416.9,56.2,416.9,56.2z"/>
	<path class="st1" d="M414.1,54.4c-3.7-2.4-8.4-3.1-12.6-1.5c-2.6,0.9-5.5,2.3-6.9,4.8c-0.2,0.5-0.5,1.2-0.3,1.7
		c0.2,0.4,0.9,0.7,1.5,0.9c1.3,0.4,2.8,0.5,4.3,0.7c4.5,0.5,8.8,0.1,13.4,0.1c1.8,0.1,4,0.1,5.4,1.7c0.9,1.4,0.5,3.2,0.2,4.6
		c-0.5,1.5-1.2,2.9-2,4.3c-1.9,3-5.5,7.2-9.4,7.4c-1.3,0-2.4-1.2-2.5-2.4l2.2,0.4c-1.2,2.4-2.6,4.6-4.6,6.4c-0.9,0.7-3.1,2.6-4,0.8
		c-0.1-0.2-0.1-0.5,0-0.7c0.4-1.7,0.6-4.3-0.5-5.6l1.8,0c-2.1,2.4-4.3,4.8-7.6,5.5c-0.6,0.1-1.2-0.3-1.3-1c0-0.6,0.3-1.2,0.4-1.9
		c0.2-1.1,0.4-2.6-0.1-3.6l1.8,0.1c-1.8,1.8-3.6,3.5-5.9,4.7c-1,0.5-3.6,1.8-4-0.2c-0.1-0.7,0.5-1,0.8-1.5c1.1-1.4,1.5-3.2,1.3-5
		l2.1,0.6c-0.5,0.7-1,1.2-1.6,1.8c-1,1.3-6.9,6.2-7.7,3.1c0.1-1.5,0.6-3.7-0.2-5l1.9-0.1c-3.6,5.2-6.9,10.6-11.3,15.1
		c-0.3,0.3-0.6,0.6-1.1,0.8c-0.1,0-0.2,0-0.2-0.1c0-0.1,0-0.2,0.1-0.2c2.4-2.1,3.9-5.3,5.7-8c1.7-2.9,3.3-5.8,4.8-8.7
		c0.3-0.5,1-0.8,1.5-0.5c1.2,0.9,1.3,2.5,1.4,3.7c0,1.1-0.1,2-0.3,3.1l-1.3-1.4c1.9-0.4,3.6-2,5-3.4c0.9-0.7,1.7-2.8,3.1-1.9
		c0.3,0.2,0.4,0.5,0.4,0.8c0.3,2.7-0.5,5.6-2.5,7.5l-0.9-2c2.8-0.5,5.1-2.9,7-4.8c1.5-1.3,2.4,0.9,2.5,2.1c0.2,1.7-0.1,3.3-0.6,5
		L392,81c1.8-0.4,3.4-1.8,4.7-3.1c0.9-0.7,1.7-2.7,3-1.7c2,2.1,1.7,5.2,1.2,7.9l-1.5-1.4c1.8-0.7,3.5-2.9,4.6-4.6
		c0.4-0.7,0.8-1.4,1.2-2.1c0.5-1,2.1-0.7,2.2,0.4c0,0.2,0.1,0.3,0.1,0.4c0.4,0.2,1.1-0.1,1.8-0.4c3.7-1.9,6.5-5.6,7.9-9.5
		c0.3-1,0.5-2,0.2-2.9c-0.1-0.1-0.1-0.2-0.3-0.3c-1-0.7-2.6-0.8-3.8-0.9c-2.9-0.2-5.9,0-8.9-0.1c-2.5-0.4-11.2-0.2-11.2-3.6
		c0.6-3.9,4.8-5.7,8.1-6.8c4.3-1.5,9.3-0.7,13,1.8C414.5,54.3,414.3,54.6,414.1,54.4L414.1,54.4L414.1,54.4z"/>
	<path class="st1" d="M370,71.9c6.7,0.5,12.7-3.7,16.9-8.5c0.6-0.6,1.6,0,1.3,0.8c-0.9,2.1-2,4-3.6,5.5c-0.9,0.9-2.3,1.6-3.6,1.9
		c0,0,0,0,0.2-0.2c0,0,0.1-0.2,0.1-0.2c0.1-0.2-0.1-0.5-0.2-0.6c-0.1-0.1,0,0,0.1,0c4.3,0.7,9.2-0.3,12.7-2.9
		c0.3-0.3,0.8-0.2,1.1,0.1c0.2,0.2,0.2,0.5,0.1,0.7c-0.3,0.8-0.6,1.5-1.1,2.2c-0.7,1.2-2.4,2.5-3.8,2.7c0.3-0.2,0.4-0.5,0.3-0.9
		c-0.2-0.4-0.3-0.4-0.5-0.5c1.8-0.1,4-0.7,5.7-1.5c1.2-0.6,2.3-1.5,2.9-2.6c0.2-0.4,0.7-0.6,1.1-0.4c0.3,0.2,0.5,0.6,0.4,0.9
		c-0.3,0.9-0.6,1.7-1.1,2.5c-0.8,1.4-2,2.7-3.5,3.4c0,0-0.4,0.2-0.4,0.2c0,0,0,0,0.1-0.1c0.2-0.3,0-0.9-0.4-1c0.3,0,1.3-0.1,1.8-0.3
		c2.9-0.7,6.4-2.2,7.5-5.1c0.1-0.4,0.6-0.6,1-0.5c0.3,0.1,0.5,0.5,0.5,0.8c-0.1,0.9-0.3,1.7-0.6,2.5c-0.6,1.9-1.9,3.5-3.6,4.5
		c0.3-0.3,0-1-0.4-1.1c1.7-0.3,3.3-1.2,4.6-2.3c1.2-0.9,2.1-2,2.6-3.3c0.2-0.4,0.6-0.6,1-0.5c0.3,0.1,0.5,0.5,0.5,0.8
		c-0.1,0.8-0.3,1.6-0.5,2.4c-0.2,0.9-0.8,2.4-1.3,2.7c0.2-0.3,0.2-0.8-0.1-1c-0.1-0.1-0.4-0.2-0.5-0.2c2.7-0.9,5.2-2.4,7.4-4.2
		c1.2-1,2.2-2.1,2.9-3.4c0.5-0.9,1.8-0.2,1.4,0.7c-1.6,3-4.5,4.9-7.3,6.6c-1.3,0.7-2.6,1.4-4,1.8c-0.2,0-0.3,0.1-0.6,0
		c-0.4-0.1-0.7-0.7-0.4-1.1c0.1-0.2,0.2-0.3,0.3-0.3c0.2-0.2,0.4-0.5,0.5-0.9c0.4-1,0.6-2.2,0.8-3.3l1.5,0.4
		c-1.4,3.2-4.3,5.2-7.5,6.3c-0.7,0.2-1.6,0.5-2.1-0.2c-0.2-0.4-0.1-0.7,0-0.9c0.2-0.4,0.7-0.6,1-0.8c1.8-1.1,2.7-3.4,2.9-5.4
		l1.5,0.3c-1.5,3.6-5.2,5.1-8.6,6.1c-0.8,0.2-1.6,0.4-2.5,0.3c-0.2,0-0.5-0.1-0.6-0.4c-0.3-0.4-0.2-1,0.2-1.2
		c0.3-0.2,0.5-0.3,0.8-0.4c1.9-0.9,3.1-2.9,3.7-4.8l1.4,0.6c-1.9,3.3-5.7,4.3-9.1,4.9c-0.7,0-1.5,0.3-1.8-0.5
		c-0.1-0.4,0.1-0.8,0.4-1c0.4-0.2,0.4-0.2,0.7-0.3c1.7-0.5,2.8-2.1,3.4-3.7l1.2,0.8c-3.5,2.7-8,3.6-12.4,3.5c-0.8-0.1-1.6,0-2.4-0.6
		c-0.6-0.5-0.3-1.3,0.3-1.6c0.3-0.2,0.6-0.2,0.9-0.3c2.8-0.8,4.4-3.7,5.6-6.3l1.3,0.8l-1.9,1.7C381.7,70,375.9,72.9,370,71.9
		L370,71.9L370,71.9z"/>
	<path class="st1" d="M374.5,28.6c2.4,2.6,4,5.8,5.8,8.8c1.7,3,3.4,6.1,5,9.2l-2.2,0.8l-1.8-8.5c-0.6-2.5-1.3-6-1.9-8.5
		c1.9,4.6,4.3,11.6,6,16.3l-2.2,0.8c-1.3-3.2-2.6-6.5-4-9.7C377.7,34.8,376.5,31.5,374.5,28.6L374.5,28.6L374.5,28.6z"/>
	<path class="st1" d="M394.8,107.6c-1.9-3-5-6.7-8.8-5.3c-2.6,2-1.4,8.2-1.1,11.2c-1.8-3.8-4.2-12.5,2-13.5c4.3-0.5,7.7,3.4,8.5,7.3
		C395.5,107.8,395,107.9,394.8,107.6L394.8,107.6L394.8,107.6z"/>
	<path class="st1" d="M375.7,102c-2.3-2.2-6.9-2.7-9.9-3.5c-1.7-0.4-3.5-1-5.2-1.6c-2.6-1-5.7-2.1-7.2-4.8c-2-4.4-1.8-9.5,0.1-13.9
		c0.8-1.7,1.8-3.3,3.2-4.4c-0.9,1.6-1.5,3.2-1.9,4.9c-1,4-1,8.5,0.6,12.3c1.2,2.1,3.6,3,5.9,4c1.6,0.7,3.2,1.3,4.9,1.9
		C369.5,98.3,373.5,99,375.7,102L375.7,102L375.7,102z"/>
	<path class="st1" d="M373.5,109.8c0.7-2.6,0.7-5-2.3-5.7c-4.7-0.6-9.5-0.9-14.1-2c-2.6-0.6-5.3-1.3-7.4-3c2.3,1.3,5,1.6,7.6,1.9
		c3.9,0.4,7.8,0.5,11.8,0.6c1.2,0,2.8,0,4.3,0.7c3.4,1.3,3.7,5.6,2.3,8.5C375,112.1,372.9,111.2,373.5,109.8L373.5,109.8
		L373.5,109.8z"/>
	<path class="st1" d="M348.1,97c-8.6-8.2-5-20,3.4-26.7c0.3-0.3,0.8-0.4,1.1,0c0.1,0.2,0.2,0.4,0.1,0.6c-0.2,0.5-0.2,1.1-0.2,1.7
		c0.1,0.6,0.3,1.2,0.8,1.6c-0.7-0.2-1.2-0.7-1.6-1.4c-0.3-0.7-0.5-1.4-0.4-2.2l1.2,0.6C346.5,80,343.2,86.7,348.1,97L348.1,97
		L348.1,97z"/>
	<path class="st1" d="M351.1,81c-2.2-0.8-4.2-2.9-4.1-5.4c0-0.7,0.5-1.2,1.2-1.2c0.7,0,1.2,0.5,1.2,1.2c0,0.2,0,0.3-0.1,0.4
		C348.6,77.8,349.7,79.7,351.1,81L351.1,81L351.1,81z"/>
	<path class="st1" d="M350.9,86.8c-2.3,0.6-5.1-0.1-6.4-2.3c-0.4-0.5-0.2-1.3,0.3-1.6c0.5-0.4,1.3-0.2,1.6,0.3
		c0.1,0.1,0.1,0.3,0.2,0.4C347,85.5,349,86.5,350.9,86.8L350.9,86.8L350.9,86.8z"/>
	<path class="st1" d="M350.9,91.5c-1.5,0.8-3.4,1.1-5,0.5c-1-0.4-2.8-1.5-1.8-2.7c0.4-0.5,1.2-0.6,1.7-0.1c0.1,0.1,0.2,0.2,0.3,0.3
		C346.9,91.2,349.1,91.7,350.9,91.5L350.9,91.5L350.9,91.5z"/>
	<path class="st1" d="M352.4,97c-2.5-0.3-5.8-0.8-6.9-3.5c-0.1-0.3,0.1-0.6,0.4-0.7s0.6,0.1,0.7,0.4C347.2,95.5,350.3,96.3,352.4,97
		L352.4,97L352.4,97z"/>
	<path class="st1" d="M359.5,99.7l-3.6,1.7c-0.1,0.1-0.3,0-0.4-0.1c-0.1-0.1,0-0.3,0.2-0.4L359.5,99.7L359.5,99.7L359.5,99.7z"/>
	<path class="st1" d="M367.6,100.7l-3.6,1.7c-0.1,0.1-0.3,0-0.4-0.1c-0.1-0.1,0-0.3,0.2-0.4L367.6,100.7L367.6,100.7L367.6,100.7z"
		/>
	<path class="st1" d="M399.4,129.9c-0.6-2.3-1.6-5-4.1-5.7c-0.8-0.2-1.8-0.3-3-0.2c0.8-1.7,3.2-2.6,5.1-2c2.6,0.7,4.3,3.3,4.7,5.8
		c0.2,1.2,0.4,3.2-1.3,3.2C400,131,399.6,130.5,399.4,129.9L399.4,129.9L399.4,129.9z"/>
	<path class="st1" d="M401.8,139.9c5,1.3,10.7-0.2,14.5-3.7c2.3-2.2,4-4.9,5.6-7.7c2.2-3.7,2.2-8.1,3-12.3c0.7-4.3,1.5-8.6,2.4-12.9
		l2.2,1.4c-0.8,0.6-1.4,0.9-2.2,1.3c-3.5,1.9-7.6,1.5-11.2,2.5c-4,1.5-7.8,4.5-9.8,8.3c-1.3,2.3-2.1,4.9-3.4,7.1
		c-0.2,0.3-0.5,0.6-0.8,0.8c0.3-0.2,0.5-0.5,0.7-0.8c1.7-3.8,2.5-8.1,5.3-11.4c2.1-2.4,4.5-4.3,7.4-5.7c2.8-1.2,6-1.1,8.7-2.3
		c1-0.4,1.9-0.9,2.8-1.5c0.3-0.2,0.6-0.4,0.7-0.6c0.5-0.5,1.4-0.5,1.9,0.1c0.3,0.4,0.4,0.8,0.3,1.3c-1,4.2-1.9,8.5-2.7,12.7
		c-0.9,4.3-1.2,9-3.6,12.8c-3.5,6-8,11.2-15.4,12c-2.3,0.2-4.5,0.1-6.7-0.5L401.8,139.9L401.8,139.9L401.8,139.9z"/>
	<path class="st1" d="M378.5,34.6l5.3,6.4c0.6,0.7,0.7,1.6,0.4,2.4L378,59c-0.3,0.6-0.7,1.1-1.3,1.4l-22.3,9.4l1-3.8l6,7.8
		c0.4,0.5,0.6,1.1,0.5,1.7l-1.1,11.9l-0.6-1.9c2.4,2.7,4.9,5.6,7.7,7.9c0.1,0.1,0.3,0.2,0.2,0.1c0,0-0.1,0-0.3-0.1c0,0-0.1,0-0.2,0
		h0l0.5,0c4,0.2,9.4,0.9,13.4,1.2c1.3,0.1,2.2,1.2,2.2,2.5l-0.5,14.2l-1.2-2.1c0,0,9.9,6,9.9,6c0.8,0.5,1.2,1.4,1.1,2.2l-1.2,13.3
		c-0.1,2.2-3.1,2.9-4.3,1.1c-3.3-4.7-8.4-8.4-14-9.8c-12.2-2.8-23.2,5.7-31.4,14.1c-14.9,15-19.8,31.1-3.1,47.1
		c9,8.5,20.6,14.5,32.1,18.9l-0.5-0.1c4.8,0.1,9.8-0.1,14.6-0.6c6.4-0.8,19.1-2.3,21.8-8.7c0.2-0.5,0.3-0.9,0.3-1.5
		c0.5-4.9,0.9-9.8,0.9-14.7c0.1-1.1-0.5-2.6,0.7-3.1l4.8-1.9c0.6-0.3,1.3,0,1.6,0.7c0.3,5,0.1,10,0,15c-0.1,2.2-0.5,16.5-3.4,15
		c-0.4-0.2-0.5-0.7-0.4-1.1c1.8-4.4,3.2-9.1,4-13.8c0.9-5.7,1.4-12.4-2.6-17c-6-6.4-15.5-8.1-23.1-3.4c6.2-4.2,14.8-4,20.8,0.5
		c4.6,2.9,6.5,7.5,6.7,12.8c0.3,7.5-1.6,14.8-4.2,21.7l-1.6-0.8c0.2-0.4,0.4-0.9,0.5-1.5c0.9-4.1,0.9-8.3,1.1-12.4
		c0.1-4.8,0-9.7-0.2-14.5l1.7,1.1l-4.8,2l0.8-1.3c0.3,5.1-0.1,10.1-0.4,15.1l-0.1,1.9c-0.1,2.2-1.2,4.4-2.8,5.8
		c-7.5,7.1-27.3,8.4-37.3,8.2c-19.3-7-47.8-22.4-45.5-46.4c1.1-10.2,7.6-18.6,14.4-25.8c13.3-14.5,32.6-23.9,49-8
		c1.3,1.3,2.4,2.5,3.4,4l-4.3,1.1l1.1-13.3l1.1,2.3l-9.9-6c-0.8-0.5-1.2-1.3-1.2-2.1l0.4-14.2l2.2,2.5c-3.9-0.3-9.6-1-13.5-1.1
		c-1.6,0-2.9-1.2-4-2.1c-2.6-2.3-4.8-4.8-7.1-7.4c-0.5-0.5-0.7-1.2-0.6-1.8c0,0,1.2-11.9,1.2-12l0.5,1.7l-6-7.8
		c-1-1.2-0.5-3.2,1-3.8l22.4-9.4l-1.3,1.4l6.1-15.6l0.4,2.4l-5.3-6.4C372.8,35.2,376.3,32.1,378.5,34.6L378.5,34.6L378.5,34.6z"/>
</g>
</svg>
