<?xml version="1.0" encoding="UTF-8"?><svg id="Layer_1" xmlns="http://www.w3.org/2000/svg" viewBox="0 0 733.95 243.28"><defs><style>.cls-1{fill:none;}.cls-2{fill:#fff;}.cls-3{fill:#fff0a4;}.cls-4{fill:#ffe6d2;}.cls-5{fill:#ffdb2c;}.cls-6{fill:#bf4094;}.cls-7{fill:#232323;}.cls-8{fill:#1c5143;}.cls-9{fill:#5be397;}.cls-10{opacity:.15;}</style></defs><g><path class="cls-4" d="M122.7,240.56c-65.34,0-118.5-53.16-118.5-118.5S57.36,3.56,122.7,3.56h488.55c65.34,0,118.5,53.16,118.5,118.5s-53.16,118.5-118.5,118.5H122.7Z"/><path class="cls-7" d="M611.26,5.06c31.25,0,60.63,12.17,82.73,34.27,22.1,22.1,34.27,51.48,34.27,82.73s-12.17,60.63-34.27,82.73c-22.1,22.1-51.48,34.27-82.73,34.27H122.7c-31.25,0-60.63-12.17-82.73-34.27C17.88,182.69,5.7,153.31,5.7,122.06S17.88,61.43,39.97,39.33C62.07,17.23,91.45,5.06,122.7,5.06h488.55m0-3H122.7C56.43,2.06,2.7,55.78,2.7,122.06h0c0,66.27,53.73,120,120,120h488.55c66.27,0,120-53.73,120-120h0c0-66.27-53.73-120-120-120h0Z"/></g><g><g><path class="cls-3" d="M27.62,50.49c3.32-4.4,6.99-8.63,10.93-12.57C61.03,15.44,90.91,3.06,122.69,3.06h488.56c37.26,0,72.65,17.69,95.07,47.43H27.62Z"/><path class="cls-7" d="M611.25,4.06c18.91,0,37.72,4.58,54.38,13.25,14.96,7.78,28.25,18.86,38.66,32.18H29.64c2.96-3.79,6.18-7.43,9.61-10.87C61.55,16.33,91.18,4.06,122.69,4.06h488.56m0-2H122.69c-33.13,0-63.13,13.43-84.85,35.15-4.43,4.43-8.52,9.2-12.21,14.28H708.31c-21.82-29.96-57.17-49.43-97.06-49.43h0Z"/></g><path d="M667.26,27.98h-72.81c-.67,0-1.21-.54-1.21-1.21s.54-1.21,1.21-1.21h72.81c.67,0,1.21,.54,1.21,1.21s-.54,1.21-1.21,1.21Z"/><path d="M578.52,27.98h-72.81c-.67,0-1.21-.54-1.21-1.21s.54-1.21,1.21-1.21h72.81c.67,0,1.21,.54,1.21,1.21s-.54,1.21-1.21,1.21Z"/><path d="M74.44,25.56h72.81c.67,0,1.21,.54,1.21,1.21s-.54,1.21-1.21,1.21H74.44c-.67,0-1.21-.54-1.21-1.21s.54-1.21,1.21-1.21Z"/><path d="M158.43,25.56h24.34c.67,0,1.21,.54,1.21,1.21s-.54,1.21-1.21,1.21h-24.34c-.67,0-1.21-.54-1.21-1.21s.54-1.21,1.21-1.21Z"/></g><g><path class="cls-3" d="M7.69,145.78c-1.57-7.77-2.37-15.74-2.37-23.72s.8-15.95,2.37-23.72H727.89c1.57,7.77,2.37,15.74,2.37,23.72,0,7.25-.87,15.02-2.64,23.72H7.69Z"/><path class="cls-7" d="M727.07,99.34c1.45,7.45,2.19,15.08,2.19,22.72,0,6.96-.81,14.41-2.46,22.72H8.51c-1.45-7.45-2.19-15.08-2.19-22.72s.74-15.27,2.19-22.72H727.07m1.64-2H6.88c-1.67,7.98-2.55,16.25-2.55,24.72s.88,16.74,2.55,24.72H728.43c1.67-7.98,2.83-16.25,2.83-24.72s-.88-16.74-2.55-24.72h0Z"/></g><path d="M3.88,120.85H76.69c.67,0,1.21,.54,1.21,1.21s-.54,1.21-1.21,1.21H3.88c-.67,0-1.21-.54-1.21-1.21s.54-1.21,1.21-1.21Z"/><path d="M15.22,70.67H88.03c.67,0,1.21,.54,1.21,1.21s-.54,1.21-1.21,1.21H15.22c-.67,0-1.21-.54-1.21-1.21s.54-1.21,1.21-1.21Z"/><path d="M15.3,169.53h22.68c.67,0,1.21,.54,1.21,1.21s-.54,1.21-1.21,1.21H15.3c-.67,0-1.21-.54-1.21-1.21s.54-1.21,1.21-1.21Z"/><path d="M50.36,169.53h47.47c.67,0,1.21,.54,1.21,1.21s-.54,1.21-1.21,1.21H50.36c-.67,0-1.21-.54-1.21-1.21s.54-1.21,1.21-1.21Z"/><path d="M120.49,169.53h22.68c.67,0,1.21,.54,1.21,1.21s-.54,1.21-1.21,1.21h-22.68c-.67,0-1.21-.54-1.21-1.21s.54-1.21,1.21-1.21Z"/><path d="M729.18,123.27h-72.81c-.67,0-1.21-.54-1.21-1.21s.54-1.21,1.21-1.21h72.81c.67,0,1.21,.54,1.21,1.21s-.54,1.21-1.21,1.21Z"/><g><g><path class="cls-3" d="M122.7,241.06c-37.26,0-72.65-17.69-95.07-47.43H706.34c-3.32,4.4-6.99,8.62-10.93,12.57-22.48,22.48-52.36,34.86-84.14,34.86H122.7Z"/><path class="cls-7" d="M704.31,194.63c-2.96,3.79-6.18,7.43-9.61,10.87-22.29,22.29-51.92,34.56-83.44,34.56H122.7c-18.91,0-37.72-4.58-54.38-13.25-14.96-7.78-28.25-18.86-38.66-32.18H704.31m4.01-2H25.64c21.82,29.96,57.17,49.43,97.06,49.43h488.56c33.13,0,63.13-13.43,84.85-35.15,4.43-4.43,8.52-9.2,12.21-14.28h0Z"/></g><path d="M66.7,216.13h72.81c.67,0,1.21,.54,1.21,1.21s-.54,1.21-1.21,1.21H66.7c-.67,0-1.21-.54-1.21-1.21s.54-1.21,1.21-1.21Z"/><path d="M155.44,216.13h72.81c.67,0,1.21,.54,1.21,1.21s-.54,1.21-1.21,1.21h-72.81c-.67,0-1.21-.54-1.21-1.21s.54-1.21,1.21-1.21Z"/><path d="M659.51,218.55h-72.81c-.67,0-1.21-.54-1.21-1.21s.54-1.21,1.21-1.21h72.81c.67,0,1.21,.54,1.21,1.21s-.54,1.21-1.21,1.21Z"/><path d="M575.52,218.55h-24.34c-.67,0-1.21-.54-1.21-1.21s.54-1.21,1.21-1.21h24.34c.67,0,1.21,.54,1.21,1.21s-.54,1.21-1.21,1.21Z"/></g><path d="M718.99,173.44h-72.81c-.67,0-1.21-.54-1.21-1.21s.54-1.21,1.21-1.21h72.81c.67,0,1.21,.54,1.21,1.21s-.54,1.21-1.21,1.21Z"/><path d="M718.91,74.58h-22.68c-.67,0-1.21-.54-1.21-1.21s.54-1.21,1.21-1.21h22.68c.67,0,1.21,.54,1.21,1.21s-.54,1.21-1.21,1.21Z"/><path d="M683.85,74.58h-47.47c-.67,0-1.21-.54-1.21-1.21s.54-1.21,1.21-1.21h47.47c.67,0,1.21,.54,1.21,1.21s-.54,1.21-1.21,1.21Z"/><path d="M613.72,74.58h-22.68c-.67,0-1.21-.54-1.21-1.21s.54-1.21,1.21-1.21h22.68c.67,0,1.21,.54,1.21,1.21s-.54,1.21-1.21,1.21Z"/><g><path class="cls-2" d="M386.12,106.83c-.8-3.77-2.46-7.74-5.5-10.25-.03-.02-.05-.04-.09-.07-1-1.13-2.17-2.1-3.53-2.8-1.96-1.02-4.1-1.57-6.18-2.33-3.37-1.22-6.07-3.8-7.1-7.29-1.24-4.18,.35-8.55,.03-12.8-.15-2.07-.57-5.12-2.63-6.18-2.11-1.09-4.66,.96-6.29,2.18-1.87,1.41-3.34,3.07-4.13,5.31-.73,2.09-.76,4.44-.81,6.64-.1,4.01,.26,8.31,2.4,11.82,2.17,3.55,5.89,5.66,9.88,6.52,2.22,.47,4.51,.66,6.76,.66s4.84-.38,7.04,.51c.54,.22,1.02,.51,1.47,.84,.09,.11,.19,.22,.27,.34,2.07,2.83,2.64,6.55,3.2,9.92,.19,1.15,1.63,1.8,2.67,1.52,1.07-.3,1.56-1.21,1.56-2.21,.7-.45,1.19-1.26,.96-2.31h.01Z"/><path class="cls-3" d="M392.07,204.7s-6.43-2.76-8.5-6.43c-2.07-3.67-3.9-16.76-3.9-16.76,0,0,3.67-.23,4.83-3.9,1.14-3.67,2.07-4.13,1.37-10.33s-5.51-16.07-4.83-19.75,4.13-7.35,6.66-7.57,6.2,3.21,6.2,3.21c0,0,1.6,.69,2.99-2.76,1.37-3.44-1.6-8.73-1.84-9.64s2.76-4.6,1.6-6.2c-1.14-1.6-5.51-12.86-5.51-12.86l-7.57-19.06,2.53-5.74,5.51-.69,5.06,4.83,19.06-3.9,3.44,1.84,1.6,4.6-19.06,9.19,.23,4.13,1.37,7.81,5.74,11.41-.69,13.63-7.57,16.3-1.14,9.19s-3.21,17-2.99,22.28c.23,5.29,9.42,13.32,9.42,13.32l-14.01,3.9v-.02Z"/><path class="cls-9" d="M397.47,56s11.49-6.54,17.46-5.17,9.07,1.84,10.1,1.03,.57-2.53-1.03-4.71-6.77-16.3-10.22-19.29-14.59-11.83-19.06-14.24-6.66-4.13-11.49-3.67-8.27,1.96-8.61,3.1-1.6,7.57,1.37,9.99c2.99,2.41,7.93,6.54,9.64,8.96s3.56,11.72,4.94,14.7c1.37,2.99,4.13,8.39,6.89,9.3h.01Z"/><path class="cls-9" d="M422.24,71.11c3.36-4.75,3.98-5.35,2.45-6.28-1.53-.92-4.75-1.84-9.19-1.37s-8.73,0-10.87-.46-4.13-1.84-3.83-3.52c.31-1.68-1.53,0-1.53,0l-5.21-1.84-4.6-5.51,.31-3.07-5.21,8.57-1.84,2.14-3.07-3.98s-3.36-2.76-3.67-5.51c-.31-2.76-3.98-9.5-3.98-9.5l-4.6,1.53-7.35,22.66-14.7-18.37-8.27,3.67,3.07,33.99-23.89-9.79-5.51,18.37,19.52,19.22-21.13,7.35,.38,13.55,17.76,8.88-12.25,15.93,4.29,11.64,19.29-3.36-7.43,22.05,9.87,12.55,15.31-7.35-2.3,16.07,10.26,4.44,11.49-7.05,7.96,11.64,8.42-.31,3.36-9.34,9.04,4.6,5.35-3.07-.62-7.81s.31-1.53,.92-1.37,6.12,1.07,6.12,1.07c0,0,3.98-3.67,4.6-6.58,.62-2.91-.46-5.66-.46-5.66l-3.36-1.68-1.22-1.37-.46-1.07,5.74-11.33s-3.59-6.74-11.72-7.65c-8.11-.92-11.64-.92-14.54,.92s-6.12,12.09-6.74,14.85,.31,11.49,3.36,13.17c3.07,1.68,11.49,1.07,15.31-3.36,3.83-4.44,.88-10.78-1.88-10.32-2.76,.46-3.64,6.96-6.09,5.58s-4.75-4.9-3.36-7.5c1.37-2.61,5.66-5.82,8.73-5.66s5.66,1.37,6.58,3.52,2.61,6.89,1.99,9.34-1.68,8.42-7.05,11.18c-5.35,2.76-16.69,13.17-38.89-1.22,0,0-15.31-13.79-20.36-27.25-5.06-13.48-7.65-25.26-7.65-25.26l-6.1-2.03c-1.11-.37-2-1.3-2.15-2.46-.02-.13-.02-.25-.02-.38h0c0-1.63,1.17-3.55,2.62-4.3,2.81-1.45,4.24-2.99,16.62-13.55,1.92-1.65,21.36-9.11,24.12-8.65s12.28,4.42,13.93,5.82c.89,.76,4.67,2.46,8.64,5.71,1.51,1.23,2.08,.75,2.85,.75s4.31-1.03,7.2,1.21c1.59,1.23,3.52,.31,1.99-2.14-1.53-2.45-3.21-3.52-3.21-3.52,0,0,1.67-.42,1.44-3.87-.21-3.05-3.5-2.89-3.7-2.78-2.23,1.11-5.31,1.55-8.9,1.44,0,0-.84-.26-2.2-.69-.6-1.82-1.78-6.97-1.21-8.88,.69-2.3,2.64-3.21,5.17-3.44,2.53-.23,5.74,4.94,5.74,4.94,0,0-.23-2.07-.34-4.47s-.8-6.54-5.97-8.84c-5.17-2.3-14.82-1.03-17.11-.92-2.3,.11-13.44,.04-12.4-.8,3.85-3.1,5-4.21,6.09-9.3,.87-4.1,1.69-7.53,1.74-9.94,0-.2,.16-.35,.36-.33,1.31,.1,1.73,.13,2.99,.29,6.74,.85,14.69-4.61,17.6-8.28l-5.66,7.5s1.68,.77,4.75,.15,7.2-3.07,7.2-3.07c0,0-1.37,3.98-2.76,4.44,0,0,5.21-1.37,6.58-3.07,0,0-1.08,3.83-1.84,4.13-.77,.31,6.74-.92,7.35-2.76,0,0-.62,3.21-1.37,3.67,0,0,4.6-1.41,6.21-3.88-.31,.64-.69,1.55-.69,2.19,0,1.07,4.44,1.22,7.81-3.52l-.04-.05Zm-47.62,28.75c3.33,.8,7.12,2.64,8.27,4.47,.9,1.44-.32,6-.89,7.89-3.64-1.08-7.28-2.11-9.67-2.68-6.43-1.53-9.04-2.61-13.79-2.45-4.75,.15-8.73-21.13-8.73-21.13,0,0,6.74-12.09,8.27-13.02,.15-.09,.43-.14,.8-.15-.29,2.17,3.1,4.61,3.1,4.61,0,0-1.03,2.35-1.73,4.19s-.23,7.7,.92,11.14c1.14,3.44,10.1,6.32,13.43,7.12h.01Z"/><path class="cls-8" d="M409.07,126.08s5.35-10.26,6.58-11.94,9-6.28,15.23-5.66c6.21,.62,0,0,0,0l3.43-2.03s-2.57,15.36-2.73,17.96c-.15,2.61-4.75,13.02-8.27,14.85-3.52,1.84-12.25,3.52-14.24,3.21s-.77-9.79-.62-12.25,.62-4.13,.62-4.13h-.01Z"/><path class="cls-8" d="M403.44,150.97c.69-.23,26.76-5.17,26.76-5.17,0,0-1.03,4.83-3.1,6.2s-8.61,4.47-8.61,4.47c0,0-4.36,.8-5.74-.11s-3.9-4.36-4.71-3.44-.69,2.99-.69,2.99c0,0-3.1-1.84-4.47-1.26s.57-3.67,.57-3.67h-.01Z"/><path class="cls-8" d="M359.6,148.38l12.49,6.26,5.74,5.51,2.53,7.7,.57,6.09-1.26,7.57s-12.29-1.73-12.63-2.53-9.76-10.67-9.76-10.67l-2.64-10.91,1.28-10.22,3.69,1.21"/><path class="cls-6" d="M411.71,53.09c.11,0,10.03,2.03,11.44,3.52s1.88,3.9,1.45,4.63c-.43,.73-7.05,2.03-8.65,1.57s-12.14-4.63-12.4-5.51,8.16-4.21,8.16-4.21h0Z"/><path class="cls-6" d="M434.3,106.43c-.54,.15-1.08,.32-1.6,.51-.44,.15-.99,.27-1.37,.54-.33,.23-.4,.62-.45,.99-.08,.55-.15,1.11-.24,1.66-.35,2.19-.8,4.35-1.36,6.5-.22,.24-.14,.8,.24,.59,.93-.52,1.85-1.09,2.72-1.7,.74-.53,1.4-1.02,1.57-1.96,.21-1.06,.26-2.15,.38-3.22,.13-1.18,.27-2.36,.41-3.54,.02-.19-.04-.44-.29-.36Z"/><path class="cls-6" d="M359.6,148.38c-.14-.18-.31-.09-.42,.07-.46-.6-1.29-.98-1.92-1.39-.55-.34-.89-.37-1.35,.11-.85,.9-1.29,2.17-1.12,3.39,.15,1.15,.79,2.25,1.76,2.92,1.13,.78,2.67,.96,3.62,2.01,.29,.33,.38,.68,.54,1.07,.09,.23,.23,.47,.47,.57,.42,.18,.81-.11,.92-.49,.07-.07,.11-.16,.11-.27,.13-2.88-.79-5.75-2.62-7.99h.01Z"/><polygon class="cls-5" points="371.63 41.87 375.65 41.75 383.11 53.81 387.36 43.25 391.72 50.14 382.31 61.4 371.63 41.87"/><path class="cls-5" d="M376.34,12.59s-.69,4.36,3.21,8.61c3.9,4.25,7.81,7.81,7.81,7.81,0,0,.8-2.41-1.37-6.77-2.18-4.36,0-3.79,1.03-2.64s3.1,2.3,3.79,5.86c.69,3.56,.11,11.14,.34,13.09s3.56,13.32,6.66,12.97c3.1-.34,7.35-2.64,11.49-1.96l4.13,.69s-9.87,4.83-12.97,5.4-4.25,2.64-6.09-1.37c-1.84-4.02-7.12-23.77-12.17-26.65-3.31-1.88-8.39-5.29-5.86-15.04h0Z"/><polygon class="cls-5" points="369.79 41.72 365.43 41.72 358.3 55.65 350.5 45.08 345.75 46.99 359 64.84 369.79 41.72"/><polygon class="cls-5" points="337.41 50.68 340.32 83.05 339.09 84.36 315.97 74.33 318.34 70.27 332.73 76.02 334.12 74.63 332.21 53.89 337.41 50.68"/><polygon class="cls-5" points="310.31 93.01 330.9 110.31 331.13 112.61 307.93 121.41 309.01 115.28 319.73 111.84 320.18 109.16 309.01 98.67 310.31 93.01"/><polygon class="cls-5" points="309.77 133.51 327.15 141.62 327.76 143.46 314.9 157.4 313.83 150.51 318.8 145.76 318.57 143.69 309.85 139.86 309.77 133.51"/><polygon class="cls-5" points="319.57 168.34 338.87 166.19 339.16 166.89 331.28 189.09 328.15 182.97 333.04 172.1 332.36 171.02 321.1 173.16 319.57 168.34"/><polygon class="cls-5" points="340.47 199.89 356.54 192.84 357.62 194.37 354.4 210.14 351.04 206.77 351.5 200.34 350.42 199.89 344.3 203.71 340.47 199.89"/><polygon class="cls-5" points="364.36 213.81 375.08 206.32 377.38 207.23 385.03 218.87 377.67 217.64 375.38 213.05 372.47 213.51 370.18 215.65 368.49 216.42 364.36 213.81"/><path class="cls-5" d="M391.3,217.19l4.29-8.42h1.07l8.57,4.6-3.36,1.68-2.91-1.68-1.84,.31s-1.22,.92-1.22,1.37-.46,1.84-.46,1.84l-.62,1.37-3.52-1.07h0Z"/><polygon class="cls-5" points="408.76 209.53 409.38 202.03 410.6 200.95 416.72 202.18 408.76 209.53"/><polygon class="cls-5" points="416.26 187.33 420.85 173.85 423.61 178.76 420.39 182.43 420.09 185.33 421.78 187.18 423.46 188.71 424.68 192.22 423.3 193.3 416.26 187.33"/><circle class="cls-5" cx="341.2" cy="95.27" r="6.77"/><path class="cls-5" d="M357.16,73.33s-4.13,1.84-8.04,6.2-5.97,9.87-5.97,11.03-6.66,7.35-6.89,9.64,.92,8.5,2.53,10.33,.58,5.32,.58,5.32c0,0,13.39-7.94,18.22-8.05,3.87-.09,4.64-3.5,4.67-3.96,.1-1.47-5.87-1.07-7.55-5.96-2.08-6.06-6.04-13.31,2.46-24.57h-.01Z"/><path class="cls-5" d="M349.81,177.14s-4.6-10.1-9.87-13.55-9.64-5.06-10.1-10.1c-.46-5.06-.35-10.1,2.09-10.26,.87-.05,2.42-.16,3.75-.23,1.5-.07,2.78-.03,3.63,1,1.31,1.59,2.86,11.7,3.63,13.63,.45,1.15,6.89,19.52,6.89,19.52h-.01Z"/><circle class="cls-2" cx="407.99" cy="41.26" r="2.61"/><g class="cls-10"><circle class="cls-2" cx="407.97" cy="41.3" r="4.89"/></g><path class="cls-7" d="M418.71,198.05c-1.14,2.3-2.99,2.76-5.51,6.43-1.03,1.51-2.42,3.09-3.69,4.44-1.82,1.93-3.43,3.37-3.43,3.37,0,0-14.93,6.51-11.72,6.28,3.21-.23,12.71-3.14,15.7-6.35,0,0-5.35,13.4-38.43,10.41-33.07-2.99-59.57-57.22-62.01-62.92-3.13-7.35-6.68-43.09-3.67-63.85,3.03-20.9,8.96-41.34,30.78-50.29,21.82-8.96,40.42-5.29,50.07-4.6l1.03-.26s-5.63-12.14-8.84-11.91c-3.21,.23-1.75,7.26-7.57,7.35-4.9,.08-2.3-8.96-5.29-9.64-2.99-.69-3.67,7.81-5.97,8.5s-5.06-1.14-7.12-3.44c-2.07-2.3-2.53-.46-2.99,.23-.46,.69-1.37,5.97-3.67,6.43s-6.66-3.21-8.96-4.13-2.99,9.19-4.36,10.33c-1.37,1.14-4.13-1.6-6.89-1.6s-1.14,4.6-2.07,5.74c-.92,1.14-1.37,3.9-2.53,3.44-1.14-.46-5.51-2.99-6.89-2.53-1.37,.46,1.6,6.66,.23,8.96-1.37,2.3-5.29-.23-5.97,1.37-.69,1.6,2.53,4.83,.69,7.81-1.84,2.99-4.13,4.36-5.51,5.74s2.53,4.13,1.84,5.97-3.21,1.14-3.9,2.3c-.69,1.14,1.6,1.84,2.53,2.99,.92,1.14,1.84,2.53-1.37,3.67-3.21,1.14-.92,4.6-.23,5.29,.69,.69-2.37,3.67-3.52,4.83-1.14,1.14,3.98,3.67,2.61,5.29-1.37,1.6-4.6,1.84-4.83,4.36s2.99,2.53,3.67,5.06-1.14,6.2-2.99,8.04c-1.84,1.84-.46,4.36,.92,5.06,1.37,.69,2.99,2.76,2.53,5.29s-4.6,4.6-4.13,5.29,4.83,5.51,5.29,7.35c.46,1.84-3.21,6.89-1.14,8.73s5.29,3.44,5.74,5.97c.46,2.53-3.21,8.04-2.53,8.96,.69,.92,3.67,.92,4.83,3.21,1.14,2.3,2.07,2.53,2.07,5.74s-1.37,5.29-.69,5.74,5.51,1.14,7.12,4.36c1.6,3.21,.46,10.1,1.37,10.56,.92,.46,7.57-1.14,8.27,.23,.34,.69,1.64,2.21,1.84,4.13s-.69,4.25-.23,4.83c.92,1.14,7.35-.23,8.27,1.37,0,0,1.6,2.99,2.3,6.2,.69,3.21-1.14,4.83-.23,5.74,.92,.92,7.35-2.07,9.64,.23s3.67,9.42,4.6,9.64c.92,.23,3.44-3.9,9.64-3.9,4.27,0,6.47,4.24,7.43,6.89,.25,.69,1.15,.84,1.6,.26,.81-1.02,2.22-2.1,4.52-2.1,4.36,0,5.97,4.36,7.81,4.36s.46-2.3,3.9-4.13c3.44-1.84,4.6-2.76,7.35-1.14,3.52,2.04,4.78,6.71,4.77-2.19,0-1.79,1.3-3.34,3.08-3.59,2.89-.41,5.73-.26,6.62-2.48,.45-1.12,.3-2.64,.45-3.94l.12,.3c.27-.7,.84-1.29,1.68-1.47l-.46-1.19c.32-.18,.71-.3,1.2-.36,3.67-.46,5.74-.69,5.74-4.13s2.3-6.43,2.3-6.43c0,0-1.6-8.73-2.76-6.43v-.04Z"/><path class="cls-7" d="M385.81,220.06c-10.96,0-23.04-3.55-34.06-10.01-11.1-6.52-20.86-17.14-29-31.57-13.08-23.2-18.28-50.03-15.06-77.6,2.2-18.8,7.45-32.7,15.6-41.36,25.01-26.55,64.5-19.22,64.89-19.14l-.49,2.56c-.38-.08-38.49-7.12-62.5,18.37-7.75,8.23-12.76,21.65-14.91,39.87-3.17,27.03,1.93,53.32,14.74,76.02,7.91,14.03,17.35,24.33,28.04,30.6,30.35,17.82,53.2,8.34,63.53-5.18l2.08,1.58c-7.87,10.3-19.14,15.79-32.59,15.86h-.27Z"/><path class="cls-7" d="M350.65,45.08c1.89,2.48,5.5,7.35,7.37,9.77,.13,.1,.36,.04,.42-.09l.32-.77,5.61-13.53,2.12,.98-6.66,13.04-.21,.41c-.23,.63-.86,1.19-1.58,1.03-.79-.1-1.09-1-1.5-1.56-1.25-1.97-4.6-7.24-5.88-9.28h0Z"/><path class="cls-7" d="M345.52,46.62c2.5,3.24,8.79,11.43,11.19,14.55l1.87,2.43c.38,.53,.43,.54,.63,.48,.1-.03,.14-.14,.18-.23l.29-.7,9.28-22.66,2.14,.93-10.34,22.19c-.18,.32-.36,.93-.64,1.18-.15,.15-.34,.26-.55,.33-.41,.13-.87,.07-1.21-.2-.37-.32-.41-.51-.58-.71l-1.75-2.52c-2.23-3.21-8.19-11.76-10.49-15.07h-.01Z"/><path class="cls-7" d="M375.11,40.25c2.18,3.45,5.86,9.29,8,12.69,.04,.05,.11,.18,.12,.19,0-.04-.04-.07-.1-.02-.13,.37,3.5-11.47,3.47-11.38l2.21,.77c-.03,.08-4.4,11.15-4.42,11.21-.4,.87-1.73,.97-2.22,.13-.27-.48-1.07-2.03-1.34-2.55-1.23-2.34-4.51-8.59-5.77-11l.07-.03h-.02Z"/><path class="cls-7" d="M388.24,42.1c-.58-3.36-1.37-6.77-3.08-9.73-1.97-2.83-4.99-4.43-7.73-6.57-3.78-2.5-4.86-7.68-4.01-11.94,.66-3.53,4.75-4.96,7.85-5.25,10.97-1.44,18.55,6.88,26.81,12.35,6.49,4.36,10.26,11.67,13.22,18.66,1.45,3.14,3.18,6.13,4.68,9.28,1.14,2.06,2.04,5.69-.71,6.84-.48-.09-.62-.19-.69-.36-.65-1.18-1.77-2-2.98-2.55-6.65-2.69-14.69,1.12-20.8,3.92-1.22,.57-2.9,1.23-4.45,.95-.95-.21-1.39-.59-1.81-.91-2.13-1.86-3.5-4.06-4.94-6.39l2.84,.14-8.32,11.38c-.89,1.22-2.91,1.17-3.74-.12-2.85-5.53-7.4-14.68-10.26-20.3l2.07-1.08c1.89,3.53,6.72,12.49,8.55,15.9,.43,.78,1.65,3.08,2.06,3.84-.26-.43-.89-.35-1.12,.05,1.09-1.58,8.63-12.49,9.49-13.75,1.67,2.68,3.37,6.28,5.72,8.22,1.47,.23,3.66-1.02,5.12-1.51,6.63-2.57,16.51-5.53,22.37,.04,.47,.51,.88,1.08,1.15,1.71,.1,.2,.12,.49-.25,.81,.47-2.03,.52-3.58-.35-5.35-1.67-3.35-3.68-6.56-5.35-9.95-3.24-7.16-7.29-14.41-14.27-18.45-5.68-3.84-10.74-8.68-17.29-10.59-3.1-.63-6.56-.81-9.55,.27-1.4,.59-2.46,1.22-2.8,2.72-.54,2.47-.27,5.41,.87,7.65,1.82,2.74,5.08,4.36,7.41,6.85,3.56,3.34,4.14,8.61,4.31,13.2h0v.02Z"/><path class="cls-7" d="M385.36,18.75c3.99-.21,6.89,3.78,7.08,7.54,.35,2.63-.12,5.39-.59,7.95-.14,.85-.35,1.6-.71,2.57-.74-.75-.97-1.75-1.04-2.64-.49-5.57,1.89-12.72-4.73-15.41h0Z"/><path class="cls-7" d="M407.08,30.15s-2.14-1.45-1.37-3.59,3.07-2.99,3.07-2.99l1.45,1.76s-.92-.23-2.07,1.22-1.22,2.22-1.07,3.59h-.01Z"/><path class="cls-7" d="M395.9,40.87c-.22,3.7,1.69,7.32,5.01,8.95l-.26-.1,.78,.1-.34,1.7c-.15-.04-.81-.23-.96-.26-3.34-2.24-5.07-6.46-4.23-10.39h0Z"/><path class="cls-7" d="M399.46,39.27c-.22,3.7,1.69,7.32,5.01,8.95l-.26-.1,.78,.1-.34,1.7c-.15-.04-.81-.23-.96-.26-3.34-2.24-5.07-6.46-4.23-10.39h0Z"/><path class="cls-7" d="M416.1,38.34c.84,3.92-.89,8.15-4.23,10.39-.14,.04-.8,.22-.96,.26l-.34-1.7,.78-.1-.26,.1c3.32-1.63,5.24-5.24,5.01-8.95h0Z"/><circle class="cls-1" cx="409.41" cy="39.84" r="8.16"/><path class="cls-7" d="M407.99,43.69c-1.34,0-2.43-1.09-2.43-2.43s1.09-2.43,2.43-2.43,2.43,1.09,2.43,2.43-1.09,2.43-2.43,2.43Zm0-3.98c-.86,0-1.56,.7-1.56,1.56s.69,1.56,1.56,1.56,1.56-.7,1.56-1.56-.7-1.56-1.56-1.56Z"/><path class="cls-7" d="M411.6,37.76c-.48-1.26-1.98-1.81-3.14-2.25-.75-.29-1.51-.45-2.31-.37-.41,.04-.81,.13-1.21,.22-.41,.1-.76,.26-1.15,.38-.21,.07-.19,.31-.1,.46,.04,.09,.12,.16,.21,.21,.03,.01,.29,.02,.26,0l.09-.13c.57-.25,1.29-.36,1.89-.42,.76-.05,1.46,.13,2.15,.41,1.03,.41,2.37,.87,2.8,2,.07,.19,.3,.11,.41,0,.14-.14,.18-.36,.11-.54v.03Z"/><path class="cls-7" d="M333.51,53.25l1.2,19.94,.03,.63c.23,1.96-2.01,3.41-3.68,2.42-2.88-1.35-10.6-4.96-13.58-6.34l9.28,3.69,4.64,1.85c.67,.31,1.3,.22,1.8-.25,.54-.48,.43-1.24,.33-1.88l-2.36-19.83,2.33-.21h.01Z"/><path class="cls-7" d="M315.97,74.33l13.82,5.99,6.91,3c.56,.22,1.2,.58,1.62,.62,.84,.1,1.63-.64,1.6-1.47,0-.25-.22-1.99-.25-2.29l-3.43-29.93,2.32-.22,2.26,30.04c.01,.11,.15,2.09,.15,2.11,.16,1.52-1.26,2.92-2.78,2.69-.68-.09-1.29-.51-1.87-.76l-6.79-3.26-13.58-6.52h.01Z"/><path class="cls-7" d="M311.04,92.41c3.41,2.9,12,10.23,15.29,13.04,.85,.71,3,2.56,3.83,3.25,.43,.38,1.02,.79,1.31,1.32,.98,1.54,.05,3.72-1.67,4.12-.49,.18-1.87,.6-2.39,.78-4.06,1.33-14.91,4.88-19.09,6.24,4.19-1.57,14.76-5.55,18.81-7.08l1.57-.59c.37-.16,1.11-.36,1.4-.6,.9-.67,.86-2.11-.05-2.73-2.69-2.11-7.17-5.58-9.9-7.73l-10.56-8.23,1.47-1.81h0v.02Z"/><path class="cls-7" d="M308.16,115.51l7.28-2.4c.98-.35,2.63-.8,3.56-1.21,1.03-.53,1.23-2.08,.34-2.8l-.35-.32c-2.92-2.62-7.75-6.93-10.71-9.59l1.63-1.68c2.46,2.57,6.87,7.16,9.29,9.67l.66,.69c.88,.76,1.4,1.99,1.02,3.11-.22,.75-.77,1.4-1.47,1.69-.62,.25-1.31,.35-1.92,.52-1.21,.3-7.95,1.96-9.3,2.3h-.02Z"/><path class="cls-7" d="M309.42,132.07c3.1,1.55,10.93,5.45,13.93,6.94,.76,.4,2.74,1.35,3.48,1.74,1.39,.62,1.76,2.61,.68,3.67-3.47,3.61-9.53,9.86-13.06,13.52,2.26-2.63,7.96-9.26,10.15-11.8l1.69-1.97,.42-.49c.49-.56,.3-1.52-.42-1.78-2.14-.93-6.15-2.65-8.33-3.59l-9.52-4.11,.99-2.12h-.01Z"/><path class="cls-7" d="M312.3,151.96l3.66-3.7,1.84-1.85c.89-.68,.81-1.89-.22-2.23-2.17-.92-6.19-2.63-8.39-3.56l1.03-2.1c1.52,.86,5.34,3.01,6.8,3.84,.25,.14,1.24,.69,1.46,.84,.86,.56,1.24,1.74,.87,2.68-.15,.48-.6,.91-.98,1.18l-2.02,1.64-4.06,3.28h0Z"/><path class="cls-7" d="M331.44,188.55l7.06-20.7,.21-.62c.09-.27-.19-.57-.45-.52l-2.69,.37c-3.45,.48-12.67,1.76-16.25,2.25l-.26-2.32c3.64-.31,12.84-1.09,16.35-1.39l2.74-.23c1.17-.12,2.12,1.11,1.71,2.19l-.26,.66-8.16,20.29h.01Z"/><path class="cls-7" d="M328.07,183.34c.76-1.96,2.67-6.9,3.41-8.79,.19-.48,.67-1.73,.86-2.2,.03-.11,.2-.44,.18-.56,0-.22-.21-.43-.4-.42-2.64,.68-7.68,2.12-10.37,2.85l-.52-2.28c2.69-.47,7.81-1.4,10.44-1.86,1.32-.31,2.48,1.21,1.82,2.37-.31,.64-.91,1.81-1.22,2.46-.89,1.79-3.28,6.57-4.2,8.43h-.01Z"/><path class="cls-7" d="M354.25,209.53c.51-2.94,1.79-10.36,2.29-13.19,.02-.13,.42-2.44,.43-2.47,.09-.45-.42-.85-.82-.62l-.49,.25c-4.09,2.03-10.84,5.39-14.98,7.45l-.97-2.12c4.31-1.79,11.2-4.68,15.45-6.45l.52-.22c1.07-.49,2.41,.35,2.39,1.52,0,.46-.54,2.35-.63,2.84-.67,2.77-2.45,10.16-3.14,13.02h-.02Z"/><path class="cls-7" d="M351.04,208.31c.05-1.43,.21-5.05,.26-6.43l.04-1.07c.01-.43-.47-.73-.81-.49-1.42,1.04-4.31,3.17-5.76,4.23l-1.25-1.97c1.25-.68,4.44-2.41,5.65-3.07l.47-.25c1.21-.84,2.98,.21,2.72,1.67l-.19,1.06c-.24,1.34-.88,4.95-1.13,6.33h0Z"/><path class="cls-7" d="M362.77,213.32c2.54-1.62,7.73-4.97,10.21-6.55,1.91-1.52,4.43-.96,5.46,1.26l.48,.8,1.93,3.2,3.86,6.39-4.35-6.07c-.41-.57-2.35-3.29-2.72-3.79-.64-1.17-1.98-1.88-3.2-1.14-.34,.22-1.06,.79-1.43,1.07-1.9,1.44-6.96,5.29-8.93,6.77l-1.34-1.91h0v-.02Z"/><path class="cls-7" d="M367.71,215.18c1.06-.51,3.72-1.78,4.73-2.28l.79-.37c.92-.62,2.43-.44,3.01,.59,.54,1.13,1.42,3.79,1.89,4.98l-1.75-3.03c-.48-.74-.85-2.06-1.93-1.74-.29,.08-.97,.65-1.28,.84-.91,.65-3.35,2.36-4.29,3.03l-1.19-2.01h.01Z"/><path class="cls-7" d="M390.22,217.84c.74-1.65,2.61-5.8,3.32-7.4l.27-.62c.47-1.57,2.33-2.48,3.77-1.53,.58,.4,2.45,1.7,3.06,2.13l4.44,3.09c-2.07-1.12-5.98-3.28-8-4.38-.64-.34-1.52-.04-1.79,.62-.1,.3-.3,.9-.4,1.21-.54,1.64-1.96,6.02-2.51,7.72l-2.18-.84h.01Z"/><path class="cls-7" d="M393.9,216.89l1.26-2.31,.32-.57c.4-.8,1.25-1.4,2.13-1.43,1.09-.12,1.86,.69,2.58,1.34l1.98,1.74-2.31-1.25c-.66-.32-1.33-.92-2.08-.66-.71,.19-.84,.92-1,1.52l-.73,2.53-2.15-.89h-.01Z"/><path class="cls-7" d="M407.75,210.9c.09-1.47,.33-5.18,.42-6.6,.05-.47,.03-1.29,.15-1.77,.25-1.17,1.4-2.04,2.54-2.01,.68,0,1.58,.38,2.25,.55l4.23,1.21-.02,.1-4.35-.66c-.55-.05-1.53-.3-2.07-.25-.7,.09-1.25,.65-1.32,1.32-.03,.25,.07,1.24,.08,1.53,.09,1.41,.33,5.14,.42,6.6h-2.33Z"/><path class="cls-7" d="M413.1,211.75c-.47,0-.93-.16-1.34-.47l-.16-.13c-.88-.67-1.36-1.97-1.29-3.4l.1-1.68c.07-1.15,.49-2.15,1.19-2.74,.48-.41,1.07-.6,1.66-.54,1.34,.14,2.33,1.53,2.41,3.35l.08,1.8c.07,1.6-.58,2.99-1.65,3.54-.32,.16-.65,.24-.98,.24v.02Zm-.09-5.75c0,.07-.02,.14-.02,.22l-.1,1.68c-.02,.38,.04,.71,.13,.92,.05-.19,.1-.45,.09-.76l-.08-1.8c0-.1-.01-.19-.02-.26h0Z"/><path class="cls-7" d="M420.7,192.65l-3.83-3.7-.48-.46c-1.09-.97-1.32-2.66-.59-3.9,.07-.12,4.78-10.31,5.06-10.87-.37,1.11-3.67,10.86-3.95,11.67-.23,.67,0,1.43,.58,1.84l.53,.41,4.21,3.26-1.53,1.76h0Z"/><path class="cls-7" d="M421.3,188.35l-.88-.97c-.98-.82-1.59-2.57-.92-3.85,.09-.2,2.83-4.76,3.02-5.1l-1.62,4.97c-.15,.46-.23,.74-.2,1.03,.1,.74,.38,.95,1.06,1.4l1.07,.75-1.55,1.75h0l.02,.02Z"/><path class="cls-7" d="M393,204.33c-5.32,0-9.36-4.46-11.31-9.05-1.76-4.12-2.5-8.67-2.88-13.13-.07-.56,.33-.96,.8-1.14,6.33-2.81,6.12-10.92,4.71-16.7-.46-2.2-1.06-4.36-1.75-6.51-.96-3.42-2.81-6.53-2.86-10.3,.46-3.69,4.1-7.26,7.71-8.11,2.79-.64,5.69,1.15,6.95,3.64l-.89-.66c2.1,.05,2.7-2.43,2.73-4.2,.22-5.63-4.58-9.94-9.34-12.29-2.86-1.4-5.91-2.88-9.05-3.33-3.11-.38-6.39,.32-9.33,1.36-2.52,.79-4.68,2.47-7.57,2.52l-.45-.05-.27-.04c-1.14-.19-1.99,.26-2.76,1.24-3.34,4.87-6.6,10.56-12.29,13.15-1.63,.59-3.19,1.12-4.78,1.68-.6,.3-1.36,.04-1.58-.6-.12-.33-.07-.68,.11-.96,.62-.97,1.17-2.1,1.55-3.2,.34-1.12,.69-2.4-.01-3.46,1.53,1.35,1.2,3.78,1,5.62-.1,.66-.21,1.29-.4,1.97l-1.45-1.57c1.57-.56,3.21-1.11,4.74-1.67,4.27-1.98,7.2-6.36,9.83-10.22,1.11-1.97,2.91-4.5,5.61-4.35,.44,0,.88,.1,1.31,.14,.49,.04,1.23-.18,1.95-.46,3.02-1.29,6.39-2.8,9.75-3.25,3.44-.68,7.28-.11,10.48,1.28,4.84,1.98,9.74,4.4,12.86,8.78,2.15,2.99,3.07,6.98,2,10.6-.55,2.07-2.63,3.94-4.95,3.64-.41-.04-.74-.31-.89-.66-.8-1.48-2.58-2.76-4.36-2.35-2.46,.57-5.46,3.37-5.85,5.98,.12,3.13,1.87,6.29,2.75,9.42,1.24,3.88,2.25,7.89,2.63,11.97,.63,5.46-1.52,12-7.06,14.17l.8-1.14,.1,3.45c.37,7.44,3.01,17.65,11.75,18.64,.04,0,.09,.03,.09,.09,0,.04-.03,.08-.08,.08h-.01Z"/><path class="cls-7" d="M388.51,119.62c-9.95-5.9-19.74-5.43-30.15-1.08-4.88,2.03-9.81,4.4-13.69,8.07-4.06,3.51-7.98,7.41-12.78,9.88,5.24-3.06,9.33-7.72,13.71-11.86,5.74-4.84,12.58-8.39,19.79-10.53,7.86-2.37,17.62-1,23.13,5.52h0Z"/><path class="cls-7" d="M331.9,143.23l4.27-.3c1.44-.23,3,.45,3.67,1.78,.35,.66,.41,1.4,.58,2.08l.48,2.08c1.69,6.91,3.76,13.76,6.32,20.39,2.09,5.25,4.4,10.52,7.95,14.96,10.75,13.77,25.11,24.9,43.17,17.76,5.61-2.17,11.29-6.24,12.93-12.25,.87-4.34,.6-10.07-2.96-13.05-4.25-3.99-10.33,.79-11.56,5.34-.49,1.78-.16,5.38,2.32,4.75,.74-.14,1.37-1.44,2.03-2.72,.73-1.45,1.9-3.14,3.77-3.36,3.43-.55,5.35,3.18,5.42,6.08,.13,2.1-.98,4.12-2.22,5.62-3.21,4.07-12.57,7.1-17.03,3.87-5.9-4.65-4.11-15.37-1.78-21.48,1.43-3.75,4.27-7.61,8.34-8.95,.54-.24,.76-.88,.63-1.43-.48-3.84,.93-7.6,2.15-11.02,1.02-2.74,2.43-5.4,4.02-7.82,.78-1.21,1.56-2.34,1.95-3.46,.45-1.26,.37-2.28,.14-3.65-.23-1.47-.25-3.08-.1-4.56,.15-2.31,.89-4.31,1.14-6.6,.18-2.26-.51-4.43-2.07-6.17l-.04-.04c-.05-.05-.04-.15,0-.21,1.22-1.22,1.74-3.24,.75-4.72-1.57-1.98-7.81,.38-10.32,.4-1.91,.16-3.87-.15-5.75-.48-7.33-1.36-13.97-5.06-21.21-6.45-5.21-1.01-10.67-1.25-15.79,.25-8.32,3.64-15.03,10-22.6,15.26,2.28-2.98,4.85-5.69,7.59-8.24,4.19-3.81,8.68-7.5,14.1-9.57,5.55-1.68,11.64-1.42,17.23-.19,9.03,1.82,17.03,7.59,26.34,7.88,2.88,.13,9.25-2.09,11.1,.74,1.04,1.84,.29,4.1-1.23,5.36l-.03-.25c1.85,.38,3.35,1.93,3.96,3.72,1.15,3.39-.41,6.24-.67,9.56-.33,2.2,.22,4.06,.26,6.31-.02,2.4-1.51,4.69-2.7,6.45-1.56,2.33-2.84,4.75-3.83,7.35-.98,2.59-1.89,5.29-2.11,7.9-.07,.77-.02,1.48,.09,2.19,.1,.92-.16,1.88-.75,2.62-.46,.6-1.13,1-1.85,1.23-3.25,1.22-5.31,4.19-6.62,7.44-2.29,5.49-4.53,19.63,4.31,19.78,2.64-.12,5.41-.71,7.7-1.99,3.3-1.78,6.02-5.5,4.09-9.19-.48-.98-1.26-1.59-2.34-1.45-1.86,.43-2.22,2.77-3.31,4.21-.98,1.67-3.24,2.54-5.05,1.5-2.37-1.46-2.61-4.62-2-6.97,1.64-5.94,9.4-11.26,14.73-6.24,4.12,3.59,4.46,9.82,3.41,14.83-1.82,6.6-7.95,10.98-14.05,13.28-18.78,7.18-33.53-4.18-44.4-18.63-3.53-4.56-5.8-9.94-7.83-15.28-1.98-5.36-3.63-10.85-5.02-16.39-.53-2-.99-4.23-1.42-6.27-.2-1.4-.58-2.86-1.98-3.5-.63-.33-1.34-.4-2.06-.33l-4.28,.21h0v.02Z"/><path class="cls-7" d="M386.43,151.26c-3.01,0-5.62-1.36-5.77-1.44-.64-.34-.88-1.13-.54-1.76,.34-.64,1.12-.88,1.76-.54,.05,.03,3.85,1.99,6.79,.71,1.55-.67,2.65-2.19,3.28-4.5,.19-.69,.9-1.11,1.6-.91,.69,.19,1.11,.9,.91,1.6-.85,3.12-2.45,5.21-4.77,6.21-1.08,.46-2.21,.64-3.28,.64v-.02Z"/><path class="cls-7" d="M362.26,103.85l-.7,3.74-3.01-.19s2.65,.43,3.72-3.55Z"/><path class="cls-7" d="M341.22,139.31c2.43-2.96,4.75-6.6,4.46-10.63,1.21,4.13-.38,8.48-2.28,12.18-1.03,1.69-3.45-.02-2.19-1.55h0Z"/><path class="cls-7" d="M345.69,135.87c2.43-2.96,4.75-6.6,4.46-10.63,1.21,4.13-.38,8.48-2.28,12.18-1.03,1.69-3.45-.02-2.19-1.55h0Z"/><path class="cls-7" d="M349.49,132.42c2.43-2.96,4.75-6.6,4.46-10.63,1.21,4.13-.38,8.48-2.28,12.18-1.03,1.69-3.45-.02-2.19-1.55h0Z"/><path class="cls-7" d="M353.39,128.86c2.43-2.96,4.75-6.6,4.46-10.63,1.21,4.13-.38,8.48-2.28,12.18-1.03,1.69-3.45-.02-2.19-1.55h0Z"/><path class="cls-7" d="M363.21,118.35c-1.04,2.77-2.36,6.15-5.46,7.17l.46-.34c-3.68,6.61-8.9,12.36-15.61,16.04-.65,.35-1.46,.11-1.81-.54-.37-.68-.08-1.54,.62-1.86,3.19-1.47,6.12-3.56,8.75-6,2.63-2.46,5.03-5.3,6.93-8.35,.1-.15,.25-.24,.42-.26,2.77-.56,4.41-3.54,5.71-5.85h.01Z"/><path class="cls-7" d="M365.73,117.74c.88,1.77,1.1,5.78-1.04,6.77-.45,.18-1.14,.37-1.32-.25-.09-.32,.11-.65,.43-.74,1.17,.09,1.71-1.18,1.93-2.21,.21-1.14,.4-2.45,0-3.57h0Z"/><path class="cls-7" d="M368.88,116.52c.88,1.77,1.1,5.78-1.04,6.77-.45,.18-1.14,.37-1.32-.25-.09-.32,.11-.65,.43-.74,1.17,.09,1.71-1.18,1.93-2.21,.21-1.14,.4-2.45,0-3.57h0Z"/><path class="cls-7" d="M372.24,116.21c.88,1.77,1.1,5.78-1.04,6.77-.45,.18-1.14,.37-1.32-.25-.09-.32,.11-.65,.43-.74,1.17,.09,1.71-1.18,1.93-2.21,.21-1.14,.4-2.45,0-3.57h0Z"/><path class="cls-7" d="M375.45,115.36c.88,1.77,1.1,5.78-1.04,6.77-.45,.18-1.14,.37-1.32-.25-.09-.32,.11-.65,.43-.74,1.17,.09,1.71-1.18,1.93-2.21,.21-1.14,.4-2.45,0-3.57h0Z"/><path class="cls-7" d="M375.08,115.75c.59,.31,.79,1.06,.97,1.66,.63,2.1-.2,4.77-2.73,4.91-.33,.03-.63-.21-.66-.54-.04-.35,.25-.67,.62-.66,1.98,.21,2.68-2.02,2.47-3.66-.09-.59-.15-1.32-.68-1.71h.01Z"/><path class="cls-7" d="M378.67,115.98c.59,.31,.79,1.06,.97,1.66,.63,2.1-.2,4.77-2.73,4.91-.33,.03-.63-.21-.66-.54-.04-.35,.25-.67,.62-.66,1.98,.21,2.68-2.02,2.47-3.66-.09-.59-.15-1.32-.68-1.71h.01Z"/><path class="cls-7" d="M380.89,122.41c1.14-.1,2.18-.82,2.29-2,.1-.82-.07-2.06-.71-2.57l.1-.97c.01-.11,.11-.19,.22-.18,1.34,.66,1.32,2.62,.98,3.86-.33,1.26-1.63,1.98-2.86,1.86h-.01Z"/><path class="cls-7" d="M385.8,118.58c1.47,.92,1.55,3.91,.15,5-.55,.44-2.37,1.26-2.57,.2-.05-.37,.27-.71,.65-.67,.49,.02,.99-.02,1.4-.25,1.28-.7,1.5-3.34,.37-4.28h0Z"/><path class="cls-7" d="M388.7,119.8c1.47,.92,1.55,3.91,.15,5-.55,.44-2.37,1.26-2.57,.2-.05-.37,.27-.71,.65-.67,.49,.02,.99-.02,1.4-.25,1.28-.7,1.5-3.34,.37-4.28h0Z"/><path class="cls-7" d="M392,121.71c1.47,.92,1.55,3.91,.15,5-.55,.44-2.37,1.26-2.57,.2-.05-.37,.27-.71,.65-.67,.49,.02,.99-.02,1.4-.25,1.28-.7,1.5-3.34,.37-4.28h0Z"/><path class="cls-7" d="M395.51,124.24c1.47,.92,1.55,3.91,.15,5-.55,.44-2.37,1.26-2.57,.2-.05-.37,.27-.71,.65-.67,.49,.02,.99-.02,1.4-.25,1.28-.7,1.5-3.34,.37-4.28h0Z"/><path class="cls-7" d="M402.93,114.56c-.87-3.75-1.81-9.07-2.81-12.69-1.07-5.57-6.1-7.74-11.36-7.48-7.45-.23-15.47-.51-22.89-.96-.41,0-.75-.33-.71-.74,.02-.32,.26-.58,.56-.64,4-1.76,5.64-7.02,6.73-10.95l.44-1.92-.27,1.97c-.76,4.23-1.9,8.96-5.5,11.71-.33,.21-.58,.4-1.07,.56l-.15-1.37c8.63-.02,17.64-.04,26.28,.33,4.79,.48,9.18,4.14,9.88,9,.97,4.36,1.35,8.72,1.48,13.11,0,.36-.54,.45-.63,.07h.01Z"/><path class="cls-7" d="M382.03,92.77c-.53-3.96,2.95-6.68,6.35-7.83,3.95-1.39,7.42,2.22,9.22,5.24,0,.01,.02,.03,.03,.04-.12-.2-.36-.37-.57-.41,.26,.01,.7-.04,1.09-.11,5.32-1,10.56-2.61,15.79-4.09,2.28-.19,4.8,.81,6.23,2.67,1.07,1.29,1.59,3.03,1.55,4.68v1.42c0,.47-.29,.89-.69,1.07l-18.66,8.23-.2,.09c-.49,.21-1.07-.02-1.28-.51-.14-.48-.4-1.06-.75-1.56-.64-.98-1.53-1.8-2.58-2.34-.54-.3-1.13-.48-1.75-.64,2.36-.22,4.76,.78,6.4,2.51,.25,.27,.47,.51,.73,.88l-1.52-.55,18.66-8.23-.69,1.07v-1.42c.1-1.93-1.02-3.84-2.81-4.6-.7-.33-1.39-.38-2.41-.47l.45-.04c-4.55,1.33-9.08,2.63-13.71,3.68-1.4,.26-2.73,.69-4.21,.57-.4-.05-.81-.3-1.03-.65-1.5-2.25-3.59-5.22-6.6-4.3-1.98,.76-4.52,2.1-4.72,4.47-.03,.31-.01,.57,0,1l-2.33,.13h0v-.02Z"/><path class="cls-7" d="M344.24,90.15c-1.82-1.48-3.98-.21-5.65,.87-.89,.57-1.67,1.28-2.12,2.25-.46,.99-.69,2.18-.63,3.26,.07,1.13,.41,2.56,1.56,2.8,4.38,.93,5.94-1.56,6.94-3.53,.52-1.01,1.12-2.14,1.09-3.31-.02-.91-.48-1.78-1.19-2.35Z"/><path class="cls-7" d="M343.24,106.14c-.11-.71-.37-1.36-1.02-1.75-.73-.43-1.51-.77-2.36-.63-.77,.12-1.56,.46-2.24,.85-1.35,.76-1.88,2.72-1.44,4.14,.21,.7,.68,1.32,1.34,1.64,.35,.18,2.42,.52,2.58,.49,1.32-.23,2.45-1.23,2.94-2.47,.29-.73,.32-1.51,.2-2.28h.01Z"/><circle class="cls-7" cx="346.02" cy="98.9" r="1.84"/><circle class="cls-7" cx="346.98" cy="103.88" r="2.26"/><path class="cls-7" d="M345.53,112.62s.41-4.27,1.52-4.84,2.18-.96,3.02-.31c1.17,.9,.62,2.68-.23,2.91s-4.32,2.23-4.32,2.23h.01Z"/><path class="cls-7" d="M421.7,172.1s-1.6-7.46-2.76-8.04-3.44,3.21-3.44,3.21c0,0-.34-5.29-1.96-6.43s-3.79,4.13-3.79,4.13l-2.64,.11s.11-4.83-2.64-4.94-.8,5.86-.8,5.86c0,0,14.82-3.9,18.03,6.09h0Z"/><path class="cls-7" d="M405.28,162.91s3.44-1.14,5.4-.34,8.27,4.6,10.33,7.57c2.07,2.99-8.61-5.17-11.26-5.17s-4.36,.34-4.36,.34l-.11-2.41Z"/><path class="cls-7" d="M403.94,200.67c-.37,0-.75-.16-1-.47l-2.83-3.42c-.46-.55-.38-1.37,.18-1.84,.55-.46,1.37-.38,1.84,.18l2.83,3.42c.46,.55,.38,1.37-.18,1.84-.24,.2-.54,.3-.82,.3h-.01Z"/><path class="cls-7" d="M408.61,158.77c-.54,0-1.03-.34-1.22-.86,0-.02-.52-1.19-2.48-2-1.65-.68-3.36,1.42-3.39,1.44-.37,.47-1.02,.63-1.57,.37-.55-.25-.85-.85-.74-1.43,1.1-5.66,7.46-9.11,17.46-9.48,8-.29,14.24-3.5,14.29-3.53,.26-.14,.56-.19,.86-.12,.45,.09,.84,.41,1.03,.86,.34,.77,.21,1.88-1.55,4.77-2.42,3.98-10.39,8.72-14.17,9.04-3.77,.33-4.76-.57-7.15-2.73l-.25-.23c.24,.97,.25,1.99,.15,2.74-.08,.59-.55,1.07-1.14,1.13h-.14v.02Zm-.71-7.83c1.39,.01,2.66,1.15,3.13,1.57l.75,.67c2.19,1.99,2.53,2.3,5.17,2.07,3.02-.26,10.2-4.57,12.17-7.81,.14-.24,.27-.46,.38-.66-2.73,1.04-7.31,2.44-12.7,2.64-3.53,.13-6.52,.65-8.89,1.51h-.01Zm-3.67,2.24c.42,0,.85,.05,1.28,.19-.02-.14-.01-.29,.01-.44,.08-.38,.27-.84,.62-1.22-.85,.44-1.57,.92-2.19,1.47h.29Z"/><path class="cls-7" d="M361.29,156.71l18.6,24.79-.49,.08c1.91-7.45,1.26-16.26-3.3-22.65-3.68-4.65-9.52-6.94-14.96-8.99-1.95-.82-4.07-1.31-5.61-2.89l1.25-.27c-1.39,7.07-2.72,17.4,2.57,23.03,5.1,6.1,12.06,11.26,20.3,10.85,1.53-.02,1.62,2.25,.07,2.33-8.94,.3-16.49-5.33-21.8-11.96-2.98-3.18-3.9-7.87-3.97-12.08-.07-4.24,.47-8.4,1.44-12.51,.09-.38,.47-.62,.85-.53,.16,.04,.31,.13,.41,.26,.2,.25,.58,.53,.97,.75,8.62,4.08,18.93,6.46,22.01,16.9,1.9,5.77,1.98,12.1,.31,17.95-.04,.14-.2,.23-.34,.19-.19,.03-18.17-25.15-18.29-25.23h-.01Z"/><path class="cls-7" d="M408.16,139.99c2.78-4.6,6.58-8.28,10.2-12.16,3.64-3.74,7.35-7.4,11.15-10.97-3.51,3.85-6.95,7.76-10.28,11.75-3.18,3.95-6.65,7.9-8.98,12.4-.66,1.5-2.88,.43-2.1-1.02h.01Z"/><path class="cls-7" d="M418.94,119.96c.55,3.76-.88,7.63-1.84,11.25l-.98-.69c3.48-2.53,6.91-5.2,10.73-7.22-3.58,2.35-6.73,5.33-9.94,8.17-.48,.44-1.24-.11-.98-.7,1.32-3.44,3.12-7.04,2.99-10.8h.01Z"/><path class="cls-7" d="M332.16,95.96c-.24-.35-.65-.45-1.06-.43-.4,.03-.78,.14-1.15,.26-.38,.13-.78,.3-1.12,.53-.34,.23-.62,.54-.79,.92-.22,.47-.2,1-.1,1.51,.09,.44,.2,.95,.54,1.28,.15,.15,.34,.23,.56,.22,.18,0,.82-.07,1.13-.4,.4-.42,.75-.88,1.11-1.31,.33-.38,.67-.77,.89-1.23,.2-.42,.29-.95,0-1.35h-.01Z"/><path class="cls-7" d="M328.97,89.55c-.34-.26-.71-.48-1.15-.55-.37-.05-.78,.05-1.07,.3-.71,.59-.59,1.64-.24,2.4,.18,.37,.43,.73,.78,.96,.19,.12,.38,.21,.62,.24,.18,.03,1.12,.01,1.43-.14,.38-.2,.64-.6,.71-1.02,.18-.9-.4-1.65-1.08-2.18Z"/><path class="cls-7" d="M335.51,90.07c-.13-.76-.8-1.41-1.58-1.41-.11,0-.21,.09-.27,.2-.07,.02-.13,.03-.2,.07-.16,.08-.32,.18-.46,.3-.29,.24-.52,.55-.65,.91-.24,.69-.11,1.47,.36,2.03,.24,.27,.6,.52,.98,.52,.4,0,.77-.24,1.06-.49,.58-.52,.91-1.33,.78-2.1v-.02Z"/><path class="cls-7" d="M338.92,149.69c-.1-.95-.22-1.88-1.06-2.46-.79-.55-1.81-1.12-2.8-1.11-.88,.01-1.7,.48-2.29,1.12-.67,.74-1.04,1.7-1.2,2.68-.16,1.03-.2,2.18,.02,3.21,.22,1.01,.82,1.89,1.69,2.45,.31,.2,3.25,.35,3.92-.24,.75-.65,1.33-1.43,1.59-2.4,.3-1.06,.21-2.18,.1-3.25h.01Z"/><path class="cls-7" d="M335.2,160.39c.16-.63,0-1.34-.33-1.89-.29-.46-.75-.88-1.32-.85-.64,.03-1.14,.54-1.18,1.18-.03,.63,.43,1.17,.92,1.5,.29,.19,.59,.33,.92,.41,.18,.03,.35,.07,.52,.07,.2,0,.46,0,.46-.25,0-.04,0-.08-.02-.12v-.03h.02Z"/><path class="cls-7" d="M341.53,158.05c.02-.43-.02-.87-.13-1.29-.11-.42-.25-.85-.66-1.06-.19-.1-.4-.14-.58-.26-.21-.13-.4-.27-.66-.24-.41,.05-.76,.41-.96,.74-.44,.74-.41,1.66-.12,2.44,.18,.47,.42,.9,.74,1.29,.15,.18,.32,.35,.49,.49,.09,.08,.19,.14,.27,.21,.19,.13,.29,.16,.53,.19,.23,.01,.25-.19,.21-.35,.55-.58,.82-1.36,.87-2.17h0Z"/><path class="cls-7" d="M344.9,171.36c-.36-.8-.98-1.78-1.99-1.68-1.04,.1-1.42,1.35-1.39,2.25,.03,.92,.46,1.84,1.23,2.37,.42,.3,.89,.47,1.39,.54,.13,.02,.25,.02,.38,.02,.16,0,.48,0,.62-.05,.21-.1,.2-.32,.08-.48,.33-.99,.1-2.02-.32-2.96h0Z"/><path class="cls-7" d="M346.41,180.19c-.05-.44-.1-.93-.29-1.33-.16-.37-.56-.57-.9-.77-.36-.22-.77-.41-1.2-.41-.86-.01-1.53,.7-1.44,1.56s.84,1.51,1.46,2.02c.34,.29,.73,.55,1.17,.67,.2,.05,.47,.1,.69,.08,.05,.09,.14,.15,.26,.12,.2-.07,.27-.29,.29-.47,.03-.48,.02-.97-.03-1.45v-.02Z"/><path class="cls-7" d="M350.97,178.56c-.56-1.68-1.25-3.32-2.04-4.86-.11-.22-.33-.12-.43,.03-.02,.03-.03,.07-.04,.11-.01-.02-.02-.05-.04-.08-.18-.16-.35,.04-.43,.22-.56,1.31-.54,2.99,.09,4.32,.32,.69,.79,1.18,1.43,1.24,.3,.03,.58-.01,.88-.08,.2-.04,.43-.07,.48-.26,.12-.16,.19-.45,.11-.66h0Z"/><path class="cls-7" d="M360.57,165.13l11.75,5.32-.84,.73-4.07-14.01,5.2,13.63c.21,.49-.38,1-.84,.73l-11.21-6.39h0Z"/><path class="cls-7" d="M391.58,52.04c1.02,2.18,2.8,5.87,5.43,6.01,.52,0,1.13-.2,1.65-.35,2.5-.81,4.51-2.79,7.01-3.91,3.98-1.95,8.76-1.77,12.76-.27,2.69,.93,8.22,4.16,6.98,7.59-.32,.78-1.07,1.42-1.84,1.62-4.09,1.23-8.54,.31-12.31-1.41-2.42-1.13-4.97-2.08-7.21-3.56-.14-.12-.3-.33-.13-.53,.33-.32,.67,.3,.23,.4,.04,0,.09-.02,.12-.05,.08-.09,.08-.16,.04-.23,0,0,.03,.02,.05,.04,2.24,1.36,4.76,2.24,7.17,3.28,2.51,1.04,5.16,1.74,7.83,1.68,1.33-.01,2.65-.22,3.89-.63,1.08-.29,1.58-1.6,1.04-2.53-.67-1.08-1.68-1.92-2.78-2.62-4.41-2.59-10.31-3.24-14.83-.73-2.84,1.6-5.38,4.24-8.82,4.87-4.62,.8-7.5-3.97-9.16-7.51-.78-1.92,2.04-3.09,2.85-1.17h.01Z"/><path class="cls-7" d="M423.91,57.85c.42,.32,1.02,.18,1.26-.3,.45-.91,1.14-2.31,1.54-3.16,1-2.14,.05-4.01-.45-5.01-.12-.24-.46-.22-.56,.03-.47,1.19-1.86,3.43-5.31,1.73-.79-.4,3.36,2.72,3.1,3.79-.26,1.07-3.44,.03-3.44,.03l3.86,2.88Z"/><path class="cls-7" d="M421.04,56.04c-3.7-2.4-8.44-3.06-12.59-1.5-2.64,.9-5.52,2.31-6.89,4.79-.22,.45-.55,1.24-.34,1.67,.19,.4,.87,.71,1.51,.91,1.34,.4,2.81,.55,4.28,.68,4.5,.55,8.77,.09,13.36,.14,1.84,.14,4,.09,5.35,1.71,.87,1.35,.55,3.16,.15,4.56-.46,1.54-1.15,2.95-1.96,4.28-1.9,3.03-5.45,7.16-9.36,7.35-1.29,.04-2.44-1.22-2.52-2.44l2.21,.36c-1.22,2.36-2.63,4.56-4.62,6.35-.89,.71-3.14,2.62-3.96,.81-.09-.23-.09-.47-.03-.69,.37-1.68,.6-4.27-.51-5.6l1.78-.04c-2.09,2.36-4.32,4.8-7.55,5.47-.64,.1-1.23-.33-1.33-.97-.04-.64,.3-1.22,.37-1.88,.2-1.12,.43-2.57-.11-3.55l1.82,.14c-1.77,1.82-3.62,3.48-5.87,4.72-1,.49-3.62,1.76-3.97-.2-.07-.7,.45-.97,.85-1.48,1.1-1.4,1.54-3.22,1.32-4.98l2.08,.56c-.53,.66-1.03,1.24-1.59,1.82-1.01,1.26-6.86,6.17-7.68,3.06,.12-1.45,.63-3.75-.22-4.96l1.93-.12c-3.55,5.18-6.91,10.56-11.27,15.12-.32,.29-.63,.58-1.08,.77-.09,.04-.2,0-.24-.1-.04-.1,0-.2,.09-.24,2.44-2.11,3.91-5.31,5.65-8.01,1.67-2.87,3.28-5.78,4.83-8.72,.3-.55,.98-.77,1.53-.47,1.15,.88,1.3,2.46,1.36,3.74,.02,1.08-.08,2.03-.3,3.1l-1.28-1.41c1.93-.35,3.59-1.98,4.97-3.35,.92-.74,1.69-2.84,3.09-1.86,.25,.2,.4,.49,.43,.79,.34,2.75-.51,5.56-2.53,7.53l-.86-2.03c2.76-.52,5.09-2.94,7.05-4.85,1.48-1.28,2.39,.95,2.47,2.09,.19,1.74-.12,3.33-.59,4.98l-1.29-1.52c1.8-.36,3.39-1.84,4.71-3.12,.89-.73,1.67-2.66,3.01-1.68,1.97,2.13,1.69,5.23,1.17,7.86l-1.52-1.39c1.84-.68,3.48-2.87,4.61-4.64,.43-.68,.84-1.41,1.18-2.09,.51-1.02,2.1-.7,2.19,.42,.02,.22,.09,.34,.11,.37,.43,.24,1.12-.07,1.78-.36,3.66-1.92,6.5-5.61,7.86-9.47,.3-.98,.55-1.99,.23-2.94-.05-.13-.13-.21-.25-.32-.96-.68-2.56-.79-3.8-.89-2.9-.18-5.87,.04-8.92-.09-2.47-.4-11.25-.23-11.25-3.56,.62-3.88,4.8-5.75,8.12-6.82,4.33-1.5,9.27-.74,13.03,1.85,.21,.16,0,.47-.23,.32h0l.02-.02Z"/><path class="cls-7" d="M377.02,73.57c6.66,.51,12.67-3.66,16.89-8.45,.56-.62,1.58,.02,1.3,.79-.87,2.08-1.98,3.96-3.62,5.53-.93,.93-2.26,1.58-3.62,1.88,.01-.02,0,.03,.15-.16,.03-.04,.08-.15,.09-.24,.05-.19-.09-.53-.2-.58-.1-.08,0,0,.07,0,4.27,.69,9.23-.3,12.69-2.95,.33-.26,.81-.21,1.09,.12,.18,.22,.21,.49,.12,.75-.29,.8-.64,1.48-1.09,2.15-.74,1.22-2.41,2.48-3.76,2.68,.27-.15,.41-.55,.3-.86-.15-.35-.27-.41-.51-.48,1.78-.08,3.98-.69,5.67-1.54,1.22-.62,2.32-1.46,2.88-2.55,.19-.4,.67-.56,1.06-.35,.34,.18,.49,.57,.38,.92-.29,.91-.64,1.7-1.1,2.51-.8,1.4-1.99,2.7-3.52,3.36-.04,.01-.42,.2-.36,.16,.03-.03,.03-.02,.12-.14,.21-.32,.03-.89-.35-1,.34,0,1.3-.13,1.84-.27,2.9-.75,6.35-2.21,7.52-5.09,.14-.41,.59-.63,1-.47,.34,.13,.54,.46,.49,.81-.1,.9-.3,1.68-.58,2.48-.6,1.87-1.95,3.5-3.65,4.49,.3-.34,.03-1-.42-1.06,1.66-.29,3.26-1.23,4.64-2.25,1.15-.91,2.13-2.03,2.64-3.32,.15-.41,.62-.6,1.01-.45,.34,.13,.54,.49,.48,.85-.13,.82-.3,1.62-.51,2.42-.2,.86-.79,2.39-1.32,2.73,.23-.27,.19-.84-.13-1.04-.1-.11-.42-.19-.49-.16,2.66-.88,5.23-2.41,7.42-4.16,1.17-.97,2.23-2.08,2.87-3.35,.46-.9,1.85-.22,1.39,.7-1.63,3.03-4.47,4.92-7.34,6.56-1.31,.68-2.57,1.36-4.01,1.76-.19,.02-.29,.07-.58-.02-.43-.14-.66-.7-.44-1.11,.1-.18,.19-.26,.27-.33,.24-.22,.36-.54,.53-.93,.4-1.04,.63-2.19,.81-3.29l1.5,.4c-1.36,3.22-4.33,5.21-7.52,6.33-.67,.18-1.62,.54-2.11-.21-.21-.38-.13-.67,.04-.95,.23-.35,.71-.6,1-.8,1.79-1.13,2.68-3.35,2.95-5.4l1.51,.34c-1.48,3.57-5.19,5.14-8.62,6.06-.84,.18-1.64,.38-2.52,.29-.23-.04-.46-.14-.63-.36-.3-.36-.15-.96,.18-1.19,.3-.24,.49-.29,.76-.42,1.92-.87,3.08-2.89,3.73-4.85l1.44,.56c-1.88,3.25-5.65,4.32-9.07,4.87-.66,.03-1.52,.29-1.85-.53-.14-.36,.08-.8,.37-.96,.35-.19,.44-.16,.74-.25,1.71-.46,2.83-2.1,3.44-3.73l1.23,.85c-3.53,2.74-8.01,3.63-12.38,3.47-.79-.1-1.58-.04-2.36-.58-.56-.47-.34-1.3,.26-1.57,.32-.18,.65-.21,.93-.3,2.78-.79,4.42-3.74,5.55-6.27l1.3,.81-1.87,1.71c-4.42,3.7-10.25,6.61-16.15,5.67h0l.03-.04Z"/><path class="cls-7" d="M381.43,30.27c2.37,2.58,3.99,5.77,5.78,8.77,1.74,3.05,3.41,6.12,5.03,9.25l-2.19,.8-1.84-8.48c-.56-2.48-1.29-6.02-1.95-8.45,1.86,4.57,4.29,11.61,6.02,16.29l-2.19,.8c-1.26-3.24-2.57-6.47-3.96-9.67-1.44-3.16-2.68-6.47-4.74-9.29h0v-.02Z"/><path class="cls-7" d="M401.77,109.27c-1.9-3-4.99-6.67-8.79-5.25-2.58,2.03-1.39,8.18-1.13,11.23-1.77-3.84-4.16-12.54,2.01-13.52,4.33-.48,7.66,3.44,8.51,7.32,.08,.34-.43,.53-.58,.22h-.01Z"/><path class="cls-7" d="M382.65,103.65c-2.31-2.22-6.95-2.69-9.9-3.5-1.75-.44-3.48-.97-5.2-1.57-2.56-.99-5.73-2.08-7.18-4.78-2-4.39-1.84-9.51,.1-13.85,.76-1.67,1.78-3.3,3.23-4.43-.92,1.56-1.46,3.23-1.89,4.9-.97,4.01-.96,8.5,.58,12.32,1.21,2.1,3.65,2.96,5.88,3.99,1.6,.71,3.24,1.34,4.92,1.93,3.23,1.28,7.27,2,9.44,4.99h.01Z"/><path class="cls-7" d="M380.43,111.47c.75-2.58,.73-5.02-2.3-5.72-4.71-.62-9.49-.92-14.13-2.03-2.56-.64-5.28-1.31-7.38-2.97,2.32,1.29,4.98,1.56,7.55,1.9,3.91,.4,7.84,.54,11.77,.59,1.23,0,2.84,0,4.33,.66,3.35,1.33,3.67,5.58,2.3,8.48-.64,1.36-2.67,.51-2.15-.9h0Z"/><path class="cls-7" d="M355.09,98.67c-8.62-8.16-5.03-20.03,3.42-26.75,.29-.31,.79-.38,1.07-.02,.14,.19,.18,.43,.1,.63-.19,.49-.23,1.14-.19,1.69,.07,.63,.34,1.18,.81,1.63-.68-.2-1.24-.75-1.55-1.39-.33-.69-.45-1.4-.43-2.18l1.17,.62c-6.05,8.71-9.28,15.48-4.39,25.77h-.01Z"/><path class="cls-7" d="M358.08,82.6c-2.19-.78-4.17-2.89-4.06-5.4-.01-.66,.51-1.2,1.15-1.22,.66-.01,1.2,.51,1.22,1.17,0,.15-.02,.3-.07,.43-.76,1.82,.34,3.74,1.76,5.01h-.01Z"/><path class="cls-7" d="M357.89,88.39c-2.25,.56-5.07-.12-6.36-2.26-.37-.54-.24-1.28,.3-1.65s1.28-.24,1.65,.3c.09,.12,.14,.25,.18,.4,.37,1.95,2.35,2.94,4.23,3.22h.01Z"/><path class="cls-7" d="M357.92,93.1c-1.46,.76-3.39,1.12-5.05,.48-1.01-.38-2.81-1.45-1.81-2.72,.43-.49,1.18-.56,1.67-.13,.11,.1,.21,.21,.27,.34,.86,1.78,3.02,2.23,4.91,2.02h0Z"/><path class="cls-7" d="M359.38,98.6c-2.51-.34-5.8-.78-6.91-3.46-.11-.31,.05-.64,.36-.74s.63,.07,.73,.37c.62,2.37,3.69,3.19,5.82,3.83h.01Z"/><path class="cls-7" d="M366.5,101.36l-3.65,1.7c-.13,.07-.3,0-.36-.13-.07-.14,0-.33,.16-.37l3.85-1.2h0Z"/><path class="cls-7" d="M374.54,102.35l-3.65,1.7c-.13,.07-.3,0-.36-.13-.07-.14,0-.33,.16-.37l3.85-1.2h0Z"/><path class="cls-7" d="M406.4,131.5c-.57-2.32-1.59-5-4.13-5.65-.78-.23-1.78-.29-2.99-.22,.81-1.73,3.21-2.62,5.07-1.96,2.58,.75,4.29,3.3,4.69,5.85,.21,1.15,.41,3.2-1.33,3.17-.68-.03-1.18-.55-1.3-1.19h-.01Z"/><path class="cls-7" d="M408.77,141.55c5.05,1.28,10.72-.18,14.52-3.75,2.26-2.19,4.01-4.92,5.56-7.67,2.2-3.75,2.24-8.06,3-12.28,.71-4.33,1.46-8.57,2.35-12.93l2.23,1.35c-.76,.57-1.41,.92-2.21,1.32-3.47,1.88-7.57,1.48-11.21,2.51-4,1.51-7.76,4.47-9.79,8.34-1.31,2.28-2.06,4.88-3.42,7.15-.22,.31-.45,.64-.8,.79,.34-.18,.54-.52,.74-.84,1.75-3.79,2.52-8.06,5.27-11.37,2.09-2.39,4.49-4.33,7.43-5.67,2.85-1.18,5.96-1.08,8.73-2.25,.97-.4,1.9-.87,2.76-1.46,.26-.19,.57-.42,.74-.57,.55-.51,1.41-.47,1.91,.07,.33,.36,.43,.85,.31,1.29-.99,4.16-1.88,8.45-2.72,12.7-.87,4.28-1.22,9.03-3.63,12.81-3.54,6.01-8.04,11.2-15.37,12.04-2.28,.24-4.51,.13-6.73-.51l.34-1.07h-.01Z"/><path class="cls-7" d="M385.43,36.2l5.29,6.43c.58,.7,.69,1.64,.38,2.43l-6.11,15.62c-.25,.64-.74,1.11-1.33,1.36l-22.35,9.44,1-3.77,5.98,7.81c.4,.52,.56,1.14,.49,1.74l-1.13,11.94-.59-1.87c2.43,2.69,4.9,5.62,7.72,7.86,.13,.1,.32,.2,.19,.13-.04-.01-.12-.04-.29-.08-.03,0-.11-.02-.16-.02h.01l.51,.02c3.96,.18,9.39,.86,13.36,1.17,1.29,.12,2.24,1.23,2.21,2.51l-.48,14.24-1.17-2.14s9.86,5.99,9.87,5.99c.8,.48,1.21,1.37,1.13,2.24l-1.18,13.32c-.14,2.19-3.14,2.94-4.32,1.12-3.34-4.67-8.39-8.43-13.98-9.76-12.24-2.77-23.22,5.71-31.36,14.09-14.9,14.97-19.83,31.12-3.11,47.07,9.03,8.52,20.56,14.54,32.14,18.91l-.52-.09c4.85,.07,9.79-.14,14.64-.65,6.36-.79,19.07-2.28,21.78-8.73,.18-.54,.25-.89,.3-1.48,.45-4.89,.87-9.81,.86-14.71,.1-1.08-.52-2.55,.73-3.06l4.85-1.93c.62-.26,1.34,.03,1.59,.66,.33,4.99,.11,10.03,0,15.04-.14,2.21-.45,16.51-3.43,15.05-.37-.23-.52-.7-.35-1.1,1.79-4.43,3.2-9.11,4.02-13.84,.89-5.66,1.4-12.42-2.63-17.02-5.99-6.36-15.5-8.1-23.09-3.43,6.16-4.2,14.81-3.99,20.83,.47,4.62,2.88,6.51,7.5,6.69,12.77,.27,7.46-1.65,14.75-4.21,21.71l-1.56-.8c.22-.37,.41-.91,.55-1.45,.92-4.06,.95-8.27,1.07-12.42,.07-4.81-.03-9.66-.24-14.47l1.68,1.08-4.8,2.04,.78-1.32c.33,5.07-.07,10.07-.38,15.12l-.14,1.87c-.08,2.17-1.24,4.39-2.78,5.82-7.49,7.09-27.25,8.39-37.32,8.16-19.28-6.96-47.83-22.39-45.48-46.41,1.12-10.17,7.62-18.62,14.4-25.83,13.31-14.49,32.58-23.9,49.02-7.97,1.28,1.28,2.39,2.53,3.42,4.02l-4.33,1.09,1.12-13.32,1.14,2.25-9.88-5.96c-.77-.46-1.19-1.3-1.17-2.14l.43-14.24,2.21,2.51c-3.95-.26-9.61-.96-13.47-1.11-1.64,0-2.92-1.22-4.02-2.14-2.58-2.34-4.83-4.83-7.12-7.41-.46-.53-.66-1.2-.6-1.85,0-.02,1.17-11.94,1.17-11.96l.49,1.74-5.97-7.82c-.99-1.24-.47-3.18,1-3.77l22.36-9.4-1.32,1.36,6.13-15.61,.38,2.42-5.28-6.43c-1.93-2.42,1.59-5.53,3.74-3.07h0v-.03Z"/></g></svg>