<?xml version="1.0" encoding="UTF-8"?><svg id="Layer_1" xmlns="http://www.w3.org/2000/svg" viewBox="0 0 417.31 263.58"><defs><style>.cls-1{fill:none;}.cls-2{fill:#fff;}.cls-3,.cls-4,.cls-5{fill:#fff0a4;}.cls-6{fill:#ffe6d2;}.cls-7{fill:#ffdb2c;}.cls-8{fill:#bf4094;}.cls-9{fill:#232323;}.cls-10{fill:#1c5143;}.cls-11{fill:#5be397;}.cls-4{stroke-miterlimit:10;}.cls-4,.cls-5{stroke:#000;stroke-width:2px;}.cls-5{stroke-linecap:round;stroke-linejoin:round;}.cls-12{opacity:.15;}</style></defs><g><path class="cls-6" d="M99.44,229.29c-53.6,0-97.21-43.61-97.21-97.21S45.84,34.87,99.44,34.87h218.43c53.6,0,97.21,43.61,97.21,97.21s-43.61,97.21-97.21,97.21H99.44Z"/><path d="M317.88,35.87c53.13,0,96.21,43.07,96.21,96.21h0c0,53.13-43.07,96.21-96.21,96.21H99.44c-53.13,0-96.21-43.07-96.21-96.21h0c0-53.13,43.07-96.21,96.21-96.21h218.43m0-2H99.44C45.29,33.87,1.23,77.93,1.23,132.08s44.06,98.21,98.21,98.21h218.43c54.15,0,98.21-44.06,98.21-98.21s-44.06-98.21-98.21-98.21h0Z"/></g><path class="cls-4" d="M384.52,62.19s.07,.06,.1,.1H32.69s.07-.07,.1-.1c17.29-16.62,40.77-26.83,66.65-26.83h218.44c25.88,0,49.35,10.21,66.64,26.83Z"/><path class="cls-4" d="M413.09,145.38s0,.07-.02,.1H4.24s-.02-.07-.02-.1c-.65-4.51-.99-9.13-.99-13.82s.34-9.3,.99-13.81c0-.04,0-.07,.02-.1H413.07s.02,.06,.02,.1c.65,4.51,.99,9.12,.99,13.81s-.34,9.31-.99,13.82Z"/><path class="cls-4" d="M317.88,227.77H99.44c-25.88,0-49.36-10.21-66.65-26.83-.03-.03-.07-.06-.1-.1H384.62s-.06,.07-.1,.1c-17.29,16.62-40.76,26.83-66.64,26.83Z"/><path class="cls-2" d="M219.26,120.66c-.6-2.82-1.84-5.8-4.12-7.68-.02-.02-.04-.03-.06-.05-.75-.85-1.63-1.57-2.65-2.1-1.47-.77-3.08-1.18-4.63-1.74-2.53-.92-4.55-2.85-5.32-5.46-.93-3.13,.27-6.41,.02-9.59-.12-1.55-.43-3.84-1.97-4.63-1.58-.81-3.49,.72-4.71,1.63-1.4,1.05-2.51,2.3-3.09,3.98-.55,1.56-.57,3.33-.61,4.97-.08,3.01,.2,6.23,1.8,8.86,1.63,2.67,4.41,4.24,7.41,4.89,1.66,.36,3.38,.49,5.07,.49,1.73,0,3.63-.28,5.28,.38,.4,.16,.77,.38,1.11,.62,.07,.08,.14,.17,.2,.25,1.55,2.11,1.98,4.91,2.4,7.43,.14,.87,1.22,1.35,2,1.14,.8-.22,1.17-.91,1.17-1.65,.53-.34,.89-.95,.72-1.73Z"/><path class="cls-3" d="M223.72,194.04s-4.82-2.07-6.37-4.82c-1.55-2.75-2.93-12.57-2.93-12.57,0,0,2.75-.17,3.62-2.93,.86-2.75,1.55-3.1,1.03-7.75s-4.13-12.05-3.62-14.81,3.1-5.51,4.99-5.68,4.65,2.41,4.65,2.41c0,0,1.21,.52,2.24-2.07,1.03-2.58-1.21-6.54-1.38-7.23s2.07-3.44,1.21-4.65c-.86-1.21-4.13-9.64-4.13-9.64l-5.68-14.29,1.89-4.3,4.13-.52,3.79,3.62,14.29-2.93,2.58,1.38,1.21,3.44-14.29,6.89,.17,3.1,1.03,5.85,4.3,8.55-.52,10.22-5.68,12.22-.86,6.89s-2.41,12.74-2.24,16.7c.17,3.96,7.06,9.99,7.06,9.99l-10.5,2.93Z"/><path class="cls-11" d="M227.77,82.55s8.61-4.91,13.09-3.87,6.8,1.38,7.58,.77,.43-1.89-.77-3.53-5.08-12.22-7.66-14.46-10.93-8.87-14.29-10.67-4.99-3.1-8.61-2.75-6.2,1.46-6.46,2.32-1.21,5.68,1.03,7.49c2.24,1.81,5.94,4.91,7.23,6.71s2.67,8.78,3.7,11.02c1.03,2.24,3.1,6.28,5.17,6.97Z"/><path class="cls-11" d="M246.33,93.89c2.53-3.56,2.98-4.02,1.84-4.71-1.15-.69-3.56-1.38-6.89-1.03s-6.54,0-8.15-.34c-1.61-.34-3.1-1.38-2.87-2.64,.23-1.26-1.15,0-1.15,0l-3.9-1.38-3.44-4.13,.23-2.3-3.9,6.43-1.38,1.61-2.3-2.98s-2.53-2.07-2.75-4.13c-.23-2.07-2.98-7.12-2.98-7.12l-3.44,1.15-5.51,16.99-11.02-13.77-6.2,2.75,2.3,25.48-17.91-7.35-4.13,13.77,14.63,14.41-15.84,5.51,.29,10.16,13.31,6.66-9.18,11.94,3.21,8.72,14.46-2.53-5.57,16.53,7.4,9.41,11.48-5.51-1.72,12.05,7.69,3.33,8.61-5.28,5.97,8.72,6.31-.23,2.53-7,6.77,3.44,4.02-2.3-.46-5.85s.23-1.15,.69-1.03c.46,.11,4.59,.8,4.59,.8,0,0,2.98-2.75,3.44-4.94,.46-2.18-.34-4.25-.34-4.25l-2.53-1.26-.92-1.03-.34-.8,4.3-8.49s-2.7-5.05-8.78-5.74c-6.08-.69-8.72-.69-10.9,.69s-4.59,9.07-5.05,11.13c-.46,2.07,.23,8.61,2.53,9.87,2.3,1.26,8.61,.8,11.48-2.53,2.87-3.33,.66-8.08-1.41-7.74-2.07,.34-2.73,5.22-4.56,4.18s-3.56-3.67-2.53-5.62c1.03-1.95,4.25-4.36,6.54-4.25,2.3,.11,4.25,1.03,4.94,2.64s1.95,5.17,1.49,7c-.46,1.84-1.26,6.31-5.28,8.38-4.02,2.07-12.51,9.87-29.15-.92,0,0-11.48-10.33-15.27-20.43-3.79-10.1-5.74-18.94-5.74-18.94l-4.57-1.52c-.83-.28-1.5-.98-1.62-1.85-.01-.09-.02-.19-.02-.29h0c0-1.22,.88-2.67,1.96-3.23,2.11-1.09,3.18-2.24,12.46-10.16,1.44-1.23,16.01-6.83,18.08-6.49,2.07,.34,9.21,3.31,10.45,4.36,.67,.57,3.5,1.84,6.48,4.28,1.13,.92,1.56,.56,2.13,.56s3.23-.77,5.39,.9c1.19,.92,2.64,.23,1.49-1.61-1.15-1.84-2.41-2.64-2.41-2.64,0,0,1.25-.31,1.08-2.9-.16-2.28-2.62-2.17-2.78-2.09-1.67,.84-3.98,1.16-6.68,1.08,0,0-.63-.2-1.65-.52-.46-1.36-1.34-5.23-.91-6.66,.52-1.72,1.98-2.41,3.87-2.58,1.89-.17,4.3,3.7,4.3,3.7,0,0-.17-1.55-.26-3.36-.09-1.81-.6-4.91-4.48-6.63-3.87-1.72-11.11-.77-12.83-.69-1.72,.09-10.08,.03-9.3-.6,2.88-2.32,3.75-3.16,4.56-6.97,.66-3.07,1.27-5.65,1.31-7.45,0-.15,.13-.26,.28-.25,.98,.07,1.29,.1,2.24,.22,5.06,.63,11.01-3.45,13.19-6.21l-4.25,5.62s1.26,.57,3.56,.11c2.3-.46,5.39-2.3,5.39-2.3,0,0-1.03,2.98-2.07,3.33,0,0,3.9-1.03,4.94-2.3,0,0-.8,2.87-1.38,3.1-.57,.23,5.05-.69,5.51-2.07,0,0-.46,2.41-1.03,2.75,0,0,3.45-1.06,4.65-2.91-.23,.47-.52,1.16-.52,1.64,0,.8,3.33,.92,5.85-2.64Zm-35.7,21.55c2.5,.6,5.34,1.98,6.2,3.36,.68,1.08-.24,4.5-.67,5.92-2.73-.81-5.46-1.59-7.25-2.01-4.82-1.15-6.77-1.95-10.33-1.84s-6.54-15.84-6.54-15.84c0,0,5.05-9.07,6.2-9.76,.12-.07,.32-.1,.6-.11-.21,1.62,2.33,3.46,2.33,3.46,0,0-.77,1.76-1.29,3.14-.52,1.38-.17,5.77,.69,8.35,.86,2.58,7.58,4.73,10.07,5.34Z"/><path class="cls-10" d="M236.46,135.1s4.02-7.69,4.94-8.95,6.75-4.71,11.41-4.25c4.66,.46,0,0,0,0l2.57-1.53s-1.93,11.51-2.04,13.46c-.11,1.95-3.56,9.76-6.2,11.13s-9.18,2.64-10.67,2.41c-1.49-.23-.57-7.35-.46-9.18s.46-3.1,.46-3.1Z"/><path class="cls-10" d="M232.24,153.75c.52-.17,20.06-3.87,20.06-3.87,0,0-.77,3.62-2.32,4.65s-6.46,3.36-6.46,3.36c0,0-3.27,.6-4.3-.09s-2.93-3.27-3.53-2.58-.52,2.24-.52,2.24c0,0-2.32-1.38-3.36-.95s.43-2.75,.43-2.75Z"/><path class="cls-10" d="M199.38,151.81l9.36,4.69,4.3,4.13,1.89,5.77,.43,4.56-.95,5.68s-9.21-1.29-9.47-1.89-7.32-8.01-7.32-8.01l-1.98-8.18,.95-7.66,2.77,.9"/><path class="cls-8" d="M238.44,80.37c.09,0,7.52,1.52,8.58,2.64s1.41,2.93,1.09,3.47-5.28,1.52-6.49,1.18-9.1-3.47-9.3-4.13,6.11-3.16,6.11-3.16Z"/><path class="cls-8" d="M255.38,120.37c-.4,.12-.8,.24-1.2,.38-.33,.11-.74,.2-1.03,.41-.25,.18-.3,.46-.34,.74-.06,.41-.12,.83-.18,1.24-.26,1.64-.6,3.26-1.02,4.87-.16,.18-.11,.6,.18,.44,.7-.39,1.38-.81,2.03-1.28,.55-.39,1.04-.77,1.18-1.47,.16-.79,.2-1.61,.29-2.41,.1-.88,.2-1.77,.31-2.65,.02-.14-.03-.33-.22-.28Z"/><path class="cls-8" d="M199.38,151.81c-.11-.13-.23-.07-.31,.05-.35-.45-.96-.74-1.44-1.04-.41-.26-.67-.28-1.01,.08-.63,.67-.96,1.62-.84,2.54,.12,.87,.6,1.69,1.32,2.19,.85,.59,2.01,.71,2.71,1.51,.22,.24,.29,.51,.41,.8,.07,.17,.17,.36,.35,.43,.32,.13,.61-.08,.69-.37,.05-.05,.08-.12,.08-.21,.1-2.16-.59-4.31-1.96-5.99Z"/><polygon class="cls-7" points="208.4 71.97 211.41 71.88 217.01 80.92 220.19 73 223.46 78.16 216.4 86.6 208.4 71.97"/><path class="cls-7" d="M211.93,50.01s-.52,3.27,2.41,6.46,5.85,5.85,5.85,5.85c0,0,.6-1.81-1.03-5.08-1.64-3.27,0-2.84,.77-1.98s2.32,1.72,2.84,4.39c.52,2.67,.09,8.35,.26,9.81s2.67,9.99,4.99,9.73,5.51-1.98,8.61-1.46l3.1,.52s-7.4,3.62-9.73,4.05-3.19,1.98-4.56-1.03c-1.38-3.01-5.34-17.82-9.13-19.97-2.48-1.41-6.28-3.96-4.39-11.28Z"/><polygon class="cls-7" points="207.02 71.85 203.75 71.85 198.41 82.3 192.56 74.38 189 75.81 198.93 89.18 207.02 71.85"/><polygon class="cls-7" points="182.74 78.57 184.93 102.84 184.01 103.82 166.68 96.3 168.45 93.26 179.24 97.56 180.28 96.53 178.84 80.98 182.74 78.57"/><polygon class="cls-7" points="162.43 110.3 177.87 123.27 178.04 125 160.65 131.6 161.45 127 169.49 124.42 169.83 122.41 161.45 114.55 162.43 110.3"/><polygon class="cls-7" points="162.03 140.66 175.05 146.75 175.51 148.12 165.87 158.57 165.07 153.4 168.8 149.85 168.63 148.3 162.08 145.43 162.03 140.66"/><polygon class="cls-7" points="169.37 166.78 183.84 165.17 184.06 165.69 178.15 182.33 175.8 177.74 179.47 169.59 178.96 168.78 170.52 170.39 169.37 166.78"/><polygon class="cls-7" points="185.04 190.42 197.09 185.14 197.9 186.29 195.49 198.11 192.96 195.59 193.3 190.77 192.5 190.42 187.91 193.29 185.04 190.42"/><polygon class="cls-7" points="202.95 200.87 210.98 195.24 212.7 195.93 218.44 204.65 212.93 203.74 211.21 200.29 209.03 200.64 207.31 202.24 206.05 202.82 202.95 200.87"/><path class="cls-7" d="M223.15,203.39l3.21-6.31h.8l6.43,3.44-2.53,1.26-2.18-1.26-1.38,.23s-.92,.69-.92,1.03-.34,1.38-.34,1.38l-.46,1.03-2.64-.8Z"/><polygon class="cls-7" points="236.23 197.65 236.69 192.03 237.61 191.22 242.2 192.14 236.23 197.65"/><polygon class="cls-7" points="241.86 181.01 245.3 170.91 247.37 174.58 244.96 177.34 244.73 179.52 245.99 180.89 247.25 182.04 248.17 184.68 247.14 185.49 241.86 181.01"/><circle class="cls-7" cx="185.59" cy="112" r="5.08"/><path class="cls-7" d="M197.55,95.55s-3.1,1.38-6.03,4.65c-2.93,3.27-4.48,7.4-4.48,8.26s-4.99,5.51-5.17,7.23,.69,6.37,1.89,7.75,.43,3.99,.43,3.99c0,0,10.03-5.95,13.65-6.03,2.9-.06,3.48-2.62,3.5-2.97,.07-1.1-4.4-.8-5.66-4.47-1.55-4.54-4.53-9.98,1.84-18.42Z"/><path class="cls-7" d="M192.04,173.38s-3.44-7.58-7.4-10.16-7.23-3.79-7.58-7.58c-.34-3.79-.27-7.58,1.56-7.69,.65-.04,1.81-.13,2.81-.17,1.12-.05,2.08-.03,2.72,.75,.98,1.19,2.14,8.77,2.72,10.22,.34,.86,5.17,14.63,5.17,14.63Z"/><circle class="cls-2" cx="235.66" cy="71.51" r="1.95"/><g class="cls-12"><circle class="cls-2" cx="235.64" cy="71.54" r="3.67"/></g><path class="cls-9" d="M243.69,189.04c-.86,1.72-2.24,2.07-4.13,4.82-.78,1.13-1.82,2.32-2.77,3.33-1.37,1.45-2.57,2.53-2.57,2.53,0,0-11.19,4.88-8.78,4.71,2.41-.17,9.53-2.35,11.77-4.76,0,0-4.02,10.04-28.81,7.81-24.79-2.24-44.66-42.89-46.49-47.18-2.35-5.51-5.01-32.31-2.75-47.86,2.27-15.66,6.71-30.99,23.07-37.71,16.36-6.71,30.3-3.96,37.53-3.44l.77-.2s-4.22-9.1-6.63-8.92c-2.41,.17-1.31,5.44-5.68,5.51-3.67,.06-1.72-6.71-3.96-7.23-2.24-.52-2.75,5.85-4.48,6.37-1.72,.52-3.79-.86-5.34-2.58-1.55-1.72-1.89-.34-2.24,.17-.34,.52-1.03,4.48-2.75,4.82-1.72,.34-4.99-2.41-6.71-3.1-1.72-.69-2.24,6.89-3.27,7.75-1.03,.86-3.1-1.21-5.17-1.21s-.86,3.44-1.55,4.3c-.69,.86-1.03,2.93-1.89,2.58-.86-.34-4.13-2.24-5.17-1.89-1.03,.34,1.21,4.99,.17,6.71-1.03,1.72-3.96-.17-4.48,1.03-.52,1.21,1.89,3.62,.52,5.85-1.38,2.24-3.1,3.27-4.13,4.3-1.03,1.03,1.89,3.1,1.38,4.48-.52,1.38-2.41,.86-2.93,1.72-.52,.86,1.21,1.38,1.89,2.24,.69,.86,1.38,1.89-1.03,2.75-2.41,.86-.69,3.44-.17,3.96,.52,.52-1.78,2.75-2.64,3.62-.86,.86,2.98,2.75,1.95,3.96-1.03,1.21-3.44,1.38-3.62,3.27-.17,1.89,2.24,1.89,2.75,3.79s-.86,4.65-2.24,6.03c-1.38,1.38-.34,3.27,.69,3.79,1.03,.52,2.24,2.07,1.89,3.96-.34,1.89-3.44,3.44-3.1,3.96,.34,.52,3.62,4.13,3.96,5.51,.34,1.38-2.41,5.17-.86,6.54,1.55,1.38,3.96,2.58,4.3,4.48,.34,1.89-2.41,6.03-1.89,6.71,.52,.69,2.75,.69,3.62,2.41,.86,1.72,1.55,1.89,1.55,4.3s-1.03,3.96-.52,4.3,4.13,.86,5.34,3.27c1.21,2.41,.34,7.58,1.03,7.92,.69,.34,5.68-.86,6.2,.17,.26,.52,1.23,1.66,1.38,3.1s-.52,3.19-.17,3.62c.69,.86,5.51-.17,6.2,1.03,0,0,1.21,2.24,1.72,4.65,.52,2.41-.86,3.62-.17,4.3,.69,.69,5.51-1.55,7.23,.17s2.75,7.06,3.44,7.23c.69,.17,2.58-2.93,7.23-2.93,3.2,0,4.85,3.18,5.57,5.17,.19,.52,.86,.63,1.2,.2,.61-.77,1.67-1.58,3.39-1.58,3.27,0,4.48,3.27,5.85,3.27s.34-1.72,2.93-3.1c2.58-1.38,3.44-2.07,5.51-.86,2.63,1.54,3.59,5.03,3.58-1.64,0-1.34,.97-2.5,2.3-2.69,2.17-.31,4.3-.19,4.96-1.86,.34-.84,.22-1.98,.34-2.95l.09,.22c.2-.53,.62-.96,1.26-1.1l-.35-.89c.24-.13,.53-.22,.9-.27,2.75-.34,4.3-.52,4.3-3.1s1.72-4.82,1.72-4.82c0,0-1.21-6.54-2.07-4.82Z"/><path class="cls-9" d="M219.03,205.55c-8.22,0-17.28-2.66-25.53-7.51-8.32-4.89-15.64-12.85-21.74-23.67-9.81-17.39-13.71-37.5-11.29-58.18,1.65-14.09,5.58-24.52,11.69-31,18.75-19.91,48.35-14.41,48.65-14.35l-.37,1.92c-.29-.06-28.85-5.34-46.85,13.77-5.81,6.17-9.57,16.23-11.17,29.89-2.37,20.26,1.45,39.97,11.05,56.99,5.93,10.52,13,18.24,21.03,22.95,22.75,13.36,39.88,6.26,47.63-3.88l1.55,1.19c-5.9,7.72-14.35,11.84-24.43,11.89-.07,0-.14,0-.21,0Z"/><path class="cls-9" d="M192.67,74.38c1.42,1.86,4.12,5.51,5.53,7.32,.1,.08,.27,.03,.31-.07l.24-.57,4.21-10.15,1.59,.73-5,9.77-.16,.31c-.17,.47-.64,.89-1.19,.78-.59-.08-.82-.75-1.12-1.17-.94-1.48-3.44-5.43-4.41-6.95h0Z"/><path class="cls-9" d="M188.83,75.52c1.87,2.43,6.59,8.57,8.39,10.91l1.4,1.82c.29,.39,.32,.41,.47,.36,.07-.02,.1-.11,.13-.17l.22-.53,6.96-16.99,1.6,.7-7.76,16.63c-.13,.24-.28,.7-.48,.88-.12,.12-.26,.2-.41,.25-.3,.1-.65,.05-.91-.15-.28-.24-.31-.38-.44-.54l-1.31-1.88c-1.67-2.4-6.14-8.82-7.86-11.3h0Z"/><path class="cls-9" d="M211.01,70.75c1.63,2.59,4.39,6.97,6,9.51,.03,.04,.08,.13,.09,.14,0-.03-.04-.05-.07-.02-.1,.28,2.62-8.6,2.6-8.53l1.65,.58c-.02,.05-3.29,8.36-3.32,8.41-.3,.65-1.3,.72-1.67,.1-.21-.37-.8-1.53-1.01-1.91-.92-1.75-3.38-6.44-4.33-8.25l.05-.03h0Z"/><path class="cls-9" d="M220.85,72.14c-.44-2.52-1.03-5.08-2.31-7.29-1.47-2.12-3.74-3.32-5.79-4.93-2.83-1.87-3.65-5.76-3-8.95,.5-2.64,3.56-3.72,5.89-3.94,8.23-1.08,13.9,5.16,20.1,9.26,4.86,3.27,7.69,8.75,9.91,13.99,1.09,2.36,2.38,4.6,3.51,6.96,.86,1.54,1.53,4.27-.53,5.13-.36-.06-.46-.14-.52-.27-.48-.88-1.32-1.5-2.24-1.91-4.98-2.02-11.01,.84-15.59,2.95-.91,.43-2.18,.93-3.34,.71-.71-.15-1.03-.44-1.36-.68-1.6-1.39-2.62-3.04-3.7-4.78,0,0,2.12,.11,2.12,.1l-6.24,8.53c-.67,.92-2.19,.87-2.8-.09-2.14-4.15-5.54-11-7.69-15.22l1.55-.81c1.42,2.64,5.04,9.37,6.41,11.92,.32,.59,1.24,2.31,1.54,2.87-.19-.32-.66-.27-.84,.04,.82-1.19,6.47-9.36,7.12-10.31,1.26,2.01,2.53,4.71,4.29,6.16,1.1,.18,2.75-.77,3.84-1.13,4.97-1.93,12.38-4.14,16.77,.04,.35,.38,.66,.81,.87,1.28,.08,.15,.09,.37-.19,.61,.35-1.52,.39-2.69-.27-4.01-1.26-2.51-2.76-4.92-4.02-7.46-2.43-5.37-5.47-10.81-10.7-13.83-4.26-2.87-8.05-6.51-12.96-7.93-2.32-.47-4.92-.61-7.16,.2-1.05,.45-1.85,.91-2.1,2.04-.41,1.85-.21,4.05,.65,5.74,1.37,2.05,3.8,3.27,5.55,5.14,2.67,2.5,3.11,6.45,3.23,9.9h0Z"/><path class="cls-9" d="M218.69,54.64c2.99-.16,5.16,2.84,5.31,5.66,.26,1.97-.09,4.04-.45,5.95-.11,.63-.27,1.2-.53,1.92-.55-.56-.73-1.31-.78-1.98-.37-4.18,1.42-9.53-3.54-11.56h0Z"/><path class="cls-9" d="M234.97,63.19s-1.61-1.09-1.03-2.7,2.3-2.24,2.3-2.24l1.09,1.32s-.69-.17-1.55,.92-.92,1.66-.8,2.7Z"/><path class="cls-9" d="M226.59,71.22c-.17,2.78,1.27,5.49,3.76,6.71l-.2-.08,.58,.07-.25,1.27c-.12-.03-.61-.17-.72-.2-2.5-1.68-3.8-4.85-3.17-7.79h0Z"/><path class="cls-9" d="M229.26,70.01c-.17,2.78,1.27,5.49,3.76,6.71l-.2-.08,.58,.07-.25,1.27c-.12-.03-.61-.17-.72-.2-2.5-1.68-3.8-4.85-3.17-7.79h0Z"/><path class="cls-9" d="M241.74,69.33c.62,2.94-.67,6.11-3.17,7.79-.11,.03-.6,.16-.72,.2l-.25-1.27,.58-.07-.2,.08c2.49-1.22,3.93-3.93,3.76-6.71h0Z"/><circle class="cls-1" cx="236.72" cy="70.45" r="6.11"/><path class="cls-9" d="M235.66,73.32c-1,0-1.82-.82-1.82-1.82s.82-1.82,1.82-1.82,1.82,.82,1.82,1.82-.82,1.82-1.82,1.82Zm0-2.98c-.64,0-1.17,.52-1.17,1.17s.52,1.17,1.17,1.17,1.17-.52,1.17-1.17-.52-1.17-1.17-1.17Z"/><path class="cls-9" d="M238.36,68.89c-.36-.95-1.49-1.36-2.36-1.69-.56-.21-1.13-.34-1.73-.28-.31,.03-.61,.1-.91,.17-.31,.07-.57,.19-.86,.29-.16,.05-.14,.23-.07,.35,.04,.07,.09,.13,.16,.16,.03,.01,.21,.02,.2,0l.06-.1c.43-.19,.96-.28,1.42-.31,.57-.04,1.09,.1,1.61,.3,.78,.3,1.78,.65,2.1,1.5,.05,.14,.23,.08,.3,0,.11-.11,.13-.27,.08-.41Z"/><path class="cls-9" d="M179.83,80.5l.9,14.95,.03,.47c.17,1.46-1.51,2.56-2.76,1.82-2.16-1.01-7.94-3.71-10.17-4.76l6.96,2.77,3.48,1.38c.5,.23,.98,.17,1.35-.19,.4-.37,.32-.93,.25-1.41l-1.77-14.87,1.74-.16h0Z"/><path class="cls-9" d="M166.68,96.3l10.36,4.49,5.18,2.25c.42,.17,.9,.44,1.21,.46,.62,.07,1.22-.47,1.2-1.1,0-.19-.16-1.49-.19-1.71l-2.57-22.44,1.74-.17,1.7,22.52c0,.08,.12,1.57,.12,1.58,.12,1.14-.94,2.2-2.08,2.02-.52-.07-.96-.38-1.4-.57l-5.09-2.45-10.18-4.89h0Z"/><path class="cls-9" d="M162.98,109.85c2.55,2.18,9,7.67,11.46,9.77,.63,.54,2.25,1.92,2.87,2.44,.32,.29,.77,.59,.98,.99,.73,1.15,.04,2.78-1.25,3.09-.37,.13-1.4,.45-1.79,.59-3.04,1-11.17,3.66-14.32,4.68,3.14-1.18,11.07-4.16,14.1-5.3l1.17-.44c.28-.12,.83-.27,1.05-.46,.68-.51,.65-1.58-.04-2.04-2.02-1.58-5.37-4.19-7.42-5.79l-7.92-6.18,1.11-1.36h0Z"/><path class="cls-9" d="M160.82,127.18l5.46-1.8c.74-.27,1.97-.6,2.67-.9,.78-.4,.92-1.56,.25-2.1l-.27-.24c-2.19-1.96-5.81-5.19-8.03-7.18l1.22-1.26c1.84,1.93,5.15,5.36,6.96,7.26l.5,.52c.66,.57,1.04,1.49,.76,2.33-.17,.56-.58,1.04-1.11,1.27-.46,.19-.98,.26-1.44,.39-.91,.22-5.96,1.47-6.97,1.72h0Z"/><path class="cls-9" d="M161.76,139.58c2.33,1.16,8.19,4.08,10.44,5.2,.57,.29,2.06,1.02,2.61,1.3,1.04,.46,1.32,1.95,.51,2.75-2.6,2.7-7.15,7.39-9.79,10.13,1.69-1.97,5.97-6.94,7.61-8.84l1.27-1.47,.32-.37c.37-.42,.22-1.13-.31-1.33-1.61-.7-4.61-1.99-6.24-2.7l-7.14-3.08,.74-1.59h0Z"/><path class="cls-9" d="M163.92,154.49l2.75-2.78,1.37-1.39c.67-.51,.61-1.42-.17-1.68-1.63-.69-4.64-1.97-6.29-2.67l.77-1.57c1.14,.64,4,2.26,5.1,2.88,.19,.11,.93,.52,1.1,.63,.65,.42,.93,1.3,.65,2.01-.12,.36-.45,.68-.73,.88l-1.52,1.23-3.04,2.45h0Z"/><path class="cls-9" d="M178.27,181.93l5.29-15.52,.16-.47c.06-.21-.14-.43-.34-.39l-2.02,.28c-2.59,.36-9.51,1.32-12.18,1.69l-.19-1.74c2.72-.23,9.62-.82,12.25-1.04l2.05-.17c.87-.09,1.59,.83,1.29,1.64l-.2,.5-6.11,15.21h0Z"/><path class="cls-9" d="M175.74,178.02c.57-1.47,2.01-5.17,2.55-6.59,.14-.37,.5-1.3,.64-1.65,.02-.09,.15-.33,.13-.42,0-.17-.16-.32-.3-.31-1.98,.51-5.76,1.59-7.77,2.13l-.39-1.71c2.02-.35,5.85-1.05,7.83-1.4,.99-.23,1.86,.91,1.37,1.78-.23,.48-.68,1.36-.92,1.84-.67,1.34-2.46,4.93-3.15,6.32h0Z"/><path class="cls-9" d="M195.37,197.65c.38-2.2,1.34-7.77,1.71-9.89,.02-.1,.32-1.83,.32-1.85,.06-.34-.32-.63-.62-.46l-.37,.19c-3.07,1.52-8.13,4.04-11.24,5.58l-.73-1.59c3.23-1.34,8.4-3.51,11.58-4.84l.39-.16c.8-.37,1.81,.26,1.79,1.14,0,.35-.4,1.76-.47,2.13-.5,2.07-1.84,7.62-2.35,9.76h0Z"/><path class="cls-9" d="M192.96,196.73c.04-1.07,.15-3.78,.2-4.82l.03-.8c.01-.32-.36-.55-.61-.37-1.07,.78-3.23,2.38-4.32,3.17l-.94-1.48c.94-.51,3.33-1.81,4.24-2.3l.35-.19c.91-.63,2.23,.16,2.03,1.25l-.14,.79c-.18,1.01-.66,3.7-.85,4.75h0Z"/><path class="cls-9" d="M201.76,200.49c1.9-1.21,5.79-3.73,7.65-4.92,1.43-1.14,3.32-.72,4.1,.95l.36,.6,1.45,2.4,2.89,4.79-3.26-4.55c-.31-.43-1.77-2.46-2.04-2.84-.48-.88-1.49-1.41-2.39-.86-.26,.16-.79,.59-1.07,.8-1.42,1.08-5.22,3.96-6.69,5.08l-1-1.43h0Z"/><path class="cls-9" d="M205.46,201.89c.79-.38,2.78-1.34,3.55-1.7l.59-.28c.69-.46,1.82-.33,2.26,.44,.41,.85,1.06,2.84,1.42,3.73l-1.31-2.28c-.36-.55-.64-1.54-1.45-1.3-.21,.06-.72,.49-.95,.63-.68,.48-2.51,1.77-3.22,2.27l-.89-1.51h0Z"/><path class="cls-9" d="M222.33,203.88c.56-1.24,1.96-4.35,2.49-5.55l.21-.46c.36-1.18,1.74-1.87,2.83-1.15,.43,.3,1.84,1.28,2.29,1.6l3.33,2.32c-1.55-.84-4.48-2.46-6-3.28-.48-.26-1.14-.03-1.34,.46-.08,.22-.23,.68-.3,.9-.4,1.23-1.47,4.51-1.88,5.78l-1.63-.63h0Z"/><path class="cls-9" d="M225.09,203.17l.95-1.73,.24-.43c.29-.6,.94-1.05,1.6-1.07,.82-.09,1.4,.52,1.94,1l1.48,1.3-1.73-.94c-.5-.24-1-.69-1.56-.5-.53,.14-.63,.69-.75,1.14l-.54,1.9-1.62-.67h0Z"/><path class="cls-9" d="M235.47,198.69c.07-1.1,.25-3.88,.31-4.95,.04-.36,.03-.97,.12-1.33,.19-.87,1.04-1.53,1.9-1.51,.51,0,1.19,.29,1.69,.41l3.18,.91-.02,.08-3.27-.5c-.42-.04-1.15-.23-1.55-.19-.53,.07-.94,.49-.99,.99-.02,.19,.05,.93,.06,1.14,.07,1.05,.24,3.86,.31,4.95h-1.75Z"/><path class="cls-9" d="M239.49,199.32c-.35,0-.7-.12-1.01-.35l-.12-.1c-.66-.5-1.02-1.48-.97-2.54l.07-1.26c.05-.86,.37-1.61,.89-2.05,.36-.31,.8-.45,1.24-.4,1.01,.11,1.75,1.14,1.81,2.51l.06,1.35c.05,1.2-.44,2.24-1.24,2.66-.24,.12-.49,.18-.73,.18Zm-.06-4.31c0,.05-.01,.11-.02,.17l-.07,1.26c-.02,.29,.03,.53,.1,.69,.04-.14,.07-.33,.06-.57l-.06-1.35c0-.07,0-.14-.02-.2Z"/><path class="cls-9" d="M245.19,185l-2.87-2.78-.36-.35c-.82-.72-.99-1.99-.45-2.93,.05-.09,3.59-7.73,3.79-8.15-.28,.83-2.75,8.14-2.96,8.75-.17,.5,0,1.07,.44,1.37l.39,.31,3.16,2.45-1.15,1.32h0Z"/><path class="cls-9" d="M245.64,181.78l-.66-.73c-.74-.62-1.19-1.93-.69-2.88,.07-.15,2.12-3.57,2.27-3.82l-1.21,3.73c-.12,.34-.18,.55-.15,.78,.07,.56,.29,.71,.79,1.05l.8,.56-1.16,1.31h0Z"/><path class="cls-9" d="M224.42,193.75c-3.99,0-7.01-3.35-8.48-6.78-1.32-3.09-1.87-6.5-2.16-9.84-.05-.42,.25-.71,.6-.86,4.75-2.11,4.59-8.18,3.52-12.52-.35-1.64-.79-3.27-1.31-4.88-.72-2.57-2.11-4.89-2.14-7.72,.34-2.77,3.08-5.44,5.77-6.08,2.09-.48,4.27,.87,5.21,2.73l-.67-.49c1.58,.04,2.02-1.82,2.04-3.15,.16-4.22-3.43-7.45-7-9.22-2.14-1.05-4.43-2.16-6.78-2.5-2.33-.29-4.79,.24-7,1.02-1.89,.59-3.51,1.85-5.68,1.89l-.34-.04-.2-.03c-.86-.14-1.49,.2-2.07,.93-2.5,3.65-4.94,7.92-9.22,9.85-1.22,.45-2.39,.84-3.58,1.26-.45,.22-1.02,.04-1.19-.46-.09-.25-.05-.51,.09-.72,.46-.72,.87-1.57,1.16-2.4,.26-.84,.52-1.8-.01-2.59,1.15,1.02,.89,2.83,.75,4.21-.07,.49-.16,.96-.3,1.48l-1.09-1.18c1.18-.42,2.41-.83,3.55-1.25,3.2-1.49,5.4-4.77,7.37-7.66,.83-1.48,2.18-3.37,4.2-3.26,.33,0,.66,.07,.98,.11,.37,.03,.92-.13,1.46-.34,2.27-.96,4.79-2.1,7.31-2.44,2.58-.51,5.46-.08,7.85,.96,3.63,1.49,7.3,3.3,9.64,6.59,1.62,2.24,2.3,5.24,1.5,7.94-.41,1.55-1.97,2.95-3.71,2.73-.31-.03-.55-.23-.67-.49-.6-1.11-1.94-2.07-3.27-1.76-1.85,.42-4.1,2.53-4.38,4.49,.09,2.35,1.4,4.72,2.06,7.06,.94,2.91,1.69,5.92,1.97,8.98,.47,4.1-1.14,9-5.29,10.62l.6-.86,.07,2.58c.28,5.58,2.26,13.23,8.81,13.97,.03,0,.06,.03,.06,.06,0,.03-.03,.05-.06,.06h0Z"/><path class="cls-9" d="M221.05,130.25c-7.46-4.43-14.8-4.07-22.6-.8-3.66,1.53-7.35,3.3-10.26,6.05-3.04,2.63-5.98,5.55-9.58,7.41,3.93-2.29,7-5.78,10.27-8.89,4.31-3.63,9.43-6.29,14.83-7.9,5.89-1.78,13.21-.75,17.33,4.13h0Z"/><path class="cls-9" d="M178.61,147.95l3.2-.23c1.08-.17,2.25,.34,2.75,1.34,.26,.49,.3,1.05,.43,1.56l.36,1.56c1.27,5.18,2.82,10.31,4.74,15.29,1.56,3.94,3.3,7.89,5.96,11.22,8.06,10.32,18.82,18.67,32.36,13.32,4.2-1.62,8.46-4.68,9.69-9.18,.65-3.26,.45-7.55-2.22-9.78-3.19-2.99-7.75,.59-8.67,4.01-.37,1.34-.12,4.03,1.74,3.56,.55-.11,1.03-1.08,1.52-2.03,.54-1.08,1.42-2.36,2.83-2.52,2.57-.41,4.01,2.38,4.06,4.56,.1,1.57-.73,3.09-1.66,4.21-2.41,3.05-9.42,5.33-12.77,2.9-4.43-3.49-3.08-11.52-1.34-16.1,1.07-2.81,3.19-5.7,6.26-6.71,.4-.18,.57-.66,.47-1.07-.36-2.88,.7-5.69,1.62-8.25,.77-2.05,1.82-4.05,3.02-5.86,.59-.91,1.17-1.75,1.46-2.6,.34-.94,.28-1.7,.11-2.73-.17-1.11-.19-2.3-.07-3.42,.11-1.73,.67-3.23,.85-4.94,.13-1.7-.38-3.33-1.55-4.62l-.03-.03s-.03-.11,0-.15c.91-.91,1.3-2.43,.56-3.54-1.18-1.49-5.85,.29-7.74,.3-1.43,.12-2.9-.12-4.31-.37-5.5-1.02-10.48-3.79-15.9-4.84-3.91-.75-8.01-.94-11.83,.19-6.24,2.73-11.26,7.5-16.94,11.44,1.71-2.23,3.64-4.27,5.69-6.18,3.14-2.86,6.51-5.62,10.57-7.18,4.16-1.26,8.72-1.06,12.91-.14,6.77,1.37,12.76,5.69,19.74,5.91,2.16,.1,6.93-1.56,8.32,.55,.78,1.37,.22,3.07-.92,4.02l-.02-.19c1.39,.29,2.52,1.45,2.97,2.79,.86,2.54-.31,4.68-.5,7.17-.25,1.65,.16,3.04,.19,4.73-.01,1.8-1.13,3.52-2.02,4.84-1.17,1.75-2.12,3.56-2.87,5.51-.74,1.94-1.42,3.96-1.58,5.92-.05,.58-.02,1.11,.07,1.64,.07,.69-.12,1.41-.56,1.96-.35,.45-.85,.75-1.38,.92-2.44,.92-3.98,3.14-4.96,5.58-1.71,4.11-3.4,14.72,3.23,14.82,1.98-.09,4.05-.53,5.77-1.49,2.48-1.33,4.52-4.12,3.07-6.89-.36-.73-.95-1.19-1.76-1.09-1.39,.32-1.67,2.08-2.48,3.16-.73,1.25-2.43,1.91-3.79,1.12-1.78-1.09-1.95-3.46-1.5-5.22,1.23-4.45,7.05-8.44,11.04-4.68,3.09,2.7,3.35,7.36,2.56,11.12-1.37,4.95-5.95,8.24-10.53,9.95-14.08,5.38-25.14-3.13-33.29-13.97-2.65-3.42-4.35-7.45-5.86-11.46-1.49-4.02-2.72-8.13-3.76-12.29-.4-1.5-.74-3.17-1.06-4.7-.15-1.05-.44-2.14-1.48-2.62-.47-.25-1.01-.29-1.54-.24l-3.2,.16h0Z"/><path class="cls-9" d="M219.5,153.97c-2.26,0-4.21-1.02-4.32-1.08-.48-.25-.66-.85-.4-1.32,.25-.48,.84-.66,1.32-.4,.04,.02,2.88,1.49,5.1,.53,1.16-.5,1.99-1.64,2.46-3.37,.14-.52,.68-.83,1.2-.69,.52,.14,.83,.68,.69,1.2-.64,2.34-1.84,3.9-3.57,4.65-.81,.35-1.65,.48-2.46,.48Z"/><path class="cls-9" d="M201.37,118.43l-.53,2.8-2.26-.14s1.98,.32,2.79-2.66Z"/><path class="cls-9" d="M185.6,145.02c1.82-2.22,3.56-4.95,3.34-7.97,.91,3.1-.29,6.36-1.71,9.13-.77,1.27-2.59-.02-1.64-1.16h0Z"/><path class="cls-9" d="M188.96,142.43c1.82-2.22,3.56-4.95,3.34-7.97,.91,3.1-.29,6.36-1.71,9.13-.77,1.27-2.59-.02-1.64-1.16h0Z"/><path class="cls-9" d="M191.8,139.85c1.82-2.22,3.56-4.95,3.34-7.97,.91,3.1-.29,6.36-1.71,9.13-.77,1.27-2.59-.02-1.64-1.16h0Z"/><path class="cls-9" d="M194.72,137.18c1.82-2.22,3.56-4.95,3.34-7.97,.91,3.1-.29,6.36-1.71,9.13-.77,1.27-2.59-.02-1.64-1.16h0Z"/><path class="cls-9" d="M202.09,129.3c-.78,2.08-1.77,4.61-4.1,5.37l.35-.25c-2.76,4.95-6.67,9.26-11.7,12.02-.49,.26-1.1,.08-1.36-.41-.28-.51-.06-1.15,.46-1.39,2.39-1.11,4.59-2.67,6.56-4.5,1.97-1.85,3.77-3.97,5.19-6.26,.07-.11,.19-.18,.31-.19,2.08-.42,3.3-2.65,4.28-4.39h0Z"/><path class="cls-9" d="M203.98,128.84c.66,1.33,.83,4.33-.78,5.08-.34,.13-.86,.28-.99-.19-.06-.24,.08-.49,.32-.55,.87,.06,1.29-.88,1.45-1.66,.15-.85,.29-1.84,0-2.67h0Z"/><path class="cls-9" d="M206.33,127.92c.66,1.33,.83,4.33-.78,5.08-.34,.13-.86,.28-.99-.19-.06-.24,.08-.49,.32-.55,.87,.06,1.29-.88,1.45-1.66,.15-.85,.29-1.84,0-2.67h0Z"/><path class="cls-9" d="M208.86,127.69c.66,1.33,.83,4.33-.78,5.08-.34,.13-.86,.28-.99-.19-.06-.24,.08-.49,.32-.55,.87,.06,1.29-.88,1.45-1.66,.15-.85,.29-1.84,0-2.67h0Z"/><path class="cls-9" d="M211.27,127.06c.66,1.33,.83,4.33-.78,5.08-.34,.13-.86,.28-.99-.19-.06-.24,.08-.49,.32-.55,.87,.06,1.29-.88,1.45-1.66,.15-.85,.29-1.84,0-2.67h0Z"/><path class="cls-9" d="M210.98,127.35c.44,.23,.59,.79,.73,1.24,.47,1.57-.15,3.57-2.04,3.68-.25,.03-.47-.15-.49-.4-.03-.27,.19-.5,.46-.49,1.48,.16,2.01-1.52,1.85-2.75-.07-.44-.12-.99-.51-1.28h0Z"/><path class="cls-9" d="M213.68,127.52c.44,.23,.59,.79,.73,1.24,.47,1.57-.15,3.57-2.04,3.68-.25,.03-.47-.15-.49-.4-.03-.27,.19-.5,.46-.49,1.48,.16,2.01-1.52,1.85-2.75-.07-.44-.12-.99-.51-1.28h0Z"/><path class="cls-9" d="M215.34,132.34c.86-.07,1.63-.62,1.71-1.5,.08-.61-.05-1.54-.54-1.93l.08-.73c0-.08,.08-.14,.16-.13,1.01,.49,.99,1.96,.73,2.89-.25,.95-1.22,1.49-2.14,1.39h0Z"/><path class="cls-9" d="M219.02,129.47c1.1,.69,1.17,2.94,.11,3.75-.41,.33-1.78,.95-1.93,.15-.04-.28,.21-.53,.49-.5,.37,.01,.74-.02,1.05-.19,.95-.53,1.12-2.5,.28-3.21h0Z"/><path class="cls-9" d="M221.2,130.39c1.1,.69,1.17,2.94,.11,3.75-.41,.33-1.78,.95-1.93,.15-.04-.28,.21-.53,.49-.5,.37,.01,.74-.02,1.05-.19,.95-.53,1.12-2.5,.28-3.21h0Z"/><path class="cls-9" d="M223.66,131.82c1.1,.69,1.17,2.94,.11,3.75-.41,.33-1.78,.95-1.93,.15-.04-.28,.21-.53,.49-.5,.37,.01,.74-.02,1.05-.19,.95-.53,1.12-2.5,.28-3.21h0Z"/><path class="cls-9" d="M226.3,133.72c1.1,.69,1.17,2.94,.11,3.75-.41,.33-1.78,.95-1.93,.15-.04-.28,.21-.53,.49-.5,.37,.01,.74-.02,1.05-.19,.95-.53,1.12-2.5,.28-3.21h0Z"/><path class="cls-9" d="M231.87,126.46c-.65-2.81-1.36-6.8-2.11-9.51-.8-4.18-4.57-5.8-8.52-5.61-5.59-.17-11.59-.38-17.16-.71-.3,0-.56-.25-.54-.55,.02-.24,.2-.43,.42-.48,3-1.31,4.23-5.27,5.05-8.2l.33-1.45-.2,1.47c-.57,3.17-1.43,6.71-4.12,8.77-.24,.16-.44,.3-.8,.42l-.11-1.03c6.47-.02,13.22-.04,19.7,.24,3.59,.37,6.89,3.1,7.41,6.75,.72,3.27,1.02,6.54,1.11,9.83,0,.27-.4,.34-.47,.05h0Z"/><path class="cls-9" d="M216.19,110.12c-.4-2.97,2.21-5.01,4.77-5.87,2.96-1.04,5.56,1.66,6.92,3.93,0,0,.01,.02,.02,.03-.09-.15-.27-.28-.43-.31,.2,0,.52-.03,.82-.08,3.99-.75,7.92-1.95,11.83-3.06,1.71-.14,3.6,.61,4.67,2,.8,.97,1.2,2.27,1.16,3.51v1.06c0,.36-.22,.66-.52,.8l-13.99,6.17-.15,.06c-.37,.16-.8-.01-.96-.38-.11-.36-.3-.79-.56-1.17-.48-.73-1.14-1.35-1.94-1.76-.4-.22-.85-.36-1.31-.48,1.77-.16,3.57,.59,4.8,1.88,.19,.2,.36,.38,.55,.66l-1.14-.41,13.99-6.17-.52,.8v-1.06c.08-1.45-.77-2.88-2.11-3.45-.53-.25-1.04-.29-1.8-.36l.33-.03c-3.41,.99-6.81,1.97-10.27,2.76-1.05,.2-2.04,.52-3.16,.43-.3-.04-.61-.22-.77-.49-1.12-1.69-2.7-3.91-4.95-3.22-1.48,.57-3.38,1.58-3.54,3.35-.02,.23-.01,.43,0,.75l-1.75,.1h0Z"/><path class="cls-9" d="M187.87,108.16c-1.37-1.12-2.98-.15-4.24,.65-.67,.43-1.25,.96-1.59,1.69-.35,.74-.52,1.63-.47,2.45,.05,.85,.31,1.92,1.17,2.1,3.28,.7,4.45-1.17,5.2-2.64,.39-.76,.84-1.61,.82-2.48-.02-.68-.36-1.34-.89-1.77Z"/><path class="cls-9" d="M187.12,120.15c-.08-.54-.28-1.02-.76-1.31-.54-.32-1.13-.57-1.78-.47-.58,.09-1.17,.35-1.68,.64-1.01,.57-1.41,2.03-1.08,3.11,.16,.52,.51,.99,1.01,1.23,.26,.13,1.81,.39,1.94,.37,.99-.18,1.84-.92,2.2-1.85,.21-.55,.24-1.13,.15-1.71Z"/><circle class="cls-9" cx="189.2" cy="114.72" r="1.37"/><circle class="cls-9" cx="189.92" cy="118.45" r="1.7"/><path class="cls-9" d="M188.83,125s.31-3.19,1.14-3.62,1.64-.72,2.27-.23c.87,.68,.46,2.01-.17,2.18s-3.24,1.67-3.24,1.67Z"/><path class="cls-9" d="M245.93,169.59s-1.21-5.6-2.07-6.03-2.58,2.41-2.58,2.41c0,0-.26-3.96-1.46-4.82s-2.84,3.1-2.84,3.1l-1.98,.09s.09-3.62-1.98-3.7-.6,4.39-.6,4.39c0,0,11.11-2.93,13.52,4.56Z"/><path class="cls-9" d="M233.62,162.7s2.58-.86,4.05-.26,6.2,3.44,7.75,5.68c1.55,2.24-6.46-3.87-8.44-3.87s-3.27,.26-3.27,.26l-.09-1.81Z"/><path class="cls-9" d="M232.61,191.01c-.28,0-.56-.12-.75-.36l-2.12-2.56c-.34-.42-.29-1.03,.13-1.38,.42-.34,1.03-.29,1.38,.13l2.12,2.56c.34,.42,.29,1.03-.13,1.38-.18,.15-.4,.22-.62,.22Z"/><path class="cls-9" d="M236.12,159.6c-.41,0-.78-.25-.92-.64,0-.02-.39-.89-1.86-1.5-1.23-.51-2.52,1.06-2.53,1.08-.28,.35-.76,.47-1.17,.28-.41-.19-.64-.63-.55-1.07,.82-4.24,5.6-6.83,13.09-7.1,6-.22,10.67-2.62,10.72-2.64,.2-.1,.42-.14,.64-.09,.34,.07,.63,.31,.78,.64,.25,.58,.15,1.41-1.17,3.58-1.82,2.99-7.79,6.53-10.62,6.78-2.83,.25-3.57-.43-5.35-2.05l-.19-.17c.18,.73,.19,1.49,.12,2.06-.06,.45-.41,.8-.86,.85-.04,0-.07,0-.11,0Zm-.55-5.87c1.04,.01,1.99,.87,2.35,1.18l.56,.5c1.64,1.49,1.89,1.72,3.87,1.55,2.27-.2,7.65-3.42,9.12-5.85,.11-.18,.21-.34,.29-.49-2.05,.79-5.48,1.83-9.52,1.98-2.64,.1-4.89,.49-6.67,1.13Zm-2.75,1.67c.31,0,.63,.04,.96,.14-.01-.11-.01-.22,.01-.33,.06-.29,.21-.63,.46-.91-.63,.33-1.18,.69-1.64,1.1,.07,0,.14,0,.21,0Z"/><path class="cls-9" d="M200.65,158.05l13.94,18.58-.37,.06c1.43-5.59,.95-12.19-2.47-16.97-2.76-3.49-7.14-5.2-11.22-6.74-1.46-.62-3.05-.98-4.21-2.17l.94-.2c-1.04,5.3-2.03,13.04,1.92,17.26,3.83,4.58,9.04,8.44,15.22,8.13,1.15-.01,1.21,1.69,.05,1.75-6.7,.22-12.36-3.99-16.34-8.97-2.24-2.39-2.92-5.9-2.97-9.06-.05-3.18,.36-6.3,1.08-9.38,.07-.29,.35-.46,.64-.39,.13,.03,.23,.1,.3,.2,.14,.19,.43,.39,.72,.56,6.46,3.06,14.19,4.85,16.5,12.66,1.42,4.33,1.49,9.07,.23,13.45-.03,.11-.15,.17-.26,.14-.14,.03-13.62-18.86-13.72-18.92h0Z"/><path class="cls-9" d="M235.78,145.52c2.09-3.44,4.94-6.21,7.65-9.11,2.73-2.81,5.51-5.54,8.35-8.22-2.63,2.88-5.2,5.82-7.7,8.81-2.38,2.96-4.99,5.92-6.73,9.29-.5,1.12-2.16,.32-1.57-.77h0Z"/><path class="cls-9" d="M243.87,130.5c.41,2.82-.66,5.72-1.37,8.43l-.73-.52c2.61-1.9,5.18-3.9,8.04-5.41-2.69,1.77-5.05,4-7.45,6.13-.36,.33-.93-.08-.73-.53,.99-2.58,2.34-5.28,2.24-8.1h0Z"/><path class="cls-9" d="M178.81,112.52c-.18-.26-.49-.34-.79-.32-.29,.02-.59,.11-.87,.2-.29,.1-.59,.22-.84,.39-.26,.18-.46,.41-.59,.69-.16,.36-.15,.75-.08,1.13,.06,.33,.15,.71,.4,.96,.11,.11,.26,.17,.42,.17,.13,0,.62-.05,.85-.3,.29-.31,.56-.66,.84-.98,.25-.29,.51-.58,.67-.93,.14-.31,.21-.71,0-1.01Z"/><path class="cls-9" d="M176.42,107.71c-.26-.2-.54-.36-.87-.41-.28-.04-.58,.04-.8,.22-.54,.44-.44,1.23-.18,1.8,.13,.28,.32,.54,.58,.71,.14,.09,.29,.16,.46,.18,.13,.02,.84,.01,1.07-.11,.29-.15,.48-.45,.54-.77,.13-.68-.3-1.24-.8-1.63Z"/><path class="cls-9" d="M181.32,108.09c-.1-.57-.6-1.05-1.19-1.06-.09,0-.16,.06-.21,.14-.05,.01-.1,.03-.15,.05-.13,.06-.24,.13-.35,.22-.22,.18-.39,.42-.49,.68-.18,.52-.08,1.1,.27,1.52,.18,.21,.45,.39,.73,.39,.3,0,.57-.18,.79-.37,.43-.38,.69-1,.58-1.58Z"/><path class="cls-9" d="M183.88,152.8c-.07-.71-.16-1.41-.79-1.85-.59-.41-1.36-.84-2.1-.83-.66,0-1.28,.36-1.71,.84-.51,.55-.78,1.28-.89,2.01-.12,.78-.15,1.63,.02,2.4,.16,.76,.62,1.42,1.27,1.84,.23,.15,2.44,.26,2.94-.18,.56-.49,.99-1.08,1.19-1.8,.22-.79,.16-1.63,.08-2.44Z"/><path class="cls-9" d="M181.08,160.81c.13-.47,0-1-.25-1.42-.21-.35-.56-.66-.99-.63-.48,.02-.86,.4-.88,.88-.03,.47,.32,.88,.7,1.12,.21,.14,.45,.25,.7,.3,.13,.03,.26,.05,.39,.05,.15,0,.35,0,.35-.19,0-.03,0-.06-.02-.09v-.02Z"/><path class="cls-9" d="M185.83,159.06c.02-.32-.02-.65-.1-.96-.08-.31-.19-.63-.5-.79-.14-.07-.3-.11-.44-.2-.16-.1-.29-.2-.49-.18-.3,.04-.57,.3-.72,.55-.33,.55-.3,1.24-.09,1.83,.13,.35,.32,.68,.56,.96,.11,.13,.24,.26,.37,.37,.07,.06,.14,.11,.21,.16,.14,.1,.21,.12,.39,.14,.17,.01,.19-.14,.16-.27,.41-.44,.62-1.02,.65-1.62Z"/><path class="cls-9" d="M188.36,169.04c-.27-.6-.73-1.34-1.49-1.26-.79,.08-1.06,1.01-1.04,1.69,.03,.69,.35,1.38,.92,1.78,.31,.22,.66,.35,1.04,.4,.1,.01,.19,.02,.29,.02,.13,0,.36,0,.46-.04,.16-.07,.14-.24,.06-.36,.25-.75,.07-1.52-.24-2.22Z"/><path class="cls-9" d="M189.49,175.66c-.04-.33-.07-.7-.21-1-.13-.28-.42-.43-.68-.58-.27-.16-.58-.3-.9-.31-.64,0-1.14,.53-1.08,1.17,.06,.64,.63,1.13,1.09,1.51,.26,.21,.55,.41,.87,.5,.15,.04,.35,.08,.52,.06,.04,.07,.11,.12,.19,.09,.14-.05,.21-.21,.22-.35,.02-.36,.01-.73-.03-1.09Z"/><path class="cls-9" d="M192.91,174.44c-.42-1.26-.94-2.49-1.53-3.64-.08-.16-.25-.09-.32,.03-.01,.02-.02,.05-.04,.08-.01-.02-.02-.04-.03-.05-.13-.12-.26,.03-.32,.17-.42,.98-.4,2.24,.07,3.24,.24,.52,.59,.88,1.07,.93,.22,.02,.44-.01,.66-.06,.15-.03,.32-.05,.36-.19,.09-.12,.14-.34,.08-.49Z"/><path class="cls-9" d="M200.11,164.37l8.81,3.99-.63,.54-3.05-10.5,3.9,10.22c.16,.37-.29,.75-.63,.54l-8.41-4.79h0Z"/><path class="cls-9" d="M223.35,79.59c.77,1.63,2.11,4.4,4.07,4.5,.39,0,.85-.15,1.23-.26,1.87-.61,3.38-2.09,5.26-2.93,2.98-1.46,6.57-1.32,9.57-.2,2.02,.7,6.16,3.12,5.23,5.69-.24,.59-.8,1.06-1.38,1.21-3.07,.93-6.41,.23-9.23-1.06-1.82-.85-3.73-1.56-5.4-2.67-.11-.09-.23-.25-.1-.4,.25-.24,.51,.22,.17,.3,.03,0,.06-.02,.09-.04,.06-.06,.05-.12,.03-.17,0,0,.02,.02,.04,.04,1.68,1.02,3.57,1.68,5.37,2.46,1.87,.78,3.86,1.3,5.86,1.26,1-.01,1.99-.16,2.92-.47,.81-.22,1.18-1.21,.79-1.89-.5-.8-1.26-1.45-2.08-1.96-3.31-1.94-7.73-2.43-11.11-.55-2.13,1.21-4.03,3.18-6.61,3.65-3.46,.6-5.62-2.98-6.86-5.63-.59-1.44,1.53-2.32,2.13-.87h0Z"/><path class="cls-9" d="M247.59,83.94c.32,.24,.77,.13,.94-.22,.34-.69,.86-1.73,1.15-2.37,.75-1.61,.04-3.01-.34-3.75-.09-.18-.35-.16-.42,.02-.35,.89-1.39,2.57-3.98,1.29-.59-.29,2.53,2.04,2.32,2.84s-2.58,.03-2.58,.03l2.89,2.16Z"/><path class="cls-9" d="M245.44,82.59c-2.78-1.8-6.33-2.29-9.44-1.12-1.98,.67-4.13,1.73-5.17,3.6-.17,.34-.42,.93-.25,1.25,.14,.3,.65,.54,1.13,.69,1,.3,2.11,.41,3.21,.51,3.37,.41,6.57,.07,10.01,.11,1.38,.11,3,.06,4.01,1.28,.65,1.02,.41,2.36,.11,3.42-.34,1.15-.87,2.2-1.47,3.2-1.43,2.28-4.09,5.36-7.01,5.52-.96,.03-1.83-.91-1.88-1.83l1.66,.28c-.91,1.77-1.97,3.42-3.46,4.76-.67,.53-2.36,1.96-2.97,.61-.06-.17-.07-.35-.02-.52,.28-1.26,.46-3.2-.38-4.19l1.34-.04c-1.56,1.77-3.24,3.6-5.66,4.11-.47,.07-.92-.25-.99-.72-.03-.48,.22-.92,.28-1.41,.15-.84,.32-1.93-.08-2.66l1.37,.11c-1.33,1.37-2.71,2.61-4.4,3.53-.75,.37-2.71,1.32-2.97-.15-.05-.52,.34-.73,.63-1.11,.82-1.05,1.16-2.42,.99-3.73l1.56,.42c-.39,.5-.78,.93-1.2,1.37-.76,.95-5.15,4.62-5.76,2.29,.09-1.09,.47-2.81-.17-3.72l1.45-.09c-2.66,3.88-5.18,7.92-8.45,11.33-.24,.21-.47,.43-.8,.58-.07,.03-.15,0-.18-.07-.03-.07,0-.15,.07-.18,1.83-1.58,2.93-3.98,4.24-6.01,1.25-2.15,2.46-4.34,3.62-6.53,.22-.41,.73-.57,1.15-.35,.87,.66,.97,1.84,1.03,2.8,.01,.8-.06,1.52-.22,2.32l-.96-1.06c1.45-.26,2.69-1.48,3.73-2.51,.69-.55,1.27-2.12,2.31-1.39,.19,.15,.3,.37,.32,.59,.26,2.06-.38,4.17-1.89,5.65l-.64-1.53c2.07-.39,3.82-2.2,5.29-3.64,1.12-.96,1.79,.71,1.85,1.56,.14,1.3-.09,2.49-.45,3.73l-.96-1.13c1.35-.27,2.54-1.38,3.53-2.34,.67-.54,1.26-1.99,2.26-1.26,1.47,1.6,1.27,3.92,.87,5.89l-1.14-1.04c1.38-.51,2.61-2.15,3.45-3.48,.32-.51,.63-1.05,.88-1.57,.37-.77,1.57-.52,1.64,.31,.02,.16,.06,.26,.08,.28,.32,.18,.84-.05,1.33-.27,2.74-1.44,4.87-4.2,5.89-7.09,.23-.73,.42-1.49,.18-2.2-.04-.1-.1-.16-.19-.24-.72-.51-1.92-.6-2.85-.67-2.18-.13-4.4,.03-6.68-.07-1.85-.3-8.43-.17-8.43-2.67,.46-2.91,3.6-4.31,6.09-5.11,3.24-1.12,6.95-.55,9.77,1.38,.16,.12,0,.36-.17,.24h0Z"/><path class="cls-9" d="M212.44,95.73c4.99,.38,9.5-2.75,12.66-6.34,.42-.46,1.19,.02,.97,.59-.65,1.56-1.48,2.97-2.71,4.14-.7,.7-1.7,1.19-2.71,1.41,.01-.01,0,.03,.12-.12,.02-.04,.06-.12,.07-.18,.04-.14-.07-.39-.15-.44-.08-.06,0,0,.05,0,3.2,.52,6.92-.23,9.51-2.21,.25-.2,.61-.16,.81,.09,.13,.16,.16,.37,.09,.56-.22,.6-.48,1.11-.82,1.62-.55,.91-1.8,1.86-2.81,2.01,.2-.12,.3-.41,.22-.64-.12-.26-.21-.3-.38-.36,1.34-.06,2.98-.52,4.25-1.15,.91-.46,1.74-1.1,2.16-1.91,.14-.3,.5-.42,.79-.27,.26,.13,.37,.42,.29,.69-.21,.69-.48,1.28-.82,1.88-.6,1.04-1.49,2.03-2.64,2.52-.03,.01-.31,.15-.27,.13,.02-.02,.03-.01,.09-.11,.16-.24,.02-.66-.26-.75,.25,0,.97-.1,1.37-.21,2.17-.56,4.76-1.66,5.64-3.81,.11-.31,.45-.47,.75-.36,.25,.1,.4,.35,.37,.61-.07,.67-.22,1.26-.44,1.87-.46,1.4-1.46,2.62-2.74,3.36,.23-.25,.03-.75-.31-.79,1.24-.22,2.45-.92,3.47-1.69,.86-.68,1.6-1.52,1.98-2.49,.12-.3,.46-.46,.76-.34,.26,.1,.4,.37,.36,.63-.1,.62-.22,1.21-.38,1.81-.15,.64-.6,1.79-.99,2.04,.18-.2,.14-.62-.1-.78-.07-.08-.31-.14-.37-.12,1.99-.66,3.92-1.81,5.56-3.11,.88-.73,1.67-1.56,2.15-2.51,.35-.67,1.38-.17,1.04,.53-1.22,2.28-3.35,3.69-5.5,4.92-.98,.51-1.93,1.02-3.01,1.32-.14,.02-.22,.05-.44-.02-.32-.11-.5-.53-.33-.83,.07-.13,.14-.2,.21-.25,.18-.17,.27-.4,.39-.7,.29-.78,.47-1.64,.61-2.47l1.12,.3c-1.02,2.41-3.25,3.91-5.63,4.74-.5,.13-1.21,.4-1.58-.16-.15-.29-.1-.5,.03-.71,.17-.27,.53-.45,.75-.6,1.35-.84,2.01-2.52,2.21-4.05l1.13,.25c-1.11,2.67-3.89,3.85-6.46,4.54-.63,.13-1.22,.29-1.89,.21-.18-.03-.34-.11-.47-.27-.22-.27-.11-.72,.13-.89,.23-.18,.37-.21,.57-.31,1.44-.65,2.31-2.17,2.79-3.64l1.08,.42c-1.41,2.44-4.24,3.24-6.8,3.65-.49,.03-1.13,.21-1.39-.39-.1-.27,.06-.6,.28-.72,.26-.14,.33-.13,.55-.19,1.28-.34,2.12-1.58,2.58-2.79l.92,.63c-2.64,2.05-6,2.72-9.28,2.6-.59-.07-1.19-.03-1.77-.44-.42-.36-.26-.97,.2-1.18,.24-.13,.49-.16,.7-.22,2.08-.59,3.32-2.8,4.16-4.7l.97,.61-1.4,1.28c-3.32,2.78-7.68,4.96-12.11,4.26h0Z"/><path class="cls-9" d="M215.74,63.27c1.78,1.94,2.99,4.33,4.34,6.57,1.3,2.29,2.55,4.59,3.78,6.93l-1.64,.6-1.38-6.36c-.42-1.86-.96-4.52-1.46-6.34,1.39,3.42,3.22,8.7,4.51,12.21l-1.64,.6c-.94-2.43-1.93-4.86-2.96-7.26-1.08-2.37-2.01-4.85-3.56-6.96h0Z"/><path class="cls-9" d="M230.99,122.49c-1.43-2.25-3.74-5-6.59-3.94-1.94,1.53-1.04,6.13-.85,8.42-1.33-2.87-3.12-9.4,1.51-10.14,3.25-.36,5.74,2.58,6.38,5.49,.06,.26-.32,.4-.44,.16h0Z"/><path class="cls-9" d="M216.66,118.28c-1.73-1.66-5.21-2.02-7.42-2.62-1.31-.33-2.61-.73-3.9-1.18-1.92-.74-4.3-1.56-5.38-3.58-1.5-3.29-1.38-7.13,.07-10.38,.57-1.25,1.34-2.47,2.42-3.32-.69,1.17-1.09,2.42-1.42,3.67-.72,3.01-.72,6.37,.44,9.24,.9,1.57,2.74,2.22,4.41,2.99,1.21,.53,2.44,1.01,3.69,1.45,2.43,.95,5.45,1.5,7.08,3.74h0Z"/><path class="cls-9" d="M214.99,124.14c.56-1.94,.55-3.77-1.73-4.28-3.53-.46-7.12-.69-10.59-1.53-1.92-.47-3.96-.98-5.53-2.23,1.74,.96,3.74,1.17,5.66,1.43,2.93,.3,5.88,.4,8.83,.44,.93,0,2.13,0,3.25,.49,2.52,1,2.75,4.18,1.72,6.35-.48,1.02-2,.38-1.61-.68h0Z"/><path class="cls-9" d="M196,114.55c-6.46-6.11-3.78-15.02,2.56-20.05,.22-.23,.59-.29,.8-.01,.11,.14,.13,.32,.07,.47-.14,.37-.17,.86-.14,1.27,.05,.47,.26,.88,.61,1.22-.51-.15-.93-.56-1.16-1.04-.25-.52-.34-1.04-.32-1.64l.87,.46c-4.54,6.53-6.96,11.6-3.29,19.32h0Z"/><path class="cls-9" d="M198.24,102.5c-1.64-.58-3.12-2.17-3.04-4.04-.01-.49,.38-.9,.87-.91,.49-.01,.9,.38,.91,.87,0,.11-.02,.22-.05,.32-.57,1.37,.26,2.81,1.32,3.76h0Z"/><path class="cls-9" d="M198.1,106.84c-1.69,.42-3.8-.09-4.77-1.7-.28-.4-.18-.96,.22-1.24,.4-.28,.96-.18,1.24,.22,.06,.09,.11,.19,.13,.3,.28,1.46,1.76,2.2,3.17,2.41h0Z"/><path class="cls-9" d="M198.12,110.37c-1.1,.57-2.54,.84-3.78,.36-.76-.29-2.11-1.09-1.36-2.03,.32-.37,.88-.42,1.25-.1,.09,.07,.16,.16,.21,.25,.64,1.34,2.27,1.67,3.69,1.52h0Z"/><path class="cls-9" d="M199.22,114.49c-1.88-.26-4.35-.59-5.18-2.59-.08-.23,.04-.48,.27-.56,.23-.07,.47,.05,.55,.28,.46,1.78,2.77,2.39,4.36,2.87h0Z"/><path class="cls-9" d="M204.55,116.56l-2.74,1.28c-.1,.05-.22,0-.27-.1-.05-.11,0-.24,.12-.28l2.89-.9h0Z"/><path class="cls-9" d="M210.58,117.3l-2.74,1.28c-.1,.05-.22,0-.27-.1-.05-.11,0-.24,.12-.28l2.89-.9h0Z"/><path class="cls-9" d="M234.46,139.15c-.43-1.74-1.2-3.75-3.1-4.24-.59-.17-1.33-.21-2.24-.16,.61-1.3,2.41-1.96,3.8-1.46,1.93,.56,3.21,2.47,3.52,4.38,.15,.87,.31,2.4-1,2.37-.51-.03-.88-.42-.97-.89h0Z"/><path class="cls-9" d="M236.25,146.69c3.78,.95,8.03-.13,10.89-2.81,1.7-1.64,3.01-3.69,4.17-5.75,1.65-2.81,1.68-6.04,2.25-9.2,.54-3.24,1.1-6.43,1.76-9.69l1.67,1.02c-.57,.43-1.05,.7-1.66,.99-2.61,1.41-5.68,1.12-8.41,1.88-3,1.13-5.82,3.36-7.34,6.25-.98,1.7-1.54,3.66-2.56,5.35-.17,.23-.34,.48-.61,.59,.26-.13,.41-.39,.55-.62,1.31-2.85,1.89-6.04,3.95-8.52,1.56-1.79,3.36-3.25,5.57-4.26,2.13-.88,4.46-.8,6.54-1.69,.73-.3,1.42-.65,2.06-1.09,.2-.14,.43-.31,.55-.43,.41-.38,1.05-.36,1.44,.05,.25,.27,.32,.63,.23,.96-.74,3.11-1.41,6.34-2.04,9.52-.65,3.21-.91,6.77-2.72,9.6-2.65,4.5-6.02,8.4-11.52,9.02-1.7,.18-3.38,.1-5.05-.38l.25-.8h0Z"/><path class="cls-9" d="M218.75,67.72l3.96,4.82c.43,.53,.52,1.22,.29,1.82l-4.58,11.71c-.19,.48-.55,.83-.99,1.02l-16.75,7.08,.75-2.82,4.48,5.85c.3,.39,.42,.85,.37,1.3l-.85,8.95-.45-1.4c1.82,2.02,3.67,4.21,5.79,5.89,.1,.07,.24,.14,.14,.1-.03-.01-.09-.04-.21-.06-.02,0-.09-.01-.13-.02h.01l.38,.02c2.97,.14,7.04,.64,10.01,.87,.96,.09,1.68,.92,1.65,1.88l-.36,10.67-.87-1.6s7.4,4.49,7.4,4.49c.6,.36,.91,1.03,.85,1.68l-.88,9.98c-.11,1.64-2.36,2.2-3.23,.84-2.5-3.5-6.29-6.32-10.49-7.32-9.17-2.07-17.41,4.27-23.51,10.56-11.17,11.22-14.87,23.33-2.33,35.28,6.77,6.39,15.41,10.9,24.09,14.18l-.39-.07c3.63,.05,7.34-.11,10.97-.48,4.77-.6,14.3-1.7,16.33-6.54,.13-.4,.19-.66,.22-1.11,.34-3.66,.65-7.35,.64-11.03,.08-.8-.39-1.91,.54-2.29l3.63-1.45c.46-.2,1.01,.02,1.2,.49,.24,3.74,.08,7.52,0,11.27-.11,1.66-.33,12.38-2.57,11.28-.28-.17-.39-.53-.26-.82,1.35-3.32,2.4-6.83,3.02-10.38,.66-4.25,1.05-9.31-1.97-12.76-4.49-4.77-11.62-6.07-17.31-2.57,4.61-3.15,11.1-2.99,15.62,.35,3.46,2.16,4.88,5.62,5.02,9.58,.21,5.59-1.24,11.06-3.15,16.28l-1.17-.61c.17-.28,.3-.69,.41-1.09,.7-3.04,.71-6.2,.8-9.32,.05-3.61-.03-7.24-.18-10.84l1.26,.81-3.6,1.53,.59-.99c.25,3.8-.05,7.55-.29,11.33l-.11,1.4c-.06,1.62-.93,3.29-2.08,4.36-5.61,5.31-20.43,6.29-27.98,6.11-14.46-5.22-35.86-16.79-34.09-34.79,.84-7.63,5.71-13.96,10.8-19.37,9.98-10.86,24.43-17.92,36.74-5.98,.95,.95,1.79,1.89,2.57,3.02l-3.25,.82,.84-9.99,.86,1.69-7.41-4.46c-.58-.35-.89-.97-.87-1.6l.32-10.68,1.65,1.88c-2.96-.2-7.2-.72-10.09-.83-1.23,0-2.19-.91-3.02-1.61-1.93-1.76-3.62-3.62-5.34-5.56-.35-.4-.49-.9-.45-1.38,0-.01,.87-8.95,.87-8.97l.37,1.3-4.47-5.86c-.74-.93-.35-2.38,.75-2.82l16.76-7.04-.99,1.02,4.6-11.7,.29,1.82-3.96-4.82c-1.45-1.81,1.19-4.14,2.8-2.3h0Z"/><line class="cls-5" x1="366.97" y1="214.31" x2="306.97" y2="214.31"/><line class="cls-5" x1="295.28" y1="214.31" x2="275.22" y2="214.31"/><line class="cls-5" x1="362.85" y1="47.01" x2="302.85" y2="47.01"/><line class="cls-5" x1="109.79" y1="214.31" x2="49.79" y2="214.31"/><line class="cls-5" x1="109.79" y1="48.83" x2="49.79" y2="48.83"/><line class="cls-5" x1="183.99" y1="214.31" x2="123.99" y2="214.31"/><line class="cls-5" x1="289.72" y1="47.01" x2="229.72" y2="47.01"/><line class="cls-5" x1="414.62" y1="130.21" x2="354.62" y2="130.21"/><line class="cls-5" x1="405.28" y1="172.01" x2="345.28" y2="172.01"/><line class="cls-5" x1="62.69" y1="130.21" x2="2.69" y2="130.21"/><line class="cls-5" x1="31.33" y1="173.73" x2="12.64" y2="173.73"/><line class="cls-5" x1="405.21" y1="90.54" x2="386.52" y2="90.54"/><line class="cls-5" x1="376.31" y1="90.54" x2="337.2" y2="90.54"/><line class="cls-5" x1="318.52" y1="90.54" x2="299.83" y2="90.54"/><line class="cls-5" x1="393.97" y1="74.74" x2="375.28" y2="74.74"/><line class="cls-5" x1="31.33" y1="90.54" x2="12.64" y2="90.54"/><line class="cls-5" x1="70.36" y1="173.73" x2="50.3" y2="173.73"/><line class="cls-5" x1="102.14" y1="187.29" x2="82.08" y2="187.29"/><line class="cls-5" x1="319.2" y1="187.29" x2="299.14" y2="187.29"/><line class="cls-5" x1="352.03" y1="187.29" x2="331.97" y2="187.29"/><line class="cls-5" x1="96.04" y1="90.43" x2="75.97" y2="90.43"/><line class="cls-5" x1="126.11" y1="90.43" x2="106.05" y2="90.43"/></svg>