<?xml version="1.0" encoding="UTF-8"?><svg id="Layer_1" xmlns="http://www.w3.org/2000/svg" viewBox="0 0 300 300"><defs><style>.cls-1{fill:#fff;fill-rule:evenodd;}</style></defs><path class="cls-1" d="M229.07,103.72c-9.22-1.26-17.18-6.29-23.89-13.83-7.96-8.8-12.57-20.54-12.15-31.85h-33.11V190.05c0,15.51-12.57,28.08-28.5,28.08-9.22,0-17.6-4.61-23.05-11.73-3.35-4.61-5.03-10.48-5.03-16.34,0-15.51,12.57-28.08,28.08-28.08,2.93,0,5.87,.42,8.38,1.26v-33.53c-2.51-.42-5.45-.84-8.38-.84h-1.26c-33.53,.84-59.93,28.08-59.93,61.19,0,15.93,6.29,30.59,16.34,41.49,11.32,11.73,27.24,19.28,44.84,19.28,33.95,0,61.61-27.24,61.61-60.77V121.32c12.57,11.32,28.92,16.76,45.68,15.51v-33.11c-3.35,.84-6.71,.84-9.64,0Z"/></svg>